<svg xmlns="http://www.w3.org/2000/svg" id="drawingSvg" version="1.1" width="100%" height="100%"><g id="18"><path d="M 261.38217991831226 39.76782008168777 Q 261.38217991831226 39.76782008168777 261.62340337941805 40.10364965004179 261.86462684052384 40.43947921839581 261.9859880343268 40.834753449541 262.10734922812975 41.23002768068618 262.0961416056025 41.64336125827936 262.0849339830752 42.05669483587255 261.94233098525484 42.444811625230265 261.7997279874345 42.83292841458798 261.5406601858364 43.15519248541159 261.2815923842382 43.4774565562352 260.93318424607685 43.700126775240015 260.58477610791556 43.922796994244834 260.1835060572273 44.022559730721824 259.7822360065391 44.12232246719882 259.37011712355604 44.088732536304036 258.95799824057303 44.05514260540926 258.57817948113234 43.89171688177427 258.19836072169164 43.72829115813929 257.89060921016915 43.45214035816888 257.5828576986466 43.175989558198474 257.3793950995372 42.816026743546274 257.17593250042773 42.456063928894075 257.09806140156707 42.04997730127513 257.0201903027064 41.64389067365618 257.0760638287012 41.23419761017865 257.131937354696 40.824504546701114 257.31570553262543 40.454100019259556 257.4994737105548 40.083695491818 257.7918959636795 39.79136095221285 258.08431821680426 39.4990264126077 258.4547778580302 39.31536936430444 258.82523749925605 39.13171231600118 259.2349473063549 39.07596170043791 259.64465711345383 39.02021108487464 260.0507203614696 39.09820400621757 260.45678360948534 39.17619692756051 260.8166853691604 39.379767506356906 261.1765871288354 39.5833380851533 261.452645590927 39.891172428065765 261.72870405301853 40.19900677097823 261.8920158236732 40.578874541043454 262.0553275943279 40.95874231110868 262.08879388804803 41.370871252525475 262.12226018176824 41.78300019394227 262.0223770687672 42.18424029775284 261.92249395576613 42.585480401563395 261.6997192243416 42.93382172298165 261.476944492917 43.28216304439991 261.15460271625597 43.54113415512019 260.8322609395949 43.80010526584048 260.4441013868037 43.94259182220864 260.0559418340126 44.0850783785768 259.64260491273274 44.096162000528295 259.22926799145284 44.107245622479795 258.8340301864526 43.98576585187051 258.43879238145234 43.864286081261234 258.1030351952479 43.62296188214151 257.7672780090435 43.38163768302178 257.7675490453656 43.381908800667006 257.7678200816877 43.38217991831223 257.50066828958825 43.20012223684327 257.23351649748884 43.0180645553743 257.0176987574713 42.777361870516984 256.8018810174538 42.53665918565966 256.6499406667082 42.251301148767254 256.49800031596254 41.96594311187486 256.41876813481304 41.65251474545905 256.33953595366347 41.339086379043245 256.3376169202012 41.01580415448649 256.33569788673884 40.69252192992973 256.41120353527873 40.378175025312615 256.4867091838186 40.0638281206955 256.63525112252 39.77668639288389 256.7837930612214 39.48954466507229 256.9967380256277 39.246296804777906 257.20968299003397 39.003048944483524 257.4746546088087 38.81783252877562 257.73962622758347 38.63261611306771 258.04122433779384 38.51619592872959 258.3428224480042 38.39977574439146 258.66351815331427 38.35891813800683 258.9842138586243 38.3180605316222 259.3053683095736 38.355140149193815 259.6265227605229 38.392219766765436 259.92947044533287 38.505081539177866 260.23241813014283 38.617943311590295 260.8072990242275 39.192881696639034" stroke-opacity="0" fill="black" /></g><g id="18"><path d="M 728.3821799183122 3.7678200816876775 Q 728.3821799183122 3.7678200816876775 728.623403379418 4.103649650041678 728.8646268405238 4.43947921839568 728.9859880343267 4.834753449540854 729.1073492281298 5.230027680686029 729.0961416056025 5.6433612582792145 729.0849339830753 6.0566948358724 728.942330985255 6.4448116252301215 728.7997279874346 6.832928414587843 728.5406601858365 7.155192485411465 728.2815923842384 7.4774565562350865 727.9331842460771 7.700126775239923 727.5847761079158 7.922796994244759 727.1835060572275 8.022559730721774 726.7822360065393 8.122322467198789 726.3701171235563 8.088732536304034 725.9579982405733 8.05514260540928 725.5781794811326 7.891716881774317 725.1983607216919 7.7282911581393545 724.8906092101693 7.452140358168965 724.5828576986468 7.175989558198575 724.3793950995373 6.8160267435463915 724.1759325004278 6.456063928894207 724.0980614015672 6.049977301275266 724.0201903027065 5.643890673656326 724.0760638287013 5.234197610178791 724.131937354696 4.824504546701256 724.3157055326253 4.45410001925969 724.4994737105548 4.0836954918181245 724.7918959636795 3.7913609522129574 725.0843182168041 3.499026412607791 725.4547778580301 3.31536936430451 725.825237499256 3.1317123160012295 726.2349473063548 3.075961700437939 726.6446571134537 3.020211084874649 727.0507203614695 3.0982040062175584 727.4567836094852 3.176196927560468 727.8166853691603 3.3797675063568438 728.1765871288353 3.5833380851532195 728.4526455909269 3.8911724280656657 728.7287040530184 4.199006770978112 728.8920158236731 4.578874541043324 729.0553275943279 4.958742311108535 729.088793888048 5.370871252525329 729.1222601817683 5.783000193942122 729.0223770687672 6.184240297752687 728.9224939557662 6.585480401563253 728.6997192243416 6.933821722981522 728.4769444929171 7.282163044399791 728.1546027162561 7.541134155120092 727.8322609395951 7.8001052658403935 727.4441013868039 7.942591822208577 727.0559418340127 8.08507837857676 726.6426049127328 8.096162000528281 726.2292679914531 8.107245622479802 725.8340301864528 7.985765851870542 725.4387923814526 7.864286081261282 725.1030351952481 7.622961882141577 724.7672780090436 7.3816376830218715 724.7675490453657 7.381908800667097 724.7678200816879 7.382179918312323 724.5006682895885 7.200122236843377 724.233516497489 7.018064555374431 724.0176987574714 6.777361870517125 723.8018810174539 6.536659185659819 723.6499406667083 6.251301148767428 723.4980003159626 5.965943111875037 723.418768134813 5.652514745459236 723.3395359536635 5.339086379043435 723.3376169202011 5.015804154486679 723.3356978867388 4.692521929929923 723.4112035352787 4.3781750253128005 723.4867091838186 4.063828120695678 723.6352511225199 3.7766863928840637 723.7837930612212 3.489544665072449 723.9967380256276 3.246296804778049 724.2096829900338 3.0030489444836492 724.4746546088086 2.8178325287757264 724.7396262275832 2.632616113067803 725.0412243377937 2.516195928729657 725.342822448004 2.3997757443915106 725.663518153314 2.358918138006854 725.9842138586241 2.318060531622197 726.3053683095734 2.355140149193792 726.6265227605227 2.3922197667653875 726.9294704453326 2.5050815391777945 727.2324181301426 2.6179433115902015 727.8072990242274 3.1928816966389393" stroke-opacity="0" fill="black" /></g><g id="18"><path d="M 392.67905491831226 63.76782008168777 Q 392.67905491831226 63.76782008168777 392.92027837941805 64.10364965004179 393.16150184052384 64.4394792183958 393.2828630343268 64.83475344954098 393.40422422812975 65.23002768068618 393.3930166056025 65.64336125827936 393.3818089830752 66.05669483587255 393.23920598525484 66.44481162523027 393.0966029874345 66.83292841458798 392.8375351858364 67.15519248541159 392.5784673842382 67.4774565562352 392.23005924607685 67.70012677524002 391.88165110791556 67.92279699424483 391.4803810572273 68.02255973072182 391.0791110065391 68.12232246719881 390.66699212355604 68.08873253630404 390.25487324057303 68.05514260540926 389.87505448113234 67.89171688177427 389.49523572169164 67.72829115813929 389.18748421016915 67.45214035816888 388.8797326986466 67.17598955819847 388.6762700995372 66.81602674354627 388.47280750042773 66.45606392889408 388.39493640156707 66.04997730127513 388.3170653027064 65.64389067365619 388.3729388287012 65.23419761017865 388.428812354696 64.82450454670112 388.61258053262543 64.45410001925956 388.7963487105548 64.083695491818 389.0887709636795 63.791360952212855 389.38119321680426 63.4990264126077 389.7516528580302 63.31536936430444 390.12211249925605 63.13171231600118 390.5318223063549 63.07596170043791 390.94153211345383 63.02021108487464 391.3475953614696 63.09820400621757 391.75365860948534 63.17619692756051 392.1135603691604 63.379767506356906 392.4734621288354 63.5833380851533 392.749520590927 63.891172428065765 393.02557905301853 64.19900677097823 393.1888908236732 64.57887454104346 393.3522025943279 64.95874231110868 393.38566888804803 65.37087125252548 393.41913518176824 65.78300019394227 393.3192520687672 66.18424029775284 393.21936895576613 66.5854804015634 392.9965942243416 66.93382172298166 392.773819492917 67.28216304439991 392.45147771625597 67.5411341551202 392.1291359395949 67.80010526584049 391.7409763868037 67.94259182220864 391.3528168340126 68.08507837857681 390.93947991273274 68.0961620005283 390.52614299145284 68.1072456224798 390.1309051864526 67.98576585187051 389.73566738145234 67.86428608126123 389.3999101952479 67.62296188214151 389.0641530090435 67.38163768302178 389.0644240453656 67.381908800667 389.0646950816877 67.38217991831223 388.79754328958825 67.20012223684327 388.53039149748884 67.01806455537431 388.3145737574713 66.77736187051698 388.0987560174538 66.53665918565966 387.9468156667082 66.25130114876725 387.79487531596254 65.96594311187485 387.71564313481304 65.65251474545904 387.63641095366347 65.33908637904324 387.6344919202012 65.01580415448649 387.63257288673884 64.69252192992973 387.70807853527873 64.37817502531261 387.7835841838186 64.0638281206955 387.93212612252 63.776686392883896 388.0806680612214 63.48954466507229 388.2936130256277 63.246296804777906 388.50655799003397 63.003048944483524 388.7715296088087 62.81783252877562 389.03650122758347 62.63261611306771 389.33809933779384 62.51619592872959 389.6396974480042 62.39977574439146 389.96039315331427 62.35891813800683 390.2810888586243 62.3180605316222 390.6022433095736 62.355140149193815 390.9233977605229 62.392219766765436 391.22634544533287 62.505081539177866 391.52929313014283 62.617943311590295 392.1041740242275 63.192881696639034" stroke-opacity="0" fill="black" /></g><g id="18"><path d="M 283.94061644645166 23.425034214193353 Q 283.94061644645166 23.425034214193353 285.0887458639121 23.718109621925834 286.2368752813726 24.011185029658314 287.9151986210891 24.124460268037048 289.5935219608056 24.237735506415778 291.0775311272317 24.21128588759465 292.56154029365774 24.184836268773523 294.2565725555263 24.63487456748104 295.95160481739487 25.084912866188564 297.28223065841496 25.067174580119904 298.61285649943505 25.04943629405124 299.93265399483516 25.058468778653097 301.2524514902352 25.067501263254954 302.8675510871727 25.479893806033843 304.48265068411024 25.892286348812732 305.8170422857876 25.952142516206465 307.151433887465 26.011998683600194 308.473169164389 26.384100202145852 309.79490444131295 26.756201720691514 311.15293286941505 26.879573098206013 312.51096129751716 27.00294447572051 313.74201429618677 27.394587925973592 314.9730672948563 27.786231376226674 316.49562540376394 27.90756759772367 318.0181835126715 28.02890381922067 319.9504979347139 28.076780206997256 321.88281235675635 28.12465659477384 323.2485358626526 28.479677255482763 324.61425936854886 28.834697916191686 326.29103733911666 28.967328855590466 327.9678153096844 29.099959794989243 330.31463705532406 29.1647752300548 332.6614588009637 29.229590665120362 335.02317598477055 29.262238725259444 337.3848931685773 29.29488678539853 338.83484430237104 29.63103979487306 340.28479543616476 29.967192804347597 342.1025032042754 30.10029091759229 343.92021097238614 30.23338903083698 345.1721118574814 30.271167483178996 346.4240127425767 30.30894593552101 348.5866250194109 30.32191966924391 350.74923729624516 30.334893402966813 352.7777055054761 30.329404969045235 354.80617371470703 30.323916535123654 356.81127274762196 30.316836738575418 358.81637178053694 30.309756942027178 361.1873041842787 30.645317753090943 363.55823658802046 30.980878564154708 364.99999920622315 31.0911222163191 366.44176182442584 31.20136586848349 368.1821622286053 31.21930525718201 369.92256263278483 31.237244645880534 371.47054730275477 31.225864666383167 373.01853197272465 31.214484686885797 374.8697451371197 31.630863859607217 376.7209583015147 32.04724303232864 378.56920772054093 32.068859903211184 380.4174571395671 32.09047677409373 380.9704476281464 32.08531080326068 381.5234381167257 32.08014483242763 381.8714898963474 32.127728603680694 382.219541675969 32.17531237493377 382.5460911654791 32.30481020304382 382.8726406549891 32.434308031153876 383.15870878271426 32.63819349626672 383.4447769104395 32.84207896137957 383.6737373833556 33.108502230683335 383.90269785627174 33.3749254999871 384.0612434809352 33.688402040552006 384.2197891055987 34.00187858111691 384.2987052028549 34.34418912167669 384.3776213001111 34.68649966223647 384.37232126267963 35.0377490980904 384.36702122524815 35.38899853394434 384.2778130915535 35.72877223137721 384.1886049578589 36.06854592881007 384.0206735088229 36.37709622456287 383.85274205978686 36.68564652031567 383.61584747911763 36.94504045670209 383.3789528984484 37.204434393088505 383.08686351030497 37.399595982338184 382.7947741221615 37.594757571587856 382.46446617550646 37.71434401296398 382.1341582288514 37.83393045434009 381.78482923706383 37.870991378251134 381.4355002452762 37.90805230216217 380.28100028881573 38.4199039131358 379.12650033235525 38.93175552410943 377.3860405016142 38.94118306506501 375.6455806708732 38.9506106060206 373.6985491706825 38.935044255713706 371.7515176704918 38.919477905406815 370.17090556408965 38.92210056336479 368.5902934576875 38.92472322132278 366.36715666131886 38.88731249898362 364.1440198649503 38.84990177664446 362.6928198784192 38.50358414706671 361.24161989188815 38.157266517488964 359.04753276092987 37.98548980598393 356.8534456299716 37.813713094478906 355.2721264433642 37.443759145346576 353.69080725675684 37.073805196214245 351.4375040097452 36.89302402373688 349.1842007627336 36.71224285125951 346.72463849428414 36.66003497113455 344.26507622583466 36.6078270910096 342.5901673131053 36.26620216561473 340.915258400376 35.92457724021986 338.5604848053755 35.75989237723728 336.20571121037494 35.5952075142547 334.7801202860268 35.246646372308035 333.35452936167854 34.89808523036137 331.2444185717224 34.75292872730516 329.13430778176627 34.60777222424895 325.8976126635192 34.24767521115538 322.66091754527224 33.88757819806182 322.28479052798997 33.73414507939932 321.9086635107077 33.58071196073682 321.60121972613615 33.315209466660974 321.2937759415646 33.04970697258512 321.08720483510575 32.69993328431152 320.8806337286469 32.35015959603792 320.7965633496764 31.95273611106009 320.7124929707059 31.555312626082266 320.7597255100944 31.151849688187006 320.80695804948294 30.748386750291747 320.98054824788835 30.381127035580562 321.1541384462937 30.013867320869373 321.43591136411953 29.72126301841967 321.71768428194537 29.428658715969966 322.0781382203145 29.241345573488264 322.4385921586836 29.05403243100656 322.8399874950981 28.991622183956565 323.2413828315126 28.929211936906565 323.64169336829184 28.99823895462911 324.0420039050711 29.067265972351656 324.39931702334263 29.26050310786983 324.7566301416141 29.453740243388005 325.03353506357325 29.75095551760341 325.31043998553247 30.04817079181881 325.4779446927545 30.418245687063873 325.6454493999764 30.788320582308934 325.68601610539804 31.192508159361218 325.7265828108197 31.596695736413498 325.6359641696748 31.99267744926047 325.54534552853 32.38865916210744 325.33302933646746 32.734975620884995 325.12071314440493 33.08129207966255 324.8089289627797 33.34168385971802 324.4971447811545 33.60207563977349 324.11853649608577 33.74927965299831 323.73992821101706 33.89648366622313 323.33413620989444 33.91508761357458 322.9283442087718 33.93369156092602 322.5378550212315 33.82174760420543 322.14736583369114 33.70980364748484 321.8130637807477 33.4790323485112 321.47876172780434 33.24826104953755 321.2356483226482 32.92282422423109 320.99253491749204 32.59738739892464 320.8660641978187 32.21135836880194 320.73959347814537 31.825329338679246 320.7430069616897 31.41912544509592 320.746420445234 31.01292155151259 320.87936073936777 30.629072449354222 321.01230103350156 30.245223347195854 321.26084925433616 29.92391813878475 321.5093974751708 29.602612930373645 321.8475305583745 29.37749235584678 322.18566364157823 29.152371781319914 322.5779789640811 29.047006024256316 322.9702942865841 28.941640267192717 323.375716330559 28.9670611501708 323.7811383745339 28.99248203314888 323.7807712423188 28.99239801658606 323.78040411010363 28.992314000023235 326.564758196351 29.27501745698072 329.34911228259847 29.5577209139382 330.76660836977464 29.614149026888953 332.1841044569508 29.670577139839708 334.30590513838445 30.115596561619842 336.42770581981813 30.560615983399977 337.8708122384079 30.605960655774282 339.3139186569977 30.651305328148585 341.81810976456967 31.036669288516524 344.3223008721416 31.422033248884464 346.8621246338772 31.437553579142055 349.4019483956128 31.453073909399645 350.84978547720937 31.496158398844962 352.29762255880587 31.539242888290282 353.5930830893536 31.69034309699763 354.88854361990144 31.841443305704974 357.2053883175686 32.1366564885339 359.52223301523577 32.43186967136283 361.85577626297663 32.79094901550504 364.18931951071755 33.15002835964725 366.3893689972218 33.11245917481402 368.58941848372604 33.07488998998079 370.168315209838 33.07663534693356 371.74721193594996 33.07838070388632 373.68327431819046 33.057957323792735 375.61933670043095 33.03753394369915 377.4855643283967 33.52928486054644 379.3517919563625 34.02103577739373 380.4374693386381 33.05058812103367 381.5231467209137 32.08014046467361 381.8712032571723 32.127689430510856 382.2192597934308 32.17523839634811 382.5458222310909 32.30470356886177 382.87238466875095 32.43416874137544 383.15847318359226 32.63802559865613 383.4445616984336 32.841882455936826 383.67354881253175 33.108282827861224 383.90253592663 33.37468319978562 384.06111289815476 33.68814388422071 384.21968986967954 34.001604568655786 384.29864019759515 34.343907215894305 384.37759052551075 34.68620986313282 384.37232561304927 35.037459827234244 384.36706070058784 35.38870979133567 384.27788654470896 35.728492407883024 384.1887123888301 36.06827502443037 384.02081179566323 36.3768421117853 383.8529112024964 36.68540919914023 383.61604256240526 36.944826823687706 383.3791739223141 37.20424444823517 383.08710405179 37.399435245447805 382.79503418126586 37.594626042660444 382.46473819490643 37.71424551423324 382.13444220854706 37.83386498580604 381.78511692459847 37.87096084243089 381.43579164064994 37.90805669905574 380.24038332858044 37.87665757502992 379.04497501651093 37.84525845100409 377.4604600117666 37.72060629125614 375.87594500702227 37.595954131508186 374.44180867911246 37.188230008643984 373.0076723512027 36.780505885779775 371.43791933720854 36.757763693072306 369.86816632321444 36.735021500364844 367.9567317988732 36.69005590243306 366.0452972745319 36.645090304501274 364.0616762054225 36.40707105490618 362.0780551363131 36.169051805311085 360.4468633196417 35.92945468275834 358.81567150297036 35.689857560205596 356.809010146055 35.68190339069399 354.8023487891396 35.67394922118239 352.76570757370445 35.66361996808645 350.7290663582693 35.653290714990504 348.5312112321078 35.63946406574116 346.33335610594634 35.62563741649181 343.8798954163558 35.55787612293065 341.42643472676525 35.490114829369496 339.38177487368705 35.09507203346048 337.3371150206088 34.700029237551476 336.0342116554813 34.721855741148346 334.7313082903538 34.743682244745216 332.53842654765776 34.74234719313064 330.34554480496166 34.74101214151606 327.9082624865308 34.685862370246824 325.4709801681 34.630712598977595 323.6188288930359 34.238062980914705 321.76667761797177 33.84541336285182 319.7268036435929 33.825403443443705 317.686929669214 33.80539352403559 315.3634620539898 33.55088859848925 313.03999443876563 33.29638367294292 311.76162021014255 33.003943840489896 310.4832459815195 32.71150400803687 308.708018999592 32.317045474051085 306.93279201766455 31.922586940065298 305.2810485183469 31.834072437260865 303.6293050190293 31.745557934456436 302.3211653024997 31.336521161259338 301.0130255859701 30.92748438806224 299.2209362396335 30.90548896303011 297.4288468932968 30.883493537997975 296.15294368973537 30.75015657366201 294.877040486174 30.616819609326047 293.1998169535758 30.19904092847687 291.52259342097756 29.781262247627687 289.84022803595025 29.698344064822045 288.15786265092294 29.6154258820164 286.55736868477516 29.37712042617904 284.95687471862743 29.138814970341684 283.80500413608786 28.856890378074166 282.65313355354834 28.574965785806647 282.35436268463127 28.460520392768935 282.0555918157142 28.346074999731222 281.7928926652932 28.163452612086388 281.5301935148722 27.980830224441554 281.31883416991263 27.740644863939995 281.107474824953 27.500459503438435 280.9597395005145 27.21667075451756 280.8120041760761 26.932882005596685 280.7364792561564 26.621983683677534 280.6609543362367 26.311085361758384 280.6620293327301 25.991146891918394 280.66310432922353 25.671208422078404 280.7407167632833 25.360824643216915 280.818329197343 25.05044086435543 280.96796823065495 24.767651296283198 281.11760726396693 24.484861728210966 281.33057586888424 24.246102113911157 281.54354447380155 24.007342499611347 281.8074649050001 23.826489559085136 282.07138533619866 23.645636618558925 282.370918525817 23.533201533207038 282.6704517154353 23.42076644785515 282.98818878041925 23.383283950120976 283.30592584540324 23.345801452386805 283.62339989260715 23.38545002679976 283.9408739398111 23.425098601212717 283.9407451931314 23.425066407703035" stroke-opacity="0" fill="black" /></g><g id="18"><path d="M 169.871875 116.45482272392579 Q 169.871875 116.45482272392579 170.27822697491638 116.52144290709242 170.68457894983277 116.58806309025904 171.04838576570893 116.78094848899536 171.41219258158506 116.9738338877317 171.69536356876307 117.27278934987322 171.97853455594105 117.57174481201474 172.15142163731346 117.94546962175866 172.32430871868587 118.3191944315026 172.36881057119527 118.72855950261497 172.41331242370467 119.13792457372735 172.32476969164597 119.54006927520082 172.23622695958727 119.9422139766743 172.02391009038 120.29503365210871 171.81159322117276 120.64785332754312 171.4977318470692 120.91440766378513 171.1838704729656 121.18096200002714 170.80132596268567 121.3333426877087 170.41878145240574 121.48572337539025 170.00760631715775 121.5079761162865 169.59643118190974 121.53022885718276 169.1996755668938 121.42002378344773 168.8029199518779 121.3098187097127 168.46212427471954 121.07869432165774 168.12132859756116 120.84756993360278 167.87217425562017 120.51972501566817 167.62301991367914 120.19188009773356 167.49159343232708 119.8016400993697 167.36016695097499 119.41140010100585 167.36022871750265 118.9996232530548 167.36029048403032 118.58784640510375 167.49183403146594 118.1976458522445 167.62337757890157 117.80744529938526 167.87263026310455 117.47967514250513 168.1218829473075 117.15190498562501 168.46274794644546 116.92088284667227 168.80361294558338 116.68986070771952 169.20040160426692 116.57977466562643 169.59719026295048 116.46968862353334 170.00835870387343 116.49206471596696 170.41952714479638 116.51444080840056 170.80202592365617 116.66693625257636 171.18452470251597 116.81943169675215 171.49830609619613 117.08608017941003 171.8120874898763 117.3527286620679 172.02429850362824 117.70561201668524 172.23650951738017 118.05849537130257 172.3249316020458 118.46066661749875 172.41335368671147 118.86283786369492 172.36872902668517 119.27218956583032 172.32410436665887 119.68154126796571 172.15110517562513 120.05521419476838 171.9781059845914 120.42888712157107 171.6948453235188 120.72775761896472 171.41158466244622 121.02662811635837 171.04771999732264 121.21940436437173 170.68385533219904 121.41218061238509 170.27748338951383 121.47867888696317 169.87111144682862 121.54517716154123 169.8714932234143 121.54517721880772 169.871875 121.54517727607421 169.55896034328964 121.57700122111251 169.24604568657927 121.6088251661508 168.93460813091102 121.56483659057318 168.62317057524277 121.52084801499556 168.33131088598492 121.4036035368814 168.03945119672704 121.28635905876726 167.78413227273217 121.10267293269327 167.52881334873732 120.91898680661927 167.32487433786417 120.67953487886332 167.12093532699103 120.44008295110737 166.98022917413357 120.15878217896125 166.83952302127608 119.87748140681511 166.77022757464943 119.57068100437277 166.70093212802277 119.26388060193045 166.7070748422407 118.94941182299684 166.71321755645863 118.63494304406323 166.7944414166822 118.33108282884521 166.87566527690575 118.02722261362717 167.02724954856245 117.75163133211001 167.17883382021913 117.47604005059286 167.39196841831813 117.24473508100695 167.60510301641713 117.01343011142104 167.86740054810284 116.83985490946654 168.12969807978854 116.66627970751202 168.42591380019536 116.56052247208189 168.72212952060218 116.45476523665177 169.2970022603011 116.45479398028877" stroke-opacity="0" fill="black" /></g></svg>