<svg xmlns="http://www.w3.org/2000/svg" id="drawingSvg" version="1.1" width="100%" height="100%"><g id="1"><path d="M 204.98223724502125 97.65482483001415 Q 204.98223724502125 97.65482483001415 205.54386804127972 96.7827856823861 206.1054988375382 95.91074653475805 207.73192988942424 94.34016583426272 209.35836094131028 92.7695851337674 212.02975714423428 91.80155049388623 214.70115334715825 90.83351585400507 215.98884322540417 90.49391387395455 217.27653310365008 90.15431189390404 218.6999310889322 89.73728073626994 220.1233290742143 89.32024957863584 221.60091773915735 88.86639509008936 223.0785064041004 88.41254060154286 225.09187390273814 88.20359101959065 227.10524140137585 87.99464143763842 228.9313069801767 87.68860406166183 230.75737255897758 87.38256668568526 232.53856616663347 87.22106990437689 234.31975977428934 87.0595731230685 236.08682012957536 86.75257399167646 237.85388048486138 86.44557486028441 239.9129973290597 86.31264951464723 241.97211417325803 86.17972416901006 243.99312857230302 86.14305766547503 246.014142971348 86.10639116193998 247.8859768580545 85.83096365693626 249.75781074476103 85.55553615193253 251.84071411696445 85.43221504395582 253.92361748916787 85.30889393597911 255.95792794954406 85.26595404651329 257.9922384099202 85.22301415704744 260.1876095116997 84.97222378686965 262.38298061347916 84.72143341669187 264.5694730484232 84.59798077964798 266.7559654833672 84.4745281426041 269.12917814082607 84.45728403133832 271.5023907982849 84.44003992007254 273.65723657706747 84.42040741564351 275.81208235585007 84.40077491121448 278.1665766186071 84.4207276899357 280.5210708813642 84.44068046865692 282.95887651130306 84.47119751326171 285.39668214124185 84.5017145578665 287.58256490720044 84.49264946722766 289.76844767315896 84.48358437658884 292.42257775423957 84.51980911224202 295.0767078353201 84.5560338478952 297.3550754911506 84.55233574459365 299.63344314698116 84.54863764129212 302.4001135367717 84.86766515536982 305.16678392656223 85.18669266944752 309.1330064117405 85.32532923924745 313.09922889691876 85.46396580904737 316.2355925833441 85.53025114607038 319.37195626976944 85.59653648309339 322.48840636895 85.9198806483864 325.6048564681306 86.2432248136794 328.3091400719336 86.37990222053082 331.01342367573653 86.51657962738226 333.9467821133285 86.86926674043778 336.88014055092043 87.2219538534933 339.5049646529692 87.36843815087042 342.12978875501796 87.51492244824752 344.7503925071328 87.87217866801046 347.3709962592476 88.22943488777342 350.19955326399474 88.66925347562608 353.02811026874184 89.10907206347872 355.6776423942198 89.58589909078496 358.3271745196978 90.0627261180912 362.6103495543899 90.8399604613965 366.8935245890821 91.6171948047018 370.15594711911154 92.23621488729208 373.41836964914097 92.85523496988237 376.5738158354087 93.70371754413972 379.7292620216765 94.55220011839708 382.4677394188235 95.19085699395347 385.20621681597044 95.82951386950985 387.867165800621 96.69243756782063 390.52811478527167 97.55536126613143 393.3087952527394 98.18886752891859 396.0894757202072 98.82237379170576 398.78333326831694 99.6872038249767 401.47719081642674 100.55203385824767 404.27276371168915 101.18674206414568 407.06833660695156 101.8214502700437 409.76834455981293 102.68663041426063 412.46835251267424 103.55181055847756 415.0544900837705 104.49646255758324 417.6406276548667 105.44111455668894 420.4444110236741 106.41051225702053 423.2481943924814 107.37990995735211 425.8383833942997 108.0677452887956 428.42857239611794 108.75558062023912 431.2954376466658 109.63502816915528 434.16230289721364 110.51447571807145 436.83558884143304 111.46945222204266 439.50887478565244 112.42442872601389 442.08335057272325 113.40603384998553 444.6578263597941 114.3876389739572 447.4565371348758 115.37231754418161 450.2552479099575 116.35699611440603 452.9022614002971 117.35781954492725 455.54927489063675 118.35864297544849 458.1122179237858 119.35928424791246 460.6751609569348 120.35992552037641 463.2019902115961 121.36025415037498 465.7288194662575 122.36058278037356 468.5068195588722 123.35283479899721 471.28481965148694 124.34508681762084 473.923412968804 125.34940048080233 476.56200628612095 126.35371414398381 480.56033632926324 127.93139093877222 484.5586663724056 129.50906773356064 489.13166664558685 131.32909556555907 493.7046669187681 133.1491233975575 497.0853957685091 134.49751905606013 500.46612461825015 135.84591471456278 505.93859638513425 138.14835399110012 511.4110681520184 140.4507932676375 516.6014931405889 142.5750537869057 521.7919181291594 144.69931430617387 525.3953155175413 145.8750283100308 528.9987129059233 147.05074231388772 534.3072194337688 149.00202054042728 539.6157259616141 150.9532987669668 546.7233781334237 153.20775256080904 553.8310303052333 155.46220635465127 565.7240205872707 158.13526717727547 577.6170108693082 160.80832799989963 583.5367077410195 161.9463059050224 589.4564046127309 163.08428381014517 593.6576855675861 163.56240833247898 597.8589665224413 164.0405328548128 601.0165749923844 163.9555001676686 604.1741834623276 163.87046748052438 606.4195457698636 163.80402420499854 608.6649080773994 163.73758092947267 610.3732112525527 163.3846289415589 612.081514427706 163.03167695364516 614.2733795442145 162.61027735391042 616.4652446607232 162.18887775417568 617.8827239644364 161.68429334497628 619.3002032681496 161.1797089357769 620.779661329554 160.64918971603655 622.2591193909583 160.1186704962962 623.4005254745357 159.59410072762103 624.541931558113 159.06953095894588 626.1102678708501 158.76284542923838 627.678604183587 158.45615989953092 629.0208042040758 158.07033245640739 630.3630042245645 157.68450501328385 632.2592503836014 156.78514226984095 634.1554965426383 155.88577952639804 635.9411417116744 155.13466724832824 637.7267868807104 154.38355497025844 638.8675914933592 153.56030075869688 640.0083961060081 152.73704654713532 642.9885617650989 151.24074693881374 645.9687274241896 149.7444473304922 647.6883816596367 148.58177805386998 649.4080358950838 147.41910877724774 651.1169979890011 146.53189219516582 652.8259600829184 145.6446756130839 653.9465163038516 144.7683805994702 655.0670725247847 143.89208558585648 657.1160850307649 142.6511876412004 659.1650975367451 141.4102896965443 660.4957184525233 140.33232443764985 661.8263393683017 139.25435917875535 662.9362521748861 138.21663746095544 664.0461649814706 137.17891574315556 665.0759141272222 136.15242626966366 666.1056632729736 135.12593679617177 667.2221218081759 134.2834808480693 668.3385803433781 133.44102489996686 670.4583447574855 131.20678224050695 672.5781091715928 128.97253958104704 674.0467622021163 127.44959846892013 675.5154152326396 125.9266573567932 676.6914612606745 124.68910197956131 677.8675072887092 123.45154660232942 679.5209530810519 121.66904986806061 681.1743988733946 119.88655313379181 682.913624183079 117.84785737930963 684.6528494927635 115.80916162482744 685.3558377367176 114.69404567275967 686.0588259806718 113.5789297206919 687.1526291823128 111.87779666003932 688.2464323839538 110.17666359938674 689.2767984464623 108.43525227346606 690.3071645089708 106.6938409475454 690.8061585651737 105.21737618704285 691.3051526213767 103.74091142654031 692.0717012723578 102.56286826417409 692.8382499233388 101.38482510180785 693.5123811818642 99.6222620871406 694.1865124403896 97.85969907247336 694.7383704880635 96.6248196236086 695.2902285357376 95.38994017474384 695.7543682643216 93.88751042987036 696.2185079929056 92.38508068499686 696.6660742687666 90.43068706393845 697.1136405446274 88.47629344288005 697.6039967445806 87.22079493767549 698.094352944534 85.96529643247095 698.2892471082719 85.55628886895275 698.4841412720099 85.14728130543453 698.7994334510415 84.82191725715067 699.1147256300733 84.49655320886681 699.5174046500251 84.2888983775604 699.9200836699769 84.08124354625397 700.3679889311629 84.01303944757834 700.8158941923489 83.9448353489027 701.2621298956874 84.0232229699933 701.7083655990258 84.10161059108391 702.1062107485825 84.31838272732026 702.5040558981391 84.5351548635566 702.8118560017344 84.86761541505246 703.1196561053298 85.20007596654831 703.3051844108661 85.61341622580099 703.4907127164023 86.02675648505368 703.534544361315 86.47769961780821 703.5783760062278 86.92864275056273 703.4759218057244 87.36997489178228 703.373467605221 87.81130703300181 703.1354545411393 88.19682059100032 702.8974414770576 88.58233414899881 702.5487895800363 88.87166575248813 702.200137683015 89.16099735597744 701.7773508987075 89.32385390969613 701.3545641144 89.48671046341481 700.901908330728 89.50604084319855 700.4492525470561 89.5253712229823 700.0141209440598 89.39915153296502 699.5789893410634 89.27293184294776 699.20694031244 89.01437731799302 698.8348912838165 88.7558227930383 698.5648784610742 88.39200416016067 698.2948656383319 88.02818552728301 698.1551594352884 87.59719469338353 698.0154532322448 87.16620385948403 698.0206809252375 86.7131656786425 698.0259086182302 86.26012749780098 698.1755228664229 85.832475187142 698.3251371146155 85.404822876483 698.603473266728 85.0473317458218 698.8818094188405 84.68984061516058 699.2597256062732 84.43994008024588 699.6376417937057 84.19003954533117 700.0755700918739 84.07389425813588 700.5134983900422 83.95774897094057 700.9655875905261 83.9875193736934 701.41767679101 84.01728977644625 701.8365930351788 84.18985890012036 702.2555092793477 84.36242802379448 702.597391925854 84.65972783558738 702.9392745723603 84.95702764738029 703.1683284178664 85.34793077851774 703.3973822633726 85.73883390965517 703.4896253097899 86.18241269911866 703.5818683562071 86.62599148858214 703.5276427322258 87.07580312002142 703.4734171082445 87.52561475146068 703.4735341321193 87.52521132164537 703.473651155994 87.52480789183008 702.4790643729671 90.07309832106813 701.4844775899402 92.62138875030618 700.998565333486 93.90615096840553 700.5126530770318 95.19091318650487 699.8427515468059 96.91979506190317 699.17285001658 98.64867693730147 698.5396394808467 99.96545965541915 697.9064289451134 101.28224237353683 697.4457035773831 102.6369035093787 696.9849782096529 103.99156464522056 695.9999213867272 105.44286377725648 695.0148645638016 106.89416290929239 694.6014177570582 108.1297705686833 694.187970950315 109.3653782280742 693.1579954680552 110.94167683162982 692.1280199857954 112.51797543518542 690.8877523513485 114.2228489045053 689.6474847169015 115.92772237382518 688.7988596092143 117.18475342687191 687.950234501527 118.44178447991864 686.0435136460122 120.63317582460968 684.1367927904975 122.8245671693007 682.397457045405 124.4854592193819 680.6581213003124 126.14635126946308 679.4838572562146 127.3426679819732 678.309593212117 128.5389846944833 676.9539872493876 130.03691908763165 675.5983812866582 131.53485348078 674.2222850377768 133.1891920307026 672.8461887888953 134.84353058062518 670.7813546903922 136.36573317931496 668.716520591889 137.88793577800473 667.5965705874005 138.90024245763223 666.4766205829119 139.91254913725973 665.2343000948139 140.9661124856231 663.9919796067159 142.01967583398653 662.4938162997121 143.15649896606448 660.9956529927082 144.2933220981424 659.0945849744949 145.55780860283323 657.1935169562815 146.82229510752404 655.7844719438183 147.782198798256 654.375426931355 148.74210248898794 652.8382684761044 149.46947109360167 651.3011100208538 150.1968396982154 649.4416570817882 151.48025321381823 647.5822041427225 152.76366672942103 644.8468235088421 154.31697369104074 642.1114428749618 155.87028065266048 640.6274326806197 156.81080660566664 639.1434224862775 157.7513325586728 637.4589151682758 158.4444089031153 635.7744078502742 159.13748524755778 633.5644128633402 160.28327220414383 631.3544178764062 161.42905916072988 628.6101797708301 161.90935350992652 625.865941665254 162.3896478591232 624.5773796352266 162.85216964384767 623.2888176051991 163.3146914285722 621.7565859875334 163.75379939330162 620.2243543698677 164.19290735803105 618.6143285463572 164.61685750052527 617.0043027228468 165.0408076430195 614.7785087164764 165.4512540472697 612.5527147101059 165.86170045151994 610.631231713779 166.11309200239435 608.709748717452 166.36448355326874 606.4732612097405 166.3670838984209 604.236773702029 166.36968424357303 600.9076767243312 166.4471071344947 597.5785797466333 166.52453002541637 593.2817302364506 166.03196179025812 588.9848807262679 165.53939355509988 583.026623562596 164.3933885014178 577.0683663989241 163.24738344773573 565.0720530682952 160.54636672023088 553.0757397376663 157.845349992726 545.9144422326137 155.57256249214694 538.7531447275612 153.2997749915679 533.4876520157311 151.36342664299855 528.2221593039011 149.42707829442918 524.5337937753997 148.220141533324 520.8454282468982 147.0132047722188 515.6434699016254 144.88416937392907 510.44151155635257 142.75513397563935 504.9907284200759 140.4615828579228 499.5399452837992 138.1680317402062 496.16007436139716 136.81997941222903 492.78020343899516 135.47192708425183 488.21061601301625 133.65325377159186 483.64102858703734 131.8345804589319 479.6567993380381 130.26237220746526 475.67257008903886 128.69016395599866 473.058082718964 127.69474809858005 470.4435953488892 126.69933224116146 467.62611147117013 125.69222068190251 464.8086275934511 124.68510912264358 462.28725927085657 123.68693521644786 459.765890948262 122.68876131025215 457.2154279172794 121.69292602696484 454.66496488629684 120.69709074367752 452.0451405786797 119.7062046312546 449.4253162710626 118.71531851883165 446.5961734038932 117.71950404683449 443.7670305367238 116.72368957483732 441.21714481261563 115.75119342299351 438.6672590885074 114.77869727114971 436.0479297123056 113.84167077320217 433.4286003361037 112.90464427525464 430.6069589503663 112.03820240789139 427.7853175646288 111.17176054052815 425.10843212812875 110.4575031277848 422.4315466916287 109.74324571504147 419.60691961733403 108.76654284081577 416.78229254303943 107.78983996659008 414.2427584833075 106.86131414320803 411.7032244235756 105.932788319826 409.10753442154703 105.09637358760122 406.5118444195185 104.25995885537645 403.6116574209225 103.59679676376459 400.71147042232644 102.9336346721527 398.1211870437104 102.09759341716509 395.5309036650943 101.26155216217748 392.64301724614825 100.59889068788564 389.75513082720227 99.9362292135938 387.1959224320558 99.1022876481893 384.6367140369094 98.26834608278479 381.8571740698279 97.62026116136403 379.0776341027465 96.97217623994325 376.01421590259463 96.14597223307791 372.9507977024427 95.31976822621256 369.6982452056023 94.70423164733765 366.4456927087619 94.08869506846273 362.16422062140737 93.31403138479108 357.8827485340529 92.53936770111943 355.2625227253035 92.07055231200933 352.642296916554 91.60173692289922 349.8361293701777 91.1694557074193 347.0299618238014 90.73717449193937 344.5100372203317 90.39537235091981 341.99011261686195 90.05357020990024 339.28428176459414 89.90815248190674 336.57845091232633 89.76273475391322 333.7337976927028 89.42859357197905 330.8891444730793 89.09445239004488 328.11575358931645 88.96800439692055 325.3423627055537 88.8415564037962 322.3348728339913 88.54578198091095 319.3273829624289 88.25000755802569 316.17212318828246 88.2124844522763 313.016863414136 88.1749613465269 308.9439718744396 88.06934275686237 304.8710803347432 87.96372416719782 302.25160007776987 87.7080336590062 299.6321198207965 87.45234315081458 297.3548388960061 87.4493085245264 295.0775579712156 87.44627389823823 292.4242796273056 87.4840597562758 289.7710012833956 87.52184561431336 287.58651128467056 87.51645375281424 285.40202128594547 87.51106189131511 282.9683615872168 87.55022182801336 280.5347018884882 87.58938176471162 278.1916306720278 87.62967076012333 275.8485594555674 87.66995975553505 273.7150158714853 87.69817717273071 271.5814722874032 87.72639458992637 269.2761217381216 87.82173852954222 266.97077118884005 87.91708246915806 264.9135854902772 88.0585428930121 262.85639979171435 88.20000331686614 260.47841057936 88.57253779585994 258.10042136700565 88.94507227485373 256.1385899117728 89.01583791285046 254.17675845653994 89.08660355084717 252.26873967436921 89.23082486042942 250.3607208921985 89.37504617001167 248.25391441567172 89.72913023573489 246.14710793914497 90.08321430145811 244.21838030705288 90.17481031728062 242.2896526749608 90.26640633310313 240.46702356354245 90.43527515066019 238.6443944521241 90.60414396821724 236.6896996177238 91.00724875022338 234.7350047833235 91.41035353222952 233.1708920623057 91.56674831185805 231.6067793412879 91.72314309148659 229.62035944085662 92.16508585889099 227.63393954042533 92.60702862629537 226.08851767616386 92.80509114641603 224.54309581190242 93.00315366653668 223.05882715237678 93.50697471227929 221.57455849285114 94.01079575802189 220.08770394997163 94.49417762224446 218.60084940709208 94.97755948646704 217.09970980731066 95.40363520490286 215.59857020752924 95.82971092333867 213.93594838310946 96.36598476978563 212.27332655868972 96.9022586162326 211.23391386057577 97.77075604073728 210.19450116246182 98.63925346524196 209.60613195872028 99.4922143176139 209.01776275497875 100.34517516998585 208.82747887034762 100.56707841111563 208.6371949857165 100.7889816522454 208.3993341763388 100.95889704453344 208.1614733669611 101.1288124368215 207.88986011425374 101.23686448968462 207.61824686154634 101.34491654254772 207.32866734051834 101.38482526559667 207.0390878194903 101.42473398864564 206.74837240550966 101.39417988502174 206.45765699152898 101.36362578139783 206.18270207811543 101.26438465703926 205.90774716470185 101.16514353268069 205.6645331443417 101.002983286398 205.42131912398153 100.84082304011532 205.22398160696548 100.62516843304154 205.0266440899494 100.40951382596775 204.88665234203827 100.15289871399848 204.74666059412715 99.89628360202921 204.67215094228703 99.61362246752913 204.59764129044692 99.33096133302902 204.5929442391436 99.03868245441603 204.58824718784027 98.74640357580304 204.65363572991618 98.46149421523481 204.71902427199205 98.17658485466657 204.85069802230944 97.91560395756572 204.98237177262683 97.65462306046487 204.98230450882403 97.65472394523951" stroke-opacity="0" fill="black" /></g></svg>