<svg xmlns="http://www.w3.org/2000/svg" id="drawingSvg" version="1.1" width="100%" height="100%"><g id="3"><path d="M 482.4906072625123 130.54696368743853 Q 482.4906072625123 130.54696368743853 481.05901124649836 130.23482151424867 479.62741523048436 129.92267934105877 478.2993908824112 129.79841656523064 476.9713665343381 129.67415378940248 475.0034920073533 129.08980154625914 473.0356174803686 128.50544930311582 471.19582745057903 127.84877842635855 469.3560374207895 127.19210754960127 468.8364860636789 126.97530688600426 468.3169347065683 126.75850622240726 468.16141905078473 126.46771582649481 468.00590339500116 126.17692543058237 467.92449989644274 125.85736691642393 467.84309639788427 125.53780840226548 467.84053623171184 125.20805452571832 467.8379760655394 124.87830064917117 467.91440802873126 124.55751672103364 467.99083999192317 124.2367327928961 468.14182185518746 123.94356279014352 468.29280371845175 123.65039278739093 468.5095604088017 123.40187576435781 468.72631709915163 123.15335874132468 468.99625070755985 122.96393851906622 469.266184315968 122.77451829680776 469.573606288431 122.65520398754151 469.88102826089397 122.53588967827525 470.208071217928 122.4936158352617 470.5351141749621 122.45134199224816 470.86277036453833 122.48856557322951 471.1904265541146 122.52578915421086 471.4996525831 122.64034672291152 471.80887861208544 122.75490429161216 472.0817022491465 122.9401377567568 472.35452588620757 123.12537122190142 472.5750906087397 123.37051480579264 472.7956553312718 123.61565838968386 471.25330129872737 123.10765897295678 469.71094726618287 122.59965955622972 471.5583793681168 121.42225047151314 473.40581147005076 120.24484138679657 475.3618646344029 119.26322959387133 477.31791779875493 118.28161780094611 479.31642289941624 117.29317599865405 481.31492800007754 116.304734196362 483.10027532312586 115.7795996297281 484.8856226461742 115.2544650630942 486.7737347369075 114.8143966760394 488.6618468276408 114.37432828898459 490.95329263269787 113.97853158707724 493.2447384377549 113.58273488516988 495.6619104037503 113.19566265833484 498.0790823697457 112.80859043149978 500.45917639986203 112.14175324021505 502.8392704299783 111.47491604893034 510.02092368390083 110.03717152187676 517.2025769378233 108.59942699482319 522.2531648464421 107.72828923165395 527.303752755061 106.85715146848472 531.7205952979897 105.93380890031042 536.1374378409183 105.01046633213615 540.3612209961659 104.33307103514088 544.5850041514136 103.65567573814559 548.9329413769591 102.80764184373905 553.2808786025046 101.9596079493325 557.7184934952516 101.0300444957546 562.1561083879984 100.10048104217668 566.6307976692357 99.13462294674207 571.1054869504729 98.16876485130747 575.6345286492038 97.4664772815895 580.1635703479348 96.76418971187155 587.8026046119887 95.32444880587127 595.4416388760426 93.88470789987099 601.8891053588354 92.98059594899206 608.3365718416283 92.07648399811312 614.243302346852 91.40589954037327 620.1500328520758 90.73531508263343 625.5330437823272 90.16406950422214 630.9160547125786 89.59282392581086 636.3376439418564 88.77932397737803 641.7592331711343 87.96582402894519 646.9668788707762 87.32925780663416 652.1745245704182 86.69269158432314 660.7199555867738 85.8468733558091 669.2653866031295 85.00105512729506 676.055983704312 84.35476770018701 682.8465808054945 83.70848027307896 688.9249969096236 83.43190591470699 695.0034130137528 83.15533155633503 701.0100980830233 82.75209778648063 707.0167831522938 82.34886401662624 713.0493908199311 82.17610803557065 719.0819984875684 82.00335205451505 725.0959165992674 81.93027638285915 731.1098347109664 81.85720071120323 737.1157564688316 81.82624263447082 743.1216782266968 81.79528455773841 748.836626540645 81.78217159528103 754.5515748545935 81.76905863282364 760.1430764260315 81.76351535391495 765.7345779974695 81.75797207500625 774.4771556372305 82.33197933891023 783.2197332769913 82.90598660281422 790.0612845426733 83.14842550212472 796.9028358083555 83.39086440143522 802.9989723573351 83.78271251551604 809.0951089063146 84.17456062959684 814.2803403009095 84.62932492173672 819.4655716955043 85.08408921387661 824.5424212899659 85.5647918815591 829.6192708844276 86.04549454924161 834.6520727656427 86.53732282177256 839.684874646858 87.02915109430353 844.4518687521127 87.81854787931137 849.2188628573673 88.6079446643192 854.0788003901317 89.2251912118127 858.9387379228962 89.84243775930621 865.6393457600988 90.97244998990053 872.3399535973014 92.10246222049483 877.4986156502271 93.16017353379266 882.6572777031529 94.21788484709047 886.8754589182017 95.2457298472122 891.0936401332506 96.27357484733395 894.9023633192259 97.28661852868707 898.7110865052011 98.2996622100402 902.1137300862658 99.61226232709538 905.5163736673305 100.92486244415058 908.6450330301261 102.04319721342682 911.7736923929217 103.16153198270305 916.306625244617 105.09014545171232 920.8395580963123 107.0187589207216 924.1840425247067 108.4056770620807 927.5285269531012 109.7925952034398 930.1693662328524 111.27822271891841 932.8102055126037 112.76385023439703 937.060842307315 115.10319052713541 941.3114791020264 117.44253081987378 944.0384584578634 119.33511870346747 946.7654378137004 121.22770658706116 949.6815055228972 123.78607457484219 952.5975732320939 126.34444256262323 954.1739266724463 128.01333074540034 955.7502801127988 129.68221892817743 956.7831399092238 130.96891669771875 957.8159997056489 132.25561446726007 958.5899789533114 133.38447837048938 959.3639582009739 134.5133422737187 960.5355571222742 136.1773811829778 961.7071560435745 137.84142009223692 962.358226669978 139.1671829900655 963.0092972963814 140.4929458878941 963.4727103734938 142.13237052681552 963.9361234506063 143.7717951657369 964.4809093331241 145.2313871018925 965.0256952156419 146.69097903804806 965.407383558396 147.96022907359838 965.78907190115 149.2294791091487 967.3413772371772 149.27940162168835 968.8936825732044 149.32932413422802 970.3628480074651 149.08942679000256 971.832013441726 148.84952944577714 973.9694139457281 148.7560224139968 976.1068144497301 148.66251538221647 977.7979841059935 148.64689501443422 979.4891537622567 148.631274646652 981.0729476581154 148.63111616225098 982.656741553974 148.63095767784992 984.192850837589 148.63651331427474 985.7289601212042 148.64206895069955 987.5324407541359 148.67969484671627 989.3359213870675 148.717320742733 991.2502928318786 148.76345879168755 993.1646642766897 148.80959684064212 994.9792244404191 148.57902247257425 996.7937846041486 148.34844810450642 1000.6240264097823 148.33225806556786 1004.4542682154162 148.3160680266293 1007.4044932448382 148.06601563237223 1010.3547182742604 147.8159632381152 1013.4178098138773 147.72864581931685 1016.4809013534942 147.6413284005185 1021.1915239782709 147.33812987174036 1025.9021466030476 147.03493134296227 1029.608787203832 146.63422104179767 1033.315427804616 146.2335107406331 1047.3098171013041 145.49295723338324 1061.3042063979922 144.75240372613337 1069.5205777194437 144.15960610686597 1077.7369490408953 143.56680848759854 1083.5542358359057 143.31843396515313 1089.371522630916 143.0700594427077 1096.4282471940032 142.68155926300045 1103.4849717570908 142.29305908329317 1108.8030423766122 142.1297679788621 1114.1211129961337 141.966476874431 1118.644892316553 141.6134602345578 1123.1686716369727 141.26044359468457 1128.008858764948 141.10946389122387 1132.849045892923 140.95848418776316 1136.915892734376 140.8958021032031 1140.982739575829 140.83312001864303 1145.0125815520937 140.8072586189407 1149.0424235283583 140.78139721923836 1153.010368252899 140.4851903906357 1156.9783129774398 140.18898356203303 1161.00949443646 140.0613277911788 1165.0406758954803 139.93367202032456 1168.7658264531974 139.88005564869644 1172.4909770109145 139.8264392770683 1176.3749877654393 139.80390735404472 1180.258998519964 139.78137543102113 1183.634301383179 139.77196259483378 1187.009604246394 139.76254975864643 1190.4568595957894 139.75865803658843 1193.9041149451846 139.75476631453043 1197.0944102643398 139.753202448934 1200.284705583495 139.75163858333755 1203.423305866239 140.0412023872828 1206.5619061489829 140.330766191228 1209.5633293216251 140.45054888696194 1212.5647524942676 140.57033158269587 1217.5732486439952 140.62173074798255 1222.5817447937225 140.67312991326926 1226.7707217269972 140.98438974159887 1230.959698660272 141.29564956992851 1233.570296461039 141.42628097503277 1236.1808942618065 141.55691238013702 1237.8637350733072 141.5372387752415 1239.546575884808 141.51756517034596 1239.7688491955794 141.56159348325147 1239.9911225063508 141.60562179615698 1240.1877010406638 141.71831960831855 1240.384279574977 141.8310174204801 1240.534581508397 142.00058524121505 1240.6848834418172 142.17015306194997 1240.7731721222397 142.3788370956658 1240.8614608026621 142.5875211293816 1240.8784923819405 142.81347210266102 1240.895523961219 143.03942307594045 1240.839515228507 143.25898386223585 1240.7835064957953 143.47854464853125 1240.660321580193 143.66872717555907 1240.537136664591 143.8589097025869 1240.3596730592794 143.99980180956405 1240.1822094539677 144.14069391654118 1239.9690476452688 144.2175441626752 1239.7558858365699 144.29439440880927 1239.5293439221236 144.29915655304347 1239.3028020076777 144.30391869727768 1239.086598985728 144.23609414185364 1238.8703959637783 144.16826958642963 1238.6871683477953 144.0349595802042 1238.5039407318122 143.90164957397877 1238.3728725015567 143.71681170979417 1238.2418042713014 143.53197384560957 1238.1766183050797 143.3149606966384 1238.111432338858 143.09794754766722 1238.118953624541 142.87148044789262 1238.1264749102243 142.64501334811806 1238.2059159672156 142.432803462668 1238.2853570242069 142.22059357721793 1238.4284003528692 142.04485933711697 1238.5714436815315 141.869125097016 1238.763112607594 141.74826592359204 1238.9547815336562 141.62740675016806 1239.1750082699643 141.57407663078232 1239.3952350062725 141.5207465113966 1239.620961755401 141.54052912362656 1239.846688504529 141.56031173585652 1240.0542816162574 141.65113583497958 1240.261874727986 141.74195993410262 1240.4295991487174 141.8943162129654 1240.5973235694491 142.04667249182816 1240.7076185080582 142.24460920781553 1240.817913446667 142.4425459238029 1240.8592309939663 142.6653390505008 1240.9005485412654 142.88813217719866 1240.8685627391455 143.11245521543012 1240.836576937026 143.33677825366158 1240.7346367074126 143.53914452210824 1240.6326964777993 143.7415107905549 1240.4714749896425 143.90073248749093 1240.310253501486 144.0599541844269 1240.1066306871542 144.15936075615258 1239.9030078728224 144.25876732787827 1239.6783030947272 144.2879508800932 1239.4535983166322 144.3171344323081 1239.4538082843285 144.31714140562576 1239.4540182520248 144.31714837894344 1237.7549080384417 144.18566335150842 1236.0557978248587 144.0541783240734 1233.414746154841 143.9217240290847 1230.773694484823 143.78926973409597 1226.664672663309 143.4815043857363 1222.5556508417949 143.17373903737658 1217.5100322743724 143.12154955162958 1212.4644137069502 143.06936006588256 1209.397331662769 142.94540475918427 1206.330249618588 142.82144945248598 1203.3076611558652 142.53751207423772 1200.2850726931424 142.2535746959895 1197.0961003759053 142.25553746052606 1193.9071280586681 142.2575002250626 1190.4619889694932 142.2619064562587 1187.016849880318 142.2663126874548 1183.645342299838 142.2764244471595 1180.2738347193579 142.2865362068642 1176.4006444298946 142.30994450946895 1172.5274541404312 142.33335281207366 1168.823896359353 142.38783108898275 1165.1203385782749 142.44230936589182 1161.142794534247 142.5689939445369 1157.1652504902193 142.695678523182 1153.1126646193532 142.99791957575425 1149.060078748487 143.3001606283265 1145.041613441441 143.32947071374153 1141.0231481343951 143.35878079915656 1136.9763307798232 143.4259139736962 1132.9295134252513 143.49304714823583 1128.1493142096388 143.64751511324505 1123.369114994026 143.80198307825427 1118.786102917768 144.16766683478085 1114.2030908415097 144.53335059130745 1108.9169464100253 144.70817806664058 1103.6308019785408 144.88300554197374 1096.5599617157322 145.2900784911235 1089.4891214529234 145.69715144027322 1083.7121380693548 145.9677725151384 1077.9351546857858 146.2383935900036 1069.6944197046982 146.86676208205523 1061.4536847236106 147.4951305741069 1047.5490003672653 148.27496791701952 1033.64431601092 149.05480525993215 1029.8825480163314 149.52560284150286 1026.1207800217426 149.9964004230736 1021.3763235985834 150.39086750073153 1016.6318671754244 150.78533457838944 1013.6830080140155 150.9866421159112 1010.7341488526067 151.18794965343292 1007.6562545854979 151.6170148034584 1004.5783603183892 152.04607995348385 1000.9894978968912 152.27487237168063 997.4006354753931 152.5036647898774 995.2878915752831 152.84951973271626 993.175147675173 153.1953746755551 991.2605683815382 153.24487580899597 989.3459890879034 153.29437694243686 987.5519385715506 153.3399159784214 985.757888055198 153.38545501440595 984.2409828699087 153.40962980369622 982.7240776846196 153.4338045929865 981.1831316536446 153.47745588003363 979.6421856226697 153.52110716708074 978.0398495687361 153.60856861447064 976.4375135148027 153.6960300618605 974.8843123477536 153.84506847754403 973.3311111807044 153.99410689322752 972.0060631047056 154.32713387164983 970.681015028707 154.66016085007212 968.9134316124882 154.61878405363058 967.1458481962695 154.577407257189 965.8085758431129 154.3429987901236 964.4713034899562 154.10859032305817 963.1012169640902 152.57199298116558 961.7311304382242 151.03539563927296 961.173463327754 149.1818977946446 960.6157962172838 147.32839995001626 960.1730382283173 145.35217533143276 959.7302802393508 143.37595071284926 959.2240510682067 141.68295794402354 958.7178218970625 139.9899651751978 957.6699503688387 138.08816686232348 956.6220788406149 136.18636854944918 956.033671381117 135.08268389188027 955.445263921619 133.97899923431137 954.6254491129605 132.71852391962165 953.8056343043021 131.45804860493192 952.3756945562228 129.83947070716536 950.9457548081435 128.2208928093988 948.1411326622067 125.74992884295943 945.33651051627 123.27896487652006 942.7206902129692 121.45547757371281 940.1048699096684 119.63199027090556 935.8430369181733 117.28644777211233 931.5812039266782 114.9409052733191 929.075055474179 113.52092622048802 926.5689070216797 112.10094716765694 923.2145967859553 110.70996750122853 919.8602865502311 109.31898783480013 915.3960554863527 107.41725352077998 910.9318244224744 105.51551920675982 907.7730392780378 104.38597683949624 904.6142541336012 103.25643447223267 901.3405576976492 101.98579426801771 898.0668612616971 100.71515406380274 894.2841961723389 99.70880875393199 890.5015310829806 98.70246344406124 886.3282104737151 97.68468728836206 882.1548898644496 96.66691113266289 877.0394299778122 95.6172785499115 871.923970091175 94.56764596716013 865.2737027764646 93.44508432469749 858.6234354617542 92.32252268223486 853.7166079311938 91.69841894018262 848.8097804006335 91.07431519813039 844.1255625921827 90.29582894891296 839.441344783732 89.51734269969552 834.4124715738758 89.02591677404936 829.3835983640197 88.53449084840322 824.3153300971369 88.05459540272781 819.2470618302542 87.57469995705239 814.0908394334504 87.12217457070305 808.9346170366466 86.66964918435372 802.8743917235117 86.27963923140106 796.814166410377 85.88962927844842 789.93486623579 85.64534331415081 783.0555660612029 85.40105734985319 774.3961403120952 84.82982964056163 765.7367145629875 84.25860193127005 760.1470316900287 84.2642704801365 754.55734881707 84.26993902900297 748.8459807912614 84.28320683778125 743.1346127654526 84.29647464655953 737.1374372533012 84.32758897273456 731.1402617411497 84.3587032989096 725.146892158692 84.43168033997708 719.1535225762343 84.50465738104454 713.1689827282088 84.67555484169102 707.1844428801833 84.84645230233752 701.1507808537765 85.2518148658998 695.1171188273697 85.65717742946208 689.1006005887289 85.93024150265873 683.0840823500881 86.2033055758554 676.2983633506353 86.85028504655587 669.5126443511825 87.49726451725634 660.9961551307493 88.34148604829178 652.4796659103162 89.18570757932721 647.3063228175137 89.81982314419142 642.1329797247112 90.45393870905563 636.6581247364726 91.27733708338806 631.183269748234 92.10073545772049 625.8099413431526 92.67513299169806 620.4366129380712 93.24953052567565 614.5637214778061 93.92163574414491 608.690830017541 94.59374096261415 602.3038918756541 95.49595766163895 595.9169537337673 96.39817436066375 588.2397418221044 97.85567733678991 580.5625299104416 99.31318031291607 576.1121688427801 100.01617246584857 571.6618077751185 100.71916461878105 567.1849611354322 101.70690587075927 562.7081144957459 102.6946471227375 558.2597625157316 103.65590566307213 553.8114105357174 104.61716420340674 549.4276610018247 105.51224088291201 545.043911467932 106.40731756241729 540.8990198950899 107.12547655697927 536.7541283222478 107.84363555154123 532.3035009167301 108.85100896350161 527.8528735112124 109.85838237546201 522.8623556587809 110.82422338908029 517.8718378063493 111.79006440269855 510.89794809309444 113.32168170338028 503.92405837983955 114.853299004062 501.4087571930679 115.76143081921325 498.8934560062962 116.66956263436451 496.55675687373173 117.28241748149648 494.22005774116724 117.89527232862844 492.0906303731423 118.49930403605524 489.9612030051173 119.10333574348202 488.2119664533045 119.66286361368404 486.46272990149174 120.22239148388606 484.11136077374795 121.19881441851244 481.75999164600415 122.17523735313883 479.8052028996085 123.17273811218186 477.8504141532129 124.17023887122488 476.08859345814733 125.08998966597792 474.32677276308175 126.00974046073095 473.11930473873224 126.7845028459133 471.91183671438273 127.55926523109564 470.1144642928678 127.15899768690949 468.3170918713529 126.75873014272332 468.16154713730737 126.46795529983038 468.00600240326185 126.17718045693744 467.92456694925903 125.85763008472662 467.8431314952562 125.53807971251582 467.840538353709 125.20832609363406 467.8379452121618 124.87857247475229 467.91434509657876 124.55778090502237 467.9907449809957 124.23698933529245 468.14169752650486 123.94380423581941 468.292650072014 123.65061913634636 468.5093819095779 123.40208043888683 468.7261137471418 123.15354174142729 468.99602841217813 122.96409452675513 469.26594307721444 122.77464731208298 469.5733531167094 122.6553022612161 469.88076315620435 122.53595721034922 470.2078018842189 122.4936506632514 470.53484061223344 122.45134411615358 470.8625005225295 122.4885349313299 471.19016043282556 122.52572574650623 471.49939791602173 122.64025239203124 471.8086353992179 122.75477903755628 472.0814775582613 122.93998521941107 472.35431971730475 123.12519140126587 472.5749089530924 123.37031292745915 472.79549818888006 123.61543445365244 473.59376807441606 123.6506309534075 474.392037959952 123.68582745316255 475.888460712807 124.18646183188002 477.38488346566197 124.6870962105975 479.0037341175888 124.80720843476936 480.62258476951564 124.92732065894123 482.06598875350164 125.19017848575135 483.5093927374877 125.45303631256145 483.8067649197672 125.55099845780481 484.1041371020467 125.64896060304815 484.3694230342019 125.81524400839848 484.63470896635704 125.98152741374881 484.8524902175467 126.20646767987435 485.0702714687363 126.43140794599991 485.2278905824088 126.7019315340647 485.3855096960813 126.97245512212947 485.47380584194434 127.27283918848467 485.56210198780735 127.57322325483986 485.5759433897148 127.88600946343541 485.58978479162215 128.19879567203097 485.52836698664476 128.50580487372713 485.4669491816674 128.8128140754233 485.33384177551625 129.09620288099268 485.200734369365 129.3795916865621 485.0036735707396 129.6228895253101 484.80661277211414 129.86618736405805 484.5570517638894 130.05525375416528 484.30749075566456 130.24432014427254 484.0199340353641 130.36816653826276 483.7323773150636 130.49201293225295 483.4235376927821 130.54344137188855 483.11469807050054 130.59486981152412 482.8025253195957 130.5708912734771 482.4903525686909 130.54691273543006 482.4904799156016 130.54693821143428" stroke-opacity="0" fill="black" /></g><g id="4"><path d="M 1254.1706905376477 141.65861892470483 Q 1254.1706905376477 141.65861892470483 1255.3134413889193 142.24235799056453 1256.4561922401906 142.82609705642423 1257.9528376351202 143.48909423038828 1259.4494830300498 144.1520914043523 1261.7549888034189 144.54791356507496 1264.060494576788 144.9437357257976 1265.6284672428078 145.50435812925417 1267.1964399088279 146.06498053271076 1268.8247166004103 146.57633995115194 1270.4529932919927 147.0876993695931 1272.026260625798 147.48331429018327 1273.599527959603 147.87892921077344 1276.6571195091947 148.4601181961901 1279.7147110587862 149.04130718160678 1280.142439869347 149.17124612305275 1280.570168679908 149.30118506449875 1280.9340148541241 149.56090034205533 1281.29786102834 149.82061561961194 1281.559729775725 150.18291497516083 1281.8215985231095 150.54521433070968 1281.954072116685 150.9721649260871 1282.0865457102607 151.39911552146452 1282.0757541298099 151.84601551663047 1282.0649625493593 152.29291551179645 1281.9120356762044 152.71297435928693 1281.7591088030495 153.13303320677738 1281.4800581211784 153.48227063437537 1281.2010074393074 153.83150806197332 1280.8250496287742 154.07335881881954 1280.4490918182412 154.3152095756658 1280.015589761052 154.4243518236761 1279.582087703863 154.53349407168636 1279.136429179839 154.49850058868327 1278.690770655815 154.4635071056802 1278.2796162300638 154.28804171857155 1277.8684618043126 154.1125763314629 1277.5348594537445 153.8150103125973 1277.2012571031767 153.51744429373173 1276.980135081959 153.12893288383424 1276.7590130607412 152.74042147393678 1276.6735229028654 152.3016419201807 1276.58803274499 151.86286236642465 1276.6471252925535 151.41975500391482 1276.706217840117 150.976647641405 1276.9037060877904 150.57560592796517 1277.101194335464 150.17456421452533 1277.4164012115846 149.85757732341736 1277.7316080877051 149.5405904323094 1278.1315313491364 149.3408469747087 1278.5314546105674 149.14110351710806 1278.9742221862678 149.07951668575262 1279.4169897619681 149.01792985439718 1279.8562437698824 149.10094780678725 1280.295497777797 149.18396575917728 1280.685248207345 149.40289649378298 1281.0749986368933 149.62182722838867 1281.3744385152172 149.95374863950468 1281.6738783935414 150.28567005062072 1281.8516562863363 150.69582987888447 1282.0294341791312 151.10598970714824 1282.0669366940924 151.55144411026885 1282.104439209054 151.99689851338943 1281.9977398229657 152.4310082977716 1281.8910404368773 152.86511808215377 1281.6513106036286 153.24243183877883 1281.41158077038 153.6197455954039 1281.0639202667946 153.90075847435207 1280.7162597632093 154.18177135330023 1280.297068735786 154.33706123196544 1279.8778777083628 154.49235111063066 1279.4310455683287 154.5056590977241 1278.9842134282947 154.51896708481755 1278.9846242527906 154.51902187214023 1278.9850350772863 154.51907665946294 1276.5678132452174 154.0264743460487 1274.1505914131485 153.53387203263446 1272.237209464729 153.03952240340575 1270.3238275163096 152.54517277417705 1268.229759821947 151.97468370232463 1266.1356921275847 151.4041946304722 1264.3583794990313 150.760818139349 1262.5810668704778 150.11744164822582 1260.9109197985194 149.750379066865 1259.240772726561 149.3833164855042 1257.9829573482557 149.03708129057594 1256.7251419699503 148.69084609564771 1255.4344748648798 148.08237451961173 1254.1438077598093 147.47390294357578 1252.986558611081 146.90764200943548 1251.8293094623523 146.34138107529517 1251.5661462822977 146.16727411710986 1251.302983102243 145.99316715892456 1251.0891352731041 145.76113871627663 1250.8752874439654 145.5291102736287 1250.7231838116195 145.25264585050667 1250.5710801792736 144.97618142738463 1250.4895610139793 144.67134914904995 1250.408041848685 144.36651687071523 1250.401845048159 144.05103360350722 1250.395648247633 143.73555033629918 1250.4651339702134 143.42775198253085 1250.5346196927937 143.11995362876252 1250.6757494250191 142.83772944321674 1250.8168791572448 142.55550525767097 1251.0214504324476 142.31525812327192 1251.2260217076503 142.0750109888729 1251.4821448337036 141.8907040803598 1251.738267959757 141.70639717184673 1252.031057048541 141.588742415402 1252.323846137325 141.47108765895732 1252.6362842732428 141.42692315455355 1252.9487224091606 141.38275865014975 1253.2626506730728 141.4146512408579 1253.576578936985 141.44654383156603 1253.8737518034432 141.55263991851567 1254.1709246699013 141.6587360054653 1254.1708076037744 141.65867746508508" stroke-opacity="0" fill="black" /></g></svg>