<svg xmlns="http://www.w3.org/2000/svg" id="drawingSvg" version="1.1" width="100%" height="100%"><g id="1"><path d="M 244.88264874611042 144.88264874611042 Q 244.88264874611042 144.88264874611042 246.92834302680615 142.9013174480417 248.97403730750185 140.91998614997303 252.23652987763558 138.57879947789573 255.49902244776933 136.23761280581843 258.0480412727675 134.6784504172187 260.5970600977656 133.119288028619 265.8172609725772 131.26427558162732 271.0374618473888 129.40926313463564 276.4562406349107 128.33975261691586 281.87501942243273 127.27024209919605 286.46197020981714 126.53869684721286 291.04892099720155 125.80715159522968 297.3135547309479 124.92387868211046 303.57818846469416 124.04060576899121 308.5769715252203 123.66347035954496 313.5757545857464 123.28633495009869 322.04371108042005 123.12769221331524 330.5116675750937 122.96904947653178 338.41423618095206 122.90330675672422 346.3168047868104 122.83756403691667 353.98816140542647 122.81039679806358 361.6595180240425 122.78322955921047 369.2323958093622 122.7722343556951 376.80527359468186 122.76123915217974 382.0360639828632 122.7569634028969 387.2668543710445 122.75268765361407 395.52773179617327 122.75115761335995 403.788609221302 122.74962757310583 411.32451687998196 122.74919097197233 418.86042453866196 122.74875437083881 426.4237119039774 123.32559629015296 433.9869992692929 123.9024382094671 441.2764113357405 125.30637627807673 448.5658234021881 126.71031434668636 453.9482274469493 127.88099633703337 459.3306314917105 129.05167832738036 468.26133303205916 131.56970336035488 477.19203457240775 134.08772839332943 485.01815532547414 136.59792175196594 492.8442760785406 139.10811511060243 499.8950831477606 141.3210636196724 506.9458902169806 143.53401212874238 514.2413031907238 145.620463665141 521.536716164467 147.7069152015396 526.9643942355204 149.46441167868255 532.3920723065739 151.22190815582553 539.5443564391117 153.1064356031162 546.6966405716494 154.9909630504069 553.1963448243637 156.6574651845164 559.6960490770781 158.32396731862593 565.8810635068054 159.60098538967384 572.0660779365327 160.87800346072171 577.5174891239951 161.4137544164302 582.9689003114576 161.94950537213867 587.0122403008363 162.17936146636333 591.0555802902152 162.40921756058796 597.0721909565434 162.50683968894117 603.0888016228715 162.60446181729438 608.5262485193678 162.64628281190292 613.9636954158639 162.68810380651146 619.1491871317762 162.7058926419544 624.3346788476887 162.72368147739735 629.9566109795453 162.44451233513232 635.5785431114019 162.16534319286728 639.3819650214758 161.7621290727218 643.1853869315497 161.35891495257633 649.8701272872453 159.19955011734828 656.5548676429408 157.04018528212023 662.8943952550077 154.96262366493744 669.2339228670745 152.88506204775462 675.3779738500999 150.85219150821382 681.5220248331253 148.81932096867305 687.831864499331 146.2447252560789 694.1417041655368 143.67012954348476 698.8192466083729 141.4345335059544 703.4967890512089 139.198937468424 710.0547634105119 135.39085484502203 716.612737769815 131.58277222162005 722.5513058651818 127.67288709994493 728.4898739605487 123.76300197826981 733.9129563182607 120.36106036836713 739.3360386759726 116.95911875846447 743.9358351175479 114.07906600162988 748.5356315591231 111.19901324479528 751.0001732751255 109.15959189544147 753.464714991128 107.12017054608765 756.5401746810132 104.52068341922849 759.6156343708984 101.92119629236933 761.9561735489951 98.07751727174787 764.2967127270919 94.2338382511264 764.4294487552797 94.08126138967481 764.5621847834675 93.9286845282232 764.7366915841405 93.82647920376131 764.9111983848135 93.72427387929942 765.109205049876 93.68314101627797 765.3072117149384 93.64200815325653 765.5079868942896 93.6662543732919 765.7087620736407 93.69050059332729 765.8912845530031 93.7775873107814 766.0738070323653 93.8646740282355 766.2189666599683 94.00548324080223 766.3641262875713 94.14629245336897 766.4567248120863 94.32608139932258 766.5493233366016 94.50587034527618 766.5796656680685 94.70581507451564 766.6100079995355 94.90575980375509 766.5749172878401 95.10492605034875 766.5398265761447 95.3040922969424 766.4429768280645 95.48162730229711 766.3461270799844 95.65916230765184 766.1976584897093 95.7964781098423 766.0491898994342 95.93379391203274 765.8646471675578 96.01651351032173 765.6801044356814 96.09923310861072 765.4788092349457 96.11869573922154 765.2775140342101 96.13815836983235 765.080542025269 96.09232629020241 764.8835700163279 96.04649421057246 764.7115442205131 95.94016605153752 764.5395184246983 95.83383789250257 764.4104499882419 95.67814624038148 764.2813815517854 95.52245458826039 764.2087839740552 95.33370040012883 764.1361863963251 95.14494621199728 764.1276606628733 94.94289210117891 764.1191349294215 94.74083799036055 764.1755736867913 94.54663907559515 764.2320124441609 94.35244016082974 764.347506539557 94.18642911975678 764.4630006349531 94.02041807868382 764.6254578061003 93.8999763111263 764.7879149772473 93.77953454356879 764.9803259154417 93.71727233438352 765.1727368536361 93.65501012519825 765.3749560828574 93.65744634412255 765.5771753120787 93.65988256304685 765.7680304256467 93.72676213731626 765.9588855392146 93.79364171158566 766.1183939563577 93.91796233211967 766.277902373501 94.04228295265368 766.3893635208385 94.21102821766492 766.5008246681759 94.37977348267616 766.5525685341585 94.57527571837353 766.604312400141 94.77077795407091 766.5909213883413 94.97256802476932 766.5775303765415 95.17435809546774 766.5004065294297 95.36130852749767 766.423282682318 95.54825895952759 766.4233812638719 95.54809946677975 766.4234798454257 95.54793997403192 763.8394434108138 99.67428739984109 761.2554069762019 103.80063482565026 758.1553946361844 106.42473933745143 755.0553822961667 109.04884384925259 752.4599898241627 111.18257929674657 749.8645973521587 113.31631474424054 745.2645486454835 116.19663092116548 740.6644999388083 119.07694709809043 735.2644172418134 122.46410886173959 729.8643345448183 125.85127062538874 723.8660436879336 129.79809932383557 717.867752831049 133.74492802228244 711.2213531850541 137.59970144622628 704.5749535390594 141.4544748701701 699.8304394988415 143.7197165911004 695.0859254586237 145.98495831203067 688.6968086941145 148.58880438404992 682.3076919296051 151.19265045606917 676.1600807227128 153.22670176267752 670.0124695158205 155.2607530692859 663.6657331516105 157.34065461951286 657.3189967874006 159.42055616973985 650.388998375386 161.63169290488773 643.4589999633714 163.8428296400356 639.5806835964803 164.25256039136292 635.7023672295892 164.6622911426902 630.0143269450575 164.94299228624345 624.3262866605259 165.2236934297967 619.1353726908187 165.20588293775324 613.9444587211117 165.18807244570976 608.496245180856 165.1461303168209 603.0480316406002 165.104188187932 596.980735396924 165.00472061393833 590.913439153248 164.90525303994465 586.8181746484988 164.671368658059 582.7229101437498 164.43748427617334 577.1423107567938 163.88208117044582 571.5617113698378 163.32667806471832 565.3184656244626 162.03627481474035 559.0752198790875 160.74587156476235 552.5672531315611 159.07726470822277 546.0592863840345 157.4086578516832 538.8405799277701 155.50469355627007 531.6218734715058 153.60072926085695 526.2354560394955 151.85589222575567 520.8490386074852 150.1110551906544 513.523050397549 148.0155455217725 506.1970621876127 145.9200358528906 499.13869000111634 143.70484034953586 492.08031781462 141.4896448461811 484.29660502482443 138.99244052852407 476.5128922350289 136.49523621086706 467.6557501451141 133.99585494668042 458.7986080551992 131.49647368249376 453.4449094405171 130.33208203246153 448.09121082583493 129.16769038242927 440.94273428182754 127.78321988544063 433.79425773782015 126.39874938845199 426.32721896088844 125.82639468282905 418.8601801839568 125.2540399772061 411.32473221381997 125.2554936703383 403.7892842436832 125.25694736347047 395.52932489512546 125.25986507442973 387.26936554656777 125.26278278538898 382.039363526075 125.2689723330788 376.8093615055822 125.27516188076862 369.2391983293159 125.28879090542422 361.6690351530496 125.30241993007982 354.003824803228 125.33319205162897 346.3386144534063 125.3639641731781 338.44926078058774 125.43454936019938 330.55990710776916 125.50513454722065 322.1645170643795 125.66726335591679 313.7691270209898 125.82939216461291 308.8541535213668 126.20701333276568 303.9391800217439 126.58463450091847 297.7008571433747 127.477259417444 291.4625342650055 128.36988433396954 286.924881259177 129.1110398576211 282.38722825334855 129.8521953812727 277.1598804686049 130.89492198269352 271.9325326838612 131.93764858411436 266.9853769180478 133.69966465274769 262.0382211522344 135.46168072138101 259.60522435223254 137.00140895778128 257.17222755223065 138.54113719418157 254.1240951223644 140.78557552210427 251.07596269249817 143.03001385002696 249.0966569731939 145.07368255195826 247.11735125388958 147.11735125388958 246.96741212563919 147.23482012845267 246.8174729973888 147.35228900301578 246.64377808462987 147.43046032738272 246.47008317187095 147.50863165174968 246.28272763109408 147.54296210487541 246.09537209031723 147.57729255800115 245.90524503435523 147.56578685233697 245.7151179783932 147.5542811466728 245.53326960067167 147.49760799437252 245.35142122295014 147.44093484207224 245.18842055972632 147.34238808941032 245.0254198965025 147.2438413367484 244.89074055398157 147.10914852561976 244.7560612114606 146.9744557144911 244.6575307593577 146.81144519740707 244.55900030725485 146.64843468032302 244.5023453400757 146.4665806361955 244.4456903728965 146.28472659206795 244.43420367999542 146.09459838648604 244.42271698709433 145.9044701809041 244.45706617560245 145.7171180741093 244.4914153641106 145.52976596731452 244.56960405757792 145.3560788725565 244.64779275104527 145.1823917777985 244.76527661893383 145.03246439718524 244.88276048682238 144.88253701657197 244.8827046164664 144.8825928813412" stroke-opacity="0" fill="black" /></g><g id="2"><path d="M 244.88264874611042 144.88264874611042 Q 244.88264874611042 144.88264874611042 246.92834302680615 142.9013174480417 248.97403730750185 140.91998614997303 252.23652987763558 138.57879947789573 255.49902244776933 136.23761280581843 258.0480412727675 134.6784504172187 260.5970600977656 133.119288028619 265.8172609725772 131.26427558162732 271.0374618473888 129.40926313463564 276.4562406349107 128.33975261691586 281.87501942243273 127.27024209919605 286.46197020981714 126.53869684721286 291.04892099720155 125.80715159522968 297.3135547309479 124.92387868211046 303.57818846469416 124.04060576899121 308.5769715252203 123.66347035954496 313.5757545857464 123.28633495009869 322.04371108042005 123.12769221331524 330.5116675750937 122.96904947653178 338.41423618095206 122.90330675672422 346.3168047868104 122.83756403691667 353.98816140542647 122.81039679806358 361.6595180240425 122.78322955921047 369.2323958093622 122.7722343556951 376.80527359468186 122.76123915217974 382.0360639828632 122.7569634028969 387.2668543710445 122.75268765361407 395.52773179617327 122.75115761335995 403.788609221302 122.74962757310583 411.32451687998196 122.74919097197233 418.86042453866196 122.74875437083881 426.4237119039774 123.32559629015296 433.9869992692929 123.9024382094671 441.2764113357405 125.30637627807673 448.5658234021881 126.71031434668636 453.9482274469493 127.88099633703337 459.3306314917105 129.05167832738036 468.26133303205916 131.56970336035488 477.19203457240775 134.08772839332943 485.01815532547414 136.59792175196594 492.8442760785406 139.10811511060243 499.8950831477606 141.3210636196724 506.9458902169806 143.53401212874238 514.2413031907238 145.620463665141 521.536716164467 147.7069152015396 526.9643942355204 149.46441167868255 532.3920723065739 151.22190815582553 539.5443564391117 153.1064356031162 546.6966405716494 154.9909630504069 553.1963448243637 156.6574651845164 559.6960490770781 158.32396731862593 565.8810635068054 159.60098538967384 572.0660779365327 160.87800346072171 577.5174891239951 161.4137544164302 582.9689003114576 161.94950537213867 587.0122403008363 162.17936146636333 591.0555802902152 162.40921756058796 597.0721909565434 162.50683968894117 603.0888016228715 162.60446181729438 608.5262485193678 162.64628281190292 613.9636954158639 162.68810380651146 619.1491871317762 162.7058926419544 624.3346788476887 162.72368147739735 629.9566109795453 162.44451233513232 635.5785431114019 162.16534319286728 639.3819650214758 161.7621290727218 643.1853869315497 161.35891495257633 649.8701272872453 159.19955011734828 656.5548676429408 157.04018528212023 662.8943952550077 154.96262366493744 669.2339228670745 152.88506204775462 675.3779738500999 150.85219150821382 681.5220248331253 148.81932096867305 687.831864499331 146.2447252560789 694.1417041655368 143.67012954348476 698.8192466083729 141.4345335059544 703.4967890512089 139.198937468424 710.0547634105119 135.39085484502203 716.612737769815 131.58277222162005 722.5513058651818 127.67288709994493 728.4898739605487 123.76300197826981 733.9129563182607 120.36106036836713 739.3360386759726 116.95911875846447 743.9358351175479 114.07906600162988 748.5356315591231 111.19901324479528 751.0001732751255 109.15959189544147 753.464714991128 107.12017054608765 756.5401746810132 104.52068341922849 759.6156343708984 101.92119629236933 761.9561735489951 98.07751727174787 764.2967127270919 94.2338382511264 764.4294487552797 94.08126138967481 764.5621847834675 93.9286845282232 764.7366915841405 93.82647920376131 764.9111983848135 93.72427387929942 765.109205049876 93.68314101627797 765.3072117149384 93.64200815325653 765.5079868942896 93.6662543732919 765.7087620736407 93.69050059332729 765.8912845530031 93.7775873107814 766.0738070323653 93.8646740282355 766.2189666599683 94.00548324080223 766.3641262875713 94.14629245336897 766.4567248120863 94.32608139932258 766.5493233366016 94.50587034527618 766.5796656680685 94.70581507451564 766.6100079995355 94.90575980375509 766.5749172878401 95.10492605034875 766.5398265761447 95.3040922969424 766.4429768280645 95.48162730229711 766.3461270799844 95.65916230765184 766.1976584897093 95.7964781098423 766.0491898994342 95.93379391203274 765.8646471675578 96.01651351032173 765.6801044356814 96.09923310861072 765.4788092349457 96.11869573922154 765.2775140342101 96.13815836983235 765.080542025269 96.09232629020241 764.8835700163279 96.04649421057246 764.7115442205131 95.94016605153752 764.5395184246983 95.83383789250257 764.4104499882419 95.67814624038148 764.2813815517854 95.52245458826039 764.2087839740552 95.33370040012883 764.1361863963251 95.14494621199728 764.1276606628733 94.94289210117891 764.1191349294215 94.74083799036055 764.1755736867913 94.54663907559515 764.2320124441609 94.35244016082974 764.347506539557 94.18642911975678 764.4630006349531 94.02041807868382 764.6254578061003 93.8999763111263 764.7879149772473 93.77953454356879 764.9803259154417 93.71727233438352 765.1727368536361 93.65501012519825 765.3749560828574 93.65744634412255 765.5771753120787 93.65988256304685 765.7680304256467 93.72676213731626 765.9588855392146 93.79364171158566 766.1183939563577 93.91796233211967 766.277902373501 94.04228295265368 766.3893635208385 94.21102821766492 766.5008246681759 94.37977348267616 766.5525685341585 94.57527571837353 766.604312400141 94.77077795407091 766.5909213883413 94.97256802476932 766.5775303765415 95.17435809546774 766.5004065294297 95.36130852749767 766.423282682318 95.54825895952759 766.4233812638719 95.54809946677975 766.4234798454257 95.54793997403192 763.8394434108138 99.67428739984109 761.2554069762019 103.80063482565026 758.1553946361844 106.42473933745143 755.0553822961667 109.04884384925259 752.4599898241627 111.18257929674657 749.8645973521587 113.31631474424054 745.2645486454835 116.19663092116548 740.6644999388083 119.07694709809043 735.2644172418134 122.46410886173959 729.8643345448183 125.85127062538874 723.8660436879336 129.79809932383557 717.867752831049 133.74492802228244 711.2213531850541 137.59970144622628 704.5749535390594 141.4544748701701 699.8304394988415 143.7197165911004 695.0859254586237 145.98495831203067 688.6968086941145 148.58880438404992 682.3076919296051 151.19265045606917 676.1600807227128 153.22670176267752 670.0124695158205 155.2607530692859 663.6657331516105 157.34065461951286 657.3189967874006 159.42055616973985 650.388998375386 161.63169290488773 643.4589999633714 163.8428296400356 639.5806835964803 164.25256039136292 635.7023672295892 164.6622911426902 630.0143269450575 164.94299228624345 624.3262866605259 165.2236934297967 619.1353726908187 165.20588293775324 613.9444587211117 165.18807244570976 608.496245180856 165.1461303168209 603.0480316406002 165.104188187932 596.980735396924 165.00472061393833 590.913439153248 164.90525303994465 586.8181746484988 164.671368658059 582.7229101437498 164.43748427617334 577.1423107567938 163.88208117044582 571.5617113698378 163.32667806471832 565.3184656244626 162.03627481474035 559.0752198790875 160.74587156476235 552.5672531315611 159.07726470822277 546.0592863840345 157.4086578516832 538.8405799277701 155.50469355627007 531.6218734715058 153.60072926085695 526.2354560394955 151.85589222575567 520.8490386074852 150.1110551906544 513.523050397549 148.0155455217725 506.1970621876127 145.9200358528906 499.13869000111634 143.70484034953586 492.08031781462 141.4896448461811 484.29660502482443 138.99244052852407 476.5128922350289 136.49523621086706 467.6557501451141 133.99585494668042 458.7986080551992 131.49647368249376 453.4449094405171 130.33208203246153 448.09121082583493 129.16769038242927 440.94273428182754 127.78321988544063 433.79425773782015 126.39874938845199 426.32721896088844 125.82639468282905 418.8601801839568 125.2540399772061 411.32473221381997 125.2554936703383 403.7892842436832 125.25694736347047 395.52932489512546 125.25986507442973 387.26936554656777 125.26278278538898 382.039363526075 125.2689723330788 376.8093615055822 125.27516188076862 369.2391983293159 125.28879090542422 361.6690351530496 125.30241993007982 354.003824803228 125.33319205162897 346.3386144534063 125.3639641731781 338.44926078058774 125.43454936019938 330.55990710776916 125.50513454722065 322.1645170643795 125.66726335591679 313.7691270209898 125.82939216461291 308.8541535213668 126.20701333276568 303.9391800217439 126.58463450091847 297.7008571433747 127.477259417444 291.4625342650055 128.36988433396954 286.924881259177 129.1110398576211 282.38722825334855 129.8521953812727 277.1598804686049 130.89492198269352 271.9325326838612 131.93764858411436 266.9853769180478 133.69966465274769 262.0382211522344 135.46168072138101 259.60522435223254 137.00140895778128 257.17222755223065 138.54113719418157 254.1240951223644 140.78557552210427 251.07596269249817 143.03001385002696 249.0966569731939 145.07368255195826 247.11735125388958 147.11735125388958 246.96741212563919 147.23482012845267 246.8174729973888 147.35228900301578 246.64377808462987 147.43046032738272 246.47008317187095 147.50863165174968 246.28272763109408 147.54296210487541 246.09537209031723 147.57729255800115 245.90524503435523 147.56578685233697 245.7151179783932 147.5542811466728 245.53326960067167 147.49760799437252 245.35142122295014 147.44093484207224 245.18842055972632 147.34238808941032 245.0254198965025 147.2438413367484 244.89074055398157 147.10914852561976 244.7560612114606 146.9744557144911 244.6575307593577 146.81144519740707 244.55900030725485 146.64843468032302 244.5023453400757 146.4665806361955 244.4456903728965 146.28472659206795 244.43420367999542 146.09459838648604 244.42271698709433 145.9044701809041 244.45706617560245 145.7171180741093 244.4914153641106 145.52976596731452 244.56960405757792 145.3560788725565 244.64779275104527 145.1823917777985 244.76527661893383 145.03246439718524 244.88276048682238 144.88253701657197 244.8827046164664 144.8825928813412" stroke-opacity="0" fill="black" /></g><g id="3"><path d="M 602.4545146668421 176.36354400052636 Q 602.4545146668421 176.36354400052636 604.1740755904012 175.76864778540312 605.8936365139604 175.17375157027985 607.3098637191039 174.85227478874887 608.7260909242474 174.5307980072179 610.555276501515 174.39701794124647 612.3844620787825 174.26323787527502 616.2250256819937 175.19020135312425 620.065589285205 176.11716483097348 622.8789697669806 177.43977507996746 625.6923502487563 178.76238532896144 629.6658040317866 180.46004108378622 633.6392578148169 182.15769683861097 637.9297665999356 184.05054508094122 642.2202753850544 185.9433933232715 648.6371220137921 188.76859013130974 655.0539686425298 191.59378693934795 667.2722149119528 197.11663983834134 679.4904611813758 202.63949273733473 688.4176412259808 206.71619880605448 697.3448212705856 210.79290487477422 709.2009493332985 216.56047452453606 721.0570773960114 222.32804417429793 734.1216243686617 228.22096722569006 747.186171341312 234.1138902770822 760.5057404505194 240.0728294599379 773.8253095597267 246.0317686427936 789.8177685358218 252.58307718240235 805.8102275119168 259.13438572201113 815.7696882086819 263.0701150070413 825.7291489054471 267.00584429207146 835.7013343751023 270.6878880168417 845.6735198447575 274.36993174161205 855.3316521797177 277.07193947082015 864.9897845146779 279.77394720002826 873.7236316845306 282.3694077540589 882.4574788543833 284.96486830808954 891.5442059651879 286.33591656065784 900.6309330759924 287.70696481322614 905.9409569725701 288.294563268337 911.2509808691478 288.88216172344784 916.640968170499 289.13031093997387 922.0309554718503 289.3784601564999 927.7698130216102 289.48490911298404 933.5086705713699 289.59135806946813 938.7108691901476 288.7866330062476 943.9130678089253 287.9819079430271 950.2841666923521 284.2562946727942 956.6552655757788 280.5306814025612 960.8341110455274 277.5135990056424 965.0129565152758 274.49651660872354 969.9371924227664 270.35339926145537 974.861428330257 266.21028191418725 980.0945783004404 261.02184044893687 985.3277282706238 255.83339898368652 990.3994982488784 249.63634536067875 995.4712682271332 243.43929173767097 1002.2241902497666 234.19994349540036 1008.9771122724 224.96059525312975 1013.2841539249016 218.73553981594847 1017.5911955774034 212.5104843787672 1022.8845376507418 205.24676243490265 1028.1778797240802 197.9830404910381 1035.2985420138534 187.44442282612252 1042.4192043036267 176.90580516120693 1046.8842858666385 170.12535272796717 1051.34936742965 163.3449002947274 1056.9961015781466 155.27111513791147 1062.6428357266432 147.19732998109552 1065.8937118047197 142.34536303348654 1069.144587882796 137.49339608587758 1071.6426806036343 132.61397315792948 1074.1407733244725 127.73455022998141 1074.2609698570943 127.57190837228441 1074.381166389716 127.40926651458743 1074.5470040064433 127.29351909471237 1074.7128416231703 127.1777716748373 1074.9069570817542 127.12103747819943 1075.1010725403382 127.06430328156155 1075.303141901024 127.07252239352522 1075.50521126171 127.0807415054889 1075.6940778090925 127.1530533828619 1075.8829443564753 127.2253652602349 1076.0388337131876 127.35419883036778 1076.1947230699002 127.48303240050066 1076.301313579144 127.65489875459176 1076.407904088388 127.82676510868285 1076.4540356957082 128.0236697940905 1076.5001673030285 128.22057447949817 1076.4810100169611 128.42190152368244 1076.4618527308937 128.62322856786668 1076.379412324347 128.80789897615625 1076.2969719178 128.99256938444583 1076.1598799231015 129.14124811634457 1076.022787928403 129.28992684824328 1075.8453979135866 129.387047201274 1075.66800789877 129.4841675543047 1075.468892645213 129.51956100186777 1075.269777391656 129.55495444943088 1075.0697843189673 129.52491528822355 1074.869791246279 129.4948761270162 1074.6898596819624 129.4025494651464 1074.5099281176458 129.3102228032766 1074.3688969439822 129.16527526661395 1074.2278657703189 129.02032772995133 1074.14050098842 128.8379353638469 1074.053136206521 128.6555429977425 1074.028584932113 128.4548023310743 1074.0040336577053 128.2540616644061 1074.0448664157002 128.05599029796468 1074.0856991736953 127.85791893152327 1074.1876407635518 127.68325498966082 1074.2895823534086 127.50859104779838 1074.441959463759 127.3756218913347 1074.5943365741095 127.24265273487102 1074.7811952812767 127.16530026958829 1074.9680539884437 127.08794780430556 1075.1698301364609 127.07431085373796 1075.371606284478 127.06067390317037 1075.5671738573842 127.11218025964213 1075.7627414302904 127.16368661611389 1075.9316244515776 127.27494355050607 1076.1005074728648 127.38620048489825 1076.2250238456236 127.545559366811 1076.3495402183821 127.70491824872374 1076.416653045515 127.89569416115414 1076.483765872648 128.08647007358454 1076.4864484234386 128.28868872814115 1076.4891309742293 128.49090738269777 1076.4271023849014 128.68339643286802 1076.3650737955736 128.87588548303827 1076.3651593957184 128.8757186605017 1076.365244995863 128.8755518379651 1073.7938795216337 133.8794332500985 1071.2225140474045 138.88331466223184 1067.9570179017928 143.75676969128511 1064.6915217561814 148.63022472033842 1059.064438907765 156.6750795086101 1053.4373560593485 164.7199342968818 1048.9640446884478 171.51275232267182 1044.4907333175468 178.30557034846183 1037.3445887039961 188.88053023420449 1030.1984440904455 199.45549011994714 1024.9228287441983 206.69430358939618 1019.6472133979514 213.93311705884523 1015.3214140631931 220.18461553534294 1010.9956147284346 226.43611401184066 1004.2006756045736 235.72983380175592 997.4057364807126 245.02355359167117 992.2472449378042 251.31607180910078 987.088753394896 257.60859002653035 981.780111550578 262.8661999505443 976.47146970626 268.1238098745582 971.4738425208063 272.32434285497084 966.4762153353527 276.5248758353835 962.1918535275852 279.6105000918312 957.9074917198176 282.6961243482789 951.1298675973242 286.56511496832013 944.3522434748307 290.4341055883613 938.9103879620317 291.2637426199035 933.4685324492326 292.09337965144573 927.6919685129294 291.9865629485481 921.9154045766263 291.87974624565044 916.4455766166529 291.6260939106899 910.9757486566795 291.3724415757294 905.6156189971992 290.7793304979308 900.255489337719 290.18621942013215 891.0006786695636 288.7791275952664 881.7458680014082 287.37203577040066 873.0290380442964 284.78363731870405 864.3122080871847 282.19523886700745 854.556982476346 279.464637170975 844.8017568655073 276.7340354749425 834.8013354038709 273.0452334932645 824.8009139422345 269.35643151158644 814.8248289183136 265.4195826637969 804.8487438943928 261.4827338160074 788.8163894100502 254.9220938078052 772.7840349257076 248.36145379960297 759.4569841280029 242.4099258111387 746.1299333302982 236.45839782267444 733.0259628749201 230.56198635331373 719.921992419542 224.665574883953 708.0874912398353 218.92882801429636 696.2529900601286 213.19208114463973 687.3198660049225 209.14098363825713 678.3867419497165 205.08988613187452 666.1689785725256 199.60614238356828 653.9512151953347 194.12239863526204 647.5186273614513 191.3438386261247 641.0860395275678 188.5652786169873 636.7896436947543 186.74340493655143 632.4932478619409 184.92153125611557 628.4386907792485 183.29042954560833 624.3841336965562 181.65932783510107 621.8374886119257 180.5613322833138 619.2908435272951 179.4633367315265 615.9313469742563 178.75358067812573 612.5718504212175 178.04382462472495 609.7891069536286 178.28503652722253 607.0063634860397 178.52624842972014 605.2759244095988 179.0813522145969 603.5454853331579 179.63645599947364 603.3417385364023 179.67795190406497 603.1379917396466 179.7194478086563 602.9302348996952 179.7109765195341 602.7224780597437 179.70250523041193 602.5227860138957 179.64455909929805 602.3230939680477 179.58661296818417 602.1430728273904 179.4825598269415 601.963051686733 179.37850668569885 601.8131642884197 179.23439410778536 601.6632768901063 179.09028152987187 601.5522346967693 178.91448534508697 601.4411925034323 178.73868916030204 601.3754492925656 178.54142665116518 601.3097060816989 178.34416414202832 601.2930828518072 178.13690021483887 601.2764596219155 177.92963628764943 601.309922515901 177.7244171315939 601.3433854098864 177.5191979755384 601.4249895627784 177.3279509376089 601.5065937156704 177.13670389967942 601.6315962902688 176.97054426670616 601.7565988648672 176.8043846337329 601.917734705663 176.67296961139124 602.0788705464587 176.54155458904955 602.2667744308139 176.4525220246125 602.4546783151692 176.36348946017543 602.4545964910056 176.3635167303509" stroke-opacity="0" fill="black" /></g><g id="4"><path d="M 244.88264874611042 144.88264874611042 Q 244.88264874611042 144.88264874611042 246.92834302680615 142.9013174480417 248.97403730750185 140.91998614997303 252.23652987763558 138.57879947789573 255.49902244776933 136.23761280581843 258.0480412727675 134.6784504172187 260.5970600977656 133.119288028619 265.8172609725772 131.26427558162732 271.0374618473888 129.40926313463564 276.4562406349107 128.33975261691586 281.87501942243273 127.27024209919605 286.46197020981714 126.53869684721286 291.04892099720155 125.80715159522968 297.3135547309479 124.92387868211046 303.57818846469416 124.04060576899121 308.5769715252203 123.66347035954496 313.5757545857464 123.28633495009869 322.04371108042005 123.12769221331524 330.5116675750937 122.96904947653178 338.41423618095206 122.90330675672422 346.3168047868104 122.83756403691667 353.98816140542647 122.81039679806358 361.6595180240425 122.78322955921047 369.2323958093622 122.7722343556951 376.80527359468186 122.76123915217974 382.0360639828632 122.7569634028969 387.2668543710445 122.75268765361407 395.52773179617327 122.75115761335995 403.788609221302 122.74962757310583 411.32451687998196 122.74919097197233 418.86042453866196 122.74875437083881 426.4237119039774 123.32559629015296 433.9869992692929 123.9024382094671 441.2764113357405 125.30637627807673 448.5658234021881 126.71031434668636 453.9482274469493 127.88099633703337 459.3306314917105 129.05167832738036 468.26133303205916 131.56970336035488 477.19203457240775 134.08772839332943 485.01815532547414 136.59792175196594 492.8442760785406 139.10811511060243 499.8950831477606 141.3210636196724 506.9458902169806 143.53401212874238 514.2413031907238 145.620463665141 521.536716164467 147.7069152015396 526.9643942355204 149.46441167868255 532.3920723065739 151.22190815582553 539.5443564391117 153.1064356031162 546.6966405716494 154.9909630504069 553.1963448243637 156.6574651845164 559.6960490770781 158.32396731862593 565.8810635068054 159.60098538967384 572.0660779365327 160.87800346072171 577.5174891239951 161.4137544164302 582.9689003114576 161.94950537213867 587.0122403008363 162.17936146636333 591.0555802902152 162.40921756058796 597.0721909565434 162.50683968894117 603.0888016228715 162.60446181729438 608.5262485193678 162.64628281190292 613.9636954158639 162.68810380651146 619.1491871317762 162.7058926419544 624.3346788476887 162.72368147739735 629.9566109795453 162.44451233513232 635.5785431114019 162.16534319286728 639.3819650214758 161.7621290727218 643.1853869315497 161.35891495257633 649.8701272872453 159.19955011734828 656.5548676429408 157.04018528212023 662.8943952550077 154.96262366493744 669.2339228670745 152.88506204775462 675.3779738500999 150.85219150821382 681.5220248331253 148.81932096867305 687.831864499331 146.2447252560789 694.1417041655368 143.67012954348476 698.8192466083729 141.4345335059544 703.4967890512089 139.198937468424 710.0547634105119 135.39085484502203 716.612737769815 131.58277222162005 722.5513058651818 127.67288709994493 728.4898739605487 123.76300197826981 733.9129563182607 120.36106036836713 739.3360386759726 116.95911875846447 743.9358351175479 114.07906600162988 748.5356315591231 111.19901324479528 751.0001732751255 109.15959189544147 753.464714991128 107.12017054608765 756.5401746810132 104.52068341922849 759.6156343708984 101.92119629236933 761.9561735489951 98.07751727174787 764.2967127270919 94.2338382511264 764.4294487552797 94.08126138967481 764.5621847834675 93.9286845282232 764.7366915841405 93.82647920376131 764.9111983848135 93.72427387929942 765.109205049876 93.68314101627797 765.3072117149384 93.64200815325653 765.5079868942896 93.6662543732919 765.7087620736407 93.69050059332729 765.8912845530031 93.7775873107814 766.0738070323653 93.8646740282355 766.2189666599683 94.00548324080223 766.3641262875713 94.14629245336897 766.4567248120863 94.32608139932258 766.5493233366016 94.50587034527618 766.5796656680685 94.70581507451564 766.6100079995355 94.90575980375509 766.5749172878401 95.10492605034875 766.5398265761447 95.3040922969424 766.4429768280645 95.48162730229711 766.3461270799844 95.65916230765184 766.1976584897093 95.7964781098423 766.0491898994342 95.93379391203274 765.8646471675578 96.01651351032173 765.6801044356814 96.09923310861072 765.4788092349457 96.11869573922154 765.2775140342101 96.13815836983235 765.080542025269 96.09232629020241 764.8835700163279 96.04649421057246 764.7115442205131 95.94016605153752 764.5395184246983 95.83383789250257 764.4104499882419 95.67814624038148 764.2813815517854 95.52245458826039 764.2087839740552 95.33370040012883 764.1361863963251 95.14494621199728 764.1276606628733 94.94289210117891 764.1191349294215 94.74083799036055 764.1755736867913 94.54663907559515 764.2320124441609 94.35244016082974 764.347506539557 94.18642911975678 764.4630006349531 94.02041807868382 764.6254578061003 93.8999763111263 764.7879149772473 93.77953454356879 764.9803259154417 93.71727233438352 765.1727368536361 93.65501012519825 765.3749560828574 93.65744634412255 765.5771753120787 93.65988256304685 765.7680304256467 93.72676213731626 765.9588855392146 93.79364171158566 766.1183939563577 93.91796233211967 766.277902373501 94.04228295265368 766.3893635208385 94.21102821766492 766.5008246681759 94.37977348267616 766.5525685341585 94.57527571837353 766.604312400141 94.77077795407091 766.5909213883413 94.97256802476932 766.5775303765415 95.17435809546774 766.5004065294297 95.36130852749767 766.423282682318 95.54825895952759 766.4233812638719 95.54809946677975 766.4234798454257 95.54793997403192 763.8394434108138 99.67428739984109 761.2554069762019 103.80063482565026 758.1553946361844 106.42473933745143 755.0553822961667 109.04884384925259 752.4599898241627 111.18257929674657 749.8645973521587 113.31631474424054 745.2645486454835 116.19663092116548 740.6644999388083 119.07694709809043 735.2644172418134 122.46410886173959 729.8643345448183 125.85127062538874 723.8660436879336 129.79809932383557 717.867752831049 133.74492802228244 711.2213531850541 137.59970144622628 704.5749535390594 141.4544748701701 699.8304394988415 143.7197165911004 695.0859254586237 145.98495831203067 688.6968086941145 148.58880438404992 682.3076919296051 151.19265045606917 676.1600807227128 153.22670176267752 670.0124695158205 155.2607530692859 663.6657331516105 157.34065461951286 657.3189967874006 159.42055616973985 650.388998375386 161.63169290488773 643.4589999633714 163.8428296400356 639.5806835964803 164.25256039136292 635.7023672295892 164.6622911426902 630.0143269450575 164.94299228624345 624.3262866605259 165.2236934297967 619.1353726908187 165.20588293775324 613.9444587211117 165.18807244570976 608.496245180856 165.1461303168209 603.0480316406002 165.104188187932 596.980735396924 165.00472061393833 590.913439153248 164.90525303994465 586.8181746484988 164.671368658059 582.7229101437498 164.43748427617334 577.1423107567938 163.88208117044582 571.5617113698378 163.32667806471832 565.3184656244626 162.03627481474035 559.0752198790875 160.74587156476235 552.5672531315611 159.07726470822277 546.0592863840345 157.4086578516832 538.8405799277701 155.50469355627007 531.6218734715058 153.60072926085695 526.2354560394955 151.85589222575567 520.8490386074852 150.1110551906544 513.523050397549 148.0155455217725 506.1970621876127 145.9200358528906 499.13869000111634 143.70484034953586 492.08031781462 141.4896448461811 484.29660502482443 138.99244052852407 476.5128922350289 136.49523621086706 467.6557501451141 133.99585494668042 458.7986080551992 131.49647368249376 453.4449094405171 130.33208203246153 448.09121082583493 129.16769038242927 440.94273428182754 127.78321988544063 433.79425773782015 126.39874938845199 426.32721896088844 125.82639468282905 418.8601801839568 125.2540399772061 411.32473221381997 125.2554936703383 403.7892842436832 125.25694736347047 395.52932489512546 125.25986507442973 387.26936554656777 125.26278278538898 382.039363526075 125.2689723330788 376.8093615055822 125.27516188076862 369.2391983293159 125.28879090542422 361.6690351530496 125.30241993007982 354.003824803228 125.33319205162897 346.3386144534063 125.3639641731781 338.44926078058774 125.43454936019938 330.55990710776916 125.50513454722065 322.1645170643795 125.66726335591679 313.7691270209898 125.82939216461291 308.8541535213668 126.20701333276568 303.9391800217439 126.58463450091847 297.7008571433747 127.477259417444 291.4625342650055 128.36988433396954 286.924881259177 129.1110398576211 282.38722825334855 129.8521953812727 277.1598804686049 130.89492198269352 271.9325326838612 131.93764858411436 266.9853769180478 133.69966465274769 262.0382211522344 135.46168072138101 259.60522435223254 137.00140895778128 257.17222755223065 138.54113719418157 254.1240951223644 140.78557552210427 251.07596269249817 143.03001385002696 249.0966569731939 145.07368255195826 247.11735125388958 147.11735125388958 246.96741212563919 147.23482012845267 246.8174729973888 147.35228900301578 246.64377808462987 147.43046032738272 246.47008317187095 147.50863165174968 246.28272763109408 147.54296210487541 246.09537209031723 147.57729255800115 245.90524503435523 147.56578685233697 245.7151179783932 147.5542811466728 245.53326960067167 147.49760799437252 245.35142122295014 147.44093484207224 245.18842055972632 147.34238808941032 245.0254198965025 147.2438413367484 244.89074055398157 147.10914852561976 244.7560612114606 146.9744557144911 244.6575307593577 146.81144519740707 244.55900030725485 146.64843468032302 244.5023453400757 146.4665806361955 244.4456903728965 146.28472659206795 244.43420367999542 146.09459838648604 244.42271698709433 145.9044701809041 244.45706617560245 145.7171180741093 244.4914153641106 145.52976596731452 244.56960405757792 145.3560788725565 244.64779275104527 145.1823917777985 244.76527661893383 145.03246439718524 244.88276048682238 144.88253701657197 244.8827046164664 144.8825928813412" stroke-opacity="0" fill="black" /></g><g id="5"><path d="M 602.4545146668421 176.36354400052636 Q 602.4545146668421 176.36354400052636 604.1740755904012 175.76864778540312 605.8936365139604 175.17375157027985 607.3098637191039 174.85227478874887 608.7260909242474 174.5307980072179 610.555276501515 174.39701794124647 612.3844620787825 174.26323787527502 616.2250256819937 175.19020135312425 620.065589285205 176.11716483097348 622.8789697669806 177.43977507996746 625.6923502487563 178.76238532896144 629.6658040317866 180.46004108378622 633.6392578148169 182.15769683861097 637.9297665999356 184.05054508094122 642.2202753850544 185.9433933232715 648.6371220137921 188.76859013130974 655.0539686425298 191.59378693934795 667.2722149119528 197.11663983834134 679.4904611813758 202.63949273733473 688.4176412259808 206.71619880605448 697.3448212705856 210.79290487477422 709.2009493332985 216.56047452453606 721.0570773960114 222.32804417429793 734.1216243686617 228.22096722569006 747.186171341312 234.1138902770822 760.5057404505194 240.0728294599379 773.8253095597267 246.0317686427936 789.8177685358218 252.58307718240235 805.8102275119168 259.13438572201113 815.7696882086819 263.0701150070413 825.7291489054471 267.00584429207146 835.7013343751023 270.6878880168417 845.6735198447575 274.36993174161205 855.3316521797177 277.07193947082015 864.9897845146779 279.77394720002826 873.7236316845306 282.3694077540589 882.4574788543833 284.96486830808954 891.5442059651879 286.33591656065784 900.6309330759924 287.70696481322614 905.9409569725701 288.294563268337 911.2509808691478 288.88216172344784 916.640968170499 289.13031093997387 922.0309554718503 289.3784601564999 927.7698130216102 289.48490911298404 933.5086705713699 289.59135806946813 938.7108691901476 288.7866330062476 943.9130678089253 287.9819079430271 950.2841666923521 284.2562946727942 956.6552655757788 280.5306814025612 960.8341110455274 277.5135990056424 965.0129565152758 274.49651660872354 969.9371924227664 270.35339926145537 974.861428330257 266.21028191418725 980.0945783004404 261.02184044893687 985.3277282706238 255.83339898368652 990.3994982488784 249.63634536067875 995.4712682271332 243.43929173767097 1002.2241902497666 234.19994349540036 1008.9771122724 224.96059525312975 1013.2841539249016 218.73553981594847 1017.5911955774034 212.5104843787672 1022.8845376507418 205.24676243490265 1028.1778797240802 197.9830404910381 1035.2985420138534 187.44442282612252 1042.4192043036267 176.90580516120693 1046.8842858666385 170.12535272796717 1051.34936742965 163.3449002947274 1056.9961015781466 155.27111513791147 1062.6428357266432 147.19732998109552 1065.8937118047197 142.34536303348654 1069.144587882796 137.49339608587758 1071.6426806036343 132.61397315792948 1074.1407733244725 127.73455022998141 1074.2609698570943 127.57190837228441 1074.381166389716 127.40926651458743 1074.5470040064433 127.29351909471237 1074.7128416231703 127.1777716748373 1074.9069570817542 127.12103747819943 1075.1010725403382 127.06430328156155 1075.303141901024 127.07252239352522 1075.50521126171 127.0807415054889 1075.6940778090925 127.1530533828619 1075.8829443564753 127.2253652602349 1076.0388337131876 127.35419883036778 1076.1947230699002 127.48303240050066 1076.301313579144 127.65489875459176 1076.407904088388 127.82676510868285 1076.4540356957082 128.0236697940905 1076.5001673030285 128.22057447949817 1076.4810100169611 128.42190152368244 1076.4618527308937 128.62322856786668 1076.379412324347 128.80789897615625 1076.2969719178 128.99256938444583 1076.1598799231015 129.14124811634457 1076.022787928403 129.28992684824328 1075.8453979135866 129.387047201274 1075.66800789877 129.4841675543047 1075.468892645213 129.51956100186777 1075.269777391656 129.55495444943088 1075.0697843189673 129.52491528822355 1074.869791246279 129.4948761270162 1074.6898596819624 129.4025494651464 1074.5099281176458 129.3102228032766 1074.3688969439822 129.16527526661395 1074.2278657703189 129.02032772995133 1074.14050098842 128.8379353638469 1074.053136206521 128.6555429977425 1074.028584932113 128.4548023310743 1074.0040336577053 128.2540616644061 1074.0448664157002 128.05599029796468 1074.0856991736953 127.85791893152327 1074.1876407635518 127.68325498966082 1074.2895823534086 127.50859104779838 1074.441959463759 127.3756218913347 1074.5943365741095 127.24265273487102 1074.7811952812767 127.16530026958829 1074.9680539884437 127.08794780430556 1075.1698301364609 127.07431085373796 1075.371606284478 127.06067390317037 1075.5671738573842 127.11218025964213 1075.7627414302904 127.16368661611389 1075.9316244515776 127.27494355050607 1076.1005074728648 127.38620048489825 1076.2250238456236 127.545559366811 1076.3495402183821 127.70491824872374 1076.416653045515 127.89569416115414 1076.483765872648 128.08647007358454 1076.4864484234386 128.28868872814115 1076.4891309742293 128.49090738269777 1076.4271023849014 128.68339643286802 1076.3650737955736 128.87588548303827 1076.3651593957184 128.8757186605017 1076.365244995863 128.8755518379651 1073.7938795216337 133.8794332500985 1071.2225140474045 138.88331466223184 1067.9570179017928 143.75676969128511 1064.6915217561814 148.63022472033842 1059.064438907765 156.6750795086101 1053.4373560593485 164.7199342968818 1048.9640446884478 171.51275232267182 1044.4907333175468 178.30557034846183 1037.3445887039961 188.88053023420449 1030.1984440904455 199.45549011994714 1024.9228287441983 206.69430358939618 1019.6472133979514 213.93311705884523 1015.3214140631931 220.18461553534294 1010.9956147284346 226.43611401184066 1004.2006756045736 235.72983380175592 997.4057364807126 245.02355359167117 992.2472449378042 251.31607180910078 987.088753394896 257.60859002653035 981.780111550578 262.8661999505443 976.47146970626 268.1238098745582 971.4738425208063 272.32434285497084 966.4762153353527 276.5248758353835 962.1918535275852 279.6105000918312 957.9074917198176 282.6961243482789 951.1298675973242 286.56511496832013 944.3522434748307 290.4341055883613 938.9103879620317 291.2637426199035 933.4685324492326 292.09337965144573 927.6919685129294 291.9865629485481 921.9154045766263 291.87974624565044 916.4455766166529 291.6260939106899 910.9757486566795 291.3724415757294 905.6156189971992 290.7793304979308 900.255489337719 290.18621942013215 891.0006786695636 288.7791275952664 881.7458680014082 287.37203577040066 873.0290380442964 284.78363731870405 864.3122080871847 282.19523886700745 854.556982476346 279.464637170975 844.8017568655073 276.7340354749425 834.8013354038709 273.0452334932645 824.8009139422345 269.35643151158644 814.8248289183136 265.4195826637969 804.8487438943928 261.4827338160074 788.8163894100502 254.9220938078052 772.7840349257076 248.36145379960297 759.4569841280029 242.4099258111387 746.1299333302982 236.45839782267444 733.0259628749201 230.56198635331373 719.921992419542 224.665574883953 708.0874912398353 218.92882801429636 696.2529900601286 213.19208114463973 687.3198660049225 209.14098363825713 678.3867419497165 205.08988613187452 666.1689785725256 199.60614238356828 653.9512151953347 194.12239863526204 647.5186273614513 191.3438386261247 641.0860395275678 188.5652786169873 636.7896436947543 186.74340493655143 632.4932478619409 184.92153125611557 628.4386907792485 183.29042954560833 624.3841336965562 181.65932783510107 621.8374886119257 180.5613322833138 619.2908435272951 179.4633367315265 615.9313469742563 178.75358067812573 612.5718504212175 178.04382462472495 609.7891069536286 178.28503652722253 607.0063634860397 178.52624842972014 605.2759244095988 179.0813522145969 603.5454853331579 179.63645599947364 603.3417385364023 179.67795190406497 603.1379917396466 179.7194478086563 602.9302348996952 179.7109765195341 602.7224780597437 179.70250523041193 602.5227860138957 179.64455909929805 602.3230939680477 179.58661296818417 602.1430728273904 179.4825598269415 601.963051686733 179.37850668569885 601.8131642884197 179.23439410778536 601.6632768901063 179.09028152987187 601.5522346967693 178.91448534508697 601.4411925034323 178.73868916030204 601.3754492925656 178.54142665116518 601.3097060816989 178.34416414202832 601.2930828518072 178.13690021483887 601.2764596219155 177.92963628764943 601.309922515901 177.7244171315939 601.3433854098864 177.5191979755384 601.4249895627784 177.3279509376089 601.5065937156704 177.13670389967942 601.6315962902688 176.97054426670616 601.7565988648672 176.8043846337329 601.917734705663 176.67296961139124 602.0788705464587 176.54155458904955 602.2667744308139 176.4525220246125 602.4546783151692 176.36348946017543 602.4545964910056 176.3635167303509" stroke-opacity="0" fill="black" /></g><g id="6"><path d="M 337.432750844628 236.52515219603276 Q 337.432750844628 236.52515219603276 341.1872021852507 235.12981845859582 344.94165352587345 233.73448472115888 348.63695962198426 232.84070160972345 352.33226571809513 231.94691849828806 356.4668411871079 231.01061216597827 360.60141665612065 230.07430583366846 364.6940151902543 229.38923186903398 368.7866137243879 228.7041579043995 371.9973511897107 228.41491809575143 375.2080886550335 228.12567828710334 380.0061024057461 227.7214315162842 384.80411615645875 227.31718474546506 389.45973787650547 227.14637185158816 394.1153595965522 226.97555895771126 399.5462643995613 226.90536057478135 404.97716920257045 226.83516219185142 410.1585817758383 226.8068838606452 415.3399943491061 226.77860552943895 419.2671973790203 226.76766451402062 423.1944004089344 226.75672349860233 428.38403242844066 227.33167853909026 433.5736644479469 227.9066335795782 439.25151999195685 229.02067070000274 444.9293755359668 230.13470782042728 450.8683267642598 232.3579773179058 456.80727799255277 234.58124681538433 463.00547391291684 236.65692528305954 469.20366983328097 238.73260375073477 473.6065887709444 240.49353266939704 478.0095077086078 242.25446158805929 484.26178259976774 245.9133730173083 490.51405749092766 249.57228444655726 496.0523172615666 253.43666990820822 501.5905770322056 257.30105536985917 506.8202762757137 261.2457013772903 512.0499755192218 265.1903473847214 517.1642924976748 269.4682071687091 522.2786094761277 273.7460669526968 525.8967746723241 277.0086448264591 529.5149398685205 280.27122270022136 534.8116295076063 285.70421001730494 540.108319146692 291.13719733438853 544.6573625421415 296.0326890283502 549.2064059375911 300.9281807223119 553.4527357048394 305.89867584323576 557.6990654720877 310.8691709641596 561.5063122520191 315.2703842957418 565.3135590319507 319.671597627324 568.0708203314696 322.68001920187044 570.8280816309884 325.6884407764168 573.7361495638077 328.9925083163125 576.6442174966269 332.29657585620816 579.2197874636936 334.1852245165835 581.7953574307603 336.0738731769589 584.6352087869313 338.0503304731778 587.4750601431023 340.02678776939666 590.5583532212484 341.0860113851423 593.6416462993946 342.1452350008879 595.5426371299928 342.55663809738235 597.4436279605911 342.96804119387673 601.3067671823588 343.16905929356665 605.1699064041266 343.3700773932565 608.8592312846455 343.46725348446944 612.5485561651644 343.56442957568237 616.6551735996903 343.3232596892067 620.7617910342162 343.082089802731 624.125351637211 342.14105854499553 627.4889122402059 341.20002728726007 629.4351350632926 340.23111828905485 631.3813578863794 339.2622092908497 635.9765806526741 336.85109850120085 640.5718034189689 334.439987711552 644.8422928068233 332.2599047923384 649.1127821946777 330.07982187312473 652.3107288395067 328.0370977950599 655.5086754843356 325.994373716995 658.5784971552378 323.7033023401186 661.6483188261398 321.41223096324217 663.8429998988224 319.8455392765254 666.037680971505 318.2788475898086 668.9790701211475 316.1794109470005 671.9204592707902 314.0799743041925 673.9970772774495 312.3537547742003 676.0736952841088 310.62753524420805 677.8040176165035 309.02647764336587 679.5343399488983 307.4254200425237 682.1240671440362 305.6407816056664 684.7137943391742 303.8561431688091 684.9242582845612 303.75139723999405 685.1347222299482 303.6466513111789 685.3676149222167 303.6145923686023 685.6005076144852 303.58253342602575 685.831445127277 303.62651804943823 686.0623826400689 303.6705026728507 686.2671857548331 303.7859256605701 686.4719888695973 303.9013486482895 686.6292146461553 304.07612518303296 686.7864404227134 304.2509017177764 686.879627280756 304.4667326502197 686.9728141387988 304.68256358266297 686.9922053896901 304.9168513572055 687.0115966405813 305.151139131748 686.955162015234 305.3793537565491 686.8987273898869 305.60756838135023 686.7723756084723 305.80581572495055 686.6460238270578 306.0040630685508 686.4629839544436 306.1515865817431 686.2799440818294 306.2991100949354 686.0593804409962 306.380464026946 685.8388168001629 306.4618179589566 685.603822462529 306.46848453162863 685.3688281248951 306.4751511043007 685.1440070596432 306.4064323257157 684.9191859943913 306.33771354713065 684.7280770264003 306.2008042915464 684.5369680584095 306.0638950359621 684.3995803470759 305.87312973857877 684.2621926357425 305.68236444119543 684.19291071071 305.45771627900626 684.1236287856774 305.23306811681704 684.1297064827852 304.99805781170454 684.1357841798931 304.76304750659205 684.2165851626498 304.5422806995382 684.2973861454067 304.3215138924844 684.4444505295884 304.13810492646456 684.5915149137701 303.9546959604447 684.7894450195316 303.8278478026164 684.9873751252932 303.7009996447881 685.2154476183127 303.6439933307606 685.4435201113324 303.58698701673313 685.6778557413858 303.6057911226334 685.9121913714391 303.62459522853356 686.128255136201 303.7172409595099 686.3443189009628 303.8098866904862 686.5194888672272 303.96667401404943 686.6946588334918 304.1234613376126 686.8105946595506 304.3279745795977 686.9265304856095 304.5324878215828 686.9710936598703 304.76331439156775 687.015656834131 304.99414096155266 686.984181580485 305.22711325672765 686.9527063268391 305.4600855519027 686.8484881126519 305.6708113114643 686.7442698984646 305.88153707102595 686.5782203982724 306.0479532523218 686.4121708980801 306.2143694336177 686.4123477650513 306.2142420553748 686.4125246320225 306.214114677132 683.837207140723 307.7722237074526 681.2618896494233 309.33033273777323 679.4720143571533 310.9464020177201 677.6821390648832 312.562471297667 675.5347626605667 314.34713854600204 673.38738625625 316.13180579433714 670.4487885565375 318.2344556887698 667.5101908568248 320.3371055832024 665.3401969898482 321.8929704546989 663.1702031228715 323.4488353261955 660.0290249357517 325.79907349805626 656.8878467486319 328.1493116699171 653.589323139292 330.26261005946924 650.290799529952 332.3759084490214 646.0401824374087 334.5629372183183 641.7895653448655 336.74996598761527 637.158655216107 339.2026474062266 632.5277450873486 341.65532882483797 630.3536552161925 342.6600485519509 628.1795653450364 343.66476827906394 624.5541549027539 344.66168696325354 620.9287444604715 345.65860564744315 616.7083712002274 345.91849444785 612.4879979399832 346.1783832482568 608.7608741269256 346.1015797791933 605.033750313868 346.02477631012977 600.917010256632 345.81643073858095 596.800270199396 345.6080851670322 594.8074274323385 345.05627962531787 592.814584665281 344.5044740836036 589.4417986901196 343.29732443297587 586.0690127149581 342.09017478234813 583.1886780633465 340.08693027533553 580.3083434117348 338.08368576832294 577.5422992428422 336.02009489168313 574.7762550739496 333.95650401504327 571.8805250398059 330.667066761962 568.9847950056621 327.3776295088807 566.203708147621 324.34251039406956 563.4226212895799 321.30739127925847 559.610225345841 316.9002735770583 555.7978294021021 312.4931558748581 551.5861762901259 307.56169562217633 547.3745231781496 302.6302353694945 542.845959798953 297.7564203020311 538.3173964197564 292.8826052345676 533.0785407067335 287.5054589953569 527.8396849937108 282.12831275614616 524.2565670084755 278.89645873274526 520.6734490232402 275.66460470934436 515.6082761630304 271.42615414706586 510.5431033028206 267.18770358478736 505.35047351418086 263.27044289512145 500.15784372554106 259.35318220545554 494.7023881264205 255.54249308570175 489.24693252729986 251.73180396594796 483.1610536072608 248.15524579189167 477.0751746872217 244.5786876178354 472.74126112794636 242.8443939404853 468.40734756867096 241.11010026313517 462.1659376138849 239.02054909313415 455.92452765909894 236.93099792313316 450.1820532988034 234.76549180254997 444.43957893850785 232.59998568196679 438.8670213328977 231.5051389951873 433.29446372728756 230.41029230840783 428.24782951239354 229.8466972142981 423.2011952974995 229.28310212018837 419.2783601288249 229.29910196454023 415.35552496015026 229.31510180889205 410.1839064779151 229.35021373596857 405.01228799567997 229.3853256630451 399.6125314916232 229.46428082901582 394.21277498756643 229.5432359949865 389.61978186745813 229.72337262793457 385.0267887473498 229.90350926088263 380.2398264035801 230.32502608259279 375.4528640598103 230.7465429043029 372.3460107145862 231.04733507807669 369.2391573693621 231.34812725185049 365.2315422316207 232.051363834091 361.22392709387935 232.75460041633153 357.1227056878921 233.73196595902175 353.02148428190486 234.70933150171194 349.51491537801576 235.61242339027655 346.0083464741266 236.51551527884112 342.2877978147493 237.99518154140418 338.567249155372 239.47484780396724 338.38252441986265 239.5212961705974 338.1977996843533 239.56774453722758 338.0073268853698 239.56863421077585 337.8168540863864 239.56952388432413 337.63170351195515 239.52480315692205 337.44655293752385 239.48008242951997 337.2774855477299 239.39235047194535 337.10841815793594 239.30461851437073 336.9652601574178 239.1789743121199 336.82210215689963 239.05333010986905 336.71317389537364 238.89707610988015 336.6042456338476 238.74082210989124 336.53587802699155 238.5630398019852 336.46751042013557 238.3852574940792 336.4436769964723 238.19627959434462 336.419843572809 238.00730169461002 336.4419295320415 237.81811160745855 336.4640154912741 237.62892152030705 336.5307371964142 237.45051498249296 336.59745890155426 237.27210844467888 336.7049384839642 237.11485445256233 336.81241806637416 236.9576004604458 336.95440880767444 236.83063862343718 337.0963995489748 236.70367678642856 337.2646489406096 236.61438613246006 337.4328983322444 236.52509547849155 337.43282458843623 236.52512383726216" stroke-opacity="0" fill="black" /></g></svg>