<?xml version ="1.0"?>
<svg id="drawingSvg" xmlns="http://www.w3.org/2000/svg" version="1.1" xmlns:xlink="http://www.w3.org/1999/xlink" xmlns:svgjs="http://svgjs.com/svgjs" width="100%" height="100%"><g><path d="M 251.79492766805805 208.50897875686513 Q 251.79492766805805 208.50897875686513 259.1692083593805 186.0985358469532 266.5434890507029 163.68809293704132 272.54584183857924 135.40992775993163 278.54819462645554 107.13176258282196 283.7255080792393 89.41130727065283 288.9028215320231 71.6908519584837 299.14133426066 58.35446729216467 309.37984698929694 45.01808262584563 323.4439471144548 38.55203408384801 337.5080472396126 32.085985541850384 358.1928194620625 35.128015060137514 378.8775916845124 38.17004457842464 394.99810256519595 43.692612616867876 411.1186134458794 49.21518065531111 423.0332733483983 60.47899468837345 434.9479332509172 71.74280872143578 444.08397922914867 101.13974897815133 453.2200252073802 130.53668923486688 456.0577433807671 166.63772646887568 458.89546155415394 202.73876370288448 455.9199652395222 234.23256319460336 452.94446892489043 265.72636268632226 447.9137387098857 284.2193471298755 442.883008494881 302.7123315734286 431.98332235988136 316.3642578548621 421.08363622488173 330.0161841362956 411.09389144983663 333.5302713348501 401.1041466747916 337.0443585334047 400.99611508626356 337.15002527990407 400.88808349773547 337.25569202640344 400.7579028128751 337.3324336365308 400.62772212801474 337.40917524665815 400.4829584543426 337.45253149442715 400.3381947806705 337.4958877421962 400.1872617897022 337.50333876044954 400.03632879873385 337.5107897787028 399.8879987229959 337.4819025139094 399.73966864725804 337.45301524911605 399.6025624377217 337.389468630463 399.46545622818536 337.32592201180995 399.34754250419076 337.2314093717591 399.22962878019615 337.1368967317083 399.137760692922 337.0169111493401 399.0458926056478 336.89692556697185 398.98540953264285 336.758440609971 398.9249264596379 336.6199556529701 398.89934367994704 336.47102007354414 398.8737609002562 336.3220844941182 398.884565286237 336.1713544351411 398.8953696722178 336.02062437616405 398.94193327244943 335.87686027574557 398.9884968726811 335.73309617532715 399.06811340853034 335.6046536097384 399.1477299443796 335.47621104414964 397.2003071469802 316.83566024605625 395.2528843495808 298.19510944796286 405.3182855500884 275.8638671052966 415.383686750596 253.53262476263032 434.15167084520147 235.92726875686122 452.919654939807 218.32191275109213 471.20049762357746 209.6647548974703 489.481340307348 201.00759704384848 502.65092099988084 198.47562611426187 515.8205016924137 195.94365518467526 523.0711032866243 196.1711368654278 530.3217048808348 196.39861854618036 533.7129953591066 196.9390746793785 537.1042858373785 197.47953081257663 538.6545771674644 197.94590869854827 540.2048684975503 198.4122865845199 546.9394952524351 198.62921006587106 553.67412200732 198.84613354722225 586.1401080202495 188.61103816642327 618.6060940331789 178.3759427856243 658.682742584459 157.24862994618235 698.7593911357391 136.12131710674038 698.9694749640955 136.05102099108163 699.1795587924521 135.98072487542288 699.4010910510915 135.98119091806115 699.6226233097309 135.98165696069938 699.8324095126949 136.05283636684737 700.0421957156589 136.12401577299536 700.2182711921189 136.2584560400399 700.3943466685789 136.3928963070844 700.5182762696702 136.5765215035771 700.6422058707615 136.76014670006978 700.7010141345356 136.97373121946552 700.7598223983097 137.18731573886126 700.7473520840255 137.40849722559847 700.7348817697413 137.62967871233568 700.6524385225962 137.83529940636672 700.5699952754512 138.04092010039776 700.4262109251844 138.209451460779 700.2824265749175 138.3779828211603 700.0923553809571 138.49177956997187 699.9022841869967 138.60557631878345 699.6858266535243 138.65272390638535 699.4693691200519 138.69987149398727 699.2491884079614 138.67543355551183 699.0290076958707 138.6509956170364 698.8281567838401 138.557530811093 698.6273058718093 138.46406600514956 698.4668139033474 138.31136012159277 698.3063219348855 138.15865423803598 698.2029924614562 137.96269562318463 698.099662988027 137.76673700833325 698.0643146327748 137.54804258089035 698.0289662775225 137.32934815344743 698.0653000225732 137.1108152776959 698.101633767624 136.8922824019444 698.2058454602796 136.6967915276626 698.3100571529353 136.5013006533808 698.4712358014657 136.34931972671058 698.6324144499961 136.19733880004034 698.833684607353 136.10478026412312 699.0349547647099 136.0122217282059 699.2552433922881 135.98877648618532 699.4755320198661 135.96533124416473 699.6917748402072 136.01345401906926 699.9080176605485 136.06157679397379 700.0975739932805 136.17622911856776 700.2871303260126 136.29088144316174 700.4301535730605 136.4600591887949 700.5731768201083 136.62923693442804 700.6546924097515 136.83522714647398 700.7362079993949 137.04121735851993 700.7476812278799 137.26245280740136 700.7591544563649 137.48368825628276 700.6993840736407 137.69700553210123 700.6396136909163 137.91032280791973 700.5148576718318 138.09338753558683 700.3901016527474 138.2764522632539 700.2134219854333 138.41009751745844 700.0367423181192 138.543742771663 700.0369240000455 138.5436469703236 700.0371056819716 138.5435511689842 659.7509064922913 159.80717863370887 619.4647073026109 181.0708060984335 586.635757454457 191.4320408450854 553.806807606303 201.79327559173728 546.5173728965854 201.43107343498463 539.2279381868677 201.06887127823194 537.9634737446481 200.50779713018278 536.6990093024285 199.94672298213362 533.4673450223347 199.42258609410635 530.2356807422408 198.8984492060791 523.2558005520614 198.65041789571302 516.2759203618818 198.40238658534696 503.4031909734969 200.83979685312835 490.530461585112 203.27720712090974 472.56469231378185 211.72447561403612 454.59892304245164 220.17174410716248 436.11017312505567 237.40033244668328 417.62142320765975 254.62892078620408 407.6709796740463 276.3775474912787 397.7205361404328 298.1261741963533 399.4123806064082 317.58521745054054 401.10422507238366 337.04426070472783 400.9962040510704 337.1499382538577 400.8881830297571 337.25561580298756 400.75801001970865 337.33237043079964 400.62783700966014 337.4091250586118 400.48307767233666 337.4524957825314 400.3383183350131 337.49586650645097 400.1873860899013 337.50333261796607 400.03645384478943 337.5107987294812 399.8881208810667 337.48192629783983 399.73978791734396 337.45305386619845 399.6026753538313 337.38952095848407 399.46556279031864 337.3259880507697 399.34763961564965 337.2314872025638 399.2297164409806 337.13698635435793 399.13783635560753 337.01700995939837 399.0459562702345 336.89703356443874 398.9854593490363 336.7585546564376 398.9249624278381 336.6200757484364 398.8993647547172 336.4711427280331 398.8737670815963 336.3222097076298 398.88455639451723 336.17147856896776 398.89534570743814 336.02074743030573 398.941894931027 335.8769786742461 398.9884441546158 335.7332099181865 399.06804784581044 335.6047593915864 399.14765153700506 335.47630886498627 409.22070408170475 331.901435774217 419.2937566264044 328.32656268344783 429.89477006727475 315.1515235782372 440.4957835081451 301.9764844730265 445.46669935401104 283.72955035977 450.437615199877 265.4826162465135 453.4071684402349 234.20601913397428 456.3767216805928 202.92942202143504 453.5851446892496 167.10011430424822 450.7935676979064 131.2708065870614 441.9489191708906 102.36105284096375 433.1042706438748 73.4512990948661 421.65259053404714 62.522891944838534 410.2009104242195 51.59448479481096 394.3417977464404 46.16476769657207 378.4826850686614 40.735050598333174 358.42128421237595 37.624644500897645 338.3598833560905 34.51423840346212 324.8741644724593 40.63069429505825 311.3884455888281 46.74715018665437 301.45091359090253 59.634305364085336 291.51338159297694 72.52146054151629 286.4235309832607 90.12109897934718 281.3336803735445 107.72073741717806 275.3544706614208 136.16632224006838 269.37526094929717 164.6119070629587 262.08704164061953 187.05146415304677 254.79882233194195 209.49102124313487 254.71824264841274 209.66361206929298 254.6376629648835 209.8362028954511 254.51811995159645 209.984493645823 254.3985769383094 210.1327843961949 254.24701844081343 210.24815640540152 254.09545994331748 210.36352841460817 253.92069454860803 210.43927625605374 253.7459291538986 210.51502409749932 253.55811423492753 210.54674530308003 253.37029931595643 210.57846650866074 253.1803506846387 210.56431744041777 252.99040205332102 210.55016837217482 252.80935953303361 210.4909713746193 252.62831701274618 210.4317743770638 252.4667028032744 210.33096998247498 252.3050885938026 210.23016558788615 252.17229572059432 210.09361255241384 252.03950284738607 209.9570595169415 251.94324923847148 209.79269430942324 251.8469956295569 209.62832910190497 251.7928755492085 209.44570463592436 251.73875546886012 209.26308016994378 251.72991437869064 209.07281058804426 251.72107328852113 208.88254100614472 251.75802503310658 208.695684785366 251.79497677769203 208.5088285645873 251.79495222287505 208.50890366072622" stroke-opacity="0" fill="black"></path></g></svg>