<svg xmlns="http://www.w3.org/2000/svg" id="drawingSvg" version="1.1" width="100%" height="100%"><g id="1"><path d="M 179.44516411358626 76.52043763622999 Q 179.44516411358626 76.52043763622999 184.06348773680713 74.83729994776269 188.681811360028 73.15416225929539 193.0755796859604 72.41745755225276 197.46934801189278 71.68075284521011 203.10032005467446 71.38401690063185 208.7312920974561 71.0872809560536 215.2626176885349 72.13197784164981 221.7939432796137 73.17667472724602 230.43531931132893 77.41729915003779 239.07669534304415 81.65792357282955 248.53316706722006 88.97448032199063 257.989638791396 96.29103707115172 266.9713303367605 108.9902456042081 275.9530218821251 121.68945413726448 280.89311113434644 129.9522645821487 285.83320038656785 138.2150750270329 288.8474529070894 149.33787277560447 291.86170542761096 160.46067052417607 293.12788701865145 168.63907723467628 294.3940686096919 176.81748394517646 294.92859668020964 181.4384322721274 295.4631247507274 186.05938059907834 295.8728927697098 189.97247698352783 296.2826607886921 193.8855733679773 296.2614439932733 194.11572109571955 296.2402271978545 194.34586882346179 296.14663232664554 194.55719352404395 296.05303745543654 194.76851822462612 295.8968639161596 194.93889414611294 295.74069037688264 195.10927006759974 295.53828958032585 195.22085880603666 295.33588878376906 195.33244754447358 295.10845214676056 195.3735657294897 294.881015509752 195.41468391450582 294.652355708224 195.38102646127578 294.42369590669597 195.34736900804575 294.21775368222876 195.24245986080746 294.01181145776155 195.1375507135692 293.85014901562033 194.97237388773183 293.6884865734791 194.80719706189447 293.5880300140308 194.59904661472564 293.4875734545825 194.39089616755683 293.45884060611934 194.1615655058215 293.4301077576562 193.9322348440862 293.4761069569969 193.70573494860548 293.52210615633766 193.47923505312477 293.6380212751688 193.27928052274564 293.75393639399994 193.07932599236653 293.92763108878114 192.92685211920258 294.1013257835624 192.77437824603862 294.31461417389926 192.6853490848593 294.52790256423606 192.59631992367994 294.7584532993575 192.5800568511621 294.98900403447897 192.5637937786443 295.21267839155837 192.62199954277366 295.4363527486378 192.680205306903 295.6297319634446 192.8067857488103 295.82311117825145 192.93336619071763 295.9659483959483 193.11506830472126 296.1087856136451 193.29677041872492 296.18612573983376 193.514569945524 296.2634658660224 193.73236947232303 296.267211369075 193.96346274396817 296.27095687212767 194.1945560156133 296.200715596886 194.41474750556057 296.1304743216444 194.6349389955078 295.9936005481681 194.82117459663482 295.8567267746918 195.0074101977618 295.66755122319506 195.1401909934691 295.4783756716983 195.27297178917644 295.2567050723603 195.33839559510278 295.0350344730223 195.40381940102912 294.804077796109 195.39503632742384 294.5731211191958 195.38625325381852 294.35705958974677 195.30418289080654 294.14099806029776 195.22211252779454 293.962453377481 195.0753476640477 293.7839086946642 194.9285828003009 293.66157453390184 194.73248975579565 293.5392403731395 194.53639671129042 293.48592515335633 194.31150647955002 293.43260993357325 194.08661624780964 293.43262501178936 194.08683000162537 293.43264009000546 194.0870437554411 293.1966632162066 190.2183080443915 292.9606863424077 186.34957233334194 292.4289689759287 181.77657705575365 291.89725160944965 177.2035817781654 290.65462040755654 169.1609447132792 289.41198920566336 161.11830764839306 286.52315280163515 150.30923769017318 283.63431639760694 139.50016773195333 278.7436081802995 131.33505416085762 273.85289996299207 123.1699405897619 265.11506805064175 110.74462202639492 256.3772361382915 98.31930346302795 247.14071149137368 91.16638469119295 237.90418684445586 84.01346591935796 229.62086553242108 79.91414793980596 221.3375442203863 75.81482996025397 215.1048760614651 74.82436825210019 208.8722079025439 73.8339065439464 203.41142994532555 74.16032684936815 197.95065198810718 74.48674715478988 193.83442031403956 75.21629244774724 189.71818863997197 75.9458377407046 185.13651226319286 77.71270005223731 180.55483588641374 79.47956236377001 180.36972736423667 79.52445683658155 180.18461884205956 79.5693513093931 179.9941452919951 79.56864039628584 179.80367174193063 79.56792948317859 179.6189034956579 79.52165450245573 179.43413524938512 79.47537952173289 179.26581104605876 79.38622997744828 179.0974868427324 79.29708043316367 178.95538969295842 79.1702377010198 178.81329254318445 79.04339496887592 178.70568113998414 78.88623115442465 178.59806973678383 78.7290673399734 178.5311984599673 78.55071681149496 178.46432718315074 78.37236628301653 178.4420825944685 78.18319478160586 178.41983800578623 77.9940232801952 178.44351296177763 77.80502546240245 178.46718791776902 77.61602764460973 178.53540642887947 77.43818807248508 178.6036249399899 77.26034850036041 178.71242214314847 77.10400321819145 178.82121934630703 76.94765793602251 178.96427194295427 76.8218937389548 179.10732453960154 76.69612954188707 179.27631830609906 76.60825585096316 179.44531207259658 76.52038216003925 179.4452380930914 76.52040989813462" stroke-opacity="0" fill="black" /></g><g id="2"><path d="M 385.28382073700845 127.57391499613786 Q 385.28382073700845 127.57391499613786 376.5066667908095 129.10787269010387 367.7295128446105 130.6418303840699 355.9950687392459 133.5690879741711 344.2606246338812 136.49634556427236 318.9050989821061 145.7639274783638 293.54957333033093 155.03150939245523 271.9233663167098 161.57199980204473 250.29715930308868 168.11249021163422 233.64134233046082 173.03907342450884 216.98552535783298 177.96565663738346 205.13674128677786 180.92497902764805 193.2879572157227 183.88430141791264 185.68102781269886 185.8534129168916 178.074098409675 187.82252441587062 173.4079296960217 189.08731898197587 168.7417609823684 190.35211354808112 165.525010622171 191.63931634363178 162.30826026197366 192.9265191391824 162.08620820630512 192.9995740693575 161.86415615063657 193.07262899953258 161.63040128222264 193.07095575648484 161.3966464138087 193.0692825134371 161.1756629290776 192.9930562861553 160.95467944434648 192.9168300588735 160.76960437248354 192.77403175347587 160.5845293006206 192.6312334480782 160.45474005050494 192.4368140848349 160.3249508003893 192.24239472159158 160.26403634076908 192.01671005915594 160.20312188114886 191.7910253967203 160.21745997202618 191.55770467882428 160.23179806290347 191.3243839609283 160.31988750237855 191.10785592832633 160.4079769418536 190.89132789572434 160.56059474236008 190.71426309058768 160.71321254286653 190.537198285451 160.91437958040416 190.41813543961803 161.11554661794182 190.29907259378507 161.34420065057748 190.25047761864403 161.57285468321317 190.20188264350298 161.80505557337113 190.22884344577898 162.03725646352908 190.255804248055 162.2486927167147 190.35549802463277 162.46012896990032 190.45519180121056 162.62866315459132 190.61718058736582 162.79719733928232 190.77916937352109 162.90518388185285 190.98649290058248 163.01317042442338 191.19381642764387 163.04930310536062 191.4247678676 163.08543578629786 191.6557193075561 163.04593150436958 191.88611798367828 163.0064272224413 192.11651665980042 162.89542208639352 192.3222397698793 162.78441695034573 192.52796287995818 162.61353322722516 192.6874711600629 162.44264950410457 192.84697944016762 162.22977876483083 192.9435723312651 162.01690802555711 193.04016522236256 161.7843378927246 193.06372942325686 161.5517677598921 193.08729362415116 161.32384838780095 193.0353619567883 161.0959290157098 192.98343028942546 160.8965236227828 192.86144001308696 160.6971182298558 192.73944973674844 160.54710461337032 192.56017326556923 160.39709099688486 192.38089679439005 160.31217562208667 192.16310442222704 160.2272602472885 191.945312050064 160.21633377633452 191.7118066957742 160.2054073053805 191.47830134148438 160.26961374266384 191.25353107730137 160.33382017994717 191.0287608131184 160.46643709453542 190.83625914503574 160.5990540091237 190.64375747695308 160.78619637505204 190.50367938043456 160.97333874098038 190.363601283916 160.9731465221398 190.36370140303083 160.97295430329922 190.36380152214565 164.52207296571908 189.12610879347676 168.07119162813896 187.88841606480784 172.74907909218183 186.6100394866909 177.42696655622467 185.33166290857397 185.04134580660354 183.34625406820663 192.65572505698242 181.36084522783932 204.4453142880513 178.397766819642 216.2349035191202 175.43468841144465 232.8752590220783 170.4850344514677 249.51561452503637 165.53538049149074 271.05687215985273 158.98472461201774 292.5981297946691 152.43406873254474 318.077815080394 143.0754240841362 343.5575003661188 133.71677943572763 355.3764937607541 130.69997452582885 367.19548715538946 127.6831696159301 375.9558332091905 126.05462730989612 384.71617926299155 124.42608500386214 384.9086403156599 124.4149915732389 385.1011013683283 124.40389814261565 385.29062441285794 124.43918746946424 385.48014745738755 124.47447679631284 385.6557174055257 124.5540978632988 385.8312873536638 124.63371893028474 385.9827000717755 124.75304415725384 386.13411278988724 124.87236938422294 386.2525681636819 125.02446358337727 386.37102353747645 125.17655778253159 386.4496369350633 125.35258123187018 386.5282503326502 125.52860468120876 386.56245273966795 125.71832688958563 386.59665514668575 125.9080490979625 386.5844587176316 126.10044340171274 386.57226228857746 126.29283770546297 386.514375880481 126.47672213861298 386.4564894723846 126.660606571763 386.35627744600424 126.82529376241834 386.2560654196239 126.9899809530737 386.1193521026413 127.12589927397569 385.98263878565865 127.26181759487768 385.81736996248026 127.36106746682941 385.65210113930186 127.46031733878115 385.4678822416959 127.51713035456154 385.28366334409 127.57394337034194 385.2837420405492 127.5739291832399" stroke-opacity="0" fill="black" /></g><g id="3"><path d="M 295.58017329718524 77 Q 295.58017329718524 77 295.5347711689586 83.61239833958308 295.48936904073196 90.22479667916618 296.02995716382725 99.02652053612894 296.5705452869225 107.82824439309172 297.65095195884635 117.88470172401355 298.7313586307703 127.9411590549354 300.3326047884325 139.97560484308343 301.93385094609465 152.01005063123145 302.90036384097493 162.0437977030468 303.86687673585516 172.07754477486216 304.2749536962069 180.67746837365974 304.68303065655874 189.27739197245734 303.69808029581725 197.62757253538598 302.7131299350758 205.97775309831465 299.9573231436648 213.36566552314198 297.2015163522538 220.75357794796932 292.23764752721706 227.98771299760847 287.2737787021804 235.2218480472476 281.98254892810235 241.17494350739076 276.69131915402426 247.12803896753397 272.40839869655144 251.11149545496124 268.12547823907863 255.09495194238852 265.46545573996923 257.62683945846123 262.80543324085977 260.158726974534 261.0803756299277 261.58913292065415 259.3553180189956 263.01953886677427 259.16767398082237 263.1250681514274 258.98002994264914 263.2305974360806 258.7685123980426 263.2706853807148 258.55699485343615 263.310773325349 258.34374974515185 263.2812227115789 258.1305046368676 263.2516720978088 257.93785878403423 263.15557688269666 257.7452129312008 263.0594816675846 257.59333640546345 262.9069030455194 257.44145987972604 262.75432442345425 257.3462541934209 262.5612374164431 257.25104850711585 262.3681504094319 257.222481720731 262.1547712780788 257.19391493434625 261.9413921467257 257.2349779979571 261.73006174241 257.276041061568 261.51873133809426 257.38243466157485 261.33157600993354 257.4888282615817 261.1444206817729 257.6494129599787 261.0010356420298 257.80999765837566 260.8576506022868 258.00796019485034 260.77304830247255 258.205922731325 260.6884460026583 258.4205363760515 260.67148432589613 258.6351500207779 260.654522649134 258.8439446685008 260.7069774874584 259.05273931622366 260.7594323257828 259.23385411220994 260.8758116437745 259.4149689081962 260.9921909617662 259.5494410854964 261.1603098141103 259.68391326279664 261.3284286664544 259.7576635489503 261.53068496493137 259.83141383510394 261.73294126340835 259.8367205556825 261.9481587201772 259.84202727626115 262.1633761769461 259.7783348162193 262.36902146747127 259.7146423561775 262.5746667579964 259.5886193328947 262.74920876607473 259.46259630961197 262.9237507741531 259.28743736689285 263.0489149054643 259.1122784241737 263.1740790367755 258.9063227495584 263.23676057373103 258.70036707494313 263.2994421106866 258.48517828193087 263.293078279821 258.2699894889186 263.2867144489554 258.0680979009421 263.21197154504017 257.8662063129656 263.1372286411249 257.69875003258016 263.0019322659301 257.5312937521948 262.8666358907354 257.41580549616106 262.6849516104587 257.30031724012724 262.5032673301821 257.24888865933775 262.2942175369286 257.19746007854826 262.0851677436751 257.2154757589875 261.87064000598207 257.2334914394268 261.6561122682891 257.31906513459717 261.45856769692296 257.4046388297676 261.2610231255568 257.5488109511955 261.1011446892862 257.6929830726234 260.94126625301556 257.6928272021762 260.9413909281375 257.692671331729 260.9415156032594 259.382430046287 259.63969369087295 261.07218876084505 258.33787177848654 263.7411458511242 255.7939290392497 266.4101029414033 253.2499863000128 270.6071344589624 249.34913630435864 274.80416597652146 245.44828630870447 279.99517614369495 239.61477827924426 285.1861863108684 233.78127024978403 290.0040585240705 226.81163238270926 294.82193073727257 219.84199451563452 297.4937499181882 212.7504412540762 300.1655690991039 205.6588879925179 301.1279739673663 197.52797282277442 302.09037883562877 189.39705765303097 301.66870339363675 180.86499129260005 301.2470279516448 172.3329249321691 300.26118225277503 162.35022504109384 299.27533655390533 152.36752515001857 297.63573896156754 140.30444867254158 295.9961413692297 128.24137219506463 294.8627980411536 118.12718890098645 293.7294547130775 108.01300560690828 293.12004283617273 99.11910446387105 292.51063095926804 90.22520332083381 292.4652288310414 83.61260166041691 292.41982670281476 77 292.4427866393839 76.81091398786702 292.465746575953 76.62182797573405 292.5332919530682 76.4437316515104 292.6008373301835 76.26563532728677 292.7090424073533 76.10887965770416 292.8172474845231 75.95212398812157 292.95982337757835 75.82581962006128 293.10239927063355 75.69951525200098 293.27105946197094 75.61100300126904 293.4397196533084 75.5224907505371 293.624661604683 75.4769149533048 293.80960355605765 75.43133915607248 294.00007843256606 75.43134867981632 294.1905533090745 75.43135820356015 294.3754907019447 75.47695249475969 294.5604280948149 75.52254678595922 294.7290794340839 75.6110759022677 294.89773077335303 75.69960501857618 295.0402940352586 75.82592364359424 295.18285729716416 75.9522422686123 295.291046698226 76.10900875791882 295.39923609928786 76.26577524722535 295.46676366643294 76.4438783250962 295.5342912335781 76.62198140296705 295.5572322614312 76.81106971014825 295.58017328928435 77.00015801732945 295.5801732932348 77.00007900866473" stroke-opacity="0" fill="black" /></g><g id="4"><path d="M 201.94810397831114 115.73586136225181 Q 201.94810397831114 115.73586136225181 206.5208701226336 119.22218461941472 211.09363626695605 122.70850787657761 216.2063866463085 126.80016008036894 221.31913702566092 130.89181228416027 226.96856710017147 136.1171291577401 232.61799717468205 141.34244603131992 238.51899135940712 148.80686358684468 244.4199855441322 156.27128114236945 250.12221799910674 167.27947164560516 255.82445045408124 178.28766214884087 261.4040513899305 192.18015313445707 266.98365232577976 206.07264412007328 271.3839660156068 225.56305670065825 275.78427970543385 245.0534692812432 277.65064567057846 260.8356543082297 279.517011635723 276.6178393352163 280.30682345312243 288.21917034817 281.0966352705219 299.8205013611237 279.9879161809904 307.74020881573324 278.8791970914589 315.6599162703428 278.1175841450498 319.85836231273527 277.3559711986407 324.05680835512766 276.7835763751017 325.94234096637774 276.2111815515627 327.8278735776279 276.1050095242882 328.0254715710855 275.99883749701377 328.2230695645431 275.83512831060693 328.3764213453611 275.6714191242001 328.5297731261791 275.4673131736927 328.62282272242487 275.2632072231853 328.7158723186707 275.04007445547416 328.73887741305464 274.81694168776306 328.7618825074386 274.5981441625289 328.71243446050596 274.37934663729476 328.6629864135733 274.18779251318654 328.54626244889096 273.9962383890783 328.42953848420854 273.85198343345553 328.2577596316908 273.70772847783275 328.0859807791731 273.6258762226287 327.8771323300238 273.54402396742466 327.6682838808745 273.5331443653662 327.4442323228503 273.52226476330765 327.22018076482607 273.5834969116021 327.00438435519584 273.6447290598966 326.78858794556567 273.7716619364538 326.60364062538247 273.89859481301113 326.4186933051993 274.07793851214865 326.28395910770774 274.25728221128617 326.14922491021616 274.4702594003621 326.07881054145986 274.6832365894381 326.00839617270356 274.90754850053565 326.0096740356789 275.1318604116333 326.01095189865435 275.344021528448 326.0837882007706 275.55618264526277 326.1566245028868 275.733979642859 326.29339326408535 275.9117766404553 326.43016202528395 276.0365941262509 326.61654352016393 276.16141161204655 326.8029250150439 276.2201811623301 327.01940505189145 276.27895071261366 327.235885088739 276.26551913995684 327.4597981505509 276.25208756729995 327.6837112123629 276.1678611609055 327.8916135424603 276.083634754511 328.0995158725576 275.937432041362 328.26964004209833 275.791229328213 328.439764211639 275.59835777096987 328.5542981751637 275.4054862137268 328.66883213868834 275.1861395153462 328.715784159982 274.96679281696555 328.7627361812756 274.7439366346697 328.73719037131457 274.5210804523739 328.7116445613535 274.31804788727754 328.6162755731842 274.1150153221812 328.5209065850149 273.95306393744534 328.3656995768737 273.7911125527094 328.2104925687324 273.6871987010669 328.01169775534214 273.58328484942433 327.8129029419519 273.54828833857266 327.59133419275145 273.513291827721 327.36976544355105 273.5508768015846 327.14862106507013 273.5884617754482 326.9274766865892 273.5883942456809 326.9276733905739 273.5883267159135 326.92787009455856 274.2332463086084 325.265817542876 274.87816590130325 323.6037649911935 275.6278809930916 319.4549518266855 276.3775960848799 315.30613866217755 277.4720017911069 307.64405974760973 278.5664074973339 299.98198083304186 277.77533648122414 288.44969685969585 276.98426546511433 276.91741288634984 275.1309071161195 261.2675626514547 273.2775487671247 245.6177124165595 268.92556995309434 226.32686555742276 264.573591139064 207.03601869828606 259.0301508893664 193.26672276691008 253.48671063966876 179.4974268355341 247.89943442276825 168.71317753408232 242.31215820586777 157.92892823263054 236.53195551559287 150.6464286006553 230.75175282531796 143.36392896868006 225.1513078998285 138.2435583422599 219.55086297433908 133.12318771583972 214.4286133536915 129.10733991963104 209.30636373304392 125.0914921234224 204.6791298773664 121.67781538058529 200.05189602168886 118.26413863774819 199.91440317392397 118.1323190812131 199.77691032615905 118.000499524678 199.6749604930493 117.83960542845165 199.5730106599395 117.67871133222528 199.5125291705753 117.49809386873989 199.4520476812111 117.3174764052545 199.436549722596 117.12763306997412 199.42105176398093 116.93778973469375 199.45143807819784 116.74975423118465 199.48182439241472 116.56171872767554 199.55632892545364 116.38641968823646 199.63083345849256 116.21112064879739 199.7451260033927 116.05874646183693 199.85941854829284 115.90637227487647 200.00685641697459 115.78577893530004 200.1542942856563 115.66518559572363 200.32630838226453 115.58338199409346 200.49832247887278 115.50157839246329 200.68491533603054 115.46331895794967 200.87150819318833 115.42505952343603 201.06183502527065 115.43256789617048 201.25216185735297 115.44007626890493 201.43516085993673 115.49291606191136 201.61815986252049 115.54575585491779 201.78319512497734 115.64085601694399 201.9482303874342 115.73595617897017 201.94816718287268 115.73590877061099" stroke-opacity="0" fill="black" /></g><g id="5"><path d="M 117 76.39303744635642 Q 117 76.39303744635642 119.01433404471416 76.37874049781678 121.02866808942831 76.36444354927713 129.7705199185224 77.86527641216273 138.51237174761653 79.36610927504832 149.67346418920755 81.74562583980435 160.83455663079857 84.12514240456039 173.39012727631916 88.03753006518639 185.94569792183975 91.94991772581237 195.99768351987507 97.4254046510207 206.0496691179104 102.90089157622901 211.90479351687952 111.44000682592684 217.75991791584866 119.97912207562467 220.2423094334127 130.64478229671568 222.72470095097668 141.31044251780668 220.58291754962497 156.03711375251828 218.44113414827325 170.76378498722985 212.02441072063863 186.84104227123677 205.607687293004 202.9182995552437 196.23957308582985 218.69034916666172 186.8714588786557 234.46239877807974 176.26137525826633 248.9406320594603 165.65129163787697 263.4188653408409 155.36452666797817 274.7753154925624 145.0777616980794 286.131765644284 139.83378306223273 291.2515154978872 134.58980442638602 296.3712653514904 134.42307677322646 296.48803288374427 134.25634912006691 296.60480041599817 134.06106448513114 296.6622171232771 133.86577985019537 296.71963383055606 133.6623845863113 296.7116881684515 133.45898932242721 296.7037425063468 133.26877896741462 296.6312663877784 133.07856861240205 296.55879026920996 132.9214582406414 296.4293719629237 132.7643478688808 296.2999536566375 132.6567869777686 296.12714329346477 132.54922608665643 295.95433293029197 132.5024763298854 295.75622380087435 132.4557265731144 295.55811467145674 132.47468266255922 295.35544885394006 132.49363875200405 295.15278303642333 132.5763159800959 294.96677969540013 132.65899320818778 294.78077635437694 132.79673524732084 294.63091008875244 132.93447728645387 294.48104382312795 133.11286250877046 294.38300567047395 133.29124773108705 294.28496751781995 133.49159915672155 294.24902209859886 133.69195058235604 294.2130766793777 133.89329136415685 294.2429874884706 134.09463214595766 294.27289829756353 134.27588185092145 294.36553366536276 134.45713155588524 294.458169033162 134.599313292057 294.60383001220555 134.74149502822877 294.74949099124916 134.829722330299 294.93292683858044 134.91794963236924 295.1163626859118 134.94298507852145 295.3183676198929 134.96802052467365 295.52037255387404 134.92724289708698 295.719796604593 134.88646526950032 295.91922065531196 134.78414399654733 296.0951840720156 134.68182272359434 296.2711474887193 134.52867086956343 296.405226855229 134.3755190155325 296.53930622173874 134.18757161996882 296.61746339298736 133.99962422440518 296.69562056423604 133.7965594292376 296.70967246376244 133.59349463407 296.7237243632888 133.39657337695644 296.67219975350315 133.19965211984285 296.62067514371745 133.02949210838526 296.5089686648655 132.85933209692766 296.3972621860135 132.7337491292435 296.2370695359187 132.60816616155938 296.0768768858239 132.54030880751594 295.8849702772379 132.47245145347247 295.6930636686519 132.46942439595063 295.48953577415216 132.4663973384288 295.28600787965235 132.5285175111502 295.09216812351906 132.5906376838716 294.8983283673858 132.71140108835414 294.7344718232548 132.8321644928367 294.5706152791239 132.83202944408026 294.57074710211987 132.83189439532384 294.5708789251159 138.02024143298678 289.50443225995286 143.2085884706497 284.4379855947898 153.40964861489118 273.1798557023553 163.6107087591327 261.92172580992093 174.14844893672046 247.54212369328752 184.6861891143082 233.1625215766541 193.9600132553155 217.5631937809803 203.23383739632277 201.9638659853065 209.56285125852688 186.16729407615625 215.89186512073098 170.370722167006 218.03416946017623 156.1001482413477 220.17647379962148 141.8295743156894 217.85671882494307 131.61936357120425 215.53696385026464 121.40915282671907 210.09292003219275 113.29915992212003 204.64887621412083 105.18916701752099 194.87928953676555 99.9020465208543 185.10970285941025 94.61492602418762 172.67333873930585 90.79176680981362 160.23697461920145 86.96860759543961 149.12292643579246 84.67624916019565 138.00887825238348 82.38389072495168 129.5151050814776 81.00972358783727 121.0213319105717 79.63555645072287 119.01066595528584 79.62125950218322 117 79.60696255364358 116.807708343473 79.58361336886344 116.61541668694599 79.5602641840833 116.43430103053112 79.49157368545934 116.25318537411626 79.42288318683539 116.09377216827403 79.31284366937506 115.93435896243182 79.20280415191472 115.80591331017578 79.057811117543 115.67746765791976 78.91281808317127 115.58745482659404 78.7412985338583 115.49744199526833 78.56977898454532 115.45109353485881 78.38170164455599 115.4047450744493 78.19362430456665 115.40475475965265 77.99992023773791 115.404764444856 77.80621617090918 115.45113171276773 77.61814346670627 115.49749898067948 77.43007076250335 115.58752896351004 77.25856021533109 115.6775589463406 77.08704966815883 115.8060190972578 76.94206947907728 115.93447924817501 76.79708928999571 116.09390345717189 76.68706571440615 116.25332766616877 76.57704213881657 116.43445019072792 76.50836975210169 116.61557271528706 76.43969736538679 116.80786670577108 76.416367409889 117.0001606962551 76.39303745439123 117.00008034812754 76.39303745037382" stroke-opacity="0" fill="black" /></g><g id="6"><path d="M 87.91234775619814 156.4222596115667 Q 87.91234775619814 156.4222596115667 93.08990269163158 156.18008735336906 98.267457627065 155.93791509517143 111.42647756247152 155.84752722223644 124.58549749787804 155.75713934930144 137.35676719489163 155.72922954377884 150.12803689190525 155.70131973825627 162.86699898824043 158.00907930739436 175.6059610845756 160.31683887653242 191.4774117128806 167.9629578700053 207.34886234118565 175.6090768634782 229.90239934406094 190.0896125973141 252.4559363469362 204.57014833115002 276.70463124722767 222.23208203357413 300.9533261475192 239.89401573599824 316.77588421559534 255.21377313836 332.5984422836715 270.5335305407218 340.5245321446245 282.00706405476785 348.45062200557754 293.48059756881383 351.57244703129635 302.5016117364047 354.69427205701516 311.52262590399556 354.58200277017295 317.2200752991281 354.4697334833308 322.9175246942606 354.4315583531769 323.11770483604465 354.39338322302297 323.3178849778287 354.29328677797247 323.495395911056 354.193190332922 323.67290684428326 354.04165269719454 323.80916312738646 353.8901150614671 323.94541941048965 353.70300226552547 324.02615497465973 353.5158894695838 324.1068905388298 353.31279227255595 324.12365234918605 353.1096950755282 324.1404141595423 352.9118778075555 324.09144725011566 352.7140605395829 324.04248034068905 352.5422347208407 323.9329115598226 352.37040890209863 323.82334277895615 352.242564741167 323.66464400692985 352.1147205802353 323.5059452349036 352.0442433945112 323.31473227504114 351.9737662087872 323.1235193151786 351.9680349782202 322.91981221485275 351.96230374765315 322.71610511452695 352.0219185335965 322.5212320609154 352.0815333195398 322.32635900730384 352.20025243816843 322.16072326056116 352.31897155679707 321.9950875138185 352.48436508505176 321.87603118035224 352.6497586133064 321.75697484688595 352.84450980511923 321.69696315623787 353.03926099693206 321.63695146558973 353.24297935111093 321.6422676576122 353.4466977052898 321.64758384963466 353.63805385637573 321.7176713176196 353.82941000746166 321.7877587856045 353.9883689159228 321.91527935315264 354.14732782438404 322.0427999207007 354.25724645054356 322.2144021507275 354.36716507670303 322.3860043807543 354.41653491138624 322.58372147447744 354.46590474606944 322.78143856820054 354.44955675455265 322.98456949371496 354.43320876303585 323.1877004192293 354.3528545843463 323.37497731501225 354.27250040565673 323.5622542107952 354.1365531435147 323.71406913642187 354.0006058813726 323.86588406204856 353.8232992500109 323.9663419547307 353.64599261864925 324.0667998474128 353.4458906691759 324.10538273926824 353.24578871970255 324.14396563112365 353.0438421790492 324.11663388319016 352.8418956383958 324.08930213525673 352.65924836267754 323.99891738875795 352.47660108695925 323.9085326422591 352.33237629415794 323.7645582040126 352.1881515013567 323.6205837657661 352.09744956535036 323.43809379746193 352.00674762934403 323.25560382915774 351.9790650667755 323.05370507864995 351.95138250420695 322.8518063281422 351.95137757532945 322.851995204467 351.95137264645194 322.85218408079186 352.12396927093346 317.57031882375395 352.2965658954149 312.2884535667161 349.323957771307 303.59343325861187 346.3513496471991 294.89841295050763 338.5846556262068 283.6283359335064 330.8179616052146 272.35825891650506 315.1280870098902 257.1636385987556 299.4382124145658 241.96901828100616 275.2458892833265 224.3618279361097 251.05356615208723 206.75463759121325 228.62823719841953 192.36664615488314 206.20290824475185 177.97865471855306 190.65349779883815 170.46353331163533 175.1040873529244 162.9484119047176 162.61749398050958 160.70031170823069 150.13090060809475 158.45221151174374 137.37145155510837 158.52816108122113 124.61200250212195 158.60411065069854 111.52227243752847 158.75809777776357 98.43254237293499 158.9120849048286 93.26009730836842 159.24491264663095 88.08765224380186 159.5777403884333 87.89758376920935 159.56530440686026 87.70751529461683 159.55286842528724 87.52594643243393 159.49530605079477 87.34437757025101 159.4377436763023 87.18186111127875 159.3384004368004 87.01934465230649 159.23905719729854 86.88532606077615 159.10370692653476 86.75130746924582 158.96835665577095 86.65357591199398 158.80486591784143 86.55584435474213 158.6413751799119 86.50007999446817 158.4592460641867 86.4443156341942 158.2771169484615 86.4337594981373 158.08693480770387 86.42320336208043 157.8967526669462 86.4584689733642 157.70957089611267 86.493734584648 157.5223891252791 86.5727723042877 157.34908673768513 86.65181002392741 157.1757843500912 86.770026175944 157.0264336886464 86.8882423279606 156.8770830272016 87.0387661840445 156.76036435936635 87.18929004012843 156.64364569153108 87.36337314669173 156.56634271176392 87.53745625325503 156.4890397319968 87.724980891965 156.45564529311392 87.91250553067499 156.42225085423104 87.91242664343656 156.42225523289886" stroke-opacity="0" fill="black" /></g><g id="7"><path d="M 282.7173300073011 187.4453150401561 Q 282.7173300073011 187.4453150401561 285.8880740630798 186.91496361806048 289.0588181188584 186.38461219596485 293.9077817420351 185.87797910076085 298.7567453652118 185.37134600555683 312.6486657183085 185.16493214996558 326.5405860714052 184.95851829437433 339.3231689382575 184.8797205781924 352.10575180510983 184.80092286201048 361.07356008994145 185.9281702788287 370.04136837477307 187.05541769564692 375.0909948168978 188.71619423715867 380.1406212590226 190.37697077867043 383.02058305531943 192.38006320952135 385.9005448516162 194.38315564037228 387.22550407750134 198.60255030755837 388.55046330338644 202.8219449747445 389.05097484174655 208.64366816979486 389.5514863801066 214.4653913648452 389.7558075831573 222.67596996081977 389.96012878620803 230.88654855679437 389.7578975097201 240.42666493367182 389.5556662332322 249.9667813105493 389.18070516579326 256.33255321930733 388.80574409835424 262.6983251280654 388.76112695274327 262.8967306828497 388.7165098071323 263.09513623763394 388.61087523272533 263.2689084751795 388.5052406583184 263.442680712725 388.3496486229408 263.5736256338894 388.19405658756307 263.7045705550538 388.00479761839097 263.7789781920251 387.8155386492189 263.8533858289963 387.6124282102843 263.8634656825418 387.40931777134966 263.87354553608725 387.2136215792249 263.81824224287993 387.0179253871001 263.76293894967256 386.8501328847594 263.6480427791099 386.68234038241866 263.53314660854727 386.56001948915 263.37068722001686 386.4376985958814 263.2082278314864 386.37365634149967 263.0152147658524 386.3096140871179 262.82220170021844 386.3105557125623 262.6188434764033 386.31149733800675 262.4154852525882 386.3773242548447 262.22307353030675 386.4431511716827 262.0306618080253 386.56697128434473 261.86934214539207 386.6907913970067 261.70802248275885 386.85964070701164 261.5946850910359 387.0284900170166 261.48134769931295 387.22468995703514 261.42785903333174 387.4208898970537 261.3743703673506 387.6238982815741 261.3863307045591 387.8269066660945 261.39829104176755 388.0154684636684 261.47444813170273 388.2040302612424 261.5506052216379 388.35840300188846 261.6829853968801 388.51277574253453 261.81536557212223 388.6167965595566 261.9901085933785 388.7208173765786 262.1648516146348 388.7635952629756 262.3636618414521 388.8063731493727 262.5624720682693 388.7834292491467 262.7645340174189 388.76048534892067 262.9665959665685 388.67422189448183 263.1507536986353 388.587958440043 263.33491143070216 388.4474072378424 263.48188358252594 388.3068560356419 263.62885573434966 388.12673283365194 263.7232542828375 387.946609631662 263.81765283132535 387.7457733766789 263.84959422353177 387.54493712169585 263.8815356157382 387.344415422632 263.84767557946753 387.14389372356806 263.8138155431969 386.9646812552479 263.7176992331848 386.7854687869278 263.62158292317275 386.6463291420921 263.4732737424498 386.50718949725643 263.32496456172686 386.4226906334487 263.1399905206645 386.33819176964096 262.9550164796022 386.31718074020745 262.7527444091281 386.29616971077394 262.5504723386541 386.29615862181464 262.55066055673456 386.29614753285534 262.55084877481505 386.6665837453522 256.2322383237569 387.03701995784917 249.9136278726988 387.235723457681 240.43166810883235 387.4344269575128 230.94970834496587 387.22918292837466 222.81422543330768 387.0239388992365 214.67874252164953 386.5607675383286 209.09796805168156 386.09759617742077 203.51719358171363 385.15506622855776 199.8483584488567 384.2125362796948 196.17952331599977 381.7572294295255 194.50442798204358 379.3019225793563 192.8293326480874 374.5038580886197 191.2473144488765 369.7057935978832 189.6652962496656 360.9143290995117 188.57420310007757 352.1228646011402 187.48310995048953 339.3542173898675 187.5964520780576 326.5855701785948 187.70979420562568 312.8275374066915 187.95547410003442 299.06950463478813 188.20115399444316 294.33034325796484 188.75827089923916 289.59118188114155 189.31538780403514 286.43692593692026 189.93503638193954 283.2826699926989 190.5546849598439 283.0925267566263 190.56592010325363 282.90238352055366 190.57715524666335 282.71507702166696 190.5425582215539 282.5277705227803 190.50796119644443 282.35418702359544 190.42954278354063 282.18060352441057 190.35112437063685 282.0308317060559 190.23344225178124 281.88105988770127 190.1157601329256 281.7638044952966 189.96565399839528 281.6465491028919 189.81554786386494 281.56862502535307 189.6417418892515 281.49070094781416 189.46793591463808 281.4566371361889 189.28053171135232 281.42257332456353 189.09312750806657 281.43434956918395 188.90301701720864 281.4461258138043 188.71290652635068 281.5030576787798 188.5311389785815 281.5599895437553 188.3493714308123 281.65876814641854 188.18651116454856 281.7575467490818 188.02365089828479 281.892431072405 187.88916335985363 282.0273153957281 187.7546758214225 282.19046595650207 187.65637743287647 282.35361651727607 187.55807904433047 282.53555099724315 187.50168291263037 282.7174854772102 187.4452867809303 282.71740774225566 187.4453009105432" stroke-opacity="0" fill="black" /></g></svg>