<?xml version ="1.0"?>
<svg id="drawingSvg" xmlns="http://www.w3.org/2000/svg" version="1.1" xmlns:xlink="http://www.w3.org/1999/xlink" xmlns:svgjs="http://svgjs.com/svgjs" width="100%" height="100%"><g><path d="M 242.02046412437937 167.91435281147238 Q 242.02046412437937 167.91435281147238 239.16421182033338 166.899780521573 236.3079595162874 165.88520823167363 234.1336774024138 165.14556024916817 231.95939528854018 164.40591226666274 230.186082297366 164.1575527239786 228.41276930619185 163.90919318129446 226.57620060194375 163.4764716112728 224.73963189769566 163.04375004125117 221.45341148322876 162.1586562218326 218.16719106876187 161.273562402414 215.42045305686227 160.21827580731295 212.67371504496268 159.1629892122119 210.3047033862781 158.4066831263845 207.93569172759354 157.65037704055715 205.0540026280044 157.0097891827146 202.1723135284153 156.36920132487205 199.63574552038526 155.76228233877532 197.09917751235523 155.15536335267856 194.07240972549712 154.24494820936627 191.04564193863902 153.334533066054 187.9058818505823 152.64103748699787 184.76612176252556 151.94754190794174 175.3956592055365 149.40165320018764 166.02519664854745 146.85576449243354 155.9897091243543 144.17876263035032 145.95422160016113 141.50176076826713 139.44840133551722 139.72254358447748 132.9425810708733 137.94332640068785 128.287812402218 136.87351877854536 123.63304373356272 135.8037111564029 119.69838588924435 134.69935781294686 115.76372804492597 133.59500446949082 112.47480396836602 132.47954182837373 109.18587989180605 131.36407918725664 105.88695372786538 130.25559051191226 102.58802756392471 129.14710183656788 99.57030544285783 128.03032439342118 96.55258332179096 126.9135469502745 93.73126187563469 126.13832852500127 90.90994042947841 125.36311009972803 88.41838387806652 124.7089189273353 85.92682732665462 124.05472775494259 83.51812087353866 123.11439720673918 81.10941442042272 122.17406665853578 79.15504253135381 121.51546197197251 77.20067064228489 120.85685728540926 75.67208858628135 120.28852848949847 74.1435065302778 119.72019969358769 72.5732400333898 119.19885335213512 71.00297353650177 118.67750701068255 69.86012113146708 118.10956875616522 68.7172687264324 117.54163050164789 67.43457543152496 116.89851861977323 66.15188213661753 116.25540673789858 64.78116132569608 115.77476500463672 63.410440514774606 115.29412327137484 62.817664862923394 115.16369331344882 62.22488921107219 115.03326335552278 62.02399368872704 114.86833105140926 61.82309816638189 114.70339874729572 61.66751278839947 114.49518043398828 61.51192741041705 114.28696212068083 61.410694806275856 114.047559456332 61.309462202134654 113.80815679198317 61.26846601554375 113.55148387069319 61.22746982895284 113.29481094940321 61.2490927602031 113.03578561341718 61.27071569145335 112.77676027743115 61.353701014764546 112.53043709144683 61.436686338075745 112.28411390546252 61.57621094255799 112.06480918462276 61.71573554704024 111.84550446378302 61.903690256125486 111.66596420876702 62.09164496521074 111.48642395375103 62.317105842375945 111.35708305261599 62.54256671954115 111.22774215148095 62.79242996801224 111.15611790347789 63.04229321648333 111.08449365547483 63.302036772519386 111.07474886526293 63.561780328555436 111.06500407505104 63.816307884475634 111.11770511029528 64.07083544039584 111.17040614553953 64.30535384269119 111.28249001959537 64.53987224498654 111.3945738936512 66.04366593037702 110.11689711342521 67.54745961576748 108.83922033319924 68.7638025366046 108.43946938058846 69.98014545744171 108.0397184279777 71.46999714090175 107.56316213495805 72.9598488243618 107.0866058419384 74.94384721683066 106.59774729903381 76.92784560929952 106.10888875612922 79.5347095488068 105.9631011106865 82.14157348831408 105.81731346524377 84.82122285686668 105.81505826984542 87.50087222541927 105.81280307444707 90.14064965213583 105.52926853597515 92.78042707885241 105.24573399750322 95.99451595531829 105.45719881690648 99.20860483178417 105.66866363630974 102.4045731067503 105.77534139226057 105.60054138171644 105.8820191482114 108.94352740649472 106.26195537664879 112.286513431273 106.64189160508616 115.87322726329043 106.80648143153306 119.45994109530785 106.97107125797994 123.27882922539169 107.37048748767977 127.09771735547554 107.76990371737959 131.2683196503432 108.2631305347516 135.43892194521086 108.7563573521236 139.50147316258932 109.61696722376874 143.56402437996775 110.47757709541389 147.78937273876537 111.15508389363652 152.01472109756298 111.83259069185915 156.68043169679612 112.44140687653694 161.34614229602926 113.05022306121472 165.89048419613675 113.63047068735949 170.43482609624428 114.21071831350426 175.19466223205438 114.45406111609513 179.95449836786446 114.697403918686 184.89440729099465 115.12417606558128 189.83431621412487 115.55094821247656 194.80835669892053 116.05240350683442 199.7823971837162 116.55385880119228 204.7712597101164 117.08677333939869 209.76012223651657 117.6196878776051 215.07074837410053 118.16542957952706 220.3813745116845 118.71117128144903 225.5173888424092 119.26314694450903 230.65340317313388 119.81512260756905 236.06283884905355 120.69310060745943 241.47227452497322 121.57107860734982 246.96458553478737 122.58354694768612 252.4568965446015 123.59601528802241 257.63627576463944 124.34087508833586 262.81565498467734 125.08573488864931 268.24158392431036 126.0461262258514 273.66751286394333 127.00651756305348 278.81805677172827 127.72931291930658 283.96860067951314 128.45210827555968 288.7577103474091 129.40567604743552 293.546820015305 130.3592438193114 298.45029299843907 131.40254385038384 303.3537659815732 132.44584388145628 308.04040393572006 133.85987772202526 312.727041889867 135.27391156259424 317.23658298410345 136.50354894101883 321.7461240783399 137.7331863194434 325.90974482605804 138.89778742513178 330.07336557377613 140.06238853082016 336.0337747117085 142.166685582999 341.9941838496408 144.27098263517786 346.45927482260055 146.13066591285565 350.9243657955603 147.99034919053344 354.4019481485225 149.41285464163605 357.8795305014847 150.83536009273868 361.0028446520577 152.42022902403392 364.12615880263075 154.00509795532915 366.7604361989446 155.65562654995347 369.39471359525845 157.30615514457782 371.74487415253736 158.61915928465157 374.0950347098162 159.93216342472536 376.1411332399969 161.50472199192342 378.1872317701776 163.07728055912145 380.66219863852564 165.35717770751188 383.1371655068736 167.63707485590228 384.8567048367486 169.59728244804575 386.57624416662355 171.5574900401892 387.9847351740537 173.35113574437815 389.39322618148384 175.14478144856707 390.12136350183664 177.01589949918457 390.84950082218944 178.88701754980207 391.4621775161927 180.55680598529892 392.07485421019595 182.22659442079578 392.67418622037854 183.88817910932565 393.27351823056114 185.54976379785552 393.8481960952107 187.57708676000166 394.42287395986034 189.6044097221478 394.7113030133245 191.51821507675018 394.9997320667887 193.43202043135256 395.10676509729853 195.54506623748122 395.21379812780833 197.6581120436099 395.2794229791491 199.50880097223148 395.34504783048993 201.35948990085308 395.0267419408842 203.55771153182633 394.70843605127857 205.7559331627996 394.2311410823017 207.95303975697217 393.7538461133248 210.15014635114474 393.21644167333227 212.35894204164236 392.67903723333967 214.56773773214002 391.7767212609082 216.60834521285943 390.8744052884767 218.64895269357888 390.2118295903398 220.64749150614114 389.5492538922029 222.64603031870342 388.1891687135776 224.93243331137307 386.82908353495236 227.21883630404275 385.6478119790454 229.11890755227523 384.46654042313844 231.01897880050774 382.95680893114354 233.1075066062104 381.44707743914864 235.19603441191308 379.81406566662133 237.08153120471076 378.1810538940941 238.9670279975084 376.1522854015392 240.7571261223822 374.1235169089843 242.547224247256 372.3447150980147 244.22252887737966 370.5659132870452 245.8978335075033 368.4831416554362 247.6000188760563 366.40037002382724 249.3022042446093 363.83222868081623 250.71466662226032 361.2640873378053 252.12712899991138 358.9241337189401 253.34119483944136 356.58418010007495 254.55526067897134 353.9609463507044 255.72267954168512 351.3377126013338 256.8900984043989 348.56475684568915 257.72500283324257 345.7918010900445 258.55990726208626 343.0789632573535 259.5303536661577 340.3661254246626 260.50080007022905 337.21656346227144 261.25596761326415 334.0670014998803 262.01113515629925 330.7552481537448 262.33728822828755 327.44349480760934 262.6634413002758 324.442313291984 262.79789900470234 321.4411317763587 262.9323567091289 318.56655557051437 262.9887171288692 315.69197936467003 263.0450775486095 312.55235202669576 263.0686798816372 309.41272468872154 263.0922822146649 306.10131497489886 262.77987532651105 302.78990526107617 262.4674684383571 299.84395457552426 262.3379498331144 296.89800388997236 262.20843122787164 293.9818138577306 261.828241115291 291.06562382548884 261.4480510027103 288.2281747462868 260.9653970485647 285.3907256670848 260.482743094419 282.58747125905575 259.9578235605989 279.78421685102666 259.43290402677883 276.99560330688973 258.8902794016706 274.20698976275287 258.3476547765624 271.7282133206329 257.79415876510734 269.24943687851294 257.2406627536523 266.84225993409126 256.34581033101176 264.4350829896696 255.45095790837118 262.2013667897646 254.7888268023806 259.9676505898596 254.12669569639004 257.93746471931513 253.192732658782 255.9072788487707 252.25876962117394 253.17604329683036 250.88758232639054 250.44480774489 249.51639503160717 248.62359416044652 248.6611095774922 246.80238057600303 247.80582412337725 245.3569233594755 247.155776576606 243.91146614294794 246.50572902983473 242.75245939395555 245.4704736951311 241.59345264496315 244.43521836042748 240.33304779198662 242.92062024504236 239.07264293901008 241.4060221296572 238.27359606892668 239.7352221023947 237.47454919884325 238.0644220751322 237.63203276711408 235.89656662101362 237.78951633538495 233.728711166895 238.2474237800427 231.55704842193234 238.7053312247005 229.38538567696966 239.18468535847438 227.97654411023626 239.66403949224824 226.56770254350286 240.21307758550668 225.23804086775266 240.76211567876513 223.90837919200249 241.7538470960386 222.51447169366253 242.7455785133121 221.1205641953226 243.33337630198193 219.85954212898648 243.92117409065176 218.59852006265035 244.97098045318603 217.1578806059646 246.0207868157203 215.71724114927886 247.06234599923556 214.27176550124733 248.1039051827508 212.82628985321583 249.63381245172667 211.1743764160464 251.16371972070252 209.52246297887703 253.25686774316745 208.10986179136958 255.35001576563235 206.69726060386213 257.13469726758336 205.519131062783 258.9193787695344 204.34100152170387 261.41157136649196 203.200709452197 263.90376396344953 202.06041738269013 266.2016764911011 200.9881040095887 268.4995890187528 199.91579063648726 271.1891620281925 199.1133161298318 273.87873503763234 198.31084162317632 276.5430815950591 197.37325019163598 279.20742815248593 196.43565876009566 281.94309388768374 195.40660281884482 284.6787596228815 194.37754687759394 287.8434263380232 193.60063690040465 291.00809305316494 192.82372692321533 294.2668479854308 192.18291379078232 297.5256029176966 191.5421006583493 301.1563561248929 190.9527330625279 304.7871093320893 190.3633654667065 308.5652602516035 189.79645841331347 312.3434111711176 189.2295513599204 315.8576430486303 188.67235465187468 319.3718749261429 188.11515794382893 323.1101234675398 187.5589499426655 326.8483720089366 187.00274194150208 330.99963370382216 186.44696247066634 335.15089539870775 185.8911829998306 339.19386943238464 185.65175926564908 343.2368434660616 185.41233553146756 347.4663594345425 184.99550871100752 351.6958754030234 184.5786818905475 356.09538972121015 184.39857372712845 360.49490403939694 184.21846556370937 364.9198088839616 184.14282913346008 369.34471372852624 184.0671927032108 373.78074992777226 184.03535272589772 378.2167861270183 184.00351274858468 382.6576386090101 183.99014323085916 387.09849109100196 183.97677371313364 391.22189733864224 183.9711992909625 395.3453035862825 183.9656248687913 399.97285502840464 183.9633317518936 404.6004064705268 183.9610386349959 408.8033278863103 183.96012515372263 413.00624930209375 183.95921167244933 417.077870549327 184.28025467325173 421.1494917965602 184.60129767405414 424.7495427490652 184.73542171669013 428.34959370157026 184.86954575932612 432.11315266710216 184.92686112329284 435.87671163263406 184.98417648725956 439.4497059582054 185.33101888055555 443.0227002837767 185.67786127385153 446.40234331735576 185.82168396892888 449.78198635093474 185.96550666400623 453.1929445937479 186.350495763531 456.603902836561 186.7354848630558 459.65983200246393 187.22086698378246 462.71576116836684 187.70624910450914 465.5465462101856 187.90480496368406 468.37733125200435 188.10336082285897 470.9366418560355 188.51629193551156 473.4959524600667 188.92922304816412 475.8690800079635 189.41291657947954 478.2422075558603 189.89661011079497 480.24425339787217 190.38560269093082 482.246299239884 190.87459527106668 484.3524394381971 191.39405188989778 486.4585796365102 191.91350850872888 488.34963197396075 192.43124772221262 490.24068431141126 192.94898693569638 491.7471506753767 193.46640083255983 493.2536170393422 193.98381472942324 494.5588933213844 194.50181103607633 495.86416960342666 195.01980734272942 497.0751071257019 195.53884907696343 498.2860446479771 196.05789081119744 500.0288754756666 197.22726557967403 501.77170630335604 198.3966403481506 502.58485597948754 199.446172739901 503.398005655619 200.49570513165133 504.5101973341875 201.6575277351512 505.6223890127561 202.81935033865108 506.54395570195334 204.96153983215896 507.4655223911506 207.10372932566685 507.8288976616301 209.21878775104528 508.1922729321096 211.33384617642372 508.5328023391498 213.21767096233947 508.87333174619 215.1014957482552 509.06821097281136 216.40380304648318 509.26309019943267 217.70611034471113 509.3752243240929 220.05249153683707 509.4873584487532 222.398872728963 509.51387402003246 224.63055350465518 509.54038959131174 226.86223428034737 509.99763289814166 228.9464773848012 510.4548762049715 231.03072048925506 510.8138080681276 233.0281092770087 511.1727399312837 235.0254980647623 511.5912740044971 236.84164100089305 512.0098080777105 238.65778393702382 512.4708372989687 240.3337135680127 512.9318665202269 242.0096431990016 513.1876242998849 243.52262861986532 513.4433820795427 245.03561404072903 514.2861573309044 247.13033016269372 515.1289325822662 249.22504628465842 516.1922925259834 251.415742954064 517.2556524697005 253.60643962346956 518.8391683233167 256.37019860820476 520.4226841769329 259.13395759294 521.2763201283128 260.5776006566722 522.1299560796928 262.0212437204044 523.6205307311045 263.75906361690795 525.1111053825163 265.4968835134115 525.9359893785597 266.6968145980601 526.7608733746031 267.89674568270874 528.1893558425863 269.47238845167624 529.6178383105695 271.0480312206438 531.068402357306 272.20444575753675 532.5189664040424 273.36086029442976 533.6801301076753 273.85650427613746 534.8412938113082 274.3521482578452 536.8655215966194 275.50756752884814 538.8897493819304 276.66298679985107 540.3586315989833 277.32555497600913 541.8275138160362 277.9881231521672 544.1685250607607 278.44013792730277 546.509536305485 278.8921527024383 548.3777256522085 279.0353722112642 550.245914998932 279.1785917200901 551.7383454955288 278.75374778050866 553.2307759921257 278.3289038409273 555.3860941577302 278.2350764212535 557.5414123233347 278.1412490015797 559.6171506073551 277.43973708115084 561.6928888913757 276.73822516072204 562.9039402970438 276.281328059051 564.114991702712 275.82443095737995 565.8626532141017 274.7922922206063 567.6103147254913 273.76015348383265 570.245334481966 272.614705881369 572.8803542384406 271.4692582789054 574.0687576383946 270.94517988873827 575.2571610383485 270.42110149857115 576.3969001304822 269.8803411671993 577.536639222616 269.3395808358274 579.6223171456625 268.32031751713004 581.7079950687089 267.30105419843267 583.1473972880385 266.2561672368464 584.586799507368 265.21128027526015 586.3569325552877 264.32262681808095 588.1270656032074 263.43397336090175 589.2967623092276 262.5436307005725 590.4664590152478 261.6532880402433 590.7660783749774 261.4987570419862 591.065697734707 261.34422604372907 591.3989754805182 261.2934566209028 591.7322532263294 261.2426871980765 592.0642950902591 261.3009949226528 592.3963369541887 261.35930264722913 592.6923780654326 261.5205826850531 592.9884191766766 261.6818627228771 593.2174639527407 261.9292290114148 593.4465087288046 262.17659529995257 593.5845761211726 262.4841485234957 593.7226435135407 262.7917017470389 593.7552778297857 263.12724100189644 593.7879121460305 263.462780256754 593.7116965646269 263.79117449436853 593.6354809832231 264.119568731983 593.4583952956627 264.4064349889886 593.2813096081024 264.69330124599423 593.0218947326191 264.9086045495571 592.7624798571358 265.12390785311993 592.4478965996714 265.2451058905225 592.1333133422071 265.36630392792506 591.7964986528601 265.38070723265804 591.4596839635132 265.395110537391 591.1359024291687 265.3012110796468 590.8121208948243 265.20731162190265 590.5352725275982 265.01494069969414 590.258424160372 264.8225697774856 590.0574950573937 264.551868677149 589.8565659544154 264.2811675768124 589.752593445807 263.9604787750111 589.6486209371984 263.63978997320976 589.652490972057 263.30268967214596 589.6563610069156 262.96558937108216 589.7676683915702 262.64737206126307 589.8789757762247 262.329154751444 590.0860665981195 262.06313786920896 590.2931574200142 261.7971209869739 590.5743492154302 261.6111565701144 590.8555410108461 261.425192153255 591.1813929245758 261.3387507253062 591.5072448383055 261.2523092973575 591.8436400889648 261.274441298644 592.1800353396242 261.29657329993046 592.4917532556694 261.42496150407516 592.8034711717147 261.55334970821986 593.0578748050505 261.77455183635766 593.3122784383861 261.9957539644955 593.482731661446 262.2866100954187 593.6531848845059 262.5774662263419 593.7218411998402 262.9075236463643 593.7904975151746 263.23758106638667 593.7501685884445 263.57228267650515 593.7098396617143 263.90698428662364 593.5647479421941 264.2112867399062 593.4196562226739 264.5155891931888 593.1849928516979 264.7576319424487 592.950329480722 264.9996746917086 592.9505804597227 264.9994884014223 592.9508314387234 264.999302111136 591.4760997278557 266.0724135474056 590.0013680169881 267.14552498367516 588.5558526456585 267.87027330351805 587.110337274329 268.59502162336094 585.4932203033675 269.84310609158314 583.8761033324058 271.09119055980534 581.7765992392187 272.4606180436997 579.6770951460317 273.83004552759405 578.4855956166334 274.39993000688395 577.2940960872351 274.96981448617385 576.0037682334829 275.5557040818086 574.7134403797307 276.1415936774433 573.4302979835809 276.66750362282596 572.1471555874311 277.19341356820865 570.1450798132844 278.2479136161063 568.1430040391375 279.3024136640039 567.0593049310334 279.93031961949305 565.9756058229292 280.5582255749822 564.5467225707417 281.13059130150134 563.1178393185543 281.7029570280204 561.6905499575945 282.1591117547462 560.2632605966347 282.615266481472 557.9945467403347 283.0607724305164 555.7258328840346 283.50627837956085 554.3013280768696 283.6123951574855 552.8768232697047 283.71851193541016 550.4583709795631 283.9729424535178 548.0399186894216 284.22737297162547 546.3734583060279 284.0226656090075 544.7069979226342 283.81795824638954 543.2644677273533 283.421414354054 541.8219375320724 283.0248704617184 540.4930275051313 282.66018474115094 539.1641174781902 282.2954990205834 537.8485146831908 281.6393229565111 536.5329118881916 280.98314689243875 534.725404152792 279.8779293183113 532.9178964173922 278.7727117441839 531.3652669785274 278.0938150188565 529.8126375396625 277.41491829352907 527.9808979788484 275.8486974990941 526.1491584180343 274.2824767046591 525.1916895252275 273.2440737838333 524.2342206324206 272.2056708630075 522.9701364838977 270.3815881604449 521.7060523353747 268.55750545788226 520.0076596015418 266.4316544670647 518.309266867709 264.3058034762471 517.5104399312312 262.9829221419848 516.7116129947534 261.6600408077224 515.3580101595919 259.81702563363405 514.0044073244305 257.9740104595457 513.4547521578286 256.8486202921333 512.9050969912265 255.72323012472089 512.3590926886554 254.5851400631135 511.81308838608425 253.4470500015061 511.27367144576925 252.27645874015025 510.73425450545426 251.10586747879435 510.2140678385406 249.86051535309434 509.69388117162686 248.61516322739433 509.0572254918502 245.99499261944453 508.4205698120735 243.37482201149473 507.8468987862732 241.64659954411997 507.2732277604728 239.9183770767452 506.7603493104157 238.2345086301802 506.2474708603585 236.55064018361514 505.8498033511958 235.13509500419042 505.45213584203316 233.71954982476566 505.3125116795061 231.7737033135944 505.1728875169791 229.82785680242318 504.8053680964508 227.265364885359 504.4378486759225 224.7028729682948 504.41763930845934 222.5387596610587 504.39742994099623 220.3746463538226 504.2660587519142 218.45635891397663 504.1346875628322 216.53807147413065 503.7441495356359 214.12138871315568 503.35361150843966 211.7047059521807 503.2066559006742 210.17218043424486 503.05970029290876 208.63965491630904 502.0974196451891 206.55576652501776 501.13513899746954 204.47187813372645 500.1379011214715 202.98037666885443 499.14066324547343 201.48887520398242 497.9192389103366 200.43647418995468 496.69781457519974 199.38407317592694 495.57243348339375 198.7927410763989 494.44705239158776 198.20140897687085 493.2616444962788 197.61005195237735 492.07623660096976 197.01869492788384 490.72880569753704 196.42913373817527 489.38137479410426 195.83957254846666 487.5639108287518 195.25593254496562 485.74644686339934 194.6722925414646 483.6364704858476 194.1035366952809 481.5264941082959 193.5347808490972 479.62133783630577 192.96654155708876 477.71618156431566 192.39830226508033 475.40569650999714 191.89763649883798 473.0952114556787 191.39697073259563 470.6473292954713 190.9970303671205 468.19944713526394 190.5970900016453 465.2616743257306 190.38627513429256 462.32390151619734 190.1754602669398 459.32309361248934 189.69761714877785 456.32228570878135 189.21977403061592 452.99843813313936 188.84161884888158 449.67459055749737 188.46346366714727 446.22723993852526 188.31494374284955 442.7798893195532 188.16642381855183 439.30888568955925 187.82540122508303 435.83788205956535 187.48437863161422 432.04702821389884 187.4264561899072 428.25617436823234 187.3685337482002 424.60401267197494 187.23151001278038 420.9518509757176 187.09448627736055 416.97905073438267 186.7775345062669 413.00625049304773 186.46058273517326 408.80399766625766 186.46177313027044 404.6017448394676 186.4629635253676 399.97529202959174 186.46562070581214 395.34883921971596 186.4682778862567 391.22753022543475 186.47435122253785 387.10622123115354 186.48042455881904 382.6706200509169 186.49446153156964 378.2350188706803 186.50849850432024 373.8114261113367 186.54114438695098 369.3878333519931 186.57379026958168 364.99265089984186 186.64988527449427 360.59746844769063 186.72598027940685 356.2700264257703 186.9028872575451 351.94258440385005 187.07979423568338 347.6641839426329 187.50300304241705 343.38578348141584 187.92621184915075 339.43632086208663 188.160074486358 335.4868582427575 188.39393712356528 331.3552170791154 188.95177264423256 327.22357591547325 189.50960816489984 323.4988315007354 190.07040268644118 319.77408708599745 190.63119720798255 316.25121185607395 191.19895074624282 312.7283366261504 191.7667042845031 308.96819674256983 192.34347094158653 305.2080568589893 192.92023759866998 301.6244856780379 193.51859892313803 298.04091449708653 194.1169602476061 294.8476648348267 194.76753535266946 291.65441517256687 195.4181104577328 288.65754875579756 196.17651593187088 285.66068233902826 196.93492140600898 282.91823133119044 198.01510436352027 280.17578032335257 199.09528732103152 277.466780654266 200.11407485432687 274.7577809851794 201.13286238762225 272.32052663051104 201.92707347498433 269.8832722758426 202.7212845623464 267.634401821516 203.90261042374863 265.38553136718946 205.08393628515088 263.1924832475253 206.23978867634213 260.9994351278611 207.39564106753338 259.2763610536842 208.6136912221305 257.5532869795073 209.83174137672765 255.90269660651933 211.05067397032442 254.2521062335314 212.2696065639212 252.98628946006278 213.80297828846005 251.72047268659418 215.33635001299888 250.69361591310582 216.87585884413863 249.66675913961743 218.41536767527836 248.85628639402435 219.48843991219744 248.04581364843128 220.5615121491165 246.53309915500395 223.14739847954775 245.02038466157663 225.733284809979 244.52501184072204 226.8858781879162 244.02963901986746 228.03847156585337 243.55482375420712 229.46369403436796 243.08000848854675 230.88891650288255 242.55369626758278 232.94831556299545 242.02738404661883 235.00771462310834 241.7598146143704 236.64158537154617 241.492245182122 238.27545611998397 242.08407068333167 239.43067426192798 242.67589618454136 240.58589240387198 244.00992197661301 242.17190948846735 245.34394776868467 243.75792657306275 246.70667157004317 244.507623768325 248.06939537140164 245.2573209635873 249.84913044385007 246.19228450401363 251.6288655162985 247.12724804443994 254.3639142424404 248.46514327951024 257.09896296858227 249.80303851458058 258.9110141850055 250.73358317530955 260.72306540142876 251.66412783603855 263.0201029165996 252.3824917001363 265.31714043177055 253.10085556423408 267.5574424057476 253.95100443118736 269.7977443797247 254.80115329814063 272.2411861454337 255.34700658288995 274.6846279111427 255.89285986763923 277.46458620952933 256.4336714233566 280.24454450791603 256.97448297907397 283.02751773070725 257.4955570016588 285.8104909534985 258.0166310242437 288.6007207842033 258.49187033374847 291.3909506149081 258.9671096432533 294.20006366615314 259.33751798784203 297.00917671739813 259.7079263324307 300.0181413009683 259.8412536985194 303.02710588453846 259.9745810646081 306.2109671582384 260.28063528546943 309.3948284319384 260.5866895063308 312.5185833796153 260.5621805271684 315.64233832729224 260.537671548006 318.48547805600737 260.48082888024027 321.3286177847225 260.4239862124745 324.2645911752961 260.29208371100447 327.20056456586974 260.1601812095344 330.342201365826 259.85960438529537 333.4838381657823 259.5590275610564 336.49916120883427 258.8395365247332 339.51448425188624 258.12004548841 342.28760404738284 257.12402092151126 345.0607238428794 256.12799635461255 347.679563455282 255.3424463546018 350.2984030676846 254.55689635459106 352.84545230330787 253.41474931259665 355.3925015389311 252.27260227060222 357.70157942177514 251.05893148424698 360.0106573046192 249.84526069789175 362.3683414305382 248.55193769394697 364.7260255564572 247.25861469000216 366.7170912711131 245.60078231058134 368.70815698576894 243.94294993116054 370.50178263091925 242.22213458501744 372.2954082760695 240.50131923887432 374.1625473083602 238.8103509679686 376.0296863406509 237.11938269706286 377.55044362090405 235.32393916581566 379.0712009011571 233.52849563456843 380.47225246181495 231.46579152030773 381.8733040224728 229.40308740604706 383.0311296303123 227.5486263188692 384.18895523815183 225.69416523169136 385.32609200079605 223.65617863059657 386.4632287634403 221.6181920295018 387.1667111371894 219.45476868594528 387.87019351093846 217.29134534238872 388.6788179036599 215.55217287321426 389.4874422963813 213.81300040403983 389.9692896770674 211.63800034904705 390.4511370577536 209.4630002940543 390.86881362130663 207.3583655515764 391.28649018485964 205.25373080909853 391.570731620375 203.34325736264174 391.8549730558903 201.43278391618497 391.83508827374294 199.62905013575983 391.8152034915955 197.82531635533468 391.72103738448607 195.8495016916809 391.62687127737655 193.87368702802712 391.44189059526593 192.17973933863595 391.25690991315525 190.4857916492448 390.7176825176289 188.53408805625426 390.17845512210243 186.58238446326374 389.6601016244673 184.8946029720431 389.14174812683217 183.20682148082244 388.62784461268427 181.50557539156918 388.1139410985364 179.80432930231592 387.69456950407107 178.25340554895772 387.27519790960577 176.7024817955995 385.9836679409933 174.95404563017314 384.69213797238086 173.20560946474674 383.06517698536624 171.3413338501053 381.4382159983516 169.47705823546383 379.0456005650933 167.26797550450254 376.65298513183495 165.0588927735413 374.76233493849475 163.58548596995286 372.87168474515454 162.1120791663644 370.46871126605595 160.76788716197393 368.0657377869574 159.4236951575835 365.5292425739454 157.82855655906434 362.9927473609334 156.23341796054515 359.96256403090774 154.69122704458613 356.9323807008821 153.1490361286271 353.44753155622374 151.7235578404502 349.96268241156537 150.2980795522733 345.5619218531059 148.46316071095683 341.16116129464643 146.62824186964036 335.2803515730534 144.549138663925 329.39954185146036 142.47003545820962 325.2439098808901 141.30768206712906 321.0882779103198 140.1453286760485 316.54602892109386 138.90633803237728 312.00377993186794 137.66734738870608 307.41823264216896 136.27935785972187 302.8326853524699 134.89136833073766 297.94535036769696 133.85149927281847 293.05801538292394 132.81163021489928 288.3393422420535 131.87013681276113 283.62066910118307 130.928643410623 278.4261037055833 130.19903032773314 273.23153830998353 129.46941724484327 267.8454460044321 128.5156450060701 262.45935369888076 127.5618727672969 257.2313633856257 126.80935436227321 252.00337307237064 126.05683595724952 246.53716817839273 125.04932950703605 241.07096328441486 124.04182305682258 235.7283819887706 123.17345528767106 230.38580069312633 122.30508751851956 225.25563201672378 121.75455040432092 220.12546334032123 121.2040132901223 214.80977716509142 120.65887532638507 209.4940909898616 120.11373736264783 204.51254617678194 119.58314426248785 199.5310013637023 119.05255116232787 194.5746722830898 118.55490358842007 189.6183432024773 118.05725601451229 184.72208908742675 117.63644299062305 179.82583497237624 117.21562996673381 174.97117048701136 116.96794570400758 170.11650600164646 116.72026144128134 165.56790590882787 116.14515126667995 161.01930581600925 115.57004109207855 156.3160031491289 114.96363637936184 151.61270048224856 114.35723166664512 147.32272415414704 113.67866322241827 143.03274782604552 113.00009477819142 139.0853394448033 112.17318448097248 135.13793106356113 111.34627418375352 130.98449179183183 110.87542433880583 126.8310525201025 110.40457449385814 123.09010485778845 110.03884309304921 119.34915719547438 109.67311169224028 115.6708984229659 109.54062219832184 111.99263965045742 109.40813270440341 108.76444880687922 109.0890587672753 105.53625796330103 108.76998483014721 102.2902418800658 108.7351778922551 99.04422579683059 108.70037095436298 96.12031269193074 108.57893061178285 93.19639958703088 108.45749026920272 90.41340474570964 108.89394045082808 87.63040990438839 109.33039063245344 85.06695827859008 109.51892614781403 82.50350665279176 109.70746166317461 80.28997965993491 110.01059333716469 78.07645266707807 110.31372501115477 76.23471791384003 110.88114721985676 74.39298316060199 111.44856942855876 72.89415903944034 111.95413450241992 71.39533491827869 112.45969957628108 69.56865413206461 112.9582442784057 67.74197334585052 113.45678898053032 66.30190656389244 114.08988643765662 64.86183978193436 114.7229838947829 63.543455469526904 114.87818149063172 62.225071157119444 115.03337908648054 62.024159142548385 114.86846687274388 61.82324712797733 114.70355465900721 61.667640928941545 114.49535190527862 61.51203472990576 114.28714915155005 61.41077818600432 114.04775661165863 61.309521642102894 113.80836407176722 61.26849978842488 113.55169525137924 61.22747793474687 113.29502643099129 61.249074963355454 113.03599893400727 61.270671991964036 112.77697143702324 61.35363268254175 112.53063995373822 61.436593373119464 112.28430847045321 61.57609604643204 112.06498979824956 61.71559871974461 111.8456711260459 61.903535473864615 111.66611207645673 62.09147222798462 111.48655302686757 62.31692016993243 111.35718958029156 62.54236811188024 111.22782613371554 62.792224196677225 111.15617689974579 63.042080281474206 111.08452766577605 63.30182286173252 111.07475690125732 63.56156544199084 111.06498613673858 63.81609826674192 111.11766171896377 64.070631091493 111.17033730118895 64.30516070100315 111.28239772284418 64.5396903105133 111.39445814449941 65.29105630573225 111.84229165740251 66.04242230095122 112.2901251703056 67.6112299574032 112.87099031098751 69.18003761385519 113.45185545166942 70.6467286742542 114.56896406405454 72.1134197346532 115.68607267643966 73.70828245566616 116.33142142964513 75.30314517667911 116.9767701828506 76.71212184971208 117.65031533195935 78.12109852274504 118.3238604810681 80.07209343445152 119.08406702823964 82.023088346158 119.84427357541121 84.29365317314486 120.73905435516389 86.5642180001317 121.63383513491657 89.06966227544945 122.2910168784041 91.5751065507672 122.94819862189163 94.49833898848024 123.75527254451376 97.42157142619328 124.56234646713587 100.4041293892985 125.66536473507884 103.38668735240371 126.7683830030218 106.68970410312991 127.87640696857787 109.9927208538561 128.98443093413394 113.21819477074837 130.07773312483386 116.44366868764065 131.17103531553377 120.32066589434538 132.25726254097486 124.1976631010501 133.34348976641596 128.9036509851058 134.42143033608266 133.60963886916153 135.4993709057494 140.10951986708255 137.2704337716703 146.60940086500358 139.04149663759122 156.65268705161168 141.71155880139878 166.6959732382198 144.38162096520637 176.0075912531956 146.90071914950715 185.31920926817142 149.41981733380794 188.55553880549166 150.12106165258828 191.7918683428119 150.82230597136862 194.7481019832446 151.6903637186046 197.70433562367728 152.55842146584055 200.22580975957638 153.1295855460262 202.74728389547548 153.7007496262118 205.75379824651029 154.3288768168402 208.7603125975451 154.95700400746858 211.22628902004413 155.6826417548587 213.69226544254317 156.40827950224886 216.30889779245453 157.33665152800435 218.9255301423659 158.26502355375985 222.2459325147155 159.04080275429027 225.5663348870651 159.8165819548207 227.2486166110255 160.2852837493009 228.93089833498593 160.7539855437811 230.92742927357193 161.1233541073284 232.9239602121579 161.49272267087568 235.11009497287182 162.2065525853854 237.29622973358576 162.92038249989508 240.18997770372113 163.82246721938492 243.08372567385652 164.72455193887475 243.26684935712478 164.81134163226994 243.44997304039302 164.89813132566513 243.6070043637825 165.0262246421493 243.76403568717197 165.15431795863344 243.8858479827892 165.31627010863406 244.00766027840643 165.47822225863467 244.0871738099068 165.66462057558442 244.1666873414072 165.85101889253417 244.19928077860402 166.05102989749406 244.23187421580084 166.25104090245392 244.2156532265928 166.4530399464182 244.19943223738474 166.65503899038242 244.13533958642677 166.847285879425 244.0712469354688 167.03953276846752 243.96300769064592 167.21085410436456 243.85476844582305 167.38217544026156 243.70867347713002 167.52261401892122 243.56257850843699 167.66305259758084 243.38711886231846 167.76444612221292 243.2116592161999 167.86583964684502 243.01703261553223 167.92229512103398 242.82240601486453 167.97875059522298 242.619924166823 167.98698682415642 242.41744231878147 167.99522305308986 242.21887347788783 167.95476134675516 242.02030463699415 167.9142996404205 242.02038438068678 167.91432622594644" stroke-opacity="0" fill="black"></path></g></svg>