<svg xmlns="http://www.w3.org/2000/svg" id="drawingSvg" version="1.1" width="100%" height="100%"><g id="90"><path d="M 758.9322379857665 142.83516871174524 Q 758.9322379857665 142.83516871174524 762.4161492035421 139.7037699745468 765.9000604213178 136.57237123734834 772.4074921381481 132.85909335884978 778.9149238549784 129.14581548035122 789.2803601134481 126.68541232324961 799.6457963719176 124.22500916614798 811.0036508049047 123.77516894934001 822.3615052378918 123.32532873253203 835.0420022663989 125.74539887399607 847.722499294906 128.1654690154601 861.1934647223304 132.956816609103 874.6644301497548 137.74816420274584 888.21539042313 145.57475546106775 901.7663506965051 153.40134671938964 912.4554168618074 162.23344031634457 923.1444830271098 171.06553391329953 930.6263509148673 180.94153848697812 938.108218802625 190.8175430606567 942.7664119234316 203.46355173128563 947.4246050442383 216.10956040191456 950.2566461184408 231.00293603790428 953.0886871926433 245.896311673894 954.2895653766162 262.60647332175427 955.4904435605891 279.3166349696146 954.5596227537429 296.8156726106989 953.6288019468967 314.3147102517833 951.5016913002041 328.6771928761484 949.3745806535114 343.03967550051357 946.7345156006279 353.209321161645 944.0944505477443 363.3789668227765 941.8112826543572 369.73963094778594 939.5281147609703 376.1002950727954 938.272499638494 379.3683833213124 937.0168845160176 382.63647156982944 936.9146594925479 382.8112282679707 936.8124344690782 382.985984966112 936.6597591447705 383.1189515194862 936.507083820463 383.25191807286035 936.319943342075 383.32917284822935 936.132802863687 383.40642762359835 935.9307908887058 383.41988202558775 935.7287789137248 383.4333364275772 935.5330461492573 383.3815817767472 935.3373133847898 383.3298271259172 935.168353102944 383.21828214787143 934.9993928210982 383.1067371698257 934.8748952079845 382.9470806532107 934.750397594871 382.7874241365957 934.6833975834467 382.5963721608463 934.6163975720224 382.4053201850968 934.6139100811697 382.2028759425067 934.6114225903171 382.0004316999166 934.6737080609852 381.80779115612506 934.7359935316532 381.61515061233354 934.8565306586212 381.4524832831278 934.9770677855892 381.289815953922 935.1432362998448 381.17415315160986 935.3094048141005 381.05849034929764 935.503806828337 381.0019419998132 935.6982088425735 380.9453936503287 935.9004904145831 380.9538803807902 936.1027719865929 380.9623671112518 936.2917541823891 381.0350003587398 936.4807363781854 381.10763360622775 936.636632711982 381.2368086505569 936.7925290457785 381.365983694886 936.8990171302742 381.53817587481603 937.0055052147699 381.71036805474614 937.0514357194079 381.9075488035842 937.0973662240458 382.1047295524222 937.077930212866 382.3062539937142 937.0584942016864 382.5077784350062 936.9757266301899 382.69254690655157 936.8929590586936 382.87731537809697 936.7555257134647 383.02598257215084 936.6180923682359 383.17464976620465 936.440382556799 383.2716501883052 936.2626727453621 383.3686506104058 936.0632927318854 383.4038282907535 935.8639127184086 383.43900597110115 935.6637376429343 383.4086777972776 935.4635625674599 383.378349623454 935.2835508132313 383.28569096326436 935.1035390590026 383.1930323030747 934.9625379042059 383.04774454270034 934.821536749409 382.902456782326 934.734309052172 382.71975158863034 934.647081354935 382.5370463949347 934.6227598781844 382.3360530499272 934.5984384014338 382.13505970491974 934.6395696102056 381.93682226487977 934.6807008189775 381.7385848248398 934.680633477471 381.73876003861835 934.6805661359647 381.73893525239697 935.9261676310058 378.49626929242015 937.1717691260469 375.25360333244333 939.4208756268185 369.00072814334953 941.6699821275903 362.74785295425573 944.2823274139037 352.70917081749724 946.8946727002169 342.6704886807388 949.0085275575168 328.42514119242173 951.1223824148168 314.1797937041047 952.0526569114826 296.836878138878 952.9829314081484 279.4939625736513 951.7981514827378 262.928940206662 950.6133715573272 246.3639178396727 947.8320994329803 231.66862520542813 945.0508273086333 216.97333257118356 940.5600481975589 204.6460041353789 936.0692690864845 192.31867569957421 928.7888493698163 182.66918119929136 921.5084296531479 173.0196866990085 910.992113219801 164.32119423958358 900.475796786454 155.62270178015868 887.1317391806543 147.90673761170444 873.7876815748547 140.19077344325024 860.5056637571619 135.47022591506692 847.2236459394691 130.74967838688363 834.8383000382887 128.3770541240508 822.4529541371082 126.00442986121797 811.3617663825953 126.45413222253501 800.2705786280824 126.90383458385203 790.2853273865519 129.26588455175042 780.3000761450215 131.6279345196488 774.1000078618519 135.20278164115024 767.8999395786822 138.7776287626517 764.4838507964578 141.97123002545322 761.0677620142335 145.16483128825476 760.9128618829267 145.27567635126047 760.7579617516199 145.38652141426616 760.5810352340046 145.45707413240058 760.4041087163894 145.52762685053497 760.2154387899824 145.5537866965052 760.0267688635754 145.57994654247543 759.837321033364 145.5601931048046 759.6478732031526 145.54043966713377 759.4686581859299 145.4759210165474 759.2894431687073 145.41140236596104 759.1308769496947 145.3058683294626 758.972310730682 145.20033429296421 758.8436091859787 145.0599185137135 758.7149076412753 144.91950273446284 758.6235509107064 144.75236618414732 758.5321941801375 144.5852296338318 758.483491921176 144.4010862966087 758.4347896622146 144.2169429593856 758.4315724524397 144.02649525466623 758.4283552426649 143.83604754994687 758.47081006646 143.6503643072777 758.513264890255 143.4646810646085 758.5989242712662 143.2945542027777 758.6845836522774 143.12442734094694 758.8084690632556 142.97974464115754 758.932354474234 142.83506194136814 758.9322962300002 142.8351153265567" stroke-opacity="0" fill="black" /></g><g id="91"><path d="M 387.2597788898242 312.4413266610547 Q 387.2597788898242 312.4413266610547 390.7026689700121 313.06118489527216 394.1455590502 313.68104312948964 405.73743877111497 316.8478307959364 417.32931849202987 320.01461846238317 438.05329412079993 326.25601851580075 458.77726974957 332.4974185692183 488.2942487844175 342.34820864243716 517.811227819265 352.19899871565593 548.4741049093708 363.29330239579554 579.1369819994766 374.38760607593514 607.4242083697229 386.01393537407716 635.7114347399691 397.64026467221925 659.8410542987504 409.7876099394782 683.9706738575317 421.9349552067372 703.1709015400206 434.02034933929787 722.3711292225097 446.10574347185855 739.1526367268045 457.5684576729776 755.9341442310993 469.03117187409674 768.7759966516578 476.7531711119091 781.6178490722164 484.4751703497215 791.6119877232844 488.8780660920584 801.6061263743525 493.2809618343953 811.1725281756067 494.5485793092507 820.738929976861 495.8161967841061 829.8462456483015 493.7968035404689 838.9535613197421 491.7774102968316 848.2372880589135 487.2259615671941 857.5210147980848 482.67451283755656 866.9173614873632 476.44777383700193 876.3137081766415 470.22103483644725 885.1750396820753 462.99419937673736 894.036371187509 455.76736391702747 898.0882646616697 452.1250766225153 902.1401581358303 448.48278932800304 902.310649814222 448.3735993716525 902.4811414926137 448.264409415302 902.6775734996979 448.21537549274365 902.8740055067823 448.1663415701853 903.0758113595646 448.1825975460547 903.2776172123467 448.19885352192404 903.463667784769 448.27869739125646 903.6497183571912 448.3585412605889 903.8005341052084 448.4936133491885 903.9513498532256 448.6286854377881 904.0511403282087 448.8048436623229 904.1509308031917 448.9810018868578 904.1892479160679 449.1798024347179 904.2275650289441 449.37860298257795 904.2003969678806 449.579231383924 904.173228906817 449.77985978527005 904.0834201749788 449.96131019352043 903.9936114431405 450.1427606017708 903.8505650384582 450.2860351112834 903.7075186337757 450.429309620796 903.5262115525802 450.5194073526041 903.3449044713846 450.6095050844122 903.1443196129374 450.63699278221196 902.9437347544902 450.6644804800117 902.74487340642 450.6264801745875 902.5460120583498 450.5884798691633 902.369695056294 450.48897020252406 902.193378054238 450.38946053588484 902.0580658348548 450.23886019639576 901.9227536154716 450.0882598569067 901.8426134038496 449.9023367398669 901.7624731922274 449.7164136228271 901.7458956896783 449.5146339276696 901.729318187129 449.31285423251205 901.7780390625455 449.11634434658447 901.8267599379622 448.91983446065694 901.9356781028274 448.7491690208895 902.0445962676927 448.57850358112205 902.2023079613936 448.45155130410967 902.3600196550944 448.32459902709735 902.5500124216687 448.2546518497554 902.7400051882429 448.18470467241343 902.9423867348769 448.17908608267385 903.1447682815109 448.1734674929343 903.3383492068485 448.23276575862604 903.5319301321862 448.29206402431777 903.6964424622442 448.4100706013696 903.8609547923023 448.5280771784215 903.9791740426967 448.69243674706547 904.097393293091 448.8567963157094 904.1569418770985 449.0503003857217 904.216490461106 449.24380445573405 904.2111336262617 449.44619309990435 904.2057767914175 449.6485817440746 904.1360753997437 449.8386648179328 904.06637400807 450.02874789179094 903.9396258136745 450.186623647327 903.812877619279 450.3444994028631 903.8130172475356 450.3443739489009 903.8131568757923 450.3442484949387 899.71582226958 454.02613384535766 895.6184876633678 457.70801919577656 886.6581060385122 465.0086487829635 877.6977244136565 472.3092783701505 868.1606284434306 478.61775124464725 858.6235324732048 484.9262241191441 849.0638647194249 489.5752739190393 839.5041969656451 494.22432371893456 829.9799961830829 496.2649270153744 820.4557954005207 498.30553031181427 810.5362761335332 496.94961023391 800.6167568665455 495.5936901560057 790.4675518276329 491.11767400949634 780.3183467887202 486.64165786298696 767.4111552328534 478.883864421161 754.5039636769866 471.126070979335 737.7583088838101 459.6951553460109 721.0126540906336 448.26423971268673 701.9136763673077 436.24697541126335 682.814698643982 424.22971110983997 658.7697172479047 412.1355071206658 634.7247358518276 400.04130313149165 606.483489387113 388.452222414497 578.2422429223984 376.8631416975024 547.6028309890667 365.80353945967323 516.9634190557349 354.7439372218441 487.47501215308245 344.9384780763129 457.98660525043 335.13301893078165 437.28614337920004 328.94795023419925 416.5856815079701 322.76288153761686 405.120061228885 319.69091920406356 393.65444094979995 316.6189568705103 390.1973310299879 316.0888151047278 386.7402211101758 315.5586733389453 386.5574824070468 315.5049402481137 386.3747437039177 315.45120715728206 386.21017496344155 315.3553019523675 386.04560622296543 315.2593967474529 385.9087721880709 315.1268934434711 385.7719381531764 314.99439013948927 385.6707916244007 314.8329898346933 385.569645095625 314.6715895298973 385.51006471397295 314.4906728175853 385.45048433232085 314.3097561052732 385.43593291237335 314.119837873265 385.42138149242584 313.9299196412568 385.45270476339397 313.74203794612004 385.48402803436215 313.5541562509832 385.5594054862655 313.37923078566683 385.63478293816894 313.20430532035044 385.74983362996136 313.05250276111747 385.86488432175383 312.90070020188443 386.0129215018227 312.78084332060985 386.16095868189154 312.66098643933526 386.33337842237574 312.58004132359025 386.50579816285995 312.49909620784524 386.6925794203414 312.4617673915601 386.87936067782283 312.4244385752749 387.0696477168409 312.43289561100596 387.2599347558589 312.441352646737 387.2598568228416 312.44133965389585" stroke-opacity="0" fill="black" /></g><g id="92"><path d="M 179.30081886220484 357.10288354330703 Q 179.30081886220484 357.10288354330703 185.0128427507758 365.4654005560383 190.7248666393468 373.82791756876946 202.56853184112344 386.8016189368624 214.41219704290012 399.7753203049553 229.49069070255234 413.9169870528617 244.56918436220454 428.0586538007682 263.9221465116485 445.87407887261855 283.27510866109253 463.6895039444689 295.82954682925254 476.1718980592143 308.3839849974125 488.6542921739597 319.5057529080627 502.3437657681557 330.62752081871287 516.0332393623518 339.1293490952895 530.8321879972266 347.6311773718661 545.6311366321015 352.4282159446011 563.2473599810467 357.22525451733617 580.8635833299918 357.24348488395526 597.9446130753097 357.26171525057435 615.0256428206277 352.3284244043008 629.612487367755 347.39513355802717 644.1993319148822 338.275080547937 653.9772855272168 329.15502753784693 663.7552391395515 319.6658630452704 667.9550183847045 310.17669855269384 672.1547976298576 302.2557098305613 672.2022229748416 294.3347211084287 672.2496483198256 288.85877984936326 670.4874284476217 283.38283859029787 668.7252085754178 279.50991984836935 665.5841793726673 275.6370011064408 662.4431501699169 273.1075422230776 659.0323318794987 270.5780833397144 655.6215135890805 269.4687659838046 653.9156876141176 268.3594486278947 652.2098616391548 268.2764790789122 652.0052519508911 268.1935095299297 651.8006422626272 268.1802176401791 651.5802508012304 268.16692575042845 651.3598593398335 268.2247031842753 651.1467611494895 268.2824806181222 650.9336629591456 268.405278062991 650.7501694766361 268.5280755078598 650.5666759941266 268.7030360388574 650.4319990355078 268.87799656985504 650.297322076889 269.08680177320093 650.2255623552796 269.2956069765468 650.1538026336701 269.5163948923314 650.1524734108652 269.737182808116 650.1511441880605 269.9468368832744 650.2203846340387 270.15649095843276 650.2896250800171 270.33306035595245 650.4221857018069 270.50962975347215 650.5547463235968 270.63462761082315 650.7367479891041 270.7596254681741 650.9187496546115 270.8199644766954 651.1311367414139 270.8803034852167 651.3435238282165 270.86966613478825 651.5640593522611 270.8590287843598 651.7845948763057 270.7785288083794 651.9901887100093 270.6980288323991 652.1957825437129 270.5560945996019 652.3649089584152 270.4141603668047 652.5340353731175 270.2256524288315 652.6489867885541 270.03714449085834 652.7639382039907 269.8217996785762 652.8126791766213 269.60645486629414 652.8614201492517 269.38681983839456 652.8388474863752 269.167184810495 652.8162748234989 268.966255412377 652.7247518888773 268.7653260142591 652.6332289542559 268.60413960694586 652.4823382233037 268.4429531996327 652.3314474923517 268.3383860425191 652.136987264431 268.23381888540547 651.9425270365103 268.19681918744425 651.7248573488168 268.159819489483 651.5071876611235 268.19426112881774 651.289098587418 268.2287027681524 651.0710095137125 268.33097969605296 650.8753350375819 268.4332566239535 650.6796605614512 268.5926604190703 650.5268878521993 268.752064214187 650.3741151429474 268.9519052570927 650.280239543561 269.1517462999983 650.1863639441747 269.3711011807478 650.1612142546903 269.5904560614973 650.1360645652059 269.8063582661721 650.1822739647514 270.02226047084685 650.228483364297 270.21210498162475 650.3412137165419 270.4019494924027 650.4539440687869 270.54585953889125 650.6213924760932 270.68976958537985 650.7888408833995 270.6896630088224 650.7886661093264 270.6895564322649 650.7884913352533 271.6428013229337 652.463904137096 272.5960462136024 654.1393169389387 274.9196749692476 657.3314134174747 277.24330372489277 660.5235098960106 280.73059119239576 663.4481625025641 284.2178786598988 666.3728151091175 289.2953637759664 668.0592583176286 294.372848892034 669.7457015261398 301.81286340550866 669.7899811786885 309.2528779189833 669.8342608312372 318.3190151572472 665.9089913883073 327.38515239551106 661.9837219453774 336.21875051681013 652.6439139386933 345.05234863810915 643.3041059320093 349.89235457157474 629.1432760814456 354.7323605050404 614.9824462308819 354.7465832945754 598.2454185698682 354.76080608411036 581.5083909088544 350.0778268284122 564.1997733017248 345.39484757271396 546.8911556945952 337.0025162529771 532.2787138445885 328.6101849332403 517.6662719945817 317.5692243819764 504.0936503302329 306.52826383071255 490.52102866588405 293.99392914731004 478.0926104075826 281.4595944639075 465.6641921492811 262.07426755085146 447.8659410492565 242.68894063779547 430.06768994923186 227.5008717974477 415.8830598221383 212.3128029570999 401.6984296950447 200.29396815887657 388.6102560631376 188.2751333606532 375.52208243123056 182.4871572492242 367.2095994439618 176.69918113779516 358.89711645669297 176.6107316905733 358.7284233212139 176.52228224335144 358.55973018573485 176.47677530885292 358.37477127790896 176.4312683743544 358.189812370083 176.4313488177504 357.99933751032336 176.4314292611464 357.80886265056364 176.477092407063 357.6239422466689 176.5227555529796 357.4390218427741 176.6113474572306 357.270403477307 176.69993936148163 357.10178511183994 176.82631105842952 356.959268892124 176.95268275537742 356.8167526724081 177.10948951605803 356.7086216478293 177.26629627673867 356.6004906232505 177.44442448485376 356.53302937403794 177.6225526929688 356.4655681248253 177.81164952869335 356.4426975019528 178.0007463644179 356.41982687908023 178.1898215107749 356.44287612422363 178.37889665713192 356.4659253693671 178.55696105773148 356.5335548593158 178.73502545833105 356.60118434926454 178.891730001844 356.70946345488517 179.04843454535697 356.8177425605058 179.1746715563516 356.9603780950922 179.30090856734626 357.1030136296786 179.30086371477555 357.10294858649286" stroke-opacity="0" fill="black" /></g><g id="93"><path d="M 364.39224103954416 412.5413784949059 Q 364.39224103954416 412.5413784949059 367.8606208283916 411.14547458554614 371.329000617239 409.74957067618635 379.2248465672057 407.70044975463384 387.1206925171724 405.6513288330814 397.37974001562463 403.6442579655441 407.6387875140768 401.63718709800685 420.3896484493181 400.49791655277534 433.1405093845594 399.3586460075438 448.1055028547705 400.03206646745286 463.07049632498166 400.7054869273619 480.690268548631 403.88089596539595 498.31004077228044 407.05630500343 515.0253276861365 411.8694932328232 531.7406145999925 416.6826814622164 548.6742132369973 424.2164608964546 565.607811874002 431.7502403306927 581.1797993930898 441.30434594070437 596.7517869121776 450.85845155071604 612.3138143825125 463.2853132489444 627.8758418528474 475.7121749471728 643.1278753089832 490.2106580504177 658.3799087651189 504.7091411536626 674.6302100987463 520.9293982815948 690.8805114323736 537.1496554095269 706.672766561413 551.4934059880202 722.4650216904523 565.8371565665136 737.1791231495104 576.4970609388562 751.8932246085685 587.1569653111987 766.0934084494477 593.0741702027428 780.2935922903268 598.9913750942868 793.4200073497218 600.9207241007971 806.5464224091168 602.8500731073075 819.5053441026262 601.385161955109 832.4642657961356 599.9202508029103 845.3878586632393 595.589089863382 858.311451530343 591.2579289238536 868.965771567777 586.269704864482 879.620091605211 581.2814808051104 886.9820012555776 576.6008233547681 894.3439109059442 571.9201659044257 894.5300027777948 571.8407735668613 894.7160946496454 571.761381229297 894.9177954606143 571.7455663348235 895.1194962715834 571.72975144035 895.3156878935187 571.7791698125936 895.5118795154539 571.8285881848371 895.6820206337491 571.9380657071786 895.8521617520444 572.04754322952 895.9784385467012 572.205617576471 896.1047153413581 572.3636919234219 896.1739065986421 572.553812669129 896.2430978559262 572.7439334148361 896.247959232935 572.9461948670369 896.252820609944 573.1484563192377 896.1928431192216 573.3416816504948 896.1328656284993 573.5349069817519 896.0143289291568 573.6988654488762 895.8957922298142 573.8628239160006 895.7311071455634 573.9803490242034 895.5664220613127 574.0978741324062 895.3728311639472 574.156660971835 895.1792402665818 574.2154478112639 894.977012574159 574.2093413843123 894.7747848817361 574.2032349573608 894.5850936870354 574.1328746085426 894.3954024923348 574.0625142597244 894.238108513515 573.935266736134 894.0808145346954 573.8080192125439 893.9723864928607 573.6372073634916 893.863958451026 573.4663955144393 893.8157487907785 573.2699033856106 893.767539130531 573.073411256782 893.7845954160248 572.8718116259344 893.8016517015186 572.6702119950867 893.88218813516 572.4846123967868 893.9627245688016 572.2990127984868 894.098308964729 572.1488455596702 894.2338933606563 571.9986783208536 894.4103299968251 571.8996659910648 894.5867666329939 571.800653661276 894.7855825470226 571.7631628575805 894.9843984610512 571.725672053885 895.1847775742585 571.7536280733264 895.385156687466 571.7815840927677 895.5661192538043 571.8720599327307 895.7470818201426 571.9625357726939 895.8896810111469 572.1060585888512 896.032280202151 572.2495814050085 896.1215858448804 572.4311243206221 896.2108914876098 572.6126672362356 896.2375532576963 572.8132226601178 896.2642150277827 573.0137780840003 896.2254414308602 573.2123478103294 896.1866678339376 573.4109175366588 896.086518475839 573.5867112626709 895.9863691177403 573.7625049886828 895.8353296626954 573.8971170648593 895.6842902076505 574.0317291410358 895.6844485748945 574.0316286125874 895.6846069421384 574.031528084139 888.183455136796 578.7887812731199 880.6823033314538 583.5460344621007 869.8941258260433 588.5881883776074 859.1059483206327 593.6303422931139 845.9295469692787 598.0177177650635 832.7531456179247 602.4050932370129 819.4767867974161 603.8661501118213 806.2004279769076 605.3272069866296 792.7732418268483 603.3176572331563 779.3460556767891 601.3081074796829 764.8907072601291 595.251432935971 750.4353588434692 589.1947583922592 735.6070314612589 578.445534681647 720.7787040790485 567.6963109710348 704.9417148756913 553.3127013543403 689.1047256723343 538.9290917376458 672.8744521062054 522.7320307592536 656.6441785400764 506.5349697808615 641.4713298791385 492.110351457461 626.2984812182004 477.68573313406046 610.8607860601264 465.35235618135835 595.4230909020524 453.01897922865624 579.9957310601781 443.5489938953021 564.5683712183038 434.07900856194794 547.7976231236332 426.6149269529725 531.0268750289625 419.150845343997 514.4378166918176 414.38083111876983 497.84875835467267 409.6108168935426 480.399482928908 406.4728083912935 462.9502075031433 403.33479988904435 448.16450062179194 402.6825320188753 433.3787937404406 402.03026414870624 420.7750656131819 403.1834916503497 408.1713374859232 404.3367191519932 398.0078224843754 406.3708201594559 387.8443074828276 408.4049211669186 380.1576534327943 410.4526752453661 372.47099938276097 412.50042932381365 369.0393791716084 413.97952541445386 365.60775896045584 415.4586215050941 365.42438728134493 415.5101531067737 365.2410156022341 415.56168470845336 365.05064000406026 415.56783371581764 364.8602644058864 415.57398272318187 364.67394952736026 415.5343917556338 364.4876346488341 415.4948007880858 364.31620911944947 415.41177087451956 364.1447835900649 415.32874096095327 363.9982106696441 415.2070978038464 363.8516377492233 415.0854546467395 363.7384362627879 414.93226815209846 363.62523477635244 414.77908165745737 363.55198399961273 414.6032550315481 363.478733222873 414.4274284056388 363.4496904944148 414.23918070022034 363.42064776595663 414.0509329948019 363.43750105052254 413.86120517535795 363.4543543350884 413.671477355914 363.51612411898753 413.491296412225 363.5778939028867 413.311115468536 363.6809901233766 413.15095352551486 363.78408634386653 412.9907915824938 363.92251704376844 412.8599572597941 364.06094774367034 412.7291229370944 364.2266673242018 412.63522033169875 364.3923869047332 412.5413177263031 364.3923139721387 412.54134811060453" stroke-opacity="0" fill="black" /></g><g id="94"><path d="M 758.9322379857665 142.83516871174524 Q 758.9322379857665 142.83516871174524 762.4161492035421 139.7037699745468 765.9000604213178 136.57237123734834 772.4074921381481 132.85909335884978 778.9149238549784 129.14581548035122 789.2803601134481 126.68541232324961 799.6457963719176 124.22500916614798 811.0036508049047 123.77516894934001 822.3615052378918 123.32532873253203 835.0420022663989 125.74539887399607 847.722499294906 128.1654690154601 861.1934647223304 132.956816609103 874.6644301497548 137.74816420274584 888.21539042313 145.57475546106775 901.7663506965051 153.40134671938964 912.4554168618074 162.23344031634457 923.1444830271098 171.06553391329953 930.6263509148673 180.94153848697812 938.108218802625 190.8175430606567 942.7664119234316 203.46355173128563 947.4246050442383 216.10956040191456 950.2566461184408 231.00293603790428 953.0886871926433 245.896311673894 954.2895653766162 262.60647332175427 955.4904435605891 279.3166349696146 954.5596227537429 296.8156726106989 953.6288019468967 314.3147102517833 951.5016913002041 328.6771928761484 949.3745806535114 343.03967550051357 946.7345156006279 353.209321161645 944.0944505477443 363.3789668227765 941.8112826543572 369.73963094778594 939.5281147609703 376.1002950727954 938.272499638494 379.3683833213124 937.0168845160176 382.63647156982944 936.9146594925479 382.8112282679707 936.8124344690782 382.985984966112 936.6597591447705 383.1189515194862 936.507083820463 383.25191807286035 936.319943342075 383.32917284822935 936.132802863687 383.40642762359835 935.9307908887058 383.41988202558775 935.7287789137248 383.4333364275772 935.5330461492573 383.3815817767472 935.3373133847898 383.3298271259172 935.168353102944 383.21828214787143 934.9993928210982 383.1067371698257 934.8748952079845 382.9470806532107 934.750397594871 382.7874241365957 934.6833975834467 382.5963721608463 934.6163975720224 382.4053201850968 934.6139100811697 382.2028759425067 934.6114225903171 382.0004316999166 934.6737080609852 381.80779115612506 934.7359935316532 381.61515061233354 934.8565306586212 381.4524832831278 934.9770677855892 381.289815953922 935.1432362998448 381.17415315160986 935.3094048141005 381.05849034929764 935.503806828337 381.0019419998132 935.6982088425735 380.9453936503287 935.9004904145831 380.9538803807902 936.1027719865929 380.9623671112518 936.2917541823891 381.0350003587398 936.4807363781854 381.10763360622775 936.636632711982 381.2368086505569 936.7925290457785 381.365983694886 936.8990171302742 381.53817587481603 937.0055052147699 381.71036805474614 937.0514357194079 381.9075488035842 937.0973662240458 382.1047295524222 937.077930212866 382.3062539937142 937.0584942016864 382.5077784350062 936.9757266301899 382.69254690655157 936.8929590586936 382.87731537809697 936.7555257134647 383.02598257215084 936.6180923682359 383.17464976620465 936.440382556799 383.2716501883052 936.2626727453621 383.3686506104058 936.0632927318854 383.4038282907535 935.8639127184086 383.43900597110115 935.6637376429343 383.4086777972776 935.4635625674599 383.378349623454 935.2835508132313 383.28569096326436 935.1035390590026 383.1930323030747 934.9625379042059 383.04774454270034 934.821536749409 382.902456782326 934.734309052172 382.71975158863034 934.647081354935 382.5370463949347 934.6227598781844 382.3360530499272 934.5984384014338 382.13505970491974 934.6395696102056 381.93682226487977 934.6807008189775 381.7385848248398 934.680633477471 381.73876003861835 934.6805661359647 381.73893525239697 935.9261676310058 378.49626929242015 937.1717691260469 375.25360333244333 939.4208756268185 369.00072814334953 941.6699821275903 362.74785295425573 944.2823274139037 352.70917081749724 946.8946727002169 342.6704886807388 949.0085275575168 328.42514119242173 951.1223824148168 314.1797937041047 952.0526569114826 296.836878138878 952.9829314081484 279.4939625736513 951.7981514827378 262.928940206662 950.6133715573272 246.3639178396727 947.8320994329803 231.66862520542813 945.0508273086333 216.97333257118356 940.5600481975589 204.6460041353789 936.0692690864845 192.31867569957421 928.7888493698163 182.66918119929136 921.5084296531479 173.0196866990085 910.992113219801 164.32119423958358 900.475796786454 155.62270178015868 887.1317391806543 147.90673761170444 873.7876815748547 140.19077344325024 860.5056637571619 135.47022591506692 847.2236459394691 130.74967838688363 834.8383000382887 128.3770541240508 822.4529541371082 126.00442986121797 811.3617663825953 126.45413222253501 800.2705786280824 126.90383458385203 790.2853273865519 129.26588455175042 780.3000761450215 131.6279345196488 774.1000078618519 135.20278164115024 767.8999395786822 138.7776287626517 764.4838507964578 141.97123002545322 761.0677620142335 145.16483128825476 760.9128618829267 145.27567635126047 760.7579617516199 145.38652141426616 760.5810352340046 145.45707413240058 760.4041087163894 145.52762685053497 760.2154387899824 145.5537866965052 760.0267688635754 145.57994654247543 759.837321033364 145.5601931048046 759.6478732031526 145.54043966713377 759.4686581859299 145.4759210165474 759.2894431687073 145.41140236596104 759.1308769496947 145.3058683294626 758.972310730682 145.20033429296421 758.8436091859787 145.0599185137135 758.7149076412753 144.91950273446284 758.6235509107064 144.75236618414732 758.5321941801375 144.5852296338318 758.483491921176 144.4010862966087 758.4347896622146 144.2169429593856 758.4315724524397 144.02649525466623 758.4283552426649 143.83604754994687 758.47081006646 143.6503643072777 758.513264890255 143.4646810646085 758.5989242712662 143.2945542027777 758.6845836522774 143.12442734094694 758.8084690632556 142.97974464115754 758.932354474234 142.83506194136814 758.9322962300002 142.8351153265567" stroke-opacity="0" fill="black" /></g><g id="95"><path d="M 387.2597788898242 312.4413266610547 Q 387.2597788898242 312.4413266610547 390.7026689700121 313.06118489527216 394.1455590502 313.68104312948964 405.73743877111497 316.8478307959364 417.32931849202987 320.01461846238317 438.05329412079993 326.25601851580075 458.77726974957 332.4974185692183 488.2942487844175 342.34820864243716 517.811227819265 352.19899871565593 548.4741049093708 363.29330239579554 579.1369819994766 374.38760607593514 607.4242083697229 386.01393537407716 635.7114347399691 397.64026467221925 659.8410542987504 409.7876099394782 683.9706738575317 421.9349552067372 703.1709015400206 434.02034933929787 722.3711292225097 446.10574347185855 739.1526367268045 457.5684576729776 755.9341442310993 469.03117187409674 768.7759966516578 476.7531711119091 781.6178490722164 484.4751703497215 791.6119877232844 488.8780660920584 801.6061263743525 493.2809618343953 811.1725281756067 494.5485793092507 820.738929976861 495.8161967841061 829.8462456483015 493.7968035404689 838.9535613197421 491.7774102968316 848.2372880589135 487.2259615671941 857.5210147980848 482.67451283755656 866.9173614873632 476.44777383700193 876.3137081766415 470.22103483644725 885.1750396820753 462.99419937673736 894.036371187509 455.76736391702747 898.0882646616697 452.1250766225153 902.1401581358303 448.48278932800304 902.310649814222 448.3735993716525 902.4811414926137 448.264409415302 902.6775734996979 448.21537549274365 902.8740055067823 448.1663415701853 903.0758113595646 448.1825975460547 903.2776172123467 448.19885352192404 903.463667784769 448.27869739125646 903.6497183571912 448.3585412605889 903.8005341052084 448.4936133491885 903.9513498532256 448.6286854377881 904.0511403282087 448.8048436623229 904.1509308031917 448.9810018868578 904.1892479160679 449.1798024347179 904.2275650289441 449.37860298257795 904.2003969678806 449.579231383924 904.173228906817 449.77985978527005 904.0834201749788 449.96131019352043 903.9936114431405 450.1427606017708 903.8505650384582 450.2860351112834 903.7075186337757 450.429309620796 903.5262115525802 450.5194073526041 903.3449044713846 450.6095050844122 903.1443196129374 450.63699278221196 902.9437347544902 450.6644804800117 902.74487340642 450.6264801745875 902.5460120583498 450.5884798691633 902.369695056294 450.48897020252406 902.193378054238 450.38946053588484 902.0580658348548 450.23886019639576 901.9227536154716 450.0882598569067 901.8426134038496 449.9023367398669 901.7624731922274 449.7164136228271 901.7458956896783 449.5146339276696 901.729318187129 449.31285423251205 901.7780390625455 449.11634434658447 901.8267599379622 448.91983446065694 901.9356781028274 448.7491690208895 902.0445962676927 448.57850358112205 902.2023079613936 448.45155130410967 902.3600196550944 448.32459902709735 902.5500124216687 448.2546518497554 902.7400051882429 448.18470467241343 902.9423867348769 448.17908608267385 903.1447682815109 448.1734674929343 903.3383492068485 448.23276575862604 903.5319301321862 448.29206402431777 903.6964424622442 448.4100706013696 903.8609547923023 448.5280771784215 903.9791740426967 448.69243674706547 904.097393293091 448.8567963157094 904.1569418770985 449.0503003857217 904.216490461106 449.24380445573405 904.2111336262617 449.44619309990435 904.2057767914175 449.6485817440746 904.1360753997437 449.8386648179328 904.06637400807 450.02874789179094 903.9396258136745 450.186623647327 903.812877619279 450.3444994028631 903.8130172475356 450.3443739489009 903.8131568757923 450.3442484949387 899.71582226958 454.02613384535766 895.6184876633678 457.70801919577656 886.6581060385122 465.0086487829635 877.6977244136565 472.3092783701505 868.1606284434306 478.61775124464725 858.6235324732048 484.9262241191441 849.0638647194249 489.5752739190393 839.5041969656451 494.22432371893456 829.9799961830829 496.2649270153744 820.4557954005207 498.30553031181427 810.5362761335332 496.94961023391 800.6167568665455 495.5936901560057 790.4675518276329 491.11767400949634 780.3183467887202 486.64165786298696 767.4111552328534 478.883864421161 754.5039636769866 471.126070979335 737.7583088838101 459.6951553460109 721.0126540906336 448.26423971268673 701.9136763673077 436.24697541126335 682.814698643982 424.22971110983997 658.7697172479047 412.1355071206658 634.7247358518276 400.04130313149165 606.483489387113 388.452222414497 578.2422429223984 376.8631416975024 547.6028309890667 365.80353945967323 516.9634190557349 354.7439372218441 487.47501215308245 344.9384780763129 457.98660525043 335.13301893078165 437.28614337920004 328.94795023419925 416.5856815079701 322.76288153761686 405.120061228885 319.69091920406356 393.65444094979995 316.6189568705103 390.1973310299879 316.0888151047278 386.7402211101758 315.5586733389453 386.5574824070468 315.5049402481137 386.3747437039177 315.45120715728206 386.21017496344155 315.3553019523675 386.04560622296543 315.2593967474529 385.9087721880709 315.1268934434711 385.7719381531764 314.99439013948927 385.6707916244007 314.8329898346933 385.569645095625 314.6715895298973 385.51006471397295 314.4906728175853 385.45048433232085 314.3097561052732 385.43593291237335 314.119837873265 385.42138149242584 313.9299196412568 385.45270476339397 313.74203794612004 385.48402803436215 313.5541562509832 385.5594054862655 313.37923078566683 385.63478293816894 313.20430532035044 385.74983362996136 313.05250276111747 385.86488432175383 312.90070020188443 386.0129215018227 312.78084332060985 386.16095868189154 312.66098643933526 386.33337842237574 312.58004132359025 386.50579816285995 312.49909620784524 386.6925794203414 312.4617673915601 386.87936067782283 312.4244385752749 387.0696477168409 312.43289561100596 387.2599347558589 312.441352646737 387.2598568228416 312.44133965389585" stroke-opacity="0" fill="black" /></g><g id="96"><path d="M 179.30081886220484 357.10288354330703 Q 179.30081886220484 357.10288354330703 185.0128427507758 365.4654005560383 190.7248666393468 373.82791756876946 202.56853184112344 386.8016189368624 214.41219704290012 399.7753203049553 229.49069070255234 413.9169870528617 244.56918436220454 428.0586538007682 263.9221465116485 445.87407887261855 283.27510866109253 463.6895039444689 295.82954682925254 476.1718980592143 308.3839849974125 488.6542921739597 319.5057529080627 502.3437657681557 330.62752081871287 516.0332393623518 339.1293490952895 530.8321879972266 347.6311773718661 545.6311366321015 352.4282159446011 563.2473599810467 357.22525451733617 580.8635833299918 357.24348488395526 597.9446130753097 357.26171525057435 615.0256428206277 352.3284244043008 629.612487367755 347.39513355802717 644.1993319148822 338.275080547937 653.9772855272168 329.15502753784693 663.7552391395515 319.6658630452704 667.9550183847045 310.17669855269384 672.1547976298576 302.2557098305613 672.2022229748416 294.3347211084287 672.2496483198256 288.85877984936326 670.4874284476217 283.38283859029787 668.7252085754178 279.50991984836935 665.5841793726673 275.6370011064408 662.4431501699169 273.1075422230776 659.0323318794987 270.5780833397144 655.6215135890805 269.4687659838046 653.9156876141176 268.3594486278947 652.2098616391548 268.2764790789122 652.0052519508911 268.1935095299297 651.8006422626272 268.1802176401791 651.5802508012304 268.16692575042845 651.3598593398335 268.2247031842753 651.1467611494895 268.2824806181222 650.9336629591456 268.405278062991 650.7501694766361 268.5280755078598 650.5666759941266 268.7030360388574 650.4319990355078 268.87799656985504 650.297322076889 269.08680177320093 650.2255623552796 269.2956069765468 650.1538026336701 269.5163948923314 650.1524734108652 269.737182808116 650.1511441880605 269.9468368832744 650.2203846340387 270.15649095843276 650.2896250800171 270.33306035595245 650.4221857018069 270.50962975347215 650.5547463235968 270.63462761082315 650.7367479891041 270.7596254681741 650.9187496546115 270.8199644766954 651.1311367414139 270.8803034852167 651.3435238282165 270.86966613478825 651.5640593522611 270.8590287843598 651.7845948763057 270.7785288083794 651.9901887100093 270.6980288323991 652.1957825437129 270.5560945996019 652.3649089584152 270.4141603668047 652.5340353731175 270.2256524288315 652.6489867885541 270.03714449085834 652.7639382039907 269.8217996785762 652.8126791766213 269.60645486629414 652.8614201492517 269.38681983839456 652.8388474863752 269.167184810495 652.8162748234989 268.966255412377 652.7247518888773 268.7653260142591 652.6332289542559 268.60413960694586 652.4823382233037 268.4429531996327 652.3314474923517 268.3383860425191 652.136987264431 268.23381888540547 651.9425270365103 268.19681918744425 651.7248573488168 268.159819489483 651.5071876611235 268.19426112881774 651.289098587418 268.2287027681524 651.0710095137125 268.33097969605296 650.8753350375819 268.4332566239535 650.6796605614512 268.5926604190703 650.5268878521993 268.752064214187 650.3741151429474 268.9519052570927 650.280239543561 269.1517462999983 650.1863639441747 269.3711011807478 650.1612142546903 269.5904560614973 650.1360645652059 269.8063582661721 650.1822739647514 270.02226047084685 650.228483364297 270.21210498162475 650.3412137165419 270.4019494924027 650.4539440687869 270.54585953889125 650.6213924760932 270.68976958537985 650.7888408833995 270.6896630088224 650.7886661093264 270.6895564322649 650.7884913352533 271.6428013229337 652.463904137096 272.5960462136024 654.1393169389387 274.9196749692476 657.3314134174747 277.24330372489277 660.5235098960106 280.73059119239576 663.4481625025641 284.2178786598988 666.3728151091175 289.2953637759664 668.0592583176286 294.372848892034 669.7457015261398 301.81286340550866 669.7899811786885 309.2528779189833 669.8342608312372 318.3190151572472 665.9089913883073 327.38515239551106 661.9837219453774 336.21875051681013 652.6439139386933 345.05234863810915 643.3041059320093 349.89235457157474 629.1432760814456 354.7323605050404 614.9824462308819 354.7465832945754 598.2454185698682 354.76080608411036 581.5083909088544 350.0778268284122 564.1997733017248 345.39484757271396 546.8911556945952 337.0025162529771 532.2787138445885 328.6101849332403 517.6662719945817 317.5692243819764 504.0936503302329 306.52826383071255 490.52102866588405 293.99392914731004 478.0926104075826 281.4595944639075 465.6641921492811 262.07426755085146 447.8659410492565 242.68894063779547 430.06768994923186 227.5008717974477 415.8830598221383 212.3128029570999 401.6984296950447 200.29396815887657 388.6102560631376 188.2751333606532 375.52208243123056 182.4871572492242 367.2095994439618 176.69918113779516 358.89711645669297 176.6107316905733 358.7284233212139 176.52228224335144 358.55973018573485 176.47677530885292 358.37477127790896 176.4312683743544 358.189812370083 176.4313488177504 357.99933751032336 176.4314292611464 357.80886265056364 176.477092407063 357.6239422466689 176.5227555529796 357.4390218427741 176.6113474572306 357.270403477307 176.69993936148163 357.10178511183994 176.82631105842952 356.959268892124 176.95268275537742 356.8167526724081 177.10948951605803 356.7086216478293 177.26629627673867 356.6004906232505 177.44442448485376 356.53302937403794 177.6225526929688 356.4655681248253 177.81164952869335 356.4426975019528 178.0007463644179 356.41982687908023 178.1898215107749 356.44287612422363 178.37889665713192 356.4659253693671 178.55696105773148 356.5335548593158 178.73502545833105 356.60118434926454 178.891730001844 356.70946345488517 179.04843454535697 356.8177425605058 179.1746715563516 356.9603780950922 179.30090856734626 357.1030136296786 179.30086371477555 357.10294858649286" stroke-opacity="0" fill="black" /></g><g id="97"><path d="M 364.39224103954416 412.5413784949059 Q 364.39224103954416 412.5413784949059 367.8606208283916 411.14547458554614 371.329000617239 409.74957067618635 379.2248465672057 407.70044975463384 387.1206925171724 405.6513288330814 397.37974001562463 403.6442579655441 407.6387875140768 401.63718709800685 420.3896484493181 400.49791655277534 433.1405093845594 399.3586460075438 448.1055028547705 400.03206646745286 463.07049632498166 400.7054869273619 480.690268548631 403.88089596539595 498.31004077228044 407.05630500343 515.0253276861365 411.8694932328232 531.7406145999925 416.6826814622164 548.6742132369973 424.2164608964546 565.607811874002 431.7502403306927 581.1797993930898 441.30434594070437 596.7517869121776 450.85845155071604 612.3138143825125 463.2853132489444 627.8758418528474 475.7121749471728 643.1278753089832 490.2106580504177 658.3799087651189 504.7091411536626 674.6302100987463 520.9293982815948 690.8805114323736 537.1496554095269 706.672766561413 551.4934059880202 722.4650216904523 565.8371565665136 737.1791231495104 576.4970609388562 751.8932246085685 587.1569653111987 766.0934084494477 593.0741702027428 780.2935922903268 598.9913750942868 793.4200073497218 600.9207241007971 806.5464224091168 602.8500731073075 819.5053441026262 601.385161955109 832.4642657961356 599.9202508029103 845.3878586632393 595.589089863382 858.311451530343 591.2579289238536 868.965771567777 586.269704864482 879.620091605211 581.2814808051104 886.9820012555776 576.6008233547681 894.3439109059442 571.9201659044257 894.5300027777948 571.8407735668613 894.7160946496454 571.761381229297 894.9177954606143 571.7455663348235 895.1194962715834 571.72975144035 895.3156878935187 571.7791698125936 895.5118795154539 571.8285881848371 895.6820206337491 571.9380657071786 895.8521617520444 572.04754322952 895.9784385467012 572.205617576471 896.1047153413581 572.3636919234219 896.1739065986421 572.553812669129 896.2430978559262 572.7439334148361 896.247959232935 572.9461948670369 896.252820609944 573.1484563192377 896.1928431192216 573.3416816504948 896.1328656284993 573.5349069817519 896.0143289291568 573.6988654488762 895.8957922298142 573.8628239160006 895.7311071455634 573.9803490242034 895.5664220613127 574.0978741324062 895.3728311639472 574.156660971835 895.1792402665818 574.2154478112639 894.977012574159 574.2093413843123 894.7747848817361 574.2032349573608 894.5850936870354 574.1328746085426 894.3954024923348 574.0625142597244 894.238108513515 573.935266736134 894.0808145346954 573.8080192125439 893.9723864928607 573.6372073634916 893.863958451026 573.4663955144393 893.8157487907785 573.2699033856106 893.767539130531 573.073411256782 893.7845954160248 572.8718116259344 893.8016517015186 572.6702119950867 893.88218813516 572.4846123967868 893.9627245688016 572.2990127984868 894.098308964729 572.1488455596702 894.2338933606563 571.9986783208536 894.4103299968251 571.8996659910648 894.5867666329939 571.800653661276 894.7855825470226 571.7631628575805 894.9843984610512 571.725672053885 895.1847775742585 571.7536280733264 895.385156687466 571.7815840927677 895.5661192538043 571.8720599327307 895.7470818201426 571.9625357726939 895.8896810111469 572.1060585888512 896.032280202151 572.2495814050085 896.1215858448804 572.4311243206221 896.2108914876098 572.6126672362356 896.2375532576963 572.8132226601178 896.2642150277827 573.0137780840003 896.2254414308602 573.2123478103294 896.1866678339376 573.4109175366588 896.086518475839 573.5867112626709 895.9863691177403 573.7625049886828 895.8353296626954 573.8971170648593 895.6842902076505 574.0317291410358 895.6844485748945 574.0316286125874 895.6846069421384 574.031528084139 888.183455136796 578.7887812731199 880.6823033314538 583.5460344621007 869.8941258260433 588.5881883776074 859.1059483206327 593.6303422931139 845.9295469692787 598.0177177650635 832.7531456179247 602.4050932370129 819.4767867974161 603.8661501118213 806.2004279769076 605.3272069866296 792.7732418268483 603.3176572331563 779.3460556767891 601.3081074796829 764.8907072601291 595.251432935971 750.4353588434692 589.1947583922592 735.6070314612589 578.445534681647 720.7787040790485 567.6963109710348 704.9417148756913 553.3127013543403 689.1047256723343 538.9290917376458 672.8744521062054 522.7320307592536 656.6441785400764 506.5349697808615 641.4713298791385 492.110351457461 626.2984812182004 477.68573313406046 610.8607860601264 465.35235618135835 595.4230909020524 453.01897922865624 579.9957310601781 443.5489938953021 564.5683712183038 434.07900856194794 547.7976231236332 426.6149269529725 531.0268750289625 419.150845343997 514.4378166918176 414.38083111876983 497.84875835467267 409.6108168935426 480.399482928908 406.4728083912935 462.9502075031433 403.33479988904435 448.16450062179194 402.6825320188753 433.3787937404406 402.03026414870624 420.7750656131819 403.1834916503497 408.1713374859232 404.3367191519932 398.0078224843754 406.3708201594559 387.8443074828276 408.4049211669186 380.1576534327943 410.4526752453661 372.47099938276097 412.50042932381365 369.0393791716084 413.97952541445386 365.60775896045584 415.4586215050941 365.42438728134493 415.5101531067737 365.2410156022341 415.56168470845336 365.05064000406026 415.56783371581764 364.8602644058864 415.57398272318187 364.67394952736026 415.5343917556338 364.4876346488341 415.4948007880858 364.31620911944947 415.41177087451956 364.1447835900649 415.32874096095327 363.9982106696441 415.2070978038464 363.8516377492233 415.0854546467395 363.7384362627879 414.93226815209846 363.62523477635244 414.77908165745737 363.55198399961273 414.6032550315481 363.478733222873 414.4274284056388 363.4496904944148 414.23918070022034 363.42064776595663 414.0509329948019 363.43750105052254 413.86120517535795 363.4543543350884 413.671477355914 363.51612411898753 413.491296412225 363.5778939028867 413.311115468536 363.6809901233766 413.15095352551486 363.78408634386653 412.9907915824938 363.92251704376844 412.8599572597941 364.06094774367034 412.7291229370944 364.2266673242018 412.63522033169875 364.3923869047332 412.5413177263031 364.3923139721387 412.54134811060453" stroke-opacity="0" fill="black" /></g><g id="98"><path d="M 758.9322379857665 142.83516871174524 Q 758.9322379857665 142.83516871174524 762.4161492035421 139.7037699745468 765.9000604213178 136.57237123734834 772.4074921381481 132.85909335884978 778.9149238549784 129.14581548035122 789.2803601134481 126.68541232324961 799.6457963719176 124.22500916614798 811.0036508049047 123.77516894934001 822.3615052378918 123.32532873253203 835.0420022663989 125.74539887399607 847.722499294906 128.1654690154601 861.1934647223304 132.956816609103 874.6644301497548 137.74816420274584 888.21539042313 145.57475546106775 901.7663506965051 153.40134671938964 912.4554168618074 162.23344031634457 923.1444830271098 171.06553391329953 930.6263509148673 180.94153848697812 938.108218802625 190.8175430606567 942.7664119234316 203.46355173128563 947.4246050442383 216.10956040191456 950.2566461184408 231.00293603790428 953.0886871926433 245.896311673894 954.2895653766162 262.60647332175427 955.4904435605891 279.3166349696146 954.5596227537429 296.8156726106989 953.6288019468967 314.3147102517833 951.5016913002041 328.6771928761484 949.3745806535114 343.03967550051357 946.7345156006279 353.209321161645 944.0944505477443 363.3789668227765 941.8112826543572 369.73963094778594 939.5281147609703 376.1002950727954 938.272499638494 379.3683833213124 937.0168845160176 382.63647156982944 936.9146594925479 382.8112282679707 936.8124344690782 382.985984966112 936.6597591447705 383.1189515194862 936.507083820463 383.25191807286035 936.319943342075 383.32917284822935 936.132802863687 383.40642762359835 935.9307908887058 383.41988202558775 935.7287789137248 383.4333364275772 935.5330461492573 383.3815817767472 935.3373133847898 383.3298271259172 935.168353102944 383.21828214787143 934.9993928210982 383.1067371698257 934.8748952079845 382.9470806532107 934.750397594871 382.7874241365957 934.6833975834467 382.5963721608463 934.6163975720224 382.4053201850968 934.6139100811697 382.2028759425067 934.6114225903171 382.0004316999166 934.6737080609852 381.80779115612506 934.7359935316532 381.61515061233354 934.8565306586212 381.4524832831278 934.9770677855892 381.289815953922 935.1432362998448 381.17415315160986 935.3094048141005 381.05849034929764 935.503806828337 381.0019419998132 935.6982088425735 380.9453936503287 935.9004904145831 380.9538803807902 936.1027719865929 380.9623671112518 936.2917541823891 381.0350003587398 936.4807363781854 381.10763360622775 936.636632711982 381.2368086505569 936.7925290457785 381.365983694886 936.8990171302742 381.53817587481603 937.0055052147699 381.71036805474614 937.0514357194079 381.9075488035842 937.0973662240458 382.1047295524222 937.077930212866 382.3062539937142 937.0584942016864 382.5077784350062 936.9757266301899 382.69254690655157 936.8929590586936 382.87731537809697 936.7555257134647 383.02598257215084 936.6180923682359 383.17464976620465 936.440382556799 383.2716501883052 936.2626727453621 383.3686506104058 936.0632927318854 383.4038282907535 935.8639127184086 383.43900597110115 935.6637376429343 383.4086777972776 935.4635625674599 383.378349623454 935.2835508132313 383.28569096326436 935.1035390590026 383.1930323030747 934.9625379042059 383.04774454270034 934.821536749409 382.902456782326 934.734309052172 382.71975158863034 934.647081354935 382.5370463949347 934.6227598781844 382.3360530499272 934.5984384014338 382.13505970491974 934.6395696102056 381.93682226487977 934.6807008189775 381.7385848248398 934.680633477471 381.73876003861835 934.6805661359647 381.73893525239697 935.9261676310058 378.49626929242015 937.1717691260469 375.25360333244333 939.4208756268185 369.00072814334953 941.6699821275903 362.74785295425573 944.2823274139037 352.70917081749724 946.8946727002169 342.6704886807388 949.0085275575168 328.42514119242173 951.1223824148168 314.1797937041047 952.0526569114826 296.836878138878 952.9829314081484 279.4939625736513 951.7981514827378 262.928940206662 950.6133715573272 246.3639178396727 947.8320994329803 231.66862520542813 945.0508273086333 216.97333257118356 940.5600481975589 204.6460041353789 936.0692690864845 192.31867569957421 928.7888493698163 182.66918119929136 921.5084296531479 173.0196866990085 910.992113219801 164.32119423958358 900.475796786454 155.62270178015868 887.1317391806543 147.90673761170444 873.7876815748547 140.19077344325024 860.5056637571619 135.47022591506692 847.2236459394691 130.74967838688363 834.8383000382887 128.3770541240508 822.4529541371082 126.00442986121797 811.3617663825953 126.45413222253501 800.2705786280824 126.90383458385203 790.2853273865519 129.26588455175042 780.3000761450215 131.6279345196488 774.1000078618519 135.20278164115024 767.8999395786822 138.7776287626517 764.4838507964578 141.97123002545322 761.0677620142335 145.16483128825476 760.9128618829267 145.27567635126047 760.7579617516199 145.38652141426616 760.5810352340046 145.45707413240058 760.4041087163894 145.52762685053497 760.2154387899824 145.5537866965052 760.0267688635754 145.57994654247543 759.837321033364 145.5601931048046 759.6478732031526 145.54043966713377 759.4686581859299 145.4759210165474 759.2894431687073 145.41140236596104 759.1308769496947 145.3058683294626 758.972310730682 145.20033429296421 758.8436091859787 145.0599185137135 758.7149076412753 144.91950273446284 758.6235509107064 144.75236618414732 758.5321941801375 144.5852296338318 758.483491921176 144.4010862966087 758.4347896622146 144.2169429593856 758.4315724524397 144.02649525466623 758.4283552426649 143.83604754994687 758.47081006646 143.6503643072777 758.513264890255 143.4646810646085 758.5989242712662 143.2945542027777 758.6845836522774 143.12442734094694 758.8084690632556 142.97974464115754 758.932354474234 142.83506194136814 758.9322962300002 142.8351153265567" stroke-opacity="0" fill="black" /></g><g id="99"><path d="M 387.2597788898242 312.4413266610547 Q 387.2597788898242 312.4413266610547 390.7026689700121 313.06118489527216 394.1455590502 313.68104312948964 405.73743877111497 316.8478307959364 417.32931849202987 320.01461846238317 438.05329412079993 326.25601851580075 458.77726974957 332.4974185692183 488.2942487844175 342.34820864243716 517.811227819265 352.19899871565593 548.4741049093708 363.29330239579554 579.1369819994766 374.38760607593514 607.4242083697229 386.01393537407716 635.7114347399691 397.64026467221925 659.8410542987504 409.7876099394782 683.9706738575317 421.9349552067372 703.1709015400206 434.02034933929787 722.3711292225097 446.10574347185855 739.1526367268045 457.5684576729776 755.9341442310993 469.03117187409674 768.7759966516578 476.7531711119091 781.6178490722164 484.4751703497215 791.6119877232844 488.8780660920584 801.6061263743525 493.2809618343953 811.1725281756067 494.5485793092507 820.738929976861 495.8161967841061 829.8462456483015 493.7968035404689 838.9535613197421 491.7774102968316 848.2372880589135 487.2259615671941 857.5210147980848 482.67451283755656 866.9173614873632 476.44777383700193 876.3137081766415 470.22103483644725 885.1750396820753 462.99419937673736 894.036371187509 455.76736391702747 898.0882646616697 452.1250766225153 902.1401581358303 448.48278932800304 902.310649814222 448.3735993716525 902.4811414926137 448.264409415302 902.6775734996979 448.21537549274365 902.8740055067823 448.1663415701853 903.0758113595646 448.1825975460547 903.2776172123467 448.19885352192404 903.463667784769 448.27869739125646 903.6497183571912 448.3585412605889 903.8005341052084 448.4936133491885 903.9513498532256 448.6286854377881 904.0511403282087 448.8048436623229 904.1509308031917 448.9810018868578 904.1892479160679 449.1798024347179 904.2275650289441 449.37860298257795 904.2003969678806 449.579231383924 904.173228906817 449.77985978527005 904.0834201749788 449.96131019352043 903.9936114431405 450.1427606017708 903.8505650384582 450.2860351112834 903.7075186337757 450.429309620796 903.5262115525802 450.5194073526041 903.3449044713846 450.6095050844122 903.1443196129374 450.63699278221196 902.9437347544902 450.6644804800117 902.74487340642 450.6264801745875 902.5460120583498 450.5884798691633 902.369695056294 450.48897020252406 902.193378054238 450.38946053588484 902.0580658348548 450.23886019639576 901.9227536154716 450.0882598569067 901.8426134038496 449.9023367398669 901.7624731922274 449.7164136228271 901.7458956896783 449.5146339276696 901.729318187129 449.31285423251205 901.7780390625455 449.11634434658447 901.8267599379622 448.91983446065694 901.9356781028274 448.7491690208895 902.0445962676927 448.57850358112205 902.2023079613936 448.45155130410967 902.3600196550944 448.32459902709735 902.5500124216687 448.2546518497554 902.7400051882429 448.18470467241343 902.9423867348769 448.17908608267385 903.1447682815109 448.1734674929343 903.3383492068485 448.23276575862604 903.5319301321862 448.29206402431777 903.6964424622442 448.4100706013696 903.8609547923023 448.5280771784215 903.9791740426967 448.69243674706547 904.097393293091 448.8567963157094 904.1569418770985 449.0503003857217 904.216490461106 449.24380445573405 904.2111336262617 449.44619309990435 904.2057767914175 449.6485817440746 904.1360753997437 449.8386648179328 904.06637400807 450.02874789179094 903.9396258136745 450.186623647327 903.812877619279 450.3444994028631 903.8130172475356 450.3443739489009 903.8131568757923 450.3442484949387 899.71582226958 454.02613384535766 895.6184876633678 457.70801919577656 886.6581060385122 465.0086487829635 877.6977244136565 472.3092783701505 868.1606284434306 478.61775124464725 858.6235324732048 484.9262241191441 849.0638647194249 489.5752739190393 839.5041969656451 494.22432371893456 829.9799961830829 496.2649270153744 820.4557954005207 498.30553031181427 810.5362761335332 496.94961023391 800.6167568665455 495.5936901560057 790.4675518276329 491.11767400949634 780.3183467887202 486.64165786298696 767.4111552328534 478.883864421161 754.5039636769866 471.126070979335 737.7583088838101 459.6951553460109 721.0126540906336 448.26423971268673 701.9136763673077 436.24697541126335 682.814698643982 424.22971110983997 658.7697172479047 412.1355071206658 634.7247358518276 400.04130313149165 606.483489387113 388.452222414497 578.2422429223984 376.8631416975024 547.6028309890667 365.80353945967323 516.9634190557349 354.7439372218441 487.47501215308245 344.9384780763129 457.98660525043 335.13301893078165 437.28614337920004 328.94795023419925 416.5856815079701 322.76288153761686 405.120061228885 319.69091920406356 393.65444094979995 316.6189568705103 390.1973310299879 316.0888151047278 386.7402211101758 315.5586733389453 386.5574824070468 315.5049402481137 386.3747437039177 315.45120715728206 386.21017496344155 315.3553019523675 386.04560622296543 315.2593967474529 385.9087721880709 315.1268934434711 385.7719381531764 314.99439013948927 385.6707916244007 314.8329898346933 385.569645095625 314.6715895298973 385.51006471397295 314.4906728175853 385.45048433232085 314.3097561052732 385.43593291237335 314.119837873265 385.42138149242584 313.9299196412568 385.45270476339397 313.74203794612004 385.48402803436215 313.5541562509832 385.5594054862655 313.37923078566683 385.63478293816894 313.20430532035044 385.74983362996136 313.05250276111747 385.86488432175383 312.90070020188443 386.0129215018227 312.78084332060985 386.16095868189154 312.66098643933526 386.33337842237574 312.58004132359025 386.50579816285995 312.49909620784524 386.6925794203414 312.4617673915601 386.87936067782283 312.4244385752749 387.0696477168409 312.43289561100596 387.2599347558589 312.441352646737 387.2598568228416 312.44133965389585" stroke-opacity="0" fill="black" /></g><g id="100"><path d="M 179.30081886220484 357.10288354330703 Q 179.30081886220484 357.10288354330703 185.0128427507758 365.4654005560383 190.7248666393468 373.82791756876946 202.56853184112344 386.8016189368624 214.41219704290012 399.7753203049553 229.49069070255234 413.9169870528617 244.56918436220454 428.0586538007682 263.9221465116485 445.87407887261855 283.27510866109253 463.6895039444689 295.82954682925254 476.1718980592143 308.3839849974125 488.6542921739597 319.5057529080627 502.3437657681557 330.62752081871287 516.0332393623518 339.1293490952895 530.8321879972266 347.6311773718661 545.6311366321015 352.4282159446011 563.2473599810467 357.22525451733617 580.8635833299918 357.24348488395526 597.9446130753097 357.26171525057435 615.0256428206277 352.3284244043008 629.612487367755 347.39513355802717 644.1993319148822 338.275080547937 653.9772855272168 329.15502753784693 663.7552391395515 319.6658630452704 667.9550183847045 310.17669855269384 672.1547976298576 302.2557098305613 672.2022229748416 294.3347211084287 672.2496483198256 288.85877984936326 670.4874284476217 283.38283859029787 668.7252085754178 279.50991984836935 665.5841793726673 275.6370011064408 662.4431501699169 273.1075422230776 659.0323318794987 270.5780833397144 655.6215135890805 269.4687659838046 653.9156876141176 268.3594486278947 652.2098616391548 268.2764790789122 652.0052519508911 268.1935095299297 651.8006422626272 268.1802176401791 651.5802508012304 268.16692575042845 651.3598593398335 268.2247031842753 651.1467611494895 268.2824806181222 650.9336629591456 268.405278062991 650.7501694766361 268.5280755078598 650.5666759941266 268.7030360388574 650.4319990355078 268.87799656985504 650.297322076889 269.08680177320093 650.2255623552796 269.2956069765468 650.1538026336701 269.5163948923314 650.1524734108652 269.737182808116 650.1511441880605 269.9468368832744 650.2203846340387 270.15649095843276 650.2896250800171 270.33306035595245 650.4221857018069 270.50962975347215 650.5547463235968 270.63462761082315 650.7367479891041 270.7596254681741 650.9187496546115 270.8199644766954 651.1311367414139 270.8803034852167 651.3435238282165 270.86966613478825 651.5640593522611 270.8590287843598 651.7845948763057 270.7785288083794 651.9901887100093 270.6980288323991 652.1957825437129 270.5560945996019 652.3649089584152 270.4141603668047 652.5340353731175 270.2256524288315 652.6489867885541 270.03714449085834 652.7639382039907 269.8217996785762 652.8126791766213 269.60645486629414 652.8614201492517 269.38681983839456 652.8388474863752 269.167184810495 652.8162748234989 268.966255412377 652.7247518888773 268.7653260142591 652.6332289542559 268.60413960694586 652.4823382233037 268.4429531996327 652.3314474923517 268.3383860425191 652.136987264431 268.23381888540547 651.9425270365103 268.19681918744425 651.7248573488168 268.159819489483 651.5071876611235 268.19426112881774 651.289098587418 268.2287027681524 651.0710095137125 268.33097969605296 650.8753350375819 268.4332566239535 650.6796605614512 268.5926604190703 650.5268878521993 268.752064214187 650.3741151429474 268.9519052570927 650.280239543561 269.1517462999983 650.1863639441747 269.3711011807478 650.1612142546903 269.5904560614973 650.1360645652059 269.8063582661721 650.1822739647514 270.02226047084685 650.228483364297 270.21210498162475 650.3412137165419 270.4019494924027 650.4539440687869 270.54585953889125 650.6213924760932 270.68976958537985 650.7888408833995 270.6896630088224 650.7886661093264 270.6895564322649 650.7884913352533 271.6428013229337 652.463904137096 272.5960462136024 654.1393169389387 274.9196749692476 657.3314134174747 277.24330372489277 660.5235098960106 280.73059119239576 663.4481625025641 284.2178786598988 666.3728151091175 289.2953637759664 668.0592583176286 294.372848892034 669.7457015261398 301.81286340550866 669.7899811786885 309.2528779189833 669.8342608312372 318.3190151572472 665.9089913883073 327.38515239551106 661.9837219453774 336.21875051681013 652.6439139386933 345.05234863810915 643.3041059320093 349.89235457157474 629.1432760814456 354.7323605050404 614.9824462308819 354.7465832945754 598.2454185698682 354.76080608411036 581.5083909088544 350.0778268284122 564.1997733017248 345.39484757271396 546.8911556945952 337.0025162529771 532.2787138445885 328.6101849332403 517.6662719945817 317.5692243819764 504.0936503302329 306.52826383071255 490.52102866588405 293.99392914731004 478.0926104075826 281.4595944639075 465.6641921492811 262.07426755085146 447.8659410492565 242.68894063779547 430.06768994923186 227.5008717974477 415.8830598221383 212.3128029570999 401.6984296950447 200.29396815887657 388.6102560631376 188.2751333606532 375.52208243123056 182.4871572492242 367.2095994439618 176.69918113779516 358.89711645669297 176.6107316905733 358.7284233212139 176.52228224335144 358.55973018573485 176.47677530885292 358.37477127790896 176.4312683743544 358.189812370083 176.4313488177504 357.99933751032336 176.4314292611464 357.80886265056364 176.477092407063 357.6239422466689 176.5227555529796 357.4390218427741 176.6113474572306 357.270403477307 176.69993936148163 357.10178511183994 176.82631105842952 356.959268892124 176.95268275537742 356.8167526724081 177.10948951605803 356.7086216478293 177.26629627673867 356.6004906232505 177.44442448485376 356.53302937403794 177.6225526929688 356.4655681248253 177.81164952869335 356.4426975019528 178.0007463644179 356.41982687908023 178.1898215107749 356.44287612422363 178.37889665713192 356.4659253693671 178.55696105773148 356.5335548593158 178.73502545833105 356.60118434926454 178.891730001844 356.70946345488517 179.04843454535697 356.8177425605058 179.1746715563516 356.9603780950922 179.30090856734626 357.1030136296786 179.30086371477555 357.10294858649286" stroke-opacity="0" fill="black" /></g><g id="101"><path d="M 364.39224103954416 412.5413784949059 Q 364.39224103954416 412.5413784949059 367.8606208283916 411.14547458554614 371.329000617239 409.74957067618635 379.2248465672057 407.70044975463384 387.1206925171724 405.6513288330814 397.37974001562463 403.6442579655441 407.6387875140768 401.63718709800685 420.3896484493181 400.49791655277534 433.1405093845594 399.3586460075438 448.1055028547705 400.03206646745286 463.07049632498166 400.7054869273619 480.690268548631 403.88089596539595 498.31004077228044 407.05630500343 515.0253276861365 411.8694932328232 531.7406145999925 416.6826814622164 548.6742132369973 424.2164608964546 565.607811874002 431.7502403306927 581.1797993930898 441.30434594070437 596.7517869121776 450.85845155071604 612.3138143825125 463.2853132489444 627.8758418528474 475.7121749471728 643.1278753089832 490.2106580504177 658.3799087651189 504.7091411536626 674.6302100987463 520.9293982815948 690.8805114323736 537.1496554095269 706.672766561413 551.4934059880202 722.4650216904523 565.8371565665136 737.1791231495104 576.4970609388562 751.8932246085685 587.1569653111987 766.0934084494477 593.0741702027428 780.2935922903268 598.9913750942868 793.4200073497218 600.9207241007971 806.5464224091168 602.8500731073075 819.5053441026262 601.385161955109 832.4642657961356 599.9202508029103 845.3878586632393 595.589089863382 858.311451530343 591.2579289238536 868.965771567777 586.269704864482 879.620091605211 581.2814808051104 886.9820012555776 576.6008233547681 894.3439109059442 571.9201659044257 894.5300027777948 571.8407735668613 894.7160946496454 571.761381229297 894.9177954606143 571.7455663348235 895.1194962715834 571.72975144035 895.3156878935187 571.7791698125936 895.5118795154539 571.8285881848371 895.6820206337491 571.9380657071786 895.8521617520444 572.04754322952 895.9784385467012 572.205617576471 896.1047153413581 572.3636919234219 896.1739065986421 572.553812669129 896.2430978559262 572.7439334148361 896.247959232935 572.9461948670369 896.252820609944 573.1484563192377 896.1928431192216 573.3416816504948 896.1328656284993 573.5349069817519 896.0143289291568 573.6988654488762 895.8957922298142 573.8628239160006 895.7311071455634 573.9803490242034 895.5664220613127 574.0978741324062 895.3728311639472 574.156660971835 895.1792402665818 574.2154478112639 894.977012574159 574.2093413843123 894.7747848817361 574.2032349573608 894.5850936870354 574.1328746085426 894.3954024923348 574.0625142597244 894.238108513515 573.935266736134 894.0808145346954 573.8080192125439 893.9723864928607 573.6372073634916 893.863958451026 573.4663955144393 893.8157487907785 573.2699033856106 893.767539130531 573.073411256782 893.7845954160248 572.8718116259344 893.8016517015186 572.6702119950867 893.88218813516 572.4846123967868 893.9627245688016 572.2990127984868 894.098308964729 572.1488455596702 894.2338933606563 571.9986783208536 894.4103299968251 571.8996659910648 894.5867666329939 571.800653661276 894.7855825470226 571.7631628575805 894.9843984610512 571.725672053885 895.1847775742585 571.7536280733264 895.385156687466 571.7815840927677 895.5661192538043 571.8720599327307 895.7470818201426 571.9625357726939 895.8896810111469 572.1060585888512 896.032280202151 572.2495814050085 896.1215858448804 572.4311243206221 896.2108914876098 572.6126672362356 896.2375532576963 572.8132226601178 896.2642150277827 573.0137780840003 896.2254414308602 573.2123478103294 896.1866678339376 573.4109175366588 896.086518475839 573.5867112626709 895.9863691177403 573.7625049886828 895.8353296626954 573.8971170648593 895.6842902076505 574.0317291410358 895.6844485748945 574.0316286125874 895.6846069421384 574.031528084139 888.183455136796 578.7887812731199 880.6823033314538 583.5460344621007 869.8941258260433 588.5881883776074 859.1059483206327 593.6303422931139 845.9295469692787 598.0177177650635 832.7531456179247 602.4050932370129 819.4767867974161 603.8661501118213 806.2004279769076 605.3272069866296 792.7732418268483 603.3176572331563 779.3460556767891 601.3081074796829 764.8907072601291 595.251432935971 750.4353588434692 589.1947583922592 735.6070314612589 578.445534681647 720.7787040790485 567.6963109710348 704.9417148756913 553.3127013543403 689.1047256723343 538.9290917376458 672.8744521062054 522.7320307592536 656.6441785400764 506.5349697808615 641.4713298791385 492.110351457461 626.2984812182004 477.68573313406046 610.8607860601264 465.35235618135835 595.4230909020524 453.01897922865624 579.9957310601781 443.5489938953021 564.5683712183038 434.07900856194794 547.7976231236332 426.6149269529725 531.0268750289625 419.150845343997 514.4378166918176 414.38083111876983 497.84875835467267 409.6108168935426 480.399482928908 406.4728083912935 462.9502075031433 403.33479988904435 448.16450062179194 402.6825320188753 433.3787937404406 402.03026414870624 420.7750656131819 403.1834916503497 408.1713374859232 404.3367191519932 398.0078224843754 406.3708201594559 387.8443074828276 408.4049211669186 380.1576534327943 410.4526752453661 372.47099938276097 412.50042932381365 369.0393791716084 413.97952541445386 365.60775896045584 415.4586215050941 365.42438728134493 415.5101531067737 365.2410156022341 415.56168470845336 365.05064000406026 415.56783371581764 364.8602644058864 415.57398272318187 364.67394952736026 415.5343917556338 364.4876346488341 415.4948007880858 364.31620911944947 415.41177087451956 364.1447835900649 415.32874096095327 363.9982106696441 415.2070978038464 363.8516377492233 415.0854546467395 363.7384362627879 414.93226815209846 363.62523477635244 414.77908165745737 363.55198399961273 414.6032550315481 363.478733222873 414.4274284056388 363.4496904944148 414.23918070022034 363.42064776595663 414.0509329948019 363.43750105052254 413.86120517535795 363.4543543350884 413.671477355914 363.51612411898753 413.491296412225 363.5778939028867 413.311115468536 363.6809901233766 413.15095352551486 363.78408634386653 412.9907915824938 363.92251704376844 412.8599572597941 364.06094774367034 412.7291229370944 364.2266673242018 412.63522033169875 364.3923869047332 412.5413177263031 364.3923139721387 412.54134811060453" stroke-opacity="0" fill="black" /></g></svg>