<svg xmlns="http://www.w3.org/2000/svg" id="drawingSvg" version="1.1" width="100%" height="100%"><g id="8"><path d="M 373.3098974798925 215.54948739946263 Q 373.3098974798925 215.54948739946263 367.54782657196955 216.65527198465935 361.7857556640466 217.7610565698561 349.9931080696856 217.65597886045558 338.20046047532463 217.55090115105506 323.1003935209221 215.4711862410609 308.0003265665196 213.39147133106675 292.0184610676738 208.16380624994204 276.036595568828 202.93614116881733 264.0213536772554 196.65357664748026 252.00611178568275 190.3710121261432 246.14233324216931 185.57644135681448 240.27855469865588 180.7818705874858 241.34926882861498 175.02916976205546 242.4199829585741 169.27646893662512 250.56473563872876 164.7275833989603 258.7094883188834 160.17869786129543 273.49300590588837 158.01495153033068 288.2765234928934 155.8512051993659 309.57692781280997 158.12046881250842 330.87733213272656 160.38973242565095 351.7475250675143 165.9740351873318 372.61771800230196 171.55833794901264 391.0272974068024 179.70791598460062 409.4368768113028 187.8574940201886 420.7945588742772 195.98526700279143 432.15224093725163 204.1130399853943 437.9574015167768 213.77510273059983 443.7625620963021 223.43716547580536 444.5097349817753 233.7513680248784 445.2569078672485 244.06557057395145 443.2270988039428 252.82914161873867 441.19728974063713 261.5927126635259 439.4669616612527 266.9994519644565 437.73663358186826 272.4061912653871 437.89196589731205 274.7135063354655 438.0472982127558 277.0208214055439 437.9816983360324 277.16371807534364 437.91609845930907 277.30661474514335 437.81820643782356 277.42965926633565 437.72031441633806 277.552703787528 437.59581973897855 277.64874480676 437.47132506161904 277.74478582599204 437.3274633648831 277.8082414347135 437.1836016681471 277.87169704343495 437.02873420060826 277.89887919868556 436.8738667330694 277.9260613539361 436.7169943992174 277.91539022757553 436.5601220653654 277.90471910121494 436.4103622926144 277.8568148996086 436.2606025198635 277.80891069800225 436.1266593532422 277.72655761559827 435.9927161866209 277.64420453319434 435.8823744092666 277.53218893501145 435.7720326319124 277.42017333682855 435.6917053131094 277.28500557469613 435.6113779943064 277.1498378125637 435.5657337615976 276.99937384316775 435.52008952888883 276.84890987377173 435.51178122722393 276.691894670083 435.50347292555904 276.5348794663943 435.5329834338211 276.38043875942856 435.56249394208317 276.2259980524628 440.19137707185473 275.3370352447244 444.8202602016263 274.448072436986 452.4742679205947 271.975288709889 460.128275639563 269.50250498279195 471.217883227695 266.421110521488 482.3074908158269 263.33971606018406 495.6640427143842 260.30097021929953 509.0205946129415 257.262224378415 521.0100105590409 254.53634131819257 532.9994265051401 251.8104582579701 542.9801618274826 249.5024939446722 552.9608971498251 247.1945296313743 560.3784279800648 245.63573173301876 567.7959588103045 244.07693383466324 572.6430447582982 242.84643474252596 577.4901307062919 241.61593565038868 582.7488691355763 240.50961442107365 588.0076075648607 239.4032931917586 596.0511965920721 238.63757608216886 604.0947856192836 237.87185897257913 612.4274808409224 237.83564318744135 620.7601760625612 237.7994274023036 627.7553248709935 238.07325493735596 634.7504736794258 238.3470824724083 638.9645283893635 239.05628593094872 643.1785830993012 239.76548938948915 646.3061968854643 241.87869883225397 649.4338106716272 243.99190827501883 652.7552559529662 247.21396351605102 656.0767012343052 250.43601875708322 659.4510045181781 253.487376052825 662.825307802051 256.5387333485668 665.9552222473644 258.961848655133 669.0851366926777 261.3849639616992 671.2798314295169 262.9925785393339 673.4745261663561 264.6001931169686 673.6161780610507 264.7445314724275 673.7578299557454 264.88886982788637 673.8459774823102 265.07088310676363 673.934125008875 265.25289638564095 673.9595390980099 265.45352774959133 673.9849531871449 265.6541591135417 673.944972977009 265.85240240579805 673.904992766873 266.0506456980544 673.803804196021 266.2257447935863 673.7026156251692 266.4008438891182 673.5508131636807 266.5344658664019 673.3990107021922 266.6680878436855 673.2124881078569 266.74624244642644 673.0259655135217 266.82439704916743 672.8242517512037 266.838901469828 672.6225379888858 266.8534058904885 672.4267525427472 266.80274151239666 672.2309670966085 266.7520771343048 672.0616087545422 266.6415485312208 671.8922504124758 266.53101992813686 671.7670510376024 266.3721994739804 671.6418516627291 266.21337901982395 671.5739196626473 266.02289525806975 671.5059876625654 265.8324114963155 671.5024355356161 265.63020812710204 671.4988834086668 265.4280047578886 671.5600830634792 265.23525252734896 671.6212827182916 265.04250029680935 671.7408265348517 264.8793804143628 671.8603703514119 264.7162605319162 672.0257420605694 264.59985169231425 672.1911137697269 264.4834428527123 672.3849989098792 264.42593309219035 672.5788840500314 264.36842333166834 672.7809827958238 264.375833937334 672.983081541616 264.38324454299965 673.172234101015 264.4547996224836 673.361386660414 264.52635470196753 673.5177887105192 264.65456241955906 673.6741907606245 264.78277013715064 673.7814669655038 264.9542071109744 673.888743170383 265.1256440847981 673.9356616830673 265.3223608184398 673.9825801957517 265.51907755208146 673.9642286355777 265.7204777516005 673.9458770754038 265.9218779511196 673.864176855566 266.10687496246203 673.7824766357284 266.2918719738044 673.6459817908108 266.4410965610481 673.5094869458931 266.5903211482918 673.3324885221894 266.6881494577609 673.1554900984858 266.78597776723 672.956519877681 266.82216714909896 672.7575496568762 266.85835653096785 672.5574398736117 266.82911794740187 672.357330090347 266.7998793638358 672.1770322917542 266.7082741022525 671.9967344931615 266.6166688406692 671.9968857288419 266.61677967504556 671.9970369645223 266.61689050942186 669.7754361722499 264.98900283432073 667.5538353799775 263.3611151592196 664.3512897567928 260.8771663417015 661.1487441336081 258.39321752418346 657.7407884327799 255.31030629266803 654.3328327319517 252.2273950611526 651.166609813994 249.13352435569726 648.0003868960363 246.03965365024192 645.3334872720893 244.11539027774194 642.6665876481422 242.191126905242 638.6582578637035 241.51804138668876 634.6499280792648 240.84495586813554 627.7100545479879 240.57222110414403 620.7701810167109 240.2994863401525 612.5498824978573 240.33018279255856 604.3295839790037 240.3608792449646 596.4249524403506 241.10554387077207 588.5203209016976 241.85020849657954 583.312657999536 242.94478546819914 578.1049950973745 244.03936243981872 573.2076073243189 245.2815649969394 568.3102195512633 246.5237675540601 560.9172239790342 248.07720883042919 553.5242284068052 249.6306501067983 543.5390192527504 251.93971914579362 533.5538100986959 254.24878818478894 521.564533159155 256.9747483064329 509.57525621961406 259.70070842807684 496.276060151959 262.72512301511324 482.9768640843039 265.74953760214964 471.9352999872301 268.81675591242436 460.8937358901564 271.88397422269907 453.00381023217017 274.4079264287284 445.113884574184 276.93187863475765 441.5806112578416 276.9762878980572 438.0473379414992 277.0206971613568 437.98175235477083 277.1636003904297 437.91616676804244 277.30650361950256 437.8182870514985 277.4295579292818 437.72040733495453 277.55261223906103 437.5959222623194 277.64866570728054 437.4714371896843 277.7447191755001 437.3275818392285 277.80818917007394 437.1837264887727 277.8716591646478 437.0288617402237 277.8988568065092 436.8739969916747 277.92605444837056 436.71712359149444 277.91539900929666 436.5602501913142 277.90474357022276 436.4104856288919 277.8568543448332 436.26072106646956 277.80896511944366 436.12676966520974 277.72662543176807 435.99281826394997 277.64428574409254 435.8824652855876 277.53228118064743 435.77211230722526 277.4202766172023 435.69177147204766 277.2851168884776 435.6114306368701 277.1499571597529 435.5657713579927 276.9994977555325 435.5201120791152 276.8490383513121 435.5117880759715 276.6920239792386 435.5034640728278 276.53500960716514 435.5329591368716 276.38056594992076 435.56245420091545 276.2261222926764 435.4537955020779 273.9651933939038 435.34513680324045 271.7042644951312 437.05247692554724 266.36219445758894 438.759817047854 261.02012442004667 440.7598155179395 252.61002643313302 442.7598139880249 244.19992844621936 442.16535754030076 234.39961562658442 441.5709010925766 224.59930280694945 436.1016397116374 215.34485880225384 430.63237833069826 206.09041479755822 419.5208322514035 198.12052483921718 408.40928617210864 190.1506348808761 390.18538759479907 182.07041776130197 371.96148901748955 173.99020064172782 351.2823219950775 168.44557362655664 330.6031549726654 162.90094661138545 309.6109476285824 160.63155192605257 288.6187402844994 158.36215724071968 274.24317160327007 160.40156785451865 259.8676029220407 162.44097846831764 252.16744673576162 166.42893280068512 244.46729054948253 170.41688713305263 243.43233675842112 175.2802801194631 242.39738296735973 180.14367310587357 247.814385786151 184.0928524820527 253.23138860494228 188.0420318582318 265.0532793305572 194.21535003220725 276.87517005617207 200.3886682061827 292.62773424482623 205.52778593755798 308.3802984334804 210.66690366893326 323.30241897907786 212.6855012589391 338.2245395246753 214.70409884894494 349.7193919303144 214.77152113954443 361.2142443359534 214.83894343014393 366.95217342803045 213.64472801534066 372.6901025201075 212.45051260053737 372.88001942367146 212.43594385274395 373.0699363272355 212.4213751049505 373.2578208794871 212.45268123369289 373.44570543173865 212.4839873624353 373.6206377736732 212.55934885404008 373.79557011560775 212.6347103456449 373.9473831712929 212.7497471866792 374.09919622697805 212.86478402771348 374.21906661448446 213.01281027157137 374.33893700199087 213.16083651542922 374.41989784876455 213.3332488698627 374.5008586955383 213.50566122429618 374.53820455336086 213.69243907516483 374.5755504111835 213.87921692603345 374.56711073704366 214.06950473586903 374.5586710629038 214.2597925457046 374.504936371059 214.44253077805888 374.45120167921425 214.62526901041312 374.3552950324793 214.7898369106357 374.2593883857444 214.95440481085828 374.1268838829336 215.09123768485605 373.9943793801229 215.22807055885383 373.8329781891655 215.329215673561 373.671576998208 215.43036078826816 373.4906597639057 215.48993958486565 373.30974252960334 215.54951838146314 373.30982000474796 215.5495028904629" stroke-opacity="0" fill="black" /></g></svg>