<?xml version ="1.0"?>
<svg id="drawingSvg" xmlns="http://www.w3.org/2000/svg" version="1.1" xmlns:xlink="http://www.w3.org/1999/xlink" xmlns:svgjs="http://svgjs.com/svgjs" width="100%" height="100%"><svg xmlns="http://www.w3.org/2000/svg" id="drawingSvg" version="1.1" width="100%" height="100%"><g id="10"><path d="M 178.76388172680583 412.61675168170143 Q 178.76388172680583 412.61675168170143 180.24622435214272 406.87549049492094 181.7285669774796 401.13422930814045 185.59447860223668 392.80279566464037 189.46039022699372 384.47136202114035 198.1767204226942 377.0329523750952 206.89305061839468 369.5945427290501 218.25011831024557 366.7012712117183 229.60718600209648 363.80799969438647 245.46827667365716 365.4991970812682 261.3293673452178 367.1903944681499 280.7660297205269 373.98865773306 300.20269209583597 380.78692099797 318.2567887457725 390.0245332447108 336.3108853957091 399.26214549145163 354.66713135989073 412.42473693436244 373.0233773240723 425.58732837727325 384.60212506690965 436.97521270845675 396.180872809747 448.3630970396402 405.7405947771162 461.88580770383214 415.30031674448543 475.4085183680241 425.8617434166026 488.81392947762197 436.42317008871987 502.2193405872199 471.15884236239583 511.79681178578295 505.89451463607185 521.374282984346 525.2815787456811 524.0649779842373 544.6686428552905 526.7556729841286 563.9938918524938 524.1689785581407 583.3191408496971 521.5822841321528 599.2675598808084 516.7666762218097 615.2159789119199 511.9510683114665 622.8959322973642 509.6087700970489 630.5758856828086 507.26647188263127 630.7766266611285 507.2394981319251 630.9773676394484 507.2125243812188 631.1762128253636 507.2510615793832 631.3750580112788 507.2895987775475 631.5511882613339 507.3896120697617 631.727318511389 507.489625361976 631.8622929419093 507.64064333014437 631.9972673724297 507.79166129831276 632.0769541249101 507.97787232130315 632.1566408773905 508.1640833442936 632.172696727811 508.365991078844 632.1887525782313 508.56789881339444 632.1394964748143 508.76436346639895 632.0902403713974 508.96082811940346 631.9808294411732 509.13127978983084 631.8714185109492 509.3017314602583 631.713308107194 509.42832381322 631.5551977034389 509.55491616618167 631.3649420271629 509.62439494890543 631.174686350887 509.6938737316292 630.9722052216189 509.6989644972232 630.7697240923508 509.70405526281723 630.5762173377748 509.64422500677995 630.3827105831989 509.5843947507427 630.2184384116 509.46590771667496 630.0541662400011 509.3474206826072 629.9363279911092 509.18268249425336 629.8184897422174 509.0179443058995 629.7594231117978 508.8242030950669 629.7003564813783 508.63046188423425 629.7062457612282 508.42800240683977 629.712135041078 508.2255429294453 629.7823636220422 508.0355627462162 629.8525922030065 507.84558256298715 629.9798071341197 507.6879726492575 630.1070220652329 507.53036273552783 630.2779039096259 507.4216248908701 630.448785754019 507.3128870462123 630.6454431374757 507.2644061516661 630.8421005209323 507.21592525711986 631.043943363492 507.2327772751419 631.2457862060517 507.249629293164 631.4316815088172 507.33004981301883 631.6175768115827 507.41047033287373 631.7680612872828 507.54603930490373 631.918545762983 507.68160827693373 632.0178636472879 507.8581315939805 632.1171815315927 508.0346549110273 632.1549342157982 508.2336505351985 632.1926869000039 508.43264615936965 632.164921668108 508.6332791962848 632.1371564362122 508.83391223319984 632.0467803153238 509.0151763509318 631.9564041944354 509.19644046866387 631.8128795882685 509.33935726623724 631.6693549821015 509.48227406381056 631.4877089548085 509.5718801147929 631.3060629275154 509.6614861657753 631.3062425535879 509.6614314024815 631.3064221796606 509.6613766391877 623.6227529426574 512.00556418953 615.9390837056543 514.3497517398723 599.796625978066 519.2082279819056 583.6541682504776 524.0667042239388 564.0008836977989 526.6543254506012 544.3475991451203 529.2419466772636 524.7851725491253 526.5192667422143 505.2227459531302 523.796586807165 469.9596165665605 513.8719993352796 434.69648717999075 503.9474118633942 423.9666158280005 490.40680257193696 413.2367444760103 476.86619328047965 403.8169416807737 463.51591476571826 394.3971388855371 450.1656362509569 382.9652401281254 438.9111931022501 371.5333413707137 427.65674995354334 353.33512498136827 414.6021002673007 335.1369085920228 401.5474505810581 317.2393291160133 392.3915542886144 299.3417496400038 383.23565799617063 280.18623289543984 376.5197835218229 261.0307161508759 369.8039090474751 245.61609124626472 368.1088999890443 230.20146634165351 366.41389093061355 219.38037973662944 369.08248660078175 208.55929313160533 371.75108227094995 200.2682014523058 378.75236012490484 191.97710977300628 385.7536379788597 188.29614639776332 393.8097043353596 184.6151830225204 401.86577069185955 183.22252564785728 407.62450950507906 181.82986827319417 413.38324831829857 181.7617337687895 413.56112009228514 181.69359926438486 413.73899186627176 181.58487592004477 413.89538851926386 181.47615257570467 414.0517851722559 181.33315939731057 414.1776169234332 181.19016621891643 414.3034486746106 181.02121397671505 414.3914021766826 180.85226173451366 414.4793556787546 180.66716994075995 414.52431907004836 180.4820781470062 414.5692824613422 180.29160434544963 414.56864246744317 180.10113054389302 414.56800247354414 179.91634508082942 414.5217962909278 179.7315596177658 414.47559010831145 179.56320223299053 414.38650324248243 179.39484484821526 414.2974163766534 179.2527004808417 414.17062656043936 179.11055611346814 414.04383674422536 179.00288620080667 413.8867130077019 178.8952162881452 413.72958927117855 178.8282786105786 413.5512636532949 178.76134093301195 413.3729380354112 178.73902591150537 413.18377482945726 178.71671088999878 412.9946116235033 178.74031547465069 412.80560500389697 178.76392005930256 412.6165983842906 178.7639008930542 412.616675032996" stroke-opacity="0" fill="black"></path></g><g id="11"><path d="M 90.76100238146842 412.29819960128253 Q 90.76100238146842 412.29819960128253 93.9050015705784 413.22890699682563 97.04900075968841 414.1596143923687 99.0198986757436 414.81791879969103 100.9907965917988 415.4762232070133 102.4460333004456 416.0128131339629 103.90127000909243 416.5494030609125 106.43011980571877 419.37787119861923 108.95896960234512 422.20633933632604 110.95914486958894 430.195018935788 112.95932013683276 438.18369853525 113.76661181464698 452.25818753185933 114.5739034924612 466.3326765284687 112.58934217581506 484.1592794023066 110.60478085916891 501.9858822761445 108.5950640621104 513.0045443558774 106.58534726505188 524.0232064356105 105.14473839768343 530.1542454162477 103.70412953031497 536.2852843968849 103.09279731752586 539.1440879503159 102.48146510473676 542.0028915037469 105.96259026678877 542.2126871307997 109.44371542884078 542.4224827578525 114.73139782520474 543.6463244989216 120.01908022156869 544.8701662399905 125.7783245923293 547.4491638278785 131.5375689630899 550.0281614157664 140.95694648392978 557.227854988819 150.37632400476966 564.4275485618715 156.1102532935804 570.1049605159426 161.84418258239114 575.7823724700137 164.9340939969493 581.1991699919154 168.02400541150746 586.6159675138169 168.7844410924289 591.6569952755547 169.5448767733503 596.6980230372923 169.26052206024704 599.4854163871955 168.9761673471438 602.2728097370989 167.94775527823487 604.7173338354162 166.91934320932594 607.1618579337334 165.93268706780464 608.8259381293947 164.94603092628333 610.490018325056 163.70312059155384 612.2758576562794 162.46021025682435 614.0616969875027 162.40238708951466 615.8877569189001 162.344563922205 617.7138168502973 163.87269784425197 619.9665323905076 165.40083176629895 622.219247930718 167.91430428503105 624.3468160900691 170.42777680376312 626.4743842494202 174.9017289200654 629.4017950655295 179.37568103636772 632.3292058816388 182.42572139501812 634.1739030230425 185.47576175366848 636.0186001644462 188.89424670429852 638.2881875623439 192.31273165492857 640.5577749602417 192.51737541357238 640.724149199295 192.72201917221622 640.8905234383484 192.86282462296455 641.1135330354782 193.00363007371288 641.336542632608 193.06585484870337 641.5928384241261 193.12807962369385 641.8491342156441 193.1052087725592 642.1118819645228 193.08233792142457 642.3746297134014 192.97676602831595 642.6163196609746 192.87119413520733 642.8580096085478 192.69397460520145 643.0533367535045 192.51675507519556 643.2486638984612 192.28644283986546 643.3771774371633 192.05613060453538 643.5056909758653 191.79683941571665 643.5539355068861 191.5375482268979 643.6021800379069 191.2764259405061 643.5651043461135 191.0153036541143 643.52802865432 190.7796898424642 643.40951457443 190.5440760308141 643.2910004945401 190.3586395221815 643.1034564820027 190.1732030135489 642.9159124694654 190.05735905933813 642.6789744319001 189.94151510512737 642.4420363943349 189.9073925979241 642.1805118068205 189.8732700907208 641.918987219306 189.92444166603673 641.6602577751908 189.97561324135262 641.4015283310756 190.10672122174412 641.1726830714565 190.23782920213563 640.9438378118375 190.4351465474466 640.768836895806 190.63246389275758 640.5938359797744 190.87533142484725 640.4910020494347 191.1181989569369 640.3881681190949 191.38118838108468 640.3682679140989 191.64417780523246 640.348367709103 191.89975405930758 640.4134847861671 192.1553303133827 640.4786018632312 192.37673449611793 640.6219184471977 192.5981386788532 640.765235031164 192.76218971387115 640.9717458378594 192.92624074888911 641.1782566445548 193.01576244951815 641.4263399380047 193.10528415014716 641.6744232314546 193.11090357069995 641.9381046253471 193.11652299125274 642.2017860192396 193.03765177691403 642.4534580020292 192.95878056257533 642.7051299848187 192.80367655030636 642.9184424334721 192.64857253803743 643.1317548821255 192.43347515886626 643.2843739269599 192.21837777969512 643.4369929717942 191.96580778600116 643.5129393585278 191.7132377923072 643.5888857452615 191.44963932910224 643.5802078671554 191.18604086589724 643.5715299890494 190.93901276186202 643.4791364222322 190.6919846578268 643.3867428554148 190.69219683042053 643.3868644114405 190.69240900301426 643.3869859674662 187.3242731103278 640.9949497948189 183.95613721764133 638.6029136221717 180.80845482158952 636.8092230309935 177.6607724255377 635.0155324398153 172.96361217783482 632.0879132969083 168.26645193013198 629.1602941540013 165.43613065120485 626.9819094686083 162.60580937227775 624.8035247832152 160.7840570637807 622.7554830122701 158.96230475528364 620.707441241325 158.7712988611129 618.1255404709837 158.58029296694218 615.5436397006424 159.2274450738857 613.7247422246044 159.87459718082917 611.9058447485663 161.22775311039683 610.4346723427423 162.5809090399645 608.9634999369181 163.57846964031674 607.552018956856 164.57603024066898 606.140537976794 165.51048109381546 604.0543298969387 166.44493194696193 601.9681218170833 166.7202546975184 599.5067335712863 166.9955774480749 597.0453453254892 166.36701892584279 592.4421810973438 165.73846040361065 587.8390168691983 162.8542678107487 582.7400685325515 159.97007521788677 577.6411201959046 154.35317154806197 572.1050124828029 148.73626787823716 566.5689047697011 139.56545020228754 559.5603167729353 130.39463252633792 552.5517287761693 124.88282937524089 550.1112403174254 119.37102622414386 547.6707518586815 114.37389092201926 546.554626431205 109.37675561989467 545.4385010037286 106.70328051147146 545.4388017573381 104.02980540304827 545.4391025109476 102.50874538104546 545.1850151390834 100.98768535904264 544.930927767219 100.43906991435702 543.2056180443335 99.89045446967141 541.4803083214481 100.4820016748643 538.5777470507464 101.0735488800572 535.6751857800448 102.46324452558758 529.6030134097815 103.85294017111796 523.5308410395182 105.79688105146845 512.6007705288971 107.74082193181893 501.67070001827597 109.64721985613517 484.0885203265748 111.55361778045139 466.5063406348736 110.69257826053001 452.73663535962623 109.83153874060864 438.9669300843788 107.90622883670989 431.4986819853545 105.98091893281114 424.0304338863302 104.28102758685935 421.9045935377088 102.58113624090757 419.7787531890875 101.2551698245544 419.1843899910371 99.92920340820122 418.5900267929867 98.0619763242564 417.94020620030904 96.1947492403116 417.2903856076313 93.01374842942158 416.4960930031744 89.83274761853158 415.70180039871747 89.635851293201 415.6215350093976 89.43895496787043 415.5412696200777 89.26698981882814 415.4162148993902 89.09502466978583 415.29116017870274 88.95798531957391 415.12858431288976 88.82094596936199 414.9660084470767 88.72679715145352 414.77536035309777 88.63264833354505 414.5847122591189 88.58686198166043 414.37707241315366 88.54107562977583 414.16943256718844 88.54631284883789 413.95686900684035 88.55155006789992 413.74430544649226 88.60750647049066 413.539172375876 88.6634628730814 413.33403930525975 88.76688627045317 413.14825906807766 88.87030966782494 412.9624788308955 89.01518908726317 412.8068489832615 89.16006850670138 412.6512191356274 89.33798354954116 412.53478489159806 89.51589859238095 412.4183506475688 89.71650882797316 412.34787917087783 89.91711906356537 412.27740769418693 90.12876501559174 412.25699479037075 90.34041096761811 412.23658188655463 90.55079176340274 412.2674139545421 90.76117255918737 412.2982460225296 90.7610874703279 412.29822281190604" stroke-opacity="0" fill="black"></path></g><g id="12"><path d="M 184.5074599523413 438.6185236665973 Q 184.5074599523413 438.6185236665973 186.6010134813855 437.46960462198626 188.69456701042975 436.32068557737523 195.08626846358567 436.6519053173023 201.47796991674156 436.9831250572294 207.90789568278646 438.6309053892654 214.33782144883136 440.2786857213014 221.76208014109034 444.20086693795906 229.18633883334934 448.1230481546167 234.7250354177737 453.3375948697452 240.26373200219805 458.55214158487365 243.84080050142484 466.68568460482857 247.41786900065165 474.8192276247834 247.7725761924318 486.17105796988574 248.127283384212 497.5228883149881 246.80955976604167 506.10248825135807 245.4918361478713 514.682088187728 243.19386770656246 523.2342810052727 240.89589926525358 531.7864738228174 239.36059892955427 540.227963493663 237.82529859385494 548.6694531645086 237.46322733572293 554.7876908431285 237.1011560775909 560.9059285217484 237.77898746866103 564.7963913473058 238.45681885973116 568.6868541728631 241.2077573957764 571.8733423350075 243.9586959318217 575.0598304971519 249.5992440761898 577.8200534732987 255.23979222055786 580.5802764494454 263.0793363191279 582.9268235175585 270.91888041769795 585.2733705856717 280.8073745329445 586.5540057938836 290.69586864819104 587.8346410020954 299.23297072759874 588.6732131592023 307.77007280700644 589.5117853163091 314.87711441608224 590.4465782138411 321.9841560251581 591.3813711113731 325.5580542852972 591.7761714801663 329.1319525454364 592.1709718489594 329.3268669855663 592.2254434982254 329.52178142569625 592.2799151474915 329.68909865419806 592.393773588511 329.8564158826999 592.5076320295304 329.97861774158196 592.6689562534731 330.10081960046404 592.8302804774157 330.1651115228433 593.0221797954491 330.2294034452225 593.2140791134826 330.2290540498543 593.4164616163523 330.2287046544862 593.6188441192221 330.163750523158 593.8105203054538 330.09879639182975 594.0021964916854 329.9760382392377 594.163097813983 329.85328008664567 594.3239991362806 329.6855707237712 594.4372791837258 329.5178613608968 594.550559231171 329.3227600023039 594.6043575528931 329.12765864371096 594.6581558746152 328.925592453146 594.6468397721287 328.723526262581 594.6355236696421 328.5356516235364 594.5602779418645 328.3477769844919 594.4850322140868 328.19376442126975 594.3537351085791 328.0397518580476 594.2224380030715 327.9357265266727 594.0488363614397 327.83170119529774 593.875234719808 327.788554575425 593.6775046797572 327.7454079555522 593.4797746397064 327.76765750967184 593.2786185886257 327.7899070637915 593.0774625375449 327.8752232577139 592.8939415670823 327.96053945163635 592.7104205966198 328.09998965733666 592.5637494008276 328.2394398630369 592.4170782050356 328.4184236071669 592.3226132968309 328.5974073512969 592.2281483886262 328.79718498859916 592.1957802688341 328.99696262590135 592.1634121490421 329.19661738501406 592.1965297683494 329.3962721441267 592.2296473876565 329.574900119067 592.3247833225794 329.7535280940074 592.4199192575022 329.8924268886459 592.5671127505407 330.0313256832845 592.7143062435792 330.1159525571568 592.8981460971571 330.20057943102915 593.081985950735 330.2220739281015 593.2832240836535 330.2435684251739 593.484462216572 330.1996800659289 593.6820289431929 330.1557917066839 593.8795956698139 330.0511156139198 594.0528057017074 329.9464395211557 594.2260157336009 329.7919353094168 594.3567339347048 329.6374310976778 594.4874521358088 329.4492753987182 594.5619922759613 329.26111969975864 594.6365324161137 329.0590124649277 594.6470901229641 328.85690523009686 594.6576478298146 328.8570917307968 594.6576684583633 328.85727823149676 594.6576890869121 325.2575311348553 594.2601130299713 321.6577840382139 593.8625369730304 314.5915424548649 592.9329147511883 307.525300871516 592.0032925293461 298.94879543933587 591.1608879349844 290.37229000715575 590.3184833406228 280.2875899774898 588.9968203100851 270.20288994782385 587.6751572795474 262.1643301760116 585.2515908447207 254.12577040419941 582.8280244098939 248.1119565006092 579.7762156144172 242.09814259701898 576.7244068189406 239.07411160845646 573.0002319890298 236.05008061989398 569.2760571591189 235.31621901188697 565.0237835327817 234.58235740387997 560.7715099064446 234.9574790890959 554.4950735806069 235.33260077431186 548.2186372547691 236.88481324649007 539.6726586798319 238.43702571866825 531.1266801048947 240.69791094295357 522.7083594029505 242.95879616723886 514.2900387010062 244.25013999752537 505.9390185915198 245.5414838278119 497.5879984820334 245.27046736890242 486.6913110721797 244.9994509099929 475.79462366232593 241.69246376053803 468.10812490591366 238.3854766110832 460.4216261495013 233.13815990449194 455.47136868494226 227.89084319790067 450.52111122038326 220.75977649953467 446.7614002495409 213.62870980116864 443.00168927869856 207.45786994221353 441.4567821107346 201.28703008325843 439.91187494277057 195.61810653641436 439.49559468269763 189.94918298957026 439.07931442262475 188.01773651861447 440.2303953780137 186.0862900476587 441.3814763334027 185.90951021556197 441.4558661072979 185.73273038346522 441.5302558811931 185.5432845836857 441.56017638323146 185.35383878390616 441.5900968852699 185.16273761522808 441.57380913446707 184.97163644655004 441.5575213836643 184.78998671787588 441.49597202486234 184.6083369892017 441.43442266606036 184.44669619129672 441.33118895088467 184.2850553933918 441.2279552357089 184.15281809702492 441.0890371125359 184.02058080065805 440.95011898936286 183.9254326437073 440.7835903860383 183.83028448675654 440.61706178271385 183.77775548457436 440.4326013494874 183.72522648239217 440.24814091626104 183.71836962305346 440.05646950217863 183.71151276371475 439.8647980880963 183.75072656820646 439.67705564475 183.78994037269817 439.4893132014038 183.87294573286079 439.31641132842196 183.9559510930234 439.1435094554402 184.07792373342426 438.9954972178043 184.19989637382514 438.8474849801685 184.35374723887332 438.73296485608427 184.50759810392148 438.61844473200006 184.5075290281314 438.6184841992987" stroke-opacity="0" fill="black"></path></g><g id="13"><path d="M 457.67905491831226 407.7678200816877 Q 457.67905491831226 407.7678200816877 457.92027837941805 408.10364965004175 458.16150184052384 408.4394792183958 458.2828630343268 408.8347534495409 458.40422422812975 409.23002768068613 458.3930166056025 409.64336125827936 458.38180898307525 410.0566948358725 458.2392059852549 410.4448116252303 458.0966029874345 410.83292841458797 457.8375351858364 411.1551924854116 457.57846738423825 411.4774565562352 457.2300592460769 411.70012677524005 456.88165110791556 411.92279699424483 456.48038105722736 412.0225597307218 456.07911100653916 412.12232246719884 455.66699212355616 412.08873253630406 455.2548732405731 412.0551426054093 454.87505448113234 411.8917168817743 454.49523572169164 411.7282911581393 454.18748421016915 411.4521403581689 453.8797326986466 411.1759895581985 453.6762700995372 410.81602674354633 453.47280750042773 410.4560639288941 453.39493640156707 410.04997730127513 453.3170653027064 409.6438906736562 453.3729388287012 409.2341976101786 453.42881235469594 408.8245045467011 453.6125805326253 408.45410001925956 453.79634871055475 408.083695491818 454.0887709636795 407.7913609522128 454.3811932168042 407.4990264126077 454.7516528580301 407.3153693643044 455.12211249925605 407.13171231600114 455.5318223063549 407.07596170043786 455.94153211345383 407.0202110848746 456.34759536146953 407.09820400621754 456.7536586094853 407.17619692756045 457.1135603691604 407.37976750635687 457.4734621288354 407.58333808515323 457.749520590927 407.8911724280657 458.02557905301853 408.1990067709782 458.1888908236732 408.57887454104343 458.35220259432793 408.9587423111086 458.38566888804814 409.37087125252543 458.4191351817683 409.78300019394226 458.31925206876724 410.1842402977528 458.21936895576613 410.58548040156336 457.9965942243416 410.93382172298163 457.773819492917 411.2821630443999 457.451477716256 411.5411341551202 457.12913593959496 411.8001052658405 456.7409763868038 411.94259182220867 456.35281683401263 412.08507837857684 455.93947991273274 412.09616200052835 455.52614299145284 412.1072456224798 455.1309051864526 411.9857658518705 454.73566738145234 411.86428608126124 454.3999101952479 411.62296188214157 454.0641530090435 411.38163768302184 454.0644240453656 411.381908800667 454.0646950816877 411.38217991831226 453.79754328958825 411.2001222368433 453.53039149748884 411.01806455537434 453.3145737574713 410.777361870517 453.0987560174538 410.5366591856597 452.9468156667082 410.2513011487673 452.7948753159625 409.9659431118749 452.7156431348129 409.65251474545903 452.6364109536634 409.33908637904324 452.63449192020107 409.0158041544865 452.6325728867388 408.69252192992974 452.7080785352787 408.37817502531266 452.7835841838186 408.0638281206955 452.93212612252 407.7766863928839 453.08066806122133 407.4895446650723 453.2936130256276 407.2462968047779 453.5065579900339 407.0030489444835 453.7715296088087 406.8178325287756 454.0365012275834 406.6326161130677 454.3380993377938 406.51619592872953 454.6396974480042 406.39977574439143 454.96039315331427 406.3589181380068 455.2810888586243 406.31806053162217 455.6022433095736 406.35514014919374 455.9233977605229 406.3922197667654 456.22634544533287 406.5050815391778 456.52929313014283 406.61794331159024 457.1041740242275 407.192881696639" stroke-opacity="0" fill="black"></path></g><g id="17"><path d="M 426.089837449877 374.4273324097786 Q 426.089837449877 374.4273324097786 423.47690076180254 375.8187439999278 420.8639640737281 377.21015559007697 418.6421094738924 378.62198814977035 416.4202548740567 380.0338207094637 412.08935277358006 384.01625673178285 407.7584506731034 387.998692754102 402.7480052876461 393.4154868443852 397.73755990218876 398.83228093466846 390.4155054345298 406.89323386034386 383.0934509668708 414.95418678601925 376.23633745706934 422.4071012594603 369.37922394726786 429.86001573290133 365.0059042749348 434.195283015819 360.63258460260175 438.5305502987366 358.49381947291727 440.64954697327454 356.3550543432327 442.76854364781246 356.1866243212383 442.8888114135846 356.0181942992439 443.0090791793568 355.8201787504744 443.0692692968047 355.6221632017049 443.12945941425255 355.4152944063876 443.12326996219076 355.20842561107025 443.117080510129 355.01436278668285 443.0451595258222 354.82029996229545 442.97323854151546 354.659361537779 442.84311617100593 354.49842311326245 442.71299380049646 354.3874593841473 442.5382938903255 354.2764956550322 442.3635939801546 354.2271245530484 442.1626076570334 354.17775345106463 441.96162133391215 354.1951441436226 441.75539191892676 354.21253483618057 441.5491625039414 354.2948665131787 441.35928227128 354.3771981901769 441.1694020386186 354.51585070330015 441.0157514987644 354.6545032164234 440.8621009589102 354.83495961094695 440.7607673639458 355.0154160054705 440.65943376898133 355.218782449252 440.62102677304887 355.4221488930334 440.5826197771164 355.6271328657253 440.6111606028285 355.83211683841716 440.6397014285406 356.0172564639681 440.7322018439112 356.202396089519 440.8247022592817 356.34830720026173 440.9714774464037 356.49421831100443 441.11825263352574 356.58562397512736 441.3039351915626 356.6770296392503 441.48961774959946 356.70435965959103 441.69476666570927 356.7316896799318 441.89991558181913 356.6920825961462 442.1030517103312 356.6524755123606 442.3061878388433 356.55007819657635 442.48604277347965 356.44768088079206 442.665897708116 356.2932143590019 442.8036405897431 356.13874783721184 442.9413834713702 355.94838479502255 443.0225925839211 355.75802175283326 443.10380169647203 355.5516932510129 443.11997442442555 355.34536474919264 443.13614715237907 355.1446734363474 443.08559020684925 354.94398212350205 443.0350332613195 354.76994043306405 442.9230399678491 354.59589874262605 442.8110466743787 354.46672888552666 442.6493427603574 354.33755902842734 442.48763884633615 354.2667851228025 442.29315475424767 354.19601121717767 442.09867066215924 354.19104330962875 441.891768927784 354.18607540207984 441.6848671934089 354.2474336338386 441.48721048295283 354.3087918655974 441.2895537724968 354.43005201360177 441.1218367957209 354.5513121616061 440.95411981894506 354.55117607981794 440.95425509960967 354.55103999802975 440.95439038027433 356.6823901580228 438.82713654440045 358.81374031801596 436.69988270852656 363.1348095625714 432.3969134963575 367.45587880712674 428.09394428418847 374.2914451017686 420.6333611221314 381.12701139641047 413.1727779600744 388.43479176273587 405.08432468457795 395.7425721290613 396.9958714090815 400.8023263529789 391.4728862024897 405.8620805768966 385.94990099589796 410.34341285141994 381.77991514321707 414.8247451259433 377.60992929053623 417.1022655261076 376.07488685022963 419.3797859262719 374.53984440992303 421.94184923819745 373.0562560000722 424.503912550123 371.5726675902214 424.6862311359498 371.498519617948 424.86854972177656 371.42437164567457 425.0633154502509 371.3960114703932 425.25808117872526 371.3676512951118 425.4539742565572 371.3867272115422 425.64986733438917 371.40580312797266 425.8355024466912 371.4712064429557 426.02113755899313 371.5366097579388 426.18572558431606 371.64453922773464 426.35031360963904 371.75246869753056 426.4842886842181 371.89665145628373 426.6182637587971 372.0408342150369 426.713839245003 372.21289035403424 426.8094147312088 372.3849464930315 426.8610357772925 372.5748761013904 426.91265682337615 372.7648057097493 426.91732321171395 372.96157006970816 426.92198960005175 373.158334429667 426.8794301199342 373.35049758738006 426.83687063981665 373.54266074509314 426.7495588502278 373.7190541688054 426.662247060639 373.89544759251766 426.53525752689217 374.04581928815514 426.40826799314533 374.19619098379263 426.24898135290834 374.31180134133973 426.0896947126714 374.42741169888683 426.0897660812742 374.42737205433275" stroke-opacity="0" fill="black"></path></g><g id="18"><path d="M 158.38217991831223 126.76782008168774 Q 158.38217991831223 126.76782008168774 158.623403379418 127.10364965004176 158.86462684052378 127.43947921839577 158.98598803432674 127.83475344954095 159.10734922812972 128.23002768068613 159.09614160560247 128.6433612582793 159.08493398307522 129.0566948358725 158.94233098525484 129.44481162523022 158.7997279874345 129.83292841458794 158.54066018583637 130.15519248541153 158.28159238423822 130.47745655623515 157.9331842460769 130.70012677524 157.58477610791556 130.9227969942448 157.18350605722736 131.0225597307218 156.78223600653916 131.12232246719879 156.37011712355613 131.088732536304 155.9579982405731 131.05514260540923 155.5781794811324 130.89171688177424 155.19836072169167 130.72829115813929 154.89060921016915 130.4521403581689 154.58285769864662 130.17598955819847 154.3793950995372 129.81602674354627 154.17593250042776 129.45606392889408 154.0980614015671 129.04997730127513 154.02019030270642 128.6438906736562 154.0760638287012 128.23419761017865 154.13193735469596 127.82450454670114 154.31570553262537 127.45410001925958 154.49947371055478 127.08369549181802 154.7918959636795 126.79136095221287 155.0843182168042 126.4990264126077 155.45477785803013 126.31536936430444 155.82523749925602 126.13171231600118 156.2349473063549 126.07596170043792 156.6446571134538 126.02021108487463 157.05072036146953 126.09820400621757 157.45678360948529 126.1761969275605 157.81668536916033 126.37976750635688 158.1765871288354 126.58333808515327 158.45264559092692 126.89117242806574 158.72870405301848 127.1990067709782 158.89201582367318 127.57887454104342 159.05532759432788 127.95874231110864 159.08879388804806 128.37087125252543 159.12226018176824 128.78300019394223 159.02237706876718 129.1842402977528 158.9224939557661 129.58548040156336 158.69971922434155 129.93382172298163 158.47694449291703 130.28216304439988 158.15460271625597 130.54113415512018 157.83226093959493 130.80010526584044 157.44410138680377 130.9425918222086 157.05594183401263 131.08507837857678 156.64260491273274 131.0961620005283 156.22926799145284 131.10724562247978 155.8340301864526 130.9857658518705 155.43879238145234 130.8642860812612 155.1030351952479 130.6229618821415 154.76727800904348 130.38163768302178 154.76754904536563 130.38190880066702 154.76782008168774 130.38217991831223 154.5006682895883 130.20012223684327 154.23351649748886 130.0180645553743 154.01769875747135 129.77736187051698 153.80188101745384 129.5366591856597 153.64994066670818 129.25130114876728 153.49800031596254 128.96594311187488 153.418768134813 128.6525147454591 153.33953595366347 128.33908637904327 153.33761692020116 128.01580415448652 153.33569788673884 127.69252192992975 153.41120353527873 127.37817502531264 153.48670918381865 127.06382812069553 153.63525112252 126.77668639288393 153.78379306122136 126.48954466507232 153.99673802562765 126.24629680477793 154.20968299003394 126.00304894448355 154.4746546088087 125.81783252877565 154.73962622758344 125.63261611306774 155.04122433779384 125.51619592872962 155.3428224480042 125.39977574439149 155.66351815331424 125.35891813800686 155.9842138586243 125.31806053162221 156.30536830957357 125.35514014919383 156.62652276052285 125.39221976676544 156.9294704453328 125.50508153917787 157.23241813014278 125.6179433115903 157.80729902422752 126.19288169663902" stroke-opacity="0" fill="black"></path></g><g id="19"><path d="M 324.38217991831226 158.76782008168774 Q 324.38217991831226 158.76782008168774 324.62340337941805 159.10364965004175 324.86462684052384 159.43947921839577 324.9859880343268 159.83475344954098 325.10734922812975 160.23002768068616 325.0961416056025 160.64336125827936 325.08493398307525 161.05669483587252 324.9423309852549 161.44481162523024 324.7997279874345 161.83292841458797 324.5406601858364 162.1551924854116 324.2815923842382 162.47745655623518 323.93318424607685 162.70012677524 323.58477610791556 162.92279699424483 323.1835060572273 163.0225597307218 322.7822360065391 163.1223224671988 322.3701171235561 163.08873253630404 321.9579982405731 163.05514260540926 321.57817948113234 162.89171688177427 321.19836072169164 162.72829115813929 320.89060921016915 162.4521403581689 320.5828576986466 162.17598955819847 320.3793950995372 161.81602674354627 320.17593250042773 161.45606392889408 320.09806140156707 161.04997730127513 320.0201903027064 160.6438906736562 320.0760638287012 160.23419761017865 320.13193735469594 159.82450454670112 320.3157055326253 159.45410001925956 320.49947371055475 159.083695491818 320.7918959636795 158.79136095221284 321.0843182168042 158.4990264126077 321.4547778580301 158.31536936430442 321.82523749925605 158.13171231600114 322.2349473063549 158.07596170043786 322.64465711345383 158.0202110848746 323.0507203614696 158.09820400621754 323.45678360948534 158.17619692756048 323.8166853691604 158.37976750635687 324.1765871288354 158.5833380851533 324.452645590927 158.89117242806574 324.72870405301853 159.1990067709782 324.8920158236732 159.57887454104343 325.0553275943279 159.95874231110864 325.0887938880481 160.37087125252543 325.1222601817683 160.78300019394226 325.02237706876724 161.1842402977528 324.92249395576613 161.5854804015634 324.6997192243416 161.93382172298163 324.476944492917 162.2821630443999 324.154602716256 162.54113415512018 323.83226093959496 162.80010526584047 323.44410138680377 162.94259182220864 323.0559418340126 163.0850783785768 322.64260491273274 163.0961620005283 322.22926799145284 163.1072456224798 321.8340301864526 162.98576585187053 321.43879238145234 162.86428608126124 321.1030351952479 162.6229618821415 320.7672780090435 162.38163768302178 320.7675490453656 162.38190880066702 320.7678200816877 162.38217991831223 320.50066828958825 162.20012223684327 320.23351649748884 162.0180645553743 320.0176987574713 161.77736187051698 319.8018810174538 161.53665918565966 319.6499406667082 161.25130114876725 319.49800031596254 160.96594311187485 319.41876813481304 160.65251474545903 319.33953595366347 160.33908637904324 319.3376169202012 160.0158041544865 319.33569788673884 159.69252192992974 319.41120353527873 159.3781750253126 319.4867091838186 159.0638281206955 319.63525112252 158.7766863928839 319.7837930612214 158.4895446650723 319.9967380256277 158.2462968047779 320.20968299003397 158.0030489444835 320.4746546088087 157.81783252877563 320.73962622758347 157.6326161130677 321.04122433779384 157.5161959287296 321.3428224480042 157.39977574439146 321.66351815331427 157.35891813800683 321.9842138586243 157.3180605316222 322.3053683095736 157.3551401491938 322.6265227605229 157.39221976676544 322.92947044533287 157.50508153917787 323.23241813014283 157.6179433115903 323.8072990242275 158.192881696639" stroke-opacity="0" fill="black"></path></g><g id="20"><path d="M 596.3868136084141 58.256279085483314 Q 596.3868136084141 58.256279085483314 596.4229247544229 58.85349617143724 596.4590359004317 59.450713257391165 596.2134617199943 59.99630063309172 595.9678875395567 60.54188800879228 595.496889629481 60.91085037994367 595.0258917194052 61.279812751095065 594.4373767597294 61.38762000901044 593.8488618000538 61.495427266925816 593.2776598910671 61.31738052645767 592.7064579820803 61.13933378598952 592.2834327652379 60.71622395564201 591.8604075483953 60.293114125294494 591.6824750518691 59.721876618383995 591.5045425553429 59.150639111473495 591.6124675140933 58.56214572501949 591.7203924728436 57.97365233856549 592.0894490361972 57.502728230383454 592.4585055995507 57.03180412220141 593.0041420791753 56.7863390641498 593.5497785587999 56.5408740060982 594.1469884105802 56.57710459480118 594.7441982623607 56.613335183504155 595.2561593666799 56.92296090964068 595.7681204709992 57.2325866357772 596.0774670397066 57.744432860630255" stroke-opacity="0" fill="black"></path></g></svg></svg>