<svg xmlns="http://www.w3.org/2000/svg" id="drawingSvg" version="1.1" width="100%" height="100%"><g id="1"><path d="M 173.94155801189638 25.460293051550973 Q 173.94155801189638 25.460293051550973 177.68920806651766 24.642044409109936 181.43685812113895 23.823795766668894 186.15772321108892 22.49278466414529 190.87858830103892 21.161773561621686 195.3667642170206 20.021178609865174 199.85494013300232 18.880583658108662 205.56973523996533 18.102397748533512 211.28453034692836 17.32421183895836 217.61741362869856 16.999924084442256 223.95029691046875 16.675636329926153 230.3922408177457 16.68692793300352 236.8341847250226 16.698219536080888 242.12035749258843 17.723955297767837 247.40653026015426 18.74969105945479 252.7908371224937 20.05100489613163 258.17514398483314 21.352318732808467 264.5060296244002 23.205868422609235 270.83691526396717 25.05941811241 277.7340684954278 27.730747436932646 284.6312217268883 30.402076761455287 290.0038730631353 32.68872965837573 295.37652439938233 34.975382555296164 299.8760078785091 37.55992770219625 304.3754913576359 40.14447284909634 307.7869796690157 43.01754932190204 311.1984679803955 45.89062579470773 314.09051937294237 48.85028458345991 316.98257076548924 51.80994337221208 319.6276694224922 54.48530031710149 322.27276807949517 57.1606572619909 324.57208849403025 59.762258547459005 326.87140890856534 62.36385983292711 328.72915888748184 64.78706032814374 330.5869088663983 67.21026082336037 332.13490214682923 70.030093878646 333.6828954272602 72.84992693393164 334.9058391652435 75.33163182748643 336.1287829032268 77.81333672104122 337.11290815636175 79.70011497941559 338.09703340949665 81.58689323778997 338.8595443117124 83.44585224527583 339.6220552139282 85.30481125276168 340.1359566368673 86.99117219441405 340.64985805980643 88.67753313606643 341.27084497384976 89.78444666660153 341.8918318878931 90.89136019713663 342.5118382320933 92.33677428180759 343.1318445762934 93.78218836647855 343.5799624123439 95.16218805745538 344.02808024839436 96.54218774843221 344.87370816891683 98.49720829985196 345.7193360894393 100.45222885127171 346.1153584815801 101.6504657286674 346.51138087372084 102.84870260606307 348.0901812930663 103.94869062965952 349.6689817124117 105.04867865325599 351.25330002553903 104.8451839391586 352.83761833866635 104.64168922506123 355.3265170865727 104.48148752071424 357.81541583447915 104.32128581636724 361.2817669766444 104.29756577090211 364.74811811880966 104.273845725437 368.79152324706473 104.30640745749508 372.8349283753198 104.33896918955315 376.8494299924023 104.38167875261213 380.8639316094848 104.42438831567111 384.869802704477 104.46330710520098 388.87567379946927 104.50222589473086 393.76203461812077 104.67785481102558 398.6483954367723 104.85348372732032 405.4884369680725 105.37165264144889 412.32847849937275 105.88982155557744 418.6758276732412 106.40507343648817 425.0231768471097 106.92032531739889 430.0326023693286 107.43363607170897 435.04202789154743 107.94694682601907 439.1457488370414 108.16633742442616 443.24946978253536 108.38572802283323 447.3335557349626 108.77241765959637 451.4176416873899 109.15910729635951 455.4080275118645 109.32256210547871 459.398413336339 109.4860169145979 463.1078248291849 109.5576478149812 466.8172363220308 109.62927871536449 469.6102852108543 109.95260227033508 472.4033340996778 110.27592582530566 474.3996283359744 110.35673639608345 476.39592257227093 110.43754696686123 477.95669127450617 110.42388139748641 479.51745997674135 110.41021582811159 481.7945119756258 110.40079673081357 484.07156397451024 110.39137763351553 484.32698604170537 110.43555784372502 484.58240810890044 110.47973805393451 484.8103515553323 110.6031645851712 485.0382950017642 110.72659111640789 485.21489408842024 110.91634117826986 485.3914931750763 111.10609124013183 485.4982579309659 111.34229795105298 485.6050226868556 111.57850466197412 485.6307748138541 111.83643711696848 485.6565269408526 112.09436957196286 485.5985701844653 112.34702217490499 485.54061342807796 112.59967477784711 485.40501587599766 112.82059473451514 485.26941832391736 113.04151469118315 485.0703770756412 113.20757162379672 484.87133582736504 113.37362855641031 484.6296905541293 113.46743626029004 484.38804528089355 113.56124396416976 484.12909630659414 113.57298074795659 483.8701473322947 113.58471753174341 483.62100668289673 113.51315455107665 483.37186603349875 113.4415915704099 483.15861880076085 113.29422148825616 482.94537156802295 113.14685140610241 482.79034479350463 112.93910390896511 482.6353180189863 112.7313564118278 482.55474304690273 112.48498271749722 482.47416807481915 112.23860902316665 482.4764811260172 111.97940452247553 482.4787941772152 111.72020002178444 482.56375307462383 111.47530349437852 482.6487119720324 111.2304069669726 482.80742149666594 111.02545914391766 482.96613102129953 110.8205113208627 483.18197424403365 110.67697029333357 483.3978174667678 110.53342926580444 483.6481955452051 110.46632381727457 483.89857362364245 110.39921836874468 484.1572719068772 110.41557445738925 484.415970190112 110.43193054603384 484.6559028995998 110.5300356850542 484.8958356090876 110.62814082407455 485.091881726809 110.797723379518 485.28792784453043 110.96730593496147 485.41956129020883 111.19061056850767 485.55119473588724 111.41391520205386 485.6046334530123 111.66756185962379 485.6580721701373 111.92120851719373 485.6277211109195 112.17864032678362 485.59737005170166 112.43607213637351 485.48640698005306 112.67033591956391 485.37544390840446 112.9045997027543 485.195486687218 113.09116797960552 485.01552946603164 113.27773625645673 484.78541966386973 113.39707527913322 484.5553098617078 113.5164143018097 484.29914003559986 113.55602924313479 484.04297020949195 113.59564418445986 484.04321052948507 113.59564632899225 484.0434508494782 113.59564847352465 481.7259551845117 113.50821305083309 479.40845951954515 113.42077762814152 477.81157817515066 113.29278410270263 476.2146968307561 113.16479057726373 474.16357919262987 112.97659419259665 472.11246155450357 112.78839780792957 469.4410119152733 112.47876382067692 466.7695622760431 112.16912983342426 463.03309487935076 112.1043900462235 459.29662748265844 112.03965025902274 455.2378865082195 111.88223286206176 451.1791455337806 111.72481546510079 447.14763901817616 111.35651167579294 443.11613250257176 110.9882078864851 438.9478711703441 110.78408454119577 434.7796098381164 110.57996119590642 429.7961358833432 110.09676855328374 424.81266192857 109.61357591066107 418.4708358624571 109.13705509290646 412.12900979634423 108.66053427515186 405.3474625276883 108.19806154536201 398.56591525903247 107.73558881557217 393.7250083130814 107.63323739323536 388.88410136713026 107.53088597089854 384.88463654541044 107.5922039636483 380.88517172369063 107.65352195639807 376.887118242627 107.74893552703325 372.8890647615634 107.84434909766844 368.9029284824159 108.00092025931761 364.9167922032684 108.15749142096676 361.66657532801594 108.42555826865714 358.41635845276346 108.6936251163475 355.92509715968686 109.21998080766048 353.4338358666103 109.74633649897343 351.3475709604966 109.81675453880055 349.26130605438294 109.88717257862766 347.64403988698575 109.06902528764263 346.0267737195886 108.2508779966576 344.8247945510293 107.11611010201241 343.62281538247004 105.98134220736725 342.8192905525914 104.46030944916012 342.01576572271273 102.93927669095301 341.6678508415195 101.49013487203848 341.3199359603263 100.04099305312397 340.88496259207733 98.80599621581709 340.44998922382837 97.57099937851021 340.1433819969707 96.32168447888928 339.836774770113 95.07236957926835 339.35742802511754 93.7135140390034 338.87808128012205 92.35465849873844 338.2652962195874 90.92211408824787 337.6525111590528 89.4895696777573 337.2928314653378 87.90661781699632 336.9331517716229 86.32366595623535 336.31664828171154 84.54894778157214 335.70014479180014 82.77422960690895 334.79247147522415 80.8464733190502 333.8847981586481 78.91871703119148 332.6858629090762 76.48387005125662 331.4869276595043 74.04902307132176 330.0422644986289 71.38873407133761 328.59760133775353 68.72844507135348 326.7961596900668 66.37488778946476 324.99471804238004 64.02133050757607 322.7429993354959 61.47173702338456 320.4912806286117 58.92214353919305 317.8398166469811 56.24174808488336 315.18835266535046 53.56135263057367 312.3826096140536 50.68394695062209 309.5768665627567 47.80654127067051 306.34648559450414 45.062995464173255 303.11610462625157 42.319449657675996 298.7523662709493 39.806060029745595 294.388627915647 37.2926704018152 289.0536984650022 35.025359122663914 283.7187690143573 32.75804784351262 276.92161451195466 30.125932047866492 270.12446000955197 27.493816252220363 263.851092157676 25.662789188682844 257.57772430580013 23.831762125145328 252.24614060003853 22.55171889514385 246.9145568942769 21.271675665142375 241.86922244278145 20.282453622880354 236.823887991286 19.29323158061833 230.45640314783049 19.298740115580465 224.088918304375 19.3042486505426 217.87020452559833 19.64282426516712 211.65149074682165 19.981399879791642 206.0978221819097 20.76289248584149 200.5441536169977 21.544385091891336 196.10653265797941 22.720680765134823 191.6689116989611 23.89697643837831 186.88790178891105 25.311590335854707 182.10689187886103 26.726204233331103 178.37954193348233 27.632955590890063 174.65219198810362 28.539706948449027 174.4627854826415 28.559852775814214 174.27337897717933 28.5799986031794 174.08465526669232 28.554229634018235 173.89593155620534 28.52846066485707 173.71885927161412 28.45827459286795 173.54178698702293 28.38808852087883 173.38665757782766 28.277564563863443 173.2315281686324 28.167040606848055 173.10735776338424 28.022602422381077 172.9831873581361 27.878164237914103 172.89719274662218 27.708206580063155 172.81119813510824 27.53824892221221 172.76837732819018 27.35264973803702 172.72555652127213 27.167050553861827 172.72839826625994 26.976596876666996 172.73124001124776 26.78614319947216 172.77957914578923 26.601904205924676 172.82791828033072 26.41766521237719 172.9189453316551 26.250348881438462 173.0099723829795 26.083032550499738 173.13839685458692 25.942363315185254 173.26682132619436 25.801694079870774 173.42517918176102 25.69584764274633 173.5835370373277 25.59000120562188 173.76262451084762 25.52512936658632 173.94171198436754 25.46025752755076 173.94163499813197 25.460275289550864" stroke-opacity="0" fill="black" /></g><g id="2"><path d="M 391.9269313541476 38.449129614539515 Q 391.9269313541476 38.449129614539515 388.6025886550127 39.844991635153775 385.27824595587776 41.240853655768035 382.1542965594235 42.675356939404175 379.0303471629693 44.109860223040315 375.24626767929794 45.864399763679174 371.4621881956266 47.618939304318026 366.73918911714065 50.344014066579675 362.0161900386547 53.06908882884133 357.21168488391606 55.406382499283765 352.40717972917747 57.74367616972621 348.25152018885757 60.004226754388284 344.09586064853767 62.26477733905036 340.647808122589 64.63222168501947 337.19975559664033 66.99966603098858 333.9802094790417 69.17168942385113 330.76066336144305 71.34371281671369 328.39278649882044 72.97926642540162 326.02490963619783 74.61482003408955 323.5990908951905 76.4455021697733 321.17327215418317 78.27618430545706 319.2462812759545 79.54496366790173 317.31929039772587 80.81374303034637 315.4750561454716 81.82902784156272 313.6308218932174 82.84431265277905 312.3638481011851 83.70959359256788 311.09687430915284 84.57487453235672 309.7703368159955 85.30653096512329 308.44379932283823 86.03818739788986 307.26056399907867 86.5444952597074 306.0773286753191 87.05080312152495 304.0811833598423 88.0189145225658 302.08503804436555 88.98702592360664 300.6552299488252 89.74947031556275 299.22542185328484 90.51191470751887 297.83677386919567 90.94676946088607 296.44812588510644 91.38162421425328 295.0667475583383 92.06756690783041 293.6853692315701 92.75350960140756 292.1141953847342 93.19114194275966 290.54302153789826 93.62877428411176 288.8448996079568 94.2217397099516 287.1467776780153 94.81470513579144 285.29243878185514 95.36976934446649 283.4380998856949 95.92483355314154 282.1334146531032 96.12439775973147 280.82872942051154 96.32396196632138 278.604244995974 96.4465708996903 276.3797605714365 96.56917983305924 275.0416039746477 96.42808177361682 273.7034473778589 96.28698371417441 272.16572310748296 96.0324129135427 270.62799883710704 95.77784211291099 268.6725918861941 95.51324824238941 266.7171849352811 95.24865437186781 265.33537523817915 95.25707135583579 263.95356554107724 95.26548833980378 263.5127833608855 95.18987423757841 263.0720011806938 95.11426013535302 262.67843844562026 94.9018576956511 262.28487571054666 94.68945525594917 261.9797385428439 94.3625030702763 261.67460137514115 94.03555088460344 261.48983771681606 93.62828093310657 261.305074058491 93.2210109816097 261.26002871334316 92.77606453571937 261.2149833681953 92.33111808982905 261.31437259575245 91.89508115988444 261.4137618233096 91.45904422993983 261.6471795452103 91.07756999760872 261.88059726711094 90.6960957652776 262.2236045862559 90.40912468338446 262.5666119054008 90.12215360149132 262.98329586493037 89.95973161806336 263.39997982446 89.79730963463541 263.84671350381757 89.7764423742128 264.2934471831752 89.7555751137902 264.7234574482058 89.8784473840476 265.1534677132364 90.00131965430501 265.5217323756797 90.25506669611133 265.889997038123 90.50881373791766 266.15795869060867 90.86686816901309 266.42592034309433 91.22492260010851 266.5655233298721 91.64979602704015 266.70512631664997 92.0746694539718 266.70175416815266 92.5218775167842 266.69838201965536 92.96908557959662 266.5523878007208 93.39180547606189 266.40639358178623 93.81452537252716 266.1330629256756 94.16849821789816 265.8597322695649 94.52247106326915 265.4876829681252 94.77063580719576 265.1156336666856 95.01880055112238 264.68381937998913 95.13517427940639 264.2520050932926 95.25154800769039 263.80563689114433 95.22394636026075 263.35926868899605 95.1963447128311 262.94508143999064 95.02765758945984 262.53089419098524 94.85897046608858 262.1922534094284 94.56685945312174 261.85361262787166 94.2747484401549 261.6259740929849 93.88979763775993 261.39833555809815 93.50484683536494 261.30553308457485 93.06736069416974 261.21273061105154 92.62987455297451 261.26448064236706 92.18565798744733 261.3162306736825 91.74144142192014 261.50711496789745 91.33700402373347 261.6979992621123 90.93256662554681 262.0080321832337 90.6102530970519 262.3180651043551 90.28793956855698 262.71478612370095 90.08149622126976 263.1115071430467 89.87505287398253 263.5533794651672 89.8060943808597 263.9952517872877 89.73713588773688 263.9948371608507 89.73713276126838 263.9944225344137 89.7371296347999 266.32032848256887 90.02591216631153 268.64623443072406 90.31469469782316 269.93215642093 90.39383733187681 271.21807841113593 90.47297996593046 272.759594664024 90.78731529914155 274.3011109169121 91.10165063235264 276.2449773551044 91.20378464067673 278.18884379329677 91.30591864900083 280.0993385512054 91.13322119826466 282.009833309114 90.96052374752848 284.1621279222867 90.34033435962635 286.3144225354594 89.72014497172422 287.7378010032089 89.25807318468 289.1611794709584 88.79600139763579 290.88365941329255 88.35746740374049 292.60613935562674 87.91893340984518 293.8964796922811 87.4726775419903 295.18682002893553 87.02642167413539 297.08960068459385 86.55666961897504 298.9923813402522 86.08691756381468 300.6064270475374 85.50921120018893 302.22047275482265 84.93150483656318 304.59345942413995 83.99750775617596 306.9664460934573 83.06351067578873 308.22165549955866 82.51102168780847 309.4768649056601 81.9585326998282 310.90223675894237 81.15523617903625 312.32760861222465 80.3519396582443 314.11242293718124 79.47057162103528 315.8972372621378 78.58920358382626 317.77389009499336 77.42468212644653 319.6505429278489 76.2601606690668 322.11565056586323 74.39484087575201 324.58075820387756 72.52952108243721 326.95623752718825 70.88036426995207 329.33171685049894 69.23120745746692 332.5377146998022 67.05685338874576 335.74371254910545 64.8824993200246 339.29693994527895 62.434937874032045 342.8501673414525 59.987376428039475 347.0504605590672 57.68320750220351 351.25075377668185 55.37903857636754 355.96025511120104 53.06405104563811 360.6697564457203 50.74906351490867 365.47971381254683 47.939358980295324 370.2896711793734 45.12965444568197 374.05372450820204 43.33177211132083 377.8177778370307 41.53388977695968 380.95414094057645 40.021518060595824 384.0905040441222 38.509146344231965 387.37866134498734 37.030008364846225 390.6668186458524 35.550870385460485 390.8493784918624 35.496532725440865 391.0319383378724 35.442195065421245 391.2221972495079 35.43312725339706 391.4124561611433 35.424059441372876 391.59935628152067 35.46078849900502 391.786256401898 35.49751755663716 391.9589350872394 35.577908789370355 392.13161377258086 35.65830002210354 392.2800349295811 35.77768108771414 392.4284560865813 35.897062153324754 392.5439934706219 36.048494618670404 392.65953085466253 36.19992708401605 392.7354694275546 36.37460968709583 392.8114080004467 36.5492922901756 392.8433342087658 36.737072469891075 392.8752604170848 36.92485264960655 392.86131870810334 37.11481661308985 392.8473769991219 37.30478057657315 392.78837766562094 37.48588760934121 392.72937833211995 37.66699464210927 392.62875041813464 37.828718794908326 392.52812250414934 37.990442947707386 392.3917145087685 38.12338480517819 392.2553065133876 38.25632666264899 392.0910464757119 38.35275963778908 391.9267864380361 38.449192612929174 391.92685889609186 38.44916111373435" stroke-opacity="0" fill="black" /></g><g id="3"><path d="M 341.94520574315885 40.5 Q 341.94520574315885 40.5 341.8216852659745 44.38125 341.69816478879017 48.2625 341.60860342819467 52.93100519277274 341.51904206759923 57.59951038554547 341.164050049276 61.22854357428252 340.80905803095277 64.85757676301957 340.6784699399722 67.07052109855901 340.54788184899166 69.28346543409846 340.55133149468867 70.7936006051783 340.55478114038567 72.30373577625814 340.62914976607715 74.74602943858972 340.7035183917686 77.18832310092128 340.5788894967412 78.853150251958 340.4542606017138 80.51797740299473 340.50718391302587 81.82015834435262 340.5601072243379 83.12233928571051 339.8638441317411 84.7753193128197 339.1675810391442 86.42829933992888 338.18365975031423 87.20009889181406 337.1997384614843 87.97189844369926 336.1316243405598 88.72683902147585 335.0635102196353 89.48177959925243 333.6400842295303 89.58156240931163 332.21665823942527 89.68134521937083 330.95088214295134 89.72162879662997 329.6851060464774 89.7619123738891 328.408182564257 89.79773435475751 327.1312590820366 89.83355633562591 325.30878818441977 90.56471989468238 323.486317286803 91.29588345373887 321.61601598719744 92.16235542077794 319.74571468759194 93.02882738781703 318.16980282173927 93.7212627330588 316.59389095588665 94.41369807830056 315.5116434226568 95.05060123659612 314.42939588942687 95.68750439489168 313.18792160966177 96.40725712540376 311.94644732989667 97.12700985591583 310.8970293697853 97.82768296003566 309.84761140967385 98.52835606415549 308.4633183830214 99.07838774147504 307.07902535636885 99.6284194187946 305.037865950016 101.95349320875684 302.9967065436631 104.27856699871909 302.01960268177623 105.46122627157723 301.0424988198894 106.64388554443538 299.69060612124696 108.63259363438263 298.33871342260454 110.62130172432987 297.5350187791105 111.63872723793679 296.73132413561643 112.6561527515437 295.9123870128608 114.23421436997819 295.0934498901051 115.8122759884127 294.42651005072616 116.88644228201656 293.7595702113472 117.96060857562043 292.9495201507536 119.4478900442072 292.13947009016 120.93517151279397 291.82049249841145 122.49255370080033 291.5015149066629 124.0499358888067 290.83652083175195 125.24832561380035 290.17152675684105 126.44671533879401 289.4435987523692 127.75702829151507 288.7156707478974 129.06734124423613 287.99486711610064 130.9420893661127 287.27406348430395 132.81683748798926 286.7537646485348 134.56387901163913 286.2334658127657 136.31092053528897 285.783034677543 137.569915561551 285.3326035423204 138.82891058781306 285.0492066986511 140.23846587643845 284.7658098549819 141.64802116506388 284.75978893358365 143.11426379019167 284.7537680121854 144.58050641531943 284.7709623115567 146.2252127801088 284.78815661092796 147.86991914489815 284.8048944180226 149.5244057668663 284.8216322251173 151.17889238883444 284.82398596339186 152.5610686343124 284.8263397016664 153.9432448797903 284.8293461017033 155.50280738815067 284.83235250174016 157.06236989651103 284.75289844444956 157.54700096461835 284.673444387159 158.0316320327257 284.44340156767674 158.46552201947281 284.2133587481945 158.89941200621996 283.85681271044575 159.23713251545865 283.50026667269697 159.57485302469735 283.054547880953 159.78104462996075 282.60882908920905 159.98723623522415 282.1206044186238 160.04031062101188 281.6323797480386 160.0933850067996 281.1527664505012 159.9877852709094 280.6731531529638 159.8821855350192 280.25236686733194 159.6289679976744 279.83158058170017 159.3757504603296 279.51367774315634 159.00142706453317 279.19577490461256 158.6271036687367 279.01404002427057 158.17086617284025 278.8323051439285 157.71462867694382 278.80576591173343 157.22424526720275 278.77922667953834 156.73386185746168 278.9106617601067 156.2606758063245 279.042096840675 155.78748975518735 279.3177449463758 155.38104376711715 279.5933930520765 154.97459777904695 279.9843937534788 154.67744685628597 280.37539445488113 154.380295933525 280.840809875334 154.22355185612653 281.3062252957868 154.06680777872808 281.79732631791103 154.06688169297217 282.28842734003524 154.0669556072163 282.75379555717643 154.2238397742621 283.21916377431756 154.3807239413079 283.61007501129563 154.67799254745233 284.00098624827376 154.97526115359673 284.27651199538667 155.38179009730513 284.5520377424996 155.78831904101352 284.6833303812928 156.2615446345664 284.81462302008606 156.73477022811932 284.78793617662006 157.2251456269523 284.7612493331541 157.71552102578528 284.5793771269845 158.171703796194 284.3975049208149 158.62788656660274 284.0794894199372 159.00211425210483 283.7614739190595 159.37634193760695 283.3406114303635 159.62943280074387 282.9197489416675 159.88252366388082 282.44010387881656 159.98797902447262 281.96045881596564 160.0934343850644 281.4722501436544 160.0402130390196 280.98404147134306 159.98699169297478 280.53838476643693 159.78066592927334 280.0927280615308 159.5743401655719 279.73628369867544 159.23651234613806 279.37983933582007 158.89868452670422 279.1499271338986 158.4647253134106 278.92001493197716 158.03076610011698 278.8407067592217 157.54611113714952 278.76139858646627 157.0614561741821 278.7613985179371 157.06191149572913 278.7613984494079 157.0623668172762 278.7646565383452 154.78789881907647 278.76791462728255 152.51343082087675 278.7795897608755 150.6594626618007 278.7912648944685 148.80549450272463 278.81234104949226 147.23650885207536 278.833417204516 145.6675232014261 278.872829960299 143.93155250004924 278.91224271608195 142.19558179867235 279.0218273768222 140.84697602358514 279.1314120375624 139.49837024849793 279.8973636842798 137.5834903362067 280.6633153309972 135.66861042391548 281.25183988561344 133.99075388667657 281.84036444022973 132.31289734943766 282.69067178260394 130.22836859887258 283.54097912497815 128.14383984830746 284.3315931480407 126.68084304675554 285.1222071711033 125.2178462452036 285.7975410624041 124.16367598828393 286.47287495370495 123.10950573136425 287.0172517857319 120.92991207861652 287.56162861775886 118.75031842586878 288.5867587579985 117.01731842315257 289.61188889823813 115.28431842043636 290.63279647554134 113.54444042338237 291.6537040528446 111.80456242632837 293.0375249740579 109.93250336440526 294.4213458952712 108.06044430248215 295.9535907671048 105.90515419372795 297.4858356389384 103.74986408497374 298.49389185214085 102.49300104831451 299.5019480653433 101.23613801165529 300.77300765155104 99.6512632812356 302.0440672377588 98.06638855081593 304.51416407589954 96.16725771126829 306.9842609140403 94.26812687172064 308.1253374670297 93.47818549128607 309.2664140200191 92.6882441108515 310.47316212402063 91.93008040711797 311.67991022802215 91.17191670338443 312.97583300953715 90.36078119286677 314.2717557910522 89.54964568234912 315.5856564304818 88.8643429833245 316.8995570699113 88.17904028429989 319.2447315905248 87.01007024120966 321.58990611113836 85.84110019811945 323.08362753591587 85.19574219428705 324.5773489606933 84.55038419045464 326.4186169230506 84.37004637504697 328.25988488540787 84.18970855963929 329.5720405217577 84.22735695711798 330.8841961581075 84.26500535459667 332.3474715602015 84.61683187765146 333.8107469622954 84.96865840070626 334.9252230601378 84.02817110675085 336.0396991579802 83.08768381279545 336.1824112866354 81.63604112276104 336.3251234152906 80.18439843272664 336.6215433027766 78.66724413156734 336.91796319026264 77.15008983040806 337.0552316499385 74.66964880930152 337.19250010961434 72.18920778819499 337.29980913031136 70.65045184111077 337.4071181510084 69.11169589402654 337.5209050600278 66.85666112800348 337.63469196904725 64.60162636198042 337.854699950724 61.10012048821748 338.07470793240077 57.59861461445453 337.98514657180533 52.93055730722727 337.89558521120983 48.2625 337.7720647340255 44.38125 337.64854425684115 40.5 337.67975952777397 40.24292737784509 337.7109747987068 39.985854755690184 337.802806378492 39.74372320641342 337.8946379582772 39.50159165713666 338.04174859118297 39.28847387775852 338.18885922408873 39.075356098380375 338.3826988332187 38.9036385042516 338.5765384423486 38.731920910122824 338.8058410605125 38.6115837358823 339.0351436786764 38.49124656164177 339.2865822269328 38.42928380951038 339.53802077518924 38.36732105737899 339.7969816332998 38.3673340054219 340.0559424914104 38.36734695346482 340.30737484213444 38.429334849141185 340.5588071928585 38.49132274481755 340.78809777615845 38.61168284871817 341.01738835945844 38.732042952618784 341.21121079585976 38.90377992984985 341.4050332322611 39.07551690708092 341.5521225526534 39.288649396456734 341.6992118730457 39.50178188583256 341.7910192392169 39.743922617056626 341.88282660538806 39.98606334828069 341.91401616890266 40.24313909067732 341.9452057324172 40.500214833073954 341.945205737788 40.50010741653698" stroke-opacity="0" fill="black" /></g><g id="4"><path d="M 352.7804225355824 83.00437011070065 Q 352.7804225355824 83.00437011070065 344.71653007484906 85.5486491302429 336.6526376141157 88.09292814978515 326.89502198203104 91.17419486104774 317.13740634994633 94.25546157231032 309.40547951197743 96.84546034087614 301.6735526740086 99.43545910944198 293.8216025869385 102.67175344752388 285.9696524998685 105.9080477856058 274.7836425470007 109.17762345194316 263.5976325941328 112.44719911828054 255.71452936981194 114.8275536013239 247.8314261454911 117.20790808436728 241.3069717399465 119.08266104180808 234.78251733440192 120.95741399924887 228.12174496308654 122.76017841768319 221.46097259177114 124.56294283611751 215.4853595505358 126.32886734235402 209.50974650930044 128.09479184859052 203.94196877202342 129.70942372001954 198.37419103474642 131.32405559144857 193.58273531705822 132.8663068124299 188.79127959937003 134.40855803341128 185.02504504885462 135.63988278671746 181.25881049833922 136.87120754002365 177.6317674182951 137.97350172702235 174.00472433825098 139.07579591402106 170.45032156643293 140.1190014389904 166.8959187946149 141.16220696395976 164.13112423542117 142.16743514492447 161.36632967622742 143.17266332588918 158.84225984815134 143.9052892615648 156.3181900200753 144.63791519724043 154.69962976247083 145.16216831044233 153.08106950486638 145.6864214236442 151.89968679756316 146.21455742065274 150.71830409025995 146.7426934176613 149.41051281843255 147.17370516064778 148.10272154660512 147.60471690363428 146.2604313103833 148.36315356343368 144.41814107416147 149.12159022323308 143.13582268708166 149.74150269590893 141.85350430000184 150.36141516858476 139.89037673033368 149.93324508583834 137.92724916066553 149.50507500309195 137.62321562037818 147.33467639830974 137.3191820800908 145.1642777935275 137.9116695292534 143.0796702690241 138.50415697841598 140.99506274452068 139.45120030016767 139.13612246622375 140.39824362191933 137.27718218792683 141.86069954091792 135.7472993187007 143.3231554599165 134.21741644947454 144.51083891835802 133.57304450682062 145.69852237679953 132.92867256416667 147.26098219694268 131.95452255438013 148.8234420170858 130.9803725445936 150.69177405359187 130.25170586026633 152.56010609009797 129.5230391759391 155.96405340908825 127.59000150760275 159.36800072807853 125.65696383926641 162.98997057528126 122.55757040510514 166.611940422484 119.45817697094387 172.70284425358338 114.37416978034452 178.79374808468276 109.29016258974517 188.36396058592007 102.93239421291776 197.93417308715738 96.57462583609035 204.858187845525 92.04186292813151 211.78220260389264 87.50910002017268 218.81671708050646 83.83415635401144 225.8512315571203 80.15921268785019 235.47813050647818 76.01212261947573 245.10502945583605 71.86503255110128 253.9599427326221 68.6666278382668 262.8148560094081 65.46822312543232 269.2935951845333 63.11454366360617 275.7723343596585 60.76086420178003 280.97453864609406 58.90027608132293 286.1767429325296 57.03968796086583 291.2806383307088 55.383223890951214 296.384533728888 53.726759821036595 300.8866597495361 52.58444910960732 305.3887857701842 51.44213839817804 309.33181783899545 50.667896559685985 313.2748499078067 49.89365472119393 316.4293610880628 49.560513794692625 319.5838722683189 49.22737286819132 321.639336002831 49.036306241648084 323.69479973734303 48.84523961510485 325.1503648522382 48.71025885670559 326.6059299671335 48.575278098306335 328.467010346845 48.58841969723072 330.3280907265564 48.6015612961551 331.5848077085019 49.46049990088708 332.84152469044744 50.31943850561906 333.52126453279305 51.90275403832878 334.20100437513867 53.48606957103849 334.8121207708157 55.33108617628142 335.4232371664927 57.17610278152435 335.4863917948606 57.517782932178406 335.5495464232285 57.85946308283246 335.50029255395464 58.20342222109866 335.45103868468084 58.547381359364856 335.29453321088 58.85760687267033 335.1380277370792 59.1678323859758 334.89065682317175 59.41184358118588 334.64328590926425 59.655854776395955 334.3309493552358 59.80810361695945 334.01861280120744 59.960352457522944 333.6740123267137 60.004898449643065 333.32941185221995 60.04944444176318 332.9886272179061 59.98162360830595 332.64784258359225 59.91380277484872 332.3465540306293 59.74071597498006 332.04526547766636 59.56762917511141 331.815017997082 59.30739864246807 331.5847705164977 59.04716810982473 331.44967108028857 58.72704004986865 331.3145716440795 58.40691198991256 331.28876519887945 58.06040389502673 331.26295875367947 57.713895800140904 331.3491472411132 57.37728715932913 331.435335728547 57.04067851851736 331.6244951912287 56.74921234532869 331.81365465391036 56.45774617214002 332.0859800461639 56.241939051846906 332.35830543841746 56.02613193155379 332.68528421978704 55.90857892661846 333.01226300115667 55.791025921683136 333.35966040691886 55.78403486275331 333.70705781268106 55.77704380382348 334.03850124274857 55.88134665661457 334.3699446728161 55.98564950940565 334.65073191256823 56.19032573769714 334.9315191523204 56.39500196598862 335.13225170363455 56.67862191464911 335.33298425494866 56.962241863309615 335.4326453667139 57.295110448845975 335.53230647847926 57.62797903438233 335.5204616059859 57.97524482802012 335.5086167334925 58.322510621657905 335.3865060380173 58.64781480313398 335.264395342542 58.97311898461005 335.0448038461352 59.24240212025191 334.8252123497285 59.51168525589377 334.5311313400305 59.69675333031586 334.2370503303326 59.88182140473794 333.89927016668867 59.963297741695044 333.5614900030447 60.044774078652146 333.2153763577536 60.014128084157186 332.86926271246256 59.983482089662225 332.5510537755514 59.84392240742858 332.2328448386403 59.70436272519494 331.9758571698027 59.47050129079266 331.7188695009651 59.23663985639038 331.55000977696653 58.9329620237348 331.38115005296794 58.62928419107922 331.3812590415745 58.62958734761501 331.381368030181 58.629890504150794 330.87904353111617 56.85147665527627 330.3767190320513 55.073062806401744 329.9532213506769 53.53903308080798 329.5297236693026 52.005003355214214 328.1298843655733 51.80223882601605 326.7300450618439 51.599474296817895 325.3053506375179 51.582708393943854 323.88065621319186 51.56594249106981 321.86492103188937 51.65302846576238 319.8491858505868 51.74011444045495 316.80675840539675 52.061450222743765 313.7643309602066 52.38278600503258 309.8910368514975 53.14848936369375 306.0177427427884 53.91419272235492 301.59910128691797 55.042341298344994 297.1804598310476 56.17048987433506 292.11784351977144 57.82687118658362 287.05522720849535 59.48325249883218 281.865639237389 61.35877115993549 276.6760512662826 63.23428982103881 270.20351454130923 65.61262631582541 263.7309778163358 67.990962810612 254.9652419164192 71.19141917216044 246.19950601650262 74.39187553370886 236.68958337361903 78.53622328741186 227.1796607307354 82.68057104111486 220.3040067550163 86.33842225042997 213.4283527792972 89.9962734597451 206.56373588511678 94.5994984940836 199.69911899093637 99.2027235284221 190.35490407441358 105.54727972170606 181.0106891578908 111.89183591499003 175.06764612367226 117.07800418347622 169.12460308945373 122.26417245196242 165.40199207708494 125.74166245094364 161.67938106471615 129.21915244992485 158.11397073725973 131.58125051710707 154.54856040980331 133.94334858428928 152.3273079047206 134.98091556667072 150.1060553996379 136.01848254905218 148.3391447621726 137.10305496753796 146.57223412470728 138.1876273860237 145.53546771748051 139.1681467111543 144.49870131025375 140.14866603628485 143.6265206805848 141.76254067484172 142.75434005091583 143.37641531339858 142.349674227687 144.62164058366432 141.94500840445815 145.86686585393008 143.46100648630645 145.35074003557122 144.97700456815474 144.8346142172124 147.3008754178801 144.33836878202322 149.62474626760542 143.84212334683403 150.97965497885818 143.41292950806002 152.33456369011094 142.983735669286 153.9778655938147 142.60838916888184 155.62116749751846 142.2330426684777 158.06618510781465 141.52543421919796 160.51120271811087 140.81782576991822 163.35014330802835 139.78720833922324 166.1890838979458 138.75659090852827 169.7317050063894 137.71545381782775 173.274326114833 136.67431672712723 176.87557451775746 135.57815770078506 180.47682292068194 134.48199867444288 184.24774480068083 133.24637469047642 188.01866668067973 132.01075070650995 192.8440496230252 130.45429901626153 197.66943256537067 128.89784732601314 203.2295104987611 127.28023705337213 208.78958843215156 125.66262678073113 214.7912828513102 123.88209918327345 220.79297727046887 122.10157158581578 227.4317518647864 120.29503693673438 234.07052645910397 118.48850228765298 240.57441785504864 116.60608096858621 247.0783092509933 114.72365964951943 254.96778438311776 112.32242759960383 262.8572595152422 109.9211955496882 273.90084569518683 106.67527349141619 284.9444318751315 103.42935143314419 292.8680021005614 100.1291805368511 300.79157232599135 96.82900964055801 308.53145798802245 94.18614903412384 316.2713436500536 91.54328842768966 326.00622801796897 88.40018013895225 335.74111238588426 85.25707185021484 343.7772199251509 82.62635086975709 351.8133274644176 79.99562988929935 352.0003686998796 79.95962634907806 352.1874099353416 79.92362280885678 352.37763222815414 79.933428826843 352.5678545209667 79.9432348448292 352.750202142534 79.99828049479683 352.9325497641013 80.05332614476447 353.09642466209027 80.15041217095109 353.26029956007926 80.2474981971377 353.3961773177192 80.38098195513976 353.53205507535915 80.51446571314183 353.6320384709918 80.67658912067256 353.73202186662445 80.83871252820327 353.79029986059794 81.02005296519965 353.84857785457143 81.20139340219602 353.86176332713785 81.39141135393956 353.8749487997043 81.5814293056831 353.8422754105786 81.76908091989051 353.8096020214529 81.95673253409794 353.7329687495462 82.13111149013473 353.65633547763946 82.30549044617152 353.5401962523156 82.45646183091966 353.42405702699165 82.6074332156678 353.27516186548314 82.72622256515237 353.12626670397464 82.84501191463694 352.9532694000642 82.9247151862846 352.7802720961538 83.00441845793227 352.7803473158681 83.00439428431646" stroke-opacity="0" fill="black" /></g><g id="5"><path d="M 486.94325421670356 59.05807713196894 Q 486.94325421670356 59.05807713196894 491.0934098479968 60.9682439367815 495.24356547929 62.87841074159405 499.70600934093704 64.69745724535935 504.16845320258415 66.51650374912462 508.4641199906285 67.860154598418 512.7597867786728 69.20380544771137 516.612473043425 70.36291304077972 520.4651593081771 71.52202063384804 524.4298350295257 72.8912507170185 528.3945107508744 74.26048080018894 533.1694336917575 75.40002336854513 537.9443566326406 76.53956593690131 544.1134308929409 77.45482519591283 550.282505153241 78.37008445492437 556.3546906942008 79.05007180046957 562.4268762351606 79.73005914601475 568.1412905938387 80.01864650845138 573.8557049525168 80.30723387088801 579.301948392118 80.4316094755379 584.7481918317192 80.5559850801878 590.4961433080597 80.46604061156005 596.2440947844002 80.3760961429323 601.3989988813034 80.05211423196133 606.5539029782066 79.72813232099035 610.3063387987733 79.30583493315237 614.0587746193399 78.8835375453144 616.5711234266906 78.14849719983856 619.0834722340413 77.41345685436272 620.4963240754403 77.00197604120204 621.9091759168392 76.59049522804136 622.5222689834645 76.89858800794092 623.1353620500898 77.20668078784047 622.8643415452007 77.15827042688952 622.5933210403114 77.10986006593858 622.3519464715313 76.97744407497058 622.1105719027512 76.84502808400256 621.9241152511482 76.64247045222628 621.7376585995453 76.43991282044999 621.625641925762 76.18842138538241 621.5136252519787 75.93692995031485 621.4877767313299 75.66283593159486 621.461928210681 75.38874191287486 621.5249541901017 75.12074302661622 621.5879801695224 74.8527441403576 621.7332818123302 74.61889994069644 621.878583455138 74.38505574103527 622.090947640975 74.209849777405 622.303311826812 74.03464381377471 622.5605039693622 73.93642019681727 622.8176961119125 73.83819657985981 623.092788125959 73.82723934819917 623.3678801400055 73.81628211653853 623.6320698190602 73.893738495222 623.896259498115 73.97119487390546 624.1218861130417 74.12895515963837 624.3475127279684 74.28671544537127 624.5109531126245 74.50826209459272 624.6743934972808 74.72980874381417 624.7585354002488 74.99194576386805 624.8426773032169 75.2540827839219 624.8387110450449 75.5293643596111 624.8347447868728 75.80464593530029 624.7430856358382 76.06425001298287 624.6514264848036 76.32385409066545 624.4816711782153 76.54060005487923 624.3119158716271 76.757346019093 624.0818378348962 76.90854051016943 623.8517597981653 77.05973500124585 623.585448262472 77.12954791605775 623.3191367267789 77.19936083086964 623.0444745802099 77.18048273880737 622.7698124336408 77.1616046467451 622.5155568754456 77.05601208903093 622.2613013172503 76.95041953131677 622.0540729714887 76.76916807661709 621.8468446257272 76.58791662191743 621.7083403549036 76.34998334538506 621.56983608408 76.11205006885268 621.5145573219111 75.84234664734882 621.4592785597423 75.57264322584496 621.4930130072194 75.29940767879586 621.5267474546965 75.02617213174675 621.6459631062638 74.77801229305562 621.7651787578311 74.5298524543645 621.9573937032994 74.33275072465014 622.1496086487679 74.13564899493579 622.3946979326071 74.01024197732912 622.6397872164463 73.88483495972244 622.912089925941 73.84425280207108 623.1843926354358 73.80367064441974 623.1841374096731 73.80366696712582 623.1838821839104 73.80366328983189 624.3329569121395 76.0452406731375 625.4820316403685 78.2868180564431 624.0155802470243 78.82322443807183 622.5491288536801 79.35963081970056 621.1644736280775 79.59088233295351 619.7798184024749 79.82213384620647 617.0627388168807 80.59940485699802 614.3456592312865 81.37667586778957 610.5288517743359 81.80687578881603 606.7120443173852 82.2370757098425 601.4981407024829 82.56602864325845 596.2842370875805 82.8949815766744 590.4879351243785 82.98841321248646 584.6916331611765 83.08184484829853 579.210221448913 82.96122305163033 573.7288097366495 82.84060125496214 567.9369766791754 82.55272414370916 562.1451436217013 82.26484703245617 556.0261587717149 81.58844738108462 549.9071739217285 80.91204772971308 543.6264354974492 79.98874934892052 537.34569707317 79.06545096812798 532.4445901679837 77.90838732518046 527.5434832627975 76.75132368223292 523.6233828757477 75.42265679762994 519.7032824886978 74.09398991302696 515.8270837925124 72.9639281701578 511.95088509632706 71.83386642728863 507.53152844687145 70.49711883908199 503.11217179741584 69.16037125087537 498.56867815906287 67.37848025464066 494.02518452070996 65.59658925840594 489.8378401520032 63.7692560632185 485.65049578329644 61.94192286803106 485.48734493170093 61.843624962177074 485.3241940801055 61.7453270563231 485.18930935889273 61.61083991695665 485.05442463768 61.47635277759019 484.9556455531844 61.31349280357011 484.85686646868885 61.15063282955002 484.7999340659424 60.968865450218274 484.74300166319597 60.787098070886536 484.7312248561213 60.596987614870216 484.7194480490466 60.40687715885389 484.75351130622414 60.21947285478895 484.78757456340173 60.032068550724006 484.86549812672394 59.85826234556786 484.94342169004614 59.68445614041171 485.0606766383514 59.53434965897428 485.17793158665677 59.38424317753685 485.3277030568405 59.266560615572004 485.4774745270243 59.14887805360716 485.6510577942024 59.07045912714559 485.8246410613805 58.992040200684016 486.0119474579088 58.957442621416156 486.1992538544371 58.922845042148296 486.3893971237488 58.93407962300677 486.5795403930605 58.94531420386523 486.76146939940935 59.00172799048268 486.9433984057582 59.05814177710012 486.94332631123086 59.05810945453453" stroke-opacity="0" fill="black" /></g><g id="6"><path d="M 585.8569161272382 80.9266735212064 Q 585.8569161272382 80.9266735212064 585.5130548915299 82.64221881757865 585.1691936558216 84.35776411395089 584.8363320771375 86.15816044032161 584.5034704984535 87.95855676669234 584.2361766755248 89.49081487234125 583.968882852596 91.02307297799017 583.4823591028821 92.85273197312401 582.9958353531682 94.68239096825785 581.5349085336629 95.47152523834484 580.0739817141576 96.26065950843184 578.544605310092 96.75459755384429 577.0152289060263 97.24853559925675 577.0621161132777 95.68057709770146 577.1090033205292 94.11261859614616 577.5072675127437 94.37969062845846 577.9055317049582 94.64676266077076 578.1976675873857 95.0270237072139 578.4898034698132 95.40728475365704 578.6452243384472 95.86092138228926 578.8006452070811 96.31455801092147 578.8030784559483 96.79407434697654 578.8055117048154 97.2735906830316 578.6547025721172 97.72878123954453 578.5038934394191 98.18397179605745 578.2156316811588 98.56717800160268 577.9273699228985 98.95038420714793 577.5318366212596 99.2214842708483 577.1363033196207 99.49258433454867 576.6749109156954 99.62319400817125 576.2135185117701 99.75380368179384 575.7345749120452 99.73024809803276 575.2556313123205 99.70669251427168 574.809282038116 99.5314379489648 574.3629327639115 99.3561833836579 573.9959107020616 99.04757903605555 573.6288886402115 98.7389746884532 573.379621097476 98.32933151521297 573.1303535547405 97.91968834197276 573.0249389086441 97.45189609146821 572.9195242625477 96.98410384096367 572.9689994543636 96.5071404853078 573.0184746461795 96.03017712965193 573.2176596102643 95.593980858088 573.4168445743489 95.15778458652407 573.7448845923832 94.80802526382945 574.0729246104175 94.45826594113483 574.4954738059189 94.23156346072315 574.9180230014204 94.00486098031146 575.3908403620778 93.92495115172545 575.8636577227353 93.84504132313945 576.3372391460762 93.92029072652622 576.8108205694172 93.995540129913 577.2355819554045 94.21807013287405 577.6603433413918 94.4406001358351 577.9918120607865 94.78711178831819 578.3232807801812 95.13362344080127 578.5267519705635 95.56783688132121 578.7302231609457 96.00205032184115 578.7843933349711 96.47850328855432 578.8385635089967 96.95495625526748 578.7377610351455 97.4237639967876 578.6369585612944 97.89257173830772 578.391737485188 98.30464996034445 578.1465164090815 98.71672818238116 577.7825514421204 99.02893218630913 577.4185864751591 99.34113619023712 576.9739848454615 99.52077813443125 576.5293832157637 99.70042007862537 576.0506948313223 99.72869140410765 575.5720064468808 99.75696272958994 575.1093501079081 99.63090342111948 574.6466937689353 99.50484411264901 574.647098185852 99.50502878586676 574.6475026027688 99.50521345908452 575.0447196924056 95.68654796870811 575.4419367820424 91.86788247833172 577.0107786388779 91.84511643126652 578.5796204957135 91.82235038420133 578.9105726395537 90.41549401895217 579.241524783394 89.00863765370302 579.4551677674702 87.67132169350535 579.6688107515465 86.33400573330766 579.9716835478624 84.9381208096784 580.2745563441783 83.54223588604911 580.50569510847 81.80778118242137 580.7368338727618 80.0733264787936 580.8250877223566 79.77318751839726 580.9133415719514 79.47304855800091 581.0708609589601 79.20275283063461 581.2283803459688 78.93245710326832 581.4460102362177 78.70771420930639 581.6636401264665 78.48297131534446 581.9287318605088 78.31684332234346 582.1938235945511 78.15071532934246 582.490970028349 78.0528576040611 582.788116462147 77.95499987877974 583.1000474310069 77.93109991680922 583.4119783998668 77.90719995483867 583.7205644612226 77.95864682309161 584.0291505225783 78.01009369134457 584.3164566400451 78.13389729542092 584.6037627575117 78.25770089949727 584.8530906860433 78.4466657681112 585.1024186145747 78.63563063672514 585.2992774032501 78.87877412283436 585.4961361919255 79.12191760894358 585.6290843986976 79.40510820171136 585.7620326054698 79.68829879447914 585.8233432743145 79.99507744334817 585.8846539431592 80.3018560922172 585.8707636951226 80.61439280770125 585.856873447086 80.92692952318532 585.856894787162 80.92680152219586" stroke-opacity="0" fill="black" /></g><g id="7"><path d="M 572.2441321419815 85.00194725214105 Q 572.2441321419815 85.00194725214105 569.5989222957332 88.69954853958853 566.953712449485 92.397149827036 564.3535301818285 95.71068686116067 561.753347914172 99.02422389528532 558.2433705435699 104.66241106122109 554.7333931729679 110.30059822715685 551.1891194539548 115.61189351603068 547.6448457349419 120.9231888049045 544.9981514514461 125.16305335027451 542.3514571679503 129.40291789564452 540.3494121506969 132.51092598887544 538.3473671334434 135.6189340821064 537.0861370490379 137.90277516475214 535.8249069646323 140.18661624739792 534.8916567558337 141.92955492134024 533.958406547035 143.67249359528253 532.9869033772161 145.63848429464582 532.0154002073972 147.60447499400908 531.5573164875906 148.80633643594183 531.099232767784 150.00819787787458 531.0340222878622 150.28617743629576 530.9688118079403 150.56415699471694 530.8182530817842 150.80676184126776 530.6676943556282 151.04936668781855 530.4475509216102 151.23119603102361 530.227407487592 151.4130253742287 529.9607284213657 151.51504163385624 529.6940493551396 151.61705789348375 529.4087560253356 151.62857994022102 529.1234626955315 151.6401019869583 528.8494253890904 151.5599234594704 528.5753880826492 151.4797449319825 528.341298577894 151.3162605432625 528.1072090731388 151.15277615454252 527.9375766030112 150.92310276324508 527.7679441328835 150.69342937194764 527.6805292617844 150.42161384276952 527.5931143906853 150.1497983135914 527.597069478694 149.8642998041898 527.6010245667027 149.57880129478824 527.6959355150607 149.30951157446188 527.7908464634188 149.04022185413552 527.966776070779 148.8153356276881 528.1427056781392 148.59044940124073 528.3812340681701 148.43351231594553 528.619762458201 148.27657523065034 528.895915645501 148.20401864076513 529.1720688328008 148.1314620508799 529.4569335057621 148.1508826505187 529.7417981787233 148.1703032501575 530.00554893089 148.27966769741164 530.2692996830567 148.38903214466575 530.4843217410535 148.5768899530383 530.6993437990501 148.7647477614108 530.8431242966444 149.01143016877546 530.9869047942386 149.25811257614015 531.0443898753779 149.53779186932803 531.1018749565171 149.81747116251594 531.0670459180315 150.10086484570215 531.0322168795459 150.38425852888835 530.9087203309589 150.6416952086346 530.7852237823719 150.89913188838082 530.5859898449205 151.10365787636098 530.386755907469 151.30818386434115 530.1326444269969 151.43838523562408 529.8785329465248 151.56858660690702 529.5961494621165 151.6108312435496 529.313765977708 151.65307588019218 529.032676114723 151.6029407575864 528.7515862517379 151.55280563498064 528.5012201930311 151.41553991369773 528.2508541343244 151.2782741924148 528.0574252723328 151.06824962970774 527.8639964103412 150.85822506700066 527.7477567979755 150.59743129002592 527.6315171856098 150.3366375130512 527.6046371409691 150.05237969910092 527.5777570963282 149.76812188515066 527.5777390906287 149.768385995828 527.5777210849291 149.76865010650533 528.3531750021418 147.80798786881974 529.1286289193546 145.84732563113414 530.320475118345 144.06298868268215 531.5123213173355 142.27865173423012 532.5252620167873 140.6061887193133 533.5382027162392 138.93372570439652 534.8268335924233 136.56368046031497 536.1154644686073 134.19363521623345 538.0836805350941 131.0866166583413 540.0518966015808 127.97959810044921 542.6881695739444 123.68410581964736 545.324442546308 119.3886135388455 548.79891531167 114.08730453084432 552.273388077032 108.78599552284314 555.8075200814301 102.9827608137789 559.3416520858281 97.17952610471467 561.8158448181716 93.86618813883933 564.2900375505151 90.55285017296399 566.8198277042668 86.77545146041146 569.3496178580185 82.99805274785895 569.4905410990648 82.83942999641772 569.6314643401109 82.6808072449765 569.8062544423119 82.56052026598726 569.9810445445128 82.44023328699804 570.179542698916 82.3652731653313 570.3780408533191 82.29031304366457 570.5887103378643 82.26503646511358 570.7993798224095 82.2397598865626 571.0099765167565 82.26563592706037 571.2205732111036 82.29151196755815 571.4188572254823 82.36703671041516 571.617141239861 82.44256145327219 571.7915882980394 82.56334539688508 571.9660353562177 82.68412934049798 572.106506586978 82.84315251638895 572.2469778177383 83.00217569227995 572.3453090265486 83.19019566599457 572.443640235359 83.37821563970918 572.4941164077434 83.58430468154106 572.5445925801279 83.79039372337293 572.5442800385756 84.00257392852774 572.5439674970235 84.21475413368255 572.4928844064643 84.42069357866745 572.4418013159053 84.62663302365236 572.3429166279627 84.81436249824881 572.2440319400201 85.00209197284526 572.2440820410009 85.00201961249316" stroke-opacity="0" fill="black" /></g></svg>