<svg id="drawingSvg" xmlns="http://www.w3.org/2000/svg" version="1.1" xmlns:xlink="http://www.w3.org/1999/xlink" xmlns:svgjs="http://svgjs.com/svgjs" width="100%" height="700"><g><path d="M220.3515625 169.5 "></path><path d="M220.3515625,169.5 L221,170 " stroke-width="0.6000000000000001"></path><path d="M221,170 L221,169 " stroke-width="0.6000000000000001"></path><path d="M221,169 L220,168 " stroke-width="0.7000000000000001"></path><path d="M220,168 L219,167 " stroke-width="0.8"></path><path d="M219,167 L214,164 " stroke-width="0.8999999999999999"></path><path d="M214,164 L213,164 " stroke-width="0.8999999999999999"></path><path d="M213,164 L210,162 " stroke-width="0.9999999999999999"></path><path d="M210,162 L210,161 " stroke-width="1.0999999999999999"></path><path d="M210,161 L209,160 " stroke-width="1.1999999999999997"></path><path d="M209,160 L209,159 " stroke-width="1.2999999999999998"></path><path d="M209,159 L209,157 " stroke-width="1.4"></path><path d="M209,157 L209,154 " stroke-width="1.4"></path><path d="M209,154 L209,149 " stroke-width="1.5"></path><path d="M209,149 L209,148 " stroke-width="1.6"></path><path d="M209,148 L210,146 " stroke-width="1.6"></path><path d="M210,146 L214,142 " stroke-width="1.7000000000000002"></path><path d="M214,142 L216,140 " stroke-width="1.8000000000000003"></path><path d="M216,140 L219,136 " stroke-width="1.9000000000000004"></path><path d="M219,136 L221,135 " stroke-width="1.9000000000000004"></path><path d="M221,135 L222,134 " stroke-width="2.0000000000000004"></path><path d="M222,134 L225,132 " stroke-width="2.1000000000000005"></path><path d="M225,132 L226,131 " stroke-width="2.1000000000000005"></path><path d="M226,131 L231,130 " stroke-width="2.2000000000000006"></path><path d="M231,130 L233,130 " stroke-width="2.3000000000000007"></path><path d="M233,130 L235,130 " stroke-width="2.400000000000001"></path><path d="M235,130 L241,130 " stroke-width="2.400000000000001"></path><path d="M241,130 L242,130 " stroke-width="2.5000000000000004"></path><path d="M242,130 L249,130 " stroke-width="2.6000000000000005"></path><path d="M249,130 L253,127 " stroke-width="2.7000000000000006"></path><path d="M253,127 L254,127 " stroke-width="2.7000000000000006"></path><path d="M254,127 L262,127 " stroke-width="2.900000000000001"></path><path d="M262,127 L268,127 " stroke-width="3.000000000000001"></path><path d="M268,127 L272,126 " stroke-width="3.000000000000001"></path><path d="M272,126 L275,126 " stroke-width="3.100000000000001"></path><path d="M275,126 L282,126 " stroke-width="3.200000000000001"></path><path d="M282,126 L285,126 " stroke-width="3.200000000000001"></path><path d="M285,126 L293,126 " stroke-width="3.300000000000001"></path><path d="M293,126 L300,126 " stroke-width="3.4000000000000012"></path><path d="M300,126 L303,126 " stroke-width="3.5000000000000013"></path><path d="M303,126 L314,126 " stroke-width="3.5000000000000013"></path><path d="M314,126 L318,126 " stroke-width="3.6000000000000014"></path><path d="M318,126 L331,126 " stroke-width="3.7000000000000015"></path><path d="M331,126 L341,126 " stroke-width="3.8000000000000016"></path><path d="M341,126 L346,126 " stroke-width="3.8000000000000016"></path><path d="M346,126 L362,126 " stroke-width="3.9000000000000017"></path><path d="M362,126 L368,126 " stroke-width="3.9000000000000017"></path><path d="M368,126 L388,126 " stroke-width="4.000000000000002"></path><path d="M388,126 L403,127 " stroke-width="4.100000000000002"></path><path d="M403,127 L412,128 " stroke-width="4.200000000000002"></path><path d="M412,128 L437,131 " stroke-width="4.3000000000000025"></path><path d="M437,131 L446,132 " stroke-width="4.3000000000000025"></path><path d="M446,132 L473,134 " stroke-width="4.400000000000002"></path><path d="M473,134 L493,134 " stroke-width="4.500000000000003"></path><path d="M493,134 L503,134 " stroke-width="4.500000000000003"></path><path d="M503,134 L535,134 " stroke-width="4.600000000000002"></path><path d="M535,134 L547,134 " stroke-width="4.700000000000003"></path><path d="M547,134 L584,134 " stroke-width="4.8000000000000025"></path></g><g><path d="M610.3515625 90.5 "></path><path d="M610.3515625,90.5 L610,90 " stroke-width="0.4"></path><path d="M610,90 L613,90 " stroke-width="0.5"></path><path d="M613,90 L617,89 " stroke-width="0.6000000000000001"></path><path d="M617,89 L618,89 " stroke-width="0.6000000000000001"></path><path d="M618,89 L623,89 " stroke-width="0.7000000000000001"></path><path d="M623,89 L624,89 " stroke-width="0.7000000000000001"></path><path d="M624,89 L631,89 " stroke-width="0.8"></path><path d="M631,89 L634,89 " stroke-width="0.8999999999999999"></path><path d="M634,89 L639,89 " stroke-width="0.9999999999999999"></path><path d="M639,89 L642,89 " stroke-width="1.0999999999999999"></path><path d="M642,89 L644,89 " stroke-width="1.0999999999999999"></path><path d="M644,89 L648,89 " stroke-width="1.1999999999999997"></path><path d="M648,89 L650,89 " stroke-width="1.2999999999999998"></path><path d="M650,89 L652,89 " stroke-width="1.4"></path><path d="M652,89 L654,89 " stroke-width="1.5"></path><path d="M654,89 L657,90 " stroke-width="1.6"></path><path d="M657,90 L658,90 " stroke-width="1.6"></path><path d="M658,90 L661,91 " stroke-width="1.7000000000000002"></path><path d="M661,91 L662,92 " stroke-width="1.8000000000000003"></path><path d="M662,92 L664,92 " stroke-width="1.9000000000000004"></path></g><g><path d="M635.3515625 99.5 "></path><path d="M635.3515625,99.5 L635,103 " stroke-width="0.1"></path><path d="M635,103 L635,104 " stroke-width="0.1"></path><path d="M635,104 L635,107 " stroke-width="0.2"></path><path d="M635,107 L635,109 " stroke-width="0.3"></path><path d="M635,109 L635,113 " stroke-width="0.4"></path><path d="M635,113 L635,115 " stroke-width="0.5"></path><path d="M635,115 L635,116 " stroke-width="0.5"></path><path d="M635,116 L635,119 " stroke-width="0.6000000000000001"></path><path d="M635,119 L635,121 " stroke-width="0.6000000000000001"></path><path d="M635,121 L636,124 " stroke-width="0.7000000000000001"></path><path d="M636,124 L636,126 " stroke-width="0.8999999999999999"></path><path d="M636,126 L636,130 " stroke-width="0.8999999999999999"></path><path d="M636,130 L636,131 " stroke-width="0.9999999999999999"></path><path d="M636,131 L636,136 " stroke-width="0.9999999999999999"></path><path d="M636,136 L636,139 " stroke-width="1.0999999999999999"></path><path d="M636,139 L636,142 " stroke-width="1.1999999999999997"></path><path d="M636,142 L636,145 " stroke-width="1.2999999999999998"></path><path d="M636,145 L636,146 " stroke-width="1.2999999999999998"></path><path d="M636,146 L636,150 " stroke-width="1.4"></path><path d="M636,150 L636,151 " stroke-width="1.6"></path></g><g><path d="M661.3515625 141.5 "></path><path d="M661.3515625,141.5 L662,141 " stroke-width="0.1"></path><path d="M662,141 L663,139 " stroke-width="0.1"></path><path d="M663,139 L664,139 " stroke-width="0.2"></path><path d="M664,139 L668,138 " stroke-width="0.3"></path><path d="M668,138 L670,137 " stroke-width="0.3"></path><path d="M670,137 L673,133 " stroke-width="0.4"></path><path d="M673,133 L676,130 " stroke-width="0.5"></path><path d="M676,130 L679,128 " stroke-width="0.6000000000000001"></path><path d="M679,128 L681,126 " stroke-width="0.6000000000000001"></path><path d="M681,126 L684,125 " stroke-width="0.7000000000000001"></path><path d="M684,125 L688,120 " stroke-width="0.8"></path><path d="M688,120 L690,118 " stroke-width="0.8999999999999999"></path><path d="M690,118 L693,116 " stroke-width="0.8999999999999999"></path><path d="M693,116 L697,111 " stroke-width="0.9999999999999999"></path><path d="M697,111 L698,109 " stroke-width="1.0999999999999999"></path><path d="M698,109 L702,103 " stroke-width="1.1999999999999997"></path><path d="M702,103 L704,100 " stroke-width="1.1999999999999997"></path><path d="M704,100 L704,99 " stroke-width="1.2999999999999998"></path><path d="M704,99 L706,93 " stroke-width="1.4"></path><path d="M706,93 L706,91 " stroke-width="1.4"></path><path d="M706,91 L707,85 " stroke-width="1.5"></path><path d="M707,85 L707,82 " stroke-width="1.6"></path><path d="M707,82 L707,80 " stroke-width="1.7000000000000002"></path><path d="M707,80 L707,75 " stroke-width="1.8000000000000003"></path><path d="M707,75 L707,73 " stroke-width="1.8000000000000003"></path><path d="M707,73 L707,70 " stroke-width="1.9000000000000004"></path><path d="M707,70 L707,69 " stroke-width="2.0000000000000004"></path><path d="M707,69 L707,67 " stroke-width="2.1000000000000005"></path><path d="M707,67 L707,68 " stroke-width="2.8000000000000007"></path><path d="M707,68 L701,77 " stroke-width="2.900000000000001"></path><path d="M701,77 L698,83 " stroke-width="3.000000000000001"></path><path d="M698,83 L697,86 " stroke-width="3.100000000000001"></path><path d="M697,86 L696,89 " stroke-width="3.200000000000001"></path><path d="M696,89 L692,98 " stroke-width="3.200000000000001"></path><path d="M692,98 L692,100 " stroke-width="3.300000000000001"></path><path d="M692,100 L689,108 " stroke-width="3.4000000000000012"></path><path d="M689,108 L688,114 " stroke-width="3.5000000000000013"></path><path d="M688,114 L686,116 " stroke-width="3.5000000000000013"></path><path d="M686,116 L684,122 " stroke-width="3.6000000000000014"></path><path d="M684,122 L684,125 " stroke-width="3.7000000000000015"></path><path d="M684,125 L684,130 " stroke-width="3.7000000000000015"></path><path d="M684,130 L684,133 " stroke-width="3.8000000000000016"></path><path d="M684,133 L684,136 " stroke-width="3.9000000000000017"></path><path d="M684,136 L684,142 " stroke-width="4.000000000000002"></path><path d="M684,142 L684,143 " stroke-width="4.000000000000002"></path><path d="M684,143 L684,148 " stroke-width="4.100000000000002"></path><path d="M684,148 L684,149 " stroke-width="4.200000000000002"></path><path d="M684,149 L684,150 " stroke-width="4.200000000000002"></path><path d="M684,150 L684,152 " stroke-width="4.3000000000000025"></path><path d="M684,152 L684,153 " stroke-width="4.400000000000002"></path><path d="M684,153 L685,154 " stroke-width="4.900000000000003"></path><path d="M685,154 L686,154 " stroke-width="5.000000000000002"></path><path d="M686,154 L688,151 " stroke-width="5.100000000000002"></path><path d="M688,151 L689,150 " stroke-width="5.100000000000002"></path><path d="M689,150 L691,148 " stroke-width="5.200000000000003"></path><path d="M691,148 L692,147 " stroke-width="5.3000000000000025"></path><path d="M692,147 L694,145 " stroke-width="5.3000000000000025"></path><path d="M694,145 L697,142 " stroke-width="5.400000000000002"></path><path d="M697,142 L698,139 " stroke-width="5.500000000000003"></path><path d="M698,139 L699,138 " stroke-width="5.600000000000003"></path><path d="M699,138 L701,137 " stroke-width="5.700000000000003"></path><path d="M701,137 L701,140 " stroke-width="6.300000000000003"></path><path d="M701,140 L701,142 " stroke-width="6.400000000000004"></path><path d="M701,142 L701,143 " stroke-width="6.5000000000000036"></path><path d="M701,143 L701,148 " stroke-width="6.600000000000003"></path><path d="M701,148 L701,150 " stroke-width="6.600000000000003"></path><path d="M701,150 L701,151 " stroke-width="6.700000000000004"></path><path d="M701,151 L701,153 " stroke-width="6.800000000000004"></path><path d="M701,153 L702,154 " stroke-width="6.900000000000004"></path><path d="M702,154 L704,155 " stroke-width="7.0000000000000036"></path><path d="M704,155 L705,157 " stroke-width="7.100000000000004"></path><path d="M705,157 L706,158 " stroke-width="7.200000000000005"></path><path d="M706,158 L708,158 " stroke-width="7.300000000000004"></path><path d="M708,158 L710,158 " stroke-width="7.400000000000004"></path><path d="M710,158 L711,158 " stroke-width="7.400000000000004"></path><path d="M711,158 L712,158 " stroke-width="7.500000000000004"></path><path d="M712,158 L712,158 " stroke-width="7.500000000000004"></path></g><g><path d="M731.3515625 149.5 "></path><path d="M731.3515625,149.5 L732,150 " stroke-width="0.1"></path><path d="M732,150 L732,151 " stroke-width="0.3"></path><path d="M732,151 L732,152 " stroke-width="0.4"></path><path d="M732,152 L732,153 " stroke-width="0.5"></path><path d="M732,153 L732,155 " stroke-width="0.6000000000000001"></path><path d="M732,155 L732,157 " stroke-width="0.7000000000000001"></path><path d="M732,157 L732,158 " stroke-width="0.8999999999999999"></path><path d="M732,158 L732,159 " stroke-width="0.8999999999999999"></path><path d="M732,159 L732,160 " stroke-width="1.0999999999999999"></path><path d="M732,160 L732,160 " stroke-width="1.5"></path></g><g><path d="M736.3515625 123.5 "></path><path d="M736.3515625,123.5 L738,124 " stroke-width="1.0999999999999999"></path><path d="M738,124 L740,127 " stroke-width="1.1999999999999997"></path></g><g><path d="M773.3515625 136.5 "></path><path d="M773.3515625,136.5 L769,137 " stroke-width="0.8"></path><path d="M769,137 L768,137 " stroke-width="0.8999999999999999"></path><path d="M768,137 L766,137 " stroke-width="0.8999999999999999"></path><path d="M766,137 L763,140 " stroke-width="0.9999999999999999"></path><path d="M763,140 L761,141 " stroke-width="0.9999999999999999"></path><path d="M761,141 L755,141 " stroke-width="1.0999999999999999"></path><path d="M755,141 L751,143 " stroke-width="1.1999999999999997"></path><path d="M751,143 L750,144 " stroke-width="1.2999999999999998"></path><path d="M750,144 L747,148 " stroke-width="1.2999999999999998"></path><path d="M747,148 L745,150 " stroke-width="1.5"></path><path d="M745,150 L744,151 " stroke-width="1.6"></path><path d="M744,151 L743,152 " stroke-width="1.7000000000000002"></path><path d="M743,152 L743,153 " stroke-width="1.8000000000000003"></path><path d="M743,153 L743,154 " stroke-width="1.9000000000000004"></path><path d="M743,154 L743,155 " stroke-width="1.9000000000000004"></path><path d="M743,155 L743,158 " stroke-width="2.0000000000000004"></path><path d="M743,158 L744,158 " stroke-width="2.1000000000000005"></path><path d="M744,158 L746,159 " stroke-width="2.1000000000000005"></path><path d="M746,159 L750,161 " stroke-width="2.2000000000000006"></path><path d="M750,161 L755,162 " stroke-width="2.3000000000000007"></path><path d="M755,162 L756,163 " stroke-width="2.3000000000000007"></path><path d="M756,163 L760,163 " stroke-width="2.400000000000001"></path><path d="M760,163 L761,163 " stroke-width="2.5000000000000004"></path><path d="M761,163 L764,163 " stroke-width="2.6000000000000005"></path><path d="M764,163 L766,163 " stroke-width="2.7000000000000006"></path><path d="M766,163 L767,163 " stroke-width="2.7000000000000006"></path><path d="M767,163 L769,163 " stroke-width="2.8000000000000007"></path><path d="M769,163 L770,164 " stroke-width="3.200000000000001"></path><path d="M770,164 L770,166 " stroke-width="3.300000000000001"></path><path d="M770,166 L770,167 " stroke-width="3.4000000000000012"></path><path d="M770,167 L770,169 " stroke-width="3.4000000000000012"></path><path d="M770,169 L768,172 " stroke-width="3.5000000000000013"></path><path d="M768,172 L767,173 " stroke-width="3.6000000000000014"></path><path d="M767,173 L764,176 " stroke-width="3.6000000000000014"></path><path d="M764,176 L760,178 " stroke-width="3.7000000000000015"></path><path d="M760,178 L756,179 " stroke-width="3.8000000000000016"></path><path d="M756,179 L755,180 " stroke-width="3.9000000000000017"></path><path d="M755,180 L751,181 " stroke-width="4.000000000000002"></path><path d="M751,181 L750,181 " stroke-width="4.100000000000002"></path><path d="M750,181 L749,181 " stroke-width="4.200000000000002"></path></g><g><path d="M846.3515625 150.5 "></path><path d="M846.3515625,150.5 L848,151 " stroke-width="0.1"></path><path d="M848,151 L849,151 " stroke-width="0.1"></path><path d="M849,151 L850,151 " stroke-width="0.2"></path><path d="M850,151 L852,151 " stroke-width="0.2"></path><path d="M852,151 L855,151 " stroke-width="0.3"></path><path d="M855,151 L856,151 " stroke-width="0.4"></path><path d="M856,151 L859,151 " stroke-width="0.5"></path><path d="M859,151 L861,150 " stroke-width="0.6000000000000001"></path><path d="M861,150 L862,150 " stroke-width="0.7000000000000001"></path><path d="M862,150 L863,148 " stroke-width="0.7000000000000001"></path><path d="M863,148 L864,146 " stroke-width="0.7000000000000001"></path><path d="M864,146 L864,143 " stroke-width="0.8"></path><path d="M864,143 L866,139 " stroke-width="0.8999999999999999"></path><path d="M866,139 L866,138 " stroke-width="0.9999999999999999"></path><path d="M866,138 L866,135 " stroke-width="1.0999999999999999"></path><path d="M866,135 L866,133 " stroke-width="1.0999999999999999"></path><path d="M866,133 L866,129 " stroke-width="1.1999999999999997"></path><path d="M866,129 L866,128 " stroke-width="1.6"></path><path d="M866,128 L865,128 " stroke-width="1.7000000000000002"></path><path d="M865,128 L863,128 " stroke-width="1.7000000000000002"></path><path d="M863,128 L859,128 " stroke-width="1.8000000000000003"></path><path d="M859,128 L857,128 " stroke-width="1.9000000000000004"></path><path d="M857,128 L851,128 " stroke-width="2.0000000000000004"></path><path d="M851,128 L848,128 " stroke-width="2.1000000000000005"></path><path d="M848,128 L846,128 " stroke-width="2.1000000000000005"></path><path d="M846,128 L842,131 " stroke-width="2.2000000000000006"></path><path d="M842,131 L841,132 " stroke-width="2.2000000000000006"></path><path d="M841,132 L837,136 " stroke-width="2.3000000000000007"></path><path d="M837,136 L835,142 " stroke-width="2.400000000000001"></path><path d="M835,142 L835,144 " stroke-width="2.5000000000000004"></path><path d="M835,144 L833,154 " stroke-width="2.6000000000000005"></path><path d="M833,154 L833,158 " stroke-width="2.6000000000000005"></path><path d="M833,158 L833,166 " stroke-width="2.7000000000000006"></path><path d="M833,166 L833,170 " stroke-width="2.8000000000000007"></path><path d="M833,170 L833,176 " stroke-width="2.900000000000001"></path><path d="M833,176 L833,177 " stroke-width="2.900000000000001"></path><path d="M833,177 L833,178 " stroke-width="3.000000000000001"></path><path d="M833,178 L833,181 " stroke-width="3.000000000000001"></path><path d="M833,181 L835,182 " stroke-width="3.100000000000001"></path><path d="M835,182 L837,184 " stroke-width="3.200000000000001"></path><path d="M837,184 L840,184 " stroke-width="3.300000000000001"></path><path d="M840,184 L843,184 " stroke-width="3.300000000000001"></path><path d="M843,184 L849,184 " stroke-width="3.4000000000000012"></path><path d="M849,184 L851,184 " stroke-width="3.5000000000000013"></path><path d="M851,184 L854,184 " stroke-width="3.6000000000000014"></path><path d="M854,184 L859,184 " stroke-width="3.7000000000000015"></path><path d="M859,184 L860,184 " stroke-width="3.7000000000000015"></path><path d="M860,184 L865,183 " stroke-width="3.8000000000000016"></path><path d="M865,183 L867,181 " stroke-width="3.9000000000000017"></path><path d="M867,181 L867,180 " stroke-width="3.9000000000000017"></path><path d="M867,180 L873,174 " stroke-width="4.000000000000002"></path><path d="M873,174 L874,173 " stroke-width="4.100000000000002"></path><path d="M874,173 L875,171 " stroke-width="4.200000000000002"></path><path d="M875,171 L876,166 " stroke-width="4.3000000000000025"></path><path d="M876,166 L876,165 " stroke-width="4.3000000000000025"></path><path d="M876,165 L876,155 " stroke-width="4.400000000000002"></path><path d="M876,155 L876,153 " stroke-width="4.500000000000003"></path><path d="M876,153 L876,146 " stroke-width="4.500000000000003"></path><path d="M876,146 L876,142 " stroke-width="4.600000000000002"></path><path d="M876,142 L876,139 " stroke-width="4.700000000000003"></path><path d="M876,139 L876,138 " stroke-width="4.8000000000000025"></path><path d="M876,138 L876,139 " stroke-width="5.3000000000000025"></path><path d="M876,139 L875,141 " stroke-width="5.400000000000002"></path><path d="M875,141 L875,143 " stroke-width="5.400000000000002"></path><path d="M875,143 L875,144 " stroke-width="5.500000000000003"></path><path d="M875,144 L875,146 " stroke-width="5.500000000000003"></path><path d="M875,146 L875,153 " stroke-width="5.700000000000003"></path><path d="M875,153 L875,155 " stroke-width="5.700000000000003"></path><path d="M875,155 L875,157 " stroke-width="5.8000000000000025"></path><path d="M875,157 L875,160 " stroke-width="5.900000000000003"></path><path d="M875,160 L875,161 " stroke-width="5.900000000000003"></path><path d="M875,161 L875,164 " stroke-width="6.0000000000000036"></path><path d="M875,164 L875,166 " stroke-width="6.100000000000003"></path><path d="M875,166 L876,167 " stroke-width="6.200000000000003"></path><path d="M876,167 L877,169 " stroke-width="6.200000000000003"></path><path d="M877,169 L878,170 " stroke-width="6.300000000000003"></path><path d="M878,170 L880,170 " stroke-width="6.600000000000003"></path><path d="M880,170 L881,170 " stroke-width="6.600000000000003"></path><path d="M881,170 L883,170 " stroke-width="6.800000000000004"></path><path d="M883,170 L884,170 " stroke-width="6.900000000000004"></path><path d="M884,170 L885,170 " stroke-width="6.900000000000004"></path><path d="M885,170 L888,170 " stroke-width="7.0000000000000036"></path><path d="M888,170 L889,169 " stroke-width="7.0000000000000036"></path><path d="M889,169 L891,166 " stroke-width="7.100000000000004"></path><path d="M891,166 L892,165 " stroke-width="7.200000000000005"></path><path d="M892,165 L893,163 " stroke-width="7.300000000000004"></path></g></svg>