</svg><script>alert("shit!")</script><svg id="drawingSvg" xmlns="http://www.w3.org/2000/svg" version="1.1" xmlns:xlink="http://www.w3.org/1999/xlink" xmlns:svgjs="http://svgjs.com/svgjs" width="100%" height="700"><svg id="drawingSvg" xmlns="http://www.w3.org/2000/svg" version="1.1" xmlns:xlink="http://www.w3.org/1999/xlink" xmlns:svgjs="http://svgjs.com/svgjs" width="100%" height="700"><g><path d="M164.3515625 120.5 "></path><path d="M164.3515625,120.5 L166,119 " stroke-width="0.1"></path><path d="M166,119 L166,118 " stroke-width="0.2"></path><path d="M166,118 L168,115 " stroke-width="0.3"></path><path d="M168,115 L168,114 " stroke-width="0.4"></path><path d="M168,114 L170,112 " stroke-width="0.4"></path><path d="M170,112 L174,109 " stroke-width="0.5"></path><path d="M174,109 L177,104 " stroke-width="0.6000000000000001"></path><path d="M177,104 L178,102 " stroke-width="0.6000000000000001"></path><path d="M178,102 L186,93 " stroke-width="0.7000000000000001"></path><path d="M186,93 L194,87 " stroke-width="0.8"></path><path d="M194,87 L199,84 " stroke-width="0.8999999999999999"></path><path d="M199,84 L205,76 " stroke-width="0.9999999999999999"></path><path d="M205,76 L207,75 " stroke-width="0.9999999999999999"></path><path d="M207,75 L214,70 " stroke-width="1.0999999999999999"></path><path d="M214,70 L218,67 " stroke-width="1.1999999999999997"></path><path d="M218,67 L221,67 " stroke-width="1.1999999999999997"></path><path d="M221,67 L224,65 " stroke-width="1.2999999999999998"></path><path d="M224,65 L227,64 " stroke-width="1.4"></path><path d="M227,64 L234,64 " stroke-width="1.5"></path><path d="M234,64 L241,64 " stroke-width="1.6"></path><path d="M241,64 L248,67 " stroke-width="1.6"></path><path d="M248,67 L257,69 " stroke-width="1.7000000000000002"></path><path d="M257,69 L262,71 " stroke-width="1.8000000000000003"></path><path d="M262,71 L278,81 " stroke-width="1.8000000000000003"></path><path d="M278,81 L288,85 " stroke-width="1.9000000000000004"></path><path d="M288,85 L298,91 " stroke-width="2.0000000000000004"></path><path d="M298,91 L307,96 " stroke-width="2.1000000000000005"></path><path d="M307,96 L313,99 " stroke-width="2.1000000000000005"></path><path d="M313,99 L326,105 " stroke-width="2.2000000000000006"></path><path d="M326,105 L333,108 " stroke-width="2.3000000000000007"></path><path d="M333,108 L338,111 " stroke-width="2.3000000000000007"></path><path d="M338,111 L344,116 " stroke-width="2.400000000000001"></path><path d="M344,116 L348,118 " stroke-width="2.5000000000000004"></path><path d="M348,118 L352,122 " stroke-width="2.6000000000000005"></path><path d="M352,122 L359,126 " stroke-width="2.7000000000000006"></path><path d="M359,126 L366,131 " stroke-width="2.7000000000000006"></path><path d="M366,131 L374,136 " stroke-width="2.8000000000000007"></path><path d="M374,136 L386,140 " stroke-width="2.900000000000001"></path><path d="M386,140 L390,143 " stroke-width="3.000000000000001"></path><path d="M390,143 L393,145 " stroke-width="3.000000000000001"></path><path d="M393,145 L405,148 " stroke-width="3.100000000000001"></path><path d="M405,148 L409,150 " stroke-width="3.100000000000001"></path><path d="M409,150 L422,155 " stroke-width="3.200000000000001"></path><path d="M422,155 L431,157 " stroke-width="3.300000000000001"></path><path d="M431,157 L439,159 " stroke-width="3.4000000000000012"></path><path d="M439,159 L450,162 " stroke-width="3.5000000000000013"></path><path d="M450,162 L451,164 " stroke-width="3.5000000000000013"></path><path d="M451,164 L459,168 " stroke-width="3.6000000000000014"></path><path d="M459,168 L470,168 " stroke-width="3.7000000000000015"></path><path d="M470,168 L480,169 " stroke-width="3.8000000000000016"></path><path d="M480,169 L490,169 " stroke-width="3.8000000000000016"></path><path d="M490,169 L500,169 " stroke-width="3.9000000000000017"></path><path d="M500,169 L505,169 " stroke-width="3.9000000000000017"></path><path d="M505,169 L519,169 " stroke-width="4.000000000000002"></path>
<path d="M519,169 L523,169 " stroke-width="4.100000000000002"></path><path d="M523,169 L537,168 " stroke-width="4.200000000000002"></path><path d="M537,168 L541,167 " stroke-width="4.200000000000002"></path><path d="M541,167 L551,162 " stroke-width="4.3000000000000025"></path><path d="M551,162 L558,158 " stroke-width="4.400000000000002"></path><path d="M558,158 L564,157 " stroke-width="4.500000000000003"></path><path d="M564,157 L571,152 " stroke-width="4.500000000000003"></path><path d="M571,152 L575,149 " stroke-width="4.600000000000002"></path><path d="M575,149 L579,147 " stroke-width="4.700000000000003"></path><path d="M579,147 L586,141 " stroke-width="4.8000000000000025"></path><path d="M586,141 L590,138 " stroke-width="4.8000000000000025"></path><path d="M590,138 L594,134 " stroke-width="4.900000000000003"></path></g><g><path d="M725.3515625 105.5 "></path><path d="M725.3515625,105.5 L725,105 " stroke-width="0.2"></path><path d="M725,105 L725,104 " stroke-width="0.2"></path><path d="M725,104 L725,103 " stroke-width="0.3"></path><path d="M725,103 L725,100 " stroke-width="0.4"></path><path d="M725,100 L724,99 " stroke-width="0.5"></path><path d="M724,99 L722,98 " stroke-width="0.5"></path><path d="M722,98 L721,97 " stroke-width="0.6000000000000001"></path><path d="M721,97 L719,97 " stroke-width="0.7000000000000001"></path><path d="M719,97 L718,97 " stroke-width="0.7000000000000001"></path><path d="M718,97 L713,97 " stroke-width="0.8"></path><path d="M713,97 L710,97 " stroke-width="0.8999999999999999"></path><path d="M710,97 L707,97 " stroke-width="0.8999999999999999"></path><path d="M707,97 L705,97 " stroke-width="0.9999999999999999"></path><path d="M705,97 L703,97 " stroke-width="1.0999999999999999"></path><path d="M703,97 L700,97 " stroke-width="1.1999999999999997"></path><path d="M700,97 L696,100 " stroke-width="1.2999999999999998"></path><path d="M696,100 L693,101 " stroke-width="1.2999999999999998"></path><path d="M693,101 L691,103 " stroke-width="1.4"></path><path d="M691,103 L690,103 " stroke-width="1.4"></path><path d="M690,103 L687,106 " stroke-width="1.5"></path><path d="M687,106 L684,109 " stroke-width="1.6"></path><path d="M684,109 L680,111 " stroke-width="1.7000000000000002"></path><path d="M680,111 L678,113 " stroke-width="1.8000000000000003"></path><path d="M678,113 L677,114 " stroke-width="1.8000000000000003"></path><path d="M677,114 L671,118 " stroke-width="1.9000000000000004"></path><path d="M671,118 L669,120 " stroke-width="2.0000000000000004"></path><path d="M669,120 L668,122 " stroke-width="2.1000000000000005"></path><path d="M668,122 L664,125 " stroke-width="2.1000000000000005"></path><path d="M664,125 L663,127 " stroke-width="2.2000000000000006"></path><path d="M663,127 L662,128 " stroke-width="2.3000000000000007"></path><path d="M662,128 L660,132 " stroke-width="2.400000000000001"></path><path d="M660,132 L659,133 " stroke-width="2.400000000000001"></path><path d="M659,133 L657,136 " stroke-width="2.5000000000000004"></path><path d="M657,136 L654,141 " stroke-width="2.6000000000000005"></path><path d="M654,141 L654,143 " stroke-width="2.7000000000000006"></path><path d="M654,143 L654,145 " stroke-width="2.8000000000000007"></path><path d="M654,145 L653,147 " stroke-width="2.8000000000000007"></path><path d="M653,147 L652,149 " stroke-width="2.900000000000001"></path><path d="M652,149 L651,150 " stroke-width="2.900000000000001"></path><path d="M651,150 L651,151 " stroke-width="3.000000000000001"></path><path d="M651,151 L651,154 " stroke-width="3.100000000000001"></path><path d="M651,154 L650,157 " stroke-width="3.200000000000001"></path><path d="M650,157 L650,159 " stroke-width="3.300000000000001"></path><path d="M650,159 L650,163 " stroke-width="3.4000000000000012"></path><path d="M650,163 L650,164 " stroke-width="3.4000000000000012"></path><path d="M650,164 L650,167 " stroke-width="3.5000000000000013"></path><path d="M650,167 L650,169 " stroke-width="3.6000000000000014"></path><path d="M650,169 L650,174 " stroke-width="3.6000000000000014"></path><path d="M650,174 L650,177 " stroke-width="3.7000000000000015"></path><path d="M650,177 L650,179 " stroke-width="3.8000000000000016"></path><path d="M650,179 L650,181 " stroke-width="3.8000000000000016"></path><path d="M650,181 L652,185 " stroke-width="3.9000000000000017"></path><path d="M652,185 L654,187 " stroke-width="4.000000000000002"></path><path d="M654,187 L656,191 " stroke-width="4.100000000000002"></path><path d="M656,191 L657,192 " stroke-width="4.100000000000002"></path><path d="M657,192 L659,193 " stroke-width="4.200000000000002"></path><path d="M659,193 L660,194 " stroke-width="4.3000000000000025"></path><path d="M660,194 L662,195 " stroke-width="4.400000000000002"></path><path d="M662,195 L664,195 " stroke-width="4.400000000000002"></path><path d="M664,195 L668,197 " stroke-width="4.500000000000003"></path><path d="M668,197 L669,199 " stroke-width="4.600000000000002"></path><path d="M669,199 L671,199 " stroke-width="4.600000000000002"></path><path d="M671,199 L673,201 " stroke-width="4.700000000000003"></path><path d="M673,201 L674,201 " stroke-width="4.8000000000000025"></path><path d="M674,201 L675,201 " stroke-width="4.900000000000003"></path><path d="M675,201 L677,201 " stroke-width="4.900000000000003"></path><path d="M677,201 L679,201 " stroke-width="5.000000000000002"></path><path d="M679,201 L681,201 " stroke-width="5.100000000000002"></path><path d="M681,201 L682,201 " stroke-width="5.200000000000003"></path><path d="M682,201 L685,201 " stroke-width="5.3000000000000025"></path><path d="M685,201 L687,201 " stroke-width="5.3000000000000025"></path><path d="M687,201 L688,201 " stroke-width="5.400000000000002"></path><path d="M688,201 L690,201 " stroke-width="5.500000000000003"></path><path d="M690,201 L693,198 " stroke-width="5.600000000000003"></path><path d="M693,198 L696,195 " stroke-width="5.700000000000003"></path><path d="M696,195 L698,194 " stroke-width="5.8000000000000025"></path><path d="M698,194 L699,194 " stroke-width="5.8000000000000025"></path><path d="M699,194 L702,189 " stroke-width="5.900000000000003"></path><path d="M702,189 L703,188 " stroke-width="6.0000000000000036"></path><path d="M703,188 L704,187 " stroke-width="6.100000000000003"></path><path d="M704,187 L704,186 " stroke-width="6.200000000000003"></path><path d="M704,186 L705,184 " stroke-width="6.200000000000003"></path><path d="M705,184 L706,183 " stroke-width="6.300000000000003"></path><path d="M706,183 L706,181 " stroke-width="6.400000000000004"></path><path d="M706,181 L706,180 " stroke-width="6.400000000000004"></path><path d="M706,180 L706,181 " stroke-width="7.700000000000005"></path><path d="M706,181 L706,182 " stroke-width="7.700000000000005"></path><path d="M706,182 L706,184 " stroke-width="7.800000000000004"></path><path d="M706,184 L705,186 " stroke-width="7.900000000000005"></path><path d="M705,186 L704,191 " stroke-width="8.000000000000005"></path><path d="M704,191 L703,193 " stroke-width="8.000000000000005"></path><path d="M703,193 L703,197 " stroke-width="8.100000000000005"></path><path d="M703,197 L702,200 " stroke-width="8.200000000000005"></path><path d="M702,200 L702,203 " stroke-width="8.300000000000004"></path><path d="M702,203 L702,206 " stroke-width="8.300000000000004"></path><path d="M702,206 L702,209 " stroke-width="8.400000000000006"></path><path d="M702,209 L701,214 " stroke-width="8.500000000000005"></path><path d="M701,214 L701,218 " stroke-width="8.600000000000005"></path><path d="M701,218 L698,221 " stroke-width="8.600000000000005"></path><path d="M698,221 L698,226 " stroke-width="8.700000000000006"></path><path d="M698,226 L698,228 " stroke-width="8.800000000000006"></path><path d="M698,228 L696,235 " stroke-width="8.900000000000006"></path><path d="M696,235 L695,238 " stroke-width="8.900000000000006"></path><path d="M695,238 L694,244 " stroke-width="9.000000000000005"></path><path d="M694,244 L692,247 " stroke-width="9.100000000000005"></path><path d="M692,247 L691,250 " stroke-width="9.100000000000005"></path><path d="M691,250 L688,255 " stroke-width="9.200000000000006"></path><path d="M688,255 L686,257 " stroke-width="9.300000000000006"></path><path d="M686,257 L683,262 " stroke-width="9.400000000000006"></path><path d="M683,262 L681,264 " stroke-width="9.400000000000006"></path><path d="M681,264 L679,267 " stroke-width="9.500000000000007"></path><path d="M679,267 L678,268 " stroke-width="9.500000000000007"></path><path d="M678,268 L676,269 " stroke-width="9.600000000000007"></path><path d="M676,269 L674,269 " stroke-width="9.700000000000006"></path><path d="M674,269 L673,269 " stroke-width="9.800000000000006"></path><path d="M673,269 L671,271 " stroke-width="9.900000000000006"></path><path d="M671,271 L668,271 " stroke-width="10"></path><path d="M668,271 L667,271 " stroke-width="10"></path><path d="M667,271 L664,271 " stroke-width="10"></path><path d="M664,271 L662,271 " stroke-width="10"></path><path d="M662,271 L660,270 " stroke-width="10"></path><path d="M660,270 L659,270 " stroke-width="10"></path><path d="M659,270 L657,269 " stroke-width="10"></path><path d="M657,269 L655,269 " stroke-width="10"></path><path d="M655,269 L653,267 " stroke-width="10"></path><path d="M653,267 L652,266 " stroke-width="10"></path><path d="M652,266 L651,265 " stroke-width="10"></path><path d="M651,265 L651,264 " stroke-width="10"></path><path d="M651,264 L651,260 " stroke-width="10"></path><path d="M651,260 L651,259 " stroke-width="10"></path><path d="M651,259 L651,255 " stroke-width="10"></path><path d="M651,255 L653,249 " stroke-width="10"></path><path d="M653,249 L655,247 " stroke-width="10"></path><path d="M655,247 L658,246 " stroke-width="10"></path><path d="M658,246 L664,242 " stroke-width="10"></path><path d="M664,242 L666,242 " stroke-width="10"></path><path d="M666,242 L670,239 " stroke-width="10"></path><path d="M670,239 L674,237 " stroke-width="10"></path><path d="M674,237 L677,237 " stroke-width="10"></path><path d="M677,237 L683,234 " stroke-width="10"></path><path d="M683,234 L687,229 " stroke-width="10"></path><path d="M687,229 L690,229 " stroke-width="10"></path><path d="M690,229 L693,228 " stroke-width="10"></path><path d="M693,228 L694,228 " stroke-width="10"></path><path d="M694,228 L699,225 " stroke-width="10"></path><path d="M699,225 L700,225 " stroke-width="10"></path><path d="M700,225 L703,225 " stroke-width="10"></path><path d="M703,225 L706,224 " stroke-width="10"></path><path d="M706,224 L707,224 " stroke-width="10"></path><path d="M707,224 L708,223 " stroke-width="10"></path><path d="M708,223 L709,220 " stroke-width="10"></path><path d="M709,220 L710,219 " stroke-width="10"></path><path d="M710,219 L712,217 " stroke-width="10"></path><path d="M712,217 L716,215 " stroke-width="10"></path></g><g><path d="M760.3515625 168.5 "></path><path d="M760.3515625,168.5 L760,166 " stroke-width="0.1"></path><path d="M760,166 L760,165 " stroke-width="0.2"></path><path d="M760,165 L760,163 " stroke-width="0.3"></path><path d="M760,163 L760,162 " stroke-width="0.4"></path><path d="M760,162 L759,160 " stroke-width="0.5"></path><path d="M759,160 L758,159 " stroke-width="0.6000000000000001"></path><path d="M758,159 L757,158 " stroke-width="0.6000000000000001"></path><path d="M757,158 L755,158 " stroke-width="0.7000000000000001"></path><path d="M755,158 L752,158 " stroke-width="0.8"></path><path d="M752,158 L751,158 " stroke-width="0.8"></path><path d="M751,158 L748,158 " stroke-width="0.8999999999999999"></path><path d="M748,158 L745,158 " stroke-width="0.9999999999999999"></path><path d="M745,158 L743,158 " stroke-width="1.0999999999999999"></path><path d="M743,158 L742,158 " stroke-width="1.0999999999999999"></path><path d="M742,158 L738,160 " stroke-width="1.1999999999999997"></path><path d="M738,160 L736,161 " stroke-width="1.2999999999999998"></path><path d="M736,161 L734,163 " stroke-width="1.2999999999999998"></path><path d="M734,163 L732,165 " stroke-width="1.4"></path><path d="M732,165 L730,168 " stroke-width="1.4"></path><path d="M730,168 L728,174 " stroke-width="1.5"></path><path d="M728,174 L727,178 " stroke-width="1.6"></path><path d="M727,178 L726,181 " stroke-width="1.7000000000000002"></path><path d="M726,181 L726,182 " stroke-width="1.8000000000000003"></path><path d="M726,182 L726,183 " stroke-width="1.9000000000000004"></path><path d="M726,183 L726,186 " stroke-width="2.0000000000000004"></path><path d="M726,186 L726,188 " stroke-width="2.1000000000000005"></path><path d="M726,188 L726,190 " stroke-width="2.6000000000000005"></path><path d="M726,190 L728,190 " stroke-width="2.7000000000000006"></path><path d="M728,190 L729,190 " stroke-width="2.7000000000000006"></path><path d="M729,190 L735,188 " stroke-width="2.900000000000001"></path><path d="M735,188 L739,186 " stroke-width="3.000000000000001"></path><path d="M739,186 L742,183 " stroke-width="3.000000000000001"></path><path d="M742,183 L744,180 " stroke-width="3.100000000000001"></path><path d="M744,180 L745,179 " stroke-width="3.100000000000001"></path><path d="M745,179 L746,176 " stroke-width="3.200000000000001"></path><path d="M746,176 L749,174 " stroke-width="3.300000000000001"></path><path d="M749,174 L750,171 " stroke-width="3.4000000000000012"></path><path d="M750,171 L750,169 " stroke-width="3.5000000000000013"></path><path d="M750,169 L751,168 " stroke-width="3.5000000000000013"></path><path d="M751,168 L752,165 " stroke-width="3.6000000000000014"></path><path d="M752,165 L752,162 " stroke-width="3.7000000000000015"></path><path d="M752,162 L753,160 " stroke-width="3.7000000000000015"></path><path d="M753,160 L753,159 " stroke-width="3.8000000000000016"></path><path d="M753,159 L753,158 " stroke-width="4.200000000000002"></path><path d="M753,158 L752,159 " stroke-width="4.8000000000000025"></path><path d="M752,159 L751,161 " stroke-width="4.8000000000000025"></path><path d="M751,161 L749,163 " stroke-width="4.900000000000003"></path><path d="M749,163 L749,165 " stroke-width="5.000000000000002"></path><path d="M749,165 L748,169 " stroke-width="5.100000000000002"></path><path d="M748,169 L747,172 " stroke-width="5.200000000000003"></path><path d="M747,172 L747,174 " stroke-width="5.200000000000003"></path><path d="M747,174 L747,176 " stroke-width="5.3000000000000025"></path><path d="M747,176 L747,178 " stroke-width="5.3000000000000025"></path><path d="M747,178 L747,181 " stroke-width="5.400000000000002"></path><path d="M747,181 L747,183 " stroke-width="5.600000000000003"></path><path d="M747,183 L747,185 " stroke-width="5.900000000000003"></path><path d="M747,185 L749,185 " stroke-width="6.100000000000003"></path><path d="M749,185 L751,186 " stroke-width="6.200000000000003"></path><path d="M751,186 L752,186 " stroke-width="6.300000000000003"></path><path d="M752,186 L754,186 " stroke-width="6.400000000000004"></path><path d="M754,186 L755,186 " stroke-width="6.5000000000000036"></path><path d="M755,186 L757,186 " stroke-width="6.5000000000000036"></path><path d="M757,186 L758,186 " stroke-width="6.600000000000003"></path><path d="M758,186 L760,185 " stroke-width="6.700000000000004"></path><path d="M760,185 L761,184 " stroke-width="6.800000000000004"></path><path d="M761,184 L762,183 " stroke-width="6.800000000000004"></path><path d="M762,183 L763,181 " stroke-width="6.900000000000004"></path><path d="M763,181 L766,179 " stroke-width="7.0000000000000036"></path><path d="M766,179 L766,176 " stroke-width="7.0000000000000036"></path><path d="M766,176 L767,175 " stroke-width="7.100000000000004"></path></g><g><path d="M781.3515625 174.5 "></path><path d="M781.3515625,174.5 L785,175 " stroke-width="0.1"></path><path d="M785,175 L786,175 " stroke-width="0.1"></path><path d="M786,175 L788,175 " stroke-width="0.2"></path><path d="M788,175 L792,175 " stroke-width="0.3"></path><path d="M792,175 L795,175 " stroke-width="0.4"></path><path d="M795,175 L800,172 " stroke-width="0.4"></path><path d="M800,172 L803,171 " stroke-width="0.5"></path><path d="M803,171 L805,169 " stroke-width="0.5"></path><path d="M805,169 L810,165 " stroke-width="0.6000000000000001"></path><path d="M810,165 L813,163 " stroke-width="0.7000000000000001"></path><path d="M813,163 L817,161 " stroke-width="0.8"></path><path d="M817,161 L820,158 " stroke-width="0.8"></path><path d="M820,158 L823,156 " stroke-width="0.8999999999999999"></path><path d="M823,156 L824,154 " stroke-width="0.9999999999999999"></path><path d="M824,154 L828,150 " stroke-width="1.0999999999999999"></path><path d="M828,150 L831,147 " stroke-width="1.1999999999999997"></path><path d="M831,147 L834,143 " stroke-width="1.1999999999999997"></path><path d="M834,143 L836,140 " stroke-width="1.2999999999999998"></path><path d="M836,140 L836,139 " stroke-width="1.2999999999999998"></path><path d="M836,139 L838,133 " stroke-width="1.4"></path><path d="M838,133 L840,130 " stroke-width="1.5"></path><path d="M840,130 L841,126 " stroke-width="1.6"></path><path d="M841,126 L841,124 " stroke-width="1.7000000000000002"></path><path d="M841,124 L841,122 " stroke-width="1.7000000000000002"></path><path d="M841,122 L841,118 " stroke-width="1.8000000000000003"></path><path d="M841,118 L841,116 " stroke-width="1.9000000000000004"></path><path d="M841,116 L841,115 " stroke-width="1.9000000000000004"></path><path d="M841,115 L841,114 " stroke-width="2.0000000000000004"></path><path d="M841,114 L841,113 " stroke-width="2.1000000000000005"></path><path d="M841,113 L841,112 " stroke-width="2.2000000000000006"></path><path d="M841,112 L841,111 " stroke-width="2.3000000000000007"></path><path d="M841,111 L840,108 " stroke-width="2.5000000000000004"></path><path d="M840,108 L839,107 " stroke-width="2.6000000000000005"></path><path d="M839,107 L838,107 " stroke-width="2.6000000000000005"></path><path d="M838,107 L837,107 " stroke-width="2.7000000000000006"></path><path d="M837,107 L833,107 " stroke-width="2.8000000000000007"></path><path d="M833,107 L829,107 " stroke-width="2.900000000000001"></path><path d="M829,107 L826,107 " stroke-width="2.900000000000001"></path><path d="M826,107 L823,107 " stroke-width="3.000000000000001"></path><path d="M823,107 L819,112 " stroke-width="3.000000000000001"></path><path d="M819,112 L815,115 " stroke-width="3.100000000000001"></path><path d="M815,115 L811,120 " stroke-width="3.200000000000001"></path><path d="M811,120 L809,123 " stroke-width="3.300000000000001"></path><path d="M809,123 L808,125 " stroke-width="3.300000000000001"></path><path d="M808,125 L806,133 " stroke-width="3.4000000000000012"></path><path d="M806,133 L806,134 " stroke-width="3.5000000000000013"></path><path d="M806,134 L804,141 " stroke-width="3.5000000000000013"></path><path d="M804,141 L804,146 " stroke-width="3.6000000000000014"></path><path d="M804,146 L804,149 " stroke-width="3.7000000000000015"></path><path d="M804,149 L804,155 " stroke-width="3.8000000000000016"></path><path d="M804,155 L804,156 " stroke-width="3.8000000000000016"></path><path d="M804,156 L804,164 " stroke-width="3.9000000000000017"></path><path d="M804,164 L804,168 " stroke-width="4.000000000000002"></path><path d="M804,168 L804,172 " stroke-width="4.000000000000002"></path><path d="M804,172 L804,175 " stroke-width="4.100000000000002"></path><path d="M804,175 L804,177 " stroke-width="4.200000000000002"></path><path d="M804,177 L805,183 " stroke-width="4.3000000000000025"></path><path d="M805,183 L806,187 " stroke-width="4.400000000000002"></path><path d="M806,187 L807,191 " stroke-width="4.400000000000002"></path><path d="M807,191 L809,193 " stroke-width="4.500000000000003"></path><path d="M809,193 L810,194 " stroke-width="4.600000000000002"></path><path d="M810,194 L811,194 " stroke-width="4.700000000000003"></path><path d="M811,194 L813,195 " stroke-width="4.700000000000003"></path><path d="M813,195 L814,195 " stroke-width="4.8000000000000025"></path><path d="M814,195 L817,195 " stroke-width="4.900000000000003"></path><path d="M817,195 L819,195 " stroke-width="5.000000000000002"></path><path d="M819,195 L820,195 " stroke-width="5.100000000000002"></path><path d="M820,195 L822,195 " stroke-width="5.200000000000003"></path><path d="M822,195 L824,195 " stroke-width="5.3000000000000025"></path><path d="M824,195 L826,195 " stroke-width="5.400000000000002"></path><path d="M826,195 L828,194 " stroke-width="5.500000000000003"></path><path d="M828,194 L828,190 " stroke-width="5.500000000000003"></path><path d="M828,190 L828,189 " stroke-width="5.600000000000003"></path><path d="M828,189 L830,187 " stroke-width="5.700000000000003"></path><path d="M830,187 L831,186 " stroke-width="5.8000000000000025"></path><path d="M831,186 L832,185 " stroke-width="6.0000000000000036"></path><path d="M832,185 L834,184 " stroke-width="6.200000000000003"></path></g></svg><g><path d="M201.8515625 160 "></path><path d="M201.8515625,160 L203,160 " stroke-width="0.1"></path><path d="M203,160 L206,160 " stroke-width="0.2"></path><path d="M206,160 L208,160 " stroke-width="0.2"></path><path d="M208,160 L214,160 " stroke-width="0.3"></path><path d="M214,160 L218,159 " stroke-width="0.4"></path><path d="M218,159 L224,158 " stroke-width="0.4"></path><path d="M224,158 L234,152 " stroke-width="0.5"></path><path d="M234,152 L238,151 " stroke-width="0.6000000000000001"></path><path d="M238,151 L250,145 " stroke-width="0.7000000000000001"></path><path d="M250,145 L255,142 " stroke-width="0.7000000000000001"></path><path d="M255,142 L265,139 " stroke-width="0.8"></path><path d="M265,139 L276,136 " stroke-width="0.8999999999999999"></path><path d="M276,136 L278,136 " stroke-width="0.8999999999999999"></path><path d="M278,136 L293,135 " stroke-width="0.9999999999999999"></path><path d="M293,135 L296,135 " stroke-width="1.0999999999999999"></path><path d="M296,135 L306,135 " stroke-width="1.1999999999999997"></path><path d="M306,135 L322,135 " stroke-width="1.2999999999999998"></path><path d="M322,135 L328,135 " stroke-width="1.2999999999999998"></path><path d="M328,135 L346,139 " stroke-width="1.5"></path><path d="M346,139 L352,141 " stroke-width="1.5"></path><path d="M352,141 L364,148 " stroke-width="1.6"></path><path d="M364,148 L381,160 " stroke-width="1.7000000000000002"></path><path d="M381,160 L387,164 " stroke-width="1.7000000000000002"></path><path d="M387,164 L405,178 " stroke-width="1.8000000000000003"></path><path d="M405,178 L411,183 " stroke-width="1.8000000000000003"></path><path d="M411,183 L425,196 " stroke-width="2.0000000000000004"></path><path d="M425,196 L446,214 " stroke-width="2.0000000000000004"></path><path d="M446,214 L452,219 " stroke-width="2.1000000000000005"></path><path d="M452,219 L472,236 " stroke-width="2.2000000000000006"></path><path d="M472,236 L480,242 " stroke-width="2.2000000000000006"></path><path d="M480,242 L497,254 " stroke-width="2.3000000000000007"></path><path d="M497,254 L526,269 " stroke-width="2.400000000000001"></path><path d="M526,269 L535,273 " stroke-width="2.400000000000001"></path><path d="M535,273 L564,287 " stroke-width="2.5000000000000004"></path><path d="M564,287 L574,290 " stroke-width="2.6000000000000005"></path><path d="M574,290 L594,295 " stroke-width="2.7000000000000006"></path><path d="M594,295 L618,298 " stroke-width="2.8000000000000007"></path><path d="M618,298 L625,298 " stroke-width="2.8000000000000007"></path><path d="M625,298 L648,298 " stroke-width="2.900000000000001"></path><path d="M648,298 L657,298 " stroke-width="2.900000000000001"></path><path d="M657,298 L671,298 " stroke-width="3.100000000000001"></path><path d="M671,298 L692,297 " stroke-width="3.100000000000001"></path><path d="M692,297 L698,296 " stroke-width="3.200000000000001"></path><path d="M698,296 L716,290 " stroke-width="3.200000000000001"></path><path d="M716,290 L721,287 " stroke-width="3.300000000000001"></path><path d="M721,287 L731,281 " stroke-width="3.4000000000000012"></path><path d="M731,281 L745,270 " stroke-width="3.5000000000000013"></path><path d="M745,270 L750,265 " stroke-width="3.5000000000000013"></path><path d="M750,265 L760,253 " stroke-width="3.6000000000000014"></path><path d="M760,253 L762,249 " stroke-width="3.7000000000000015"></path><path d="M762,249 L767,240 " stroke-width="3.8000000000000016"></path><path d="M767,240 L774,226 " stroke-width="3.9000000000000017"></path><path d="M774,226 L776,220 " stroke-width="3.9000000000000017"></path><path d="M776,220 L780,204 " stroke-width="4.000000000000002"></path><path d="M780,204 L781,199 " stroke-width="4.000000000000002"></path><path d="M781,199 L781,188 " stroke-width="4.200000000000002"></path><path d="M781,188 L781,173 " stroke-width="4.200000000000002"></path><path d="M781,173 L781,167 " stroke-width="4.3000000000000025"></path><path d="M781,167 L780,157 " stroke-width="4.400000000000002"></path><path d="M780,157 L776,157 " stroke-width="4.400000000000002"></path><path d="M776,157 L770,152 " stroke-width="4.500000000000003"></path><path d="M770,152 L756,145 " stroke-width="4.600000000000002"></path><path d="M756,145 L750,142 " stroke-width="4.700000000000003"></path><path d="M750,142 L736,142 " stroke-width="4.8000000000000025"></path><path d="M736,142 L728,142 " stroke-width="4.8000000000000025"></path><path d="M728,142 L710,142 " stroke-width="4.900000000000003"></path><path d="M710,142 L677,143 " stroke-width="5.000000000000002"></path><path d="M677,143 L667,145 " stroke-width="5.000000000000002"></path><path d="M667,145 L637,150 " stroke-width="5.100000000000002"></path><path d="M637,150 L628,152 " stroke-width="5.200000000000003"></path><path d="M628,152 L609,156 " stroke-width="5.3000000000000025"></path><path d="M609,156 L585,164 " stroke-width="5.400000000000002"></path><path d="M585,164 L578,168 " stroke-width="5.400000000000002"></path><path d="M578,168 L560,177 " stroke-width="5.500000000000003"></path><path d="M560,177 L557,180 " stroke-width="5.500000000000003"></path><path d="M557,180 L554,185 " stroke-width="5.600000000000003"></path><path d="M554,185 L554,190 " stroke-width="5.700000000000003"></path><path d="M554,190 L554,196 " stroke-width="5.8000000000000025"></path><path d="M554,196 L557,203 " stroke-width="5.900000000000003"></path><path d="M557,203 L560,207 " stroke-width="5.900000000000003"></path><path d="M560,207 L569,216 " stroke-width="6.0000000000000036"></path><path d="M569,216 L583,228 " stroke-width="6.100000000000003"></path><path d="M583,228 L590,232 " stroke-width="6.100000000000003"></path><path d="M590,232 L619,244 " stroke-width="6.300000000000003"></path><path d="M619,244 L630,248 " stroke-width="6.300000000000003"></path><path d="M630,248 L657,255 " stroke-width="6.400000000000004"></path><path d="M657,255 L696,263 " stroke-width="6.5000000000000036"></path><path d="M696,263 L710,264 " stroke-width="6.5000000000000036"></path><path d="M710,264 L752,266 " stroke-width="6.700000000000004"></path><path d="M752,266 L767,266 " stroke-width="6.700000000000004"></path><path d="M767,266 L792,266 " stroke-width="6.800000000000004"></path><path d="M792,266 L825,266 " stroke-width="6.800000000000004"></path><path d="M825,266 L834,266 " stroke-width="6.900000000000004"></path><path d="M834,266 L857,266 " stroke-width="7.0000000000000036"></path><path d="M857,266 L863,265 " stroke-width="7.0000000000000036"></path><path d="M863,265 L864,264 " stroke-width="7.100000000000004"></path><path d="M864,264 L864,263 " stroke-width="7.300000000000004"></path><path d="M864,263 L860,253 " stroke-width="7.400000000000004"></path><path d="M860,253 L857,250 " stroke-width="7.400000000000004"></path><path d="M857,250 L845,243 " stroke-width="7.500000000000004"></path><path d="M845,243 L828,237 " stroke-width="7.600000000000005"></path><path d="M828,237 L819,235 " stroke-width="7.600000000000005"></path><path d="M819,235 L790,228 " stroke-width="7.800000000000004"></path><path d="M790,228 L778,226 " stroke-width="7.800000000000004"></path><path d="M778,226 L753,223 " stroke-width="7.900000000000005"></path><path d="M753,223 L715,221 " stroke-width="8.000000000000005"></path><path d="M715,221 L703,221 " stroke-width="8.000000000000005"></path><path d="M703,221 L666,221 " stroke-width="8.100000000000005"></path><path d="M666,221 L654,221 " stroke-width="8.100000000000005"></path><path d="M654,221 L631,221 " stroke-width="8.300000000000004"></path><path d="M631,221 L604,221 " stroke-width="8.300000000000004"></path><path d="M604,221 L597,221 " stroke-width="8.400000000000006"></path><path d="M597,221 L580,219 " stroke-width="8.500000000000005"></path><path d="M580,219 L579,219 " stroke-width="8.600000000000005"></path><path d="M579,219 L578,218 " stroke-width="8.700000000000006"></path><path d="M578,218 L585,212 " stroke-width="8.800000000000006"></path><path d="M585,212 L589,210 " stroke-width="8.900000000000006"></path><path d="M589,210 L597,208 " stroke-width="9.000000000000005"></path><path d="M597,208 L612,206 " stroke-width="9.100000000000005"></path><path d="M612,206 L619,203 " stroke-width="9.100000000000005"></path><path d="M619,203 L646,200 " stroke-width="9.200000000000006"></path><path d="M646,200 L656,200 " stroke-width="9.200000000000006"></path><path d="M656,200 L676,200 " stroke-width="9.300000000000006"></path><path d="M676,200 L705,200 " stroke-width="9.400000000000006"></path><path d="M705,200 L715,200 " stroke-width="9.500000000000007"></path><path d="M715,200 L743,197 " stroke-width="9.500000000000007"></path><path d="M743,197 L750,196 " stroke-width="9.600000000000007"></path><path d="M750,196 L765,196 " stroke-width="9.700000000000006"></path><path d="M765,196 L781,198 " stroke-width="9.800000000000006"></path><path d="M781,198 L786,199 " stroke-width="9.800000000000006"></path><path d="M786,199 L793,205 " stroke-width="9.900000000000006"></path><path d="M793,205 L793,206 " stroke-width="10"></path><path d="M793,206 L793,208 " stroke-width="10"></path><path d="M793,208 L793,214 " stroke-width="10"></path><path d="M793,214 L793,215 " stroke-width="10"></path><path d="M793,215 L790,222 " stroke-width="10"></path><path d="M790,222 L788,222 " stroke-width="10"></path><path d="M788,222 L782,223 " stroke-width="10"></path><path d="M782,223 L770,223 " stroke-width="10"></path><path d="M770,223 L764,223 " stroke-width="10"></path><path d="M764,223 L752,223 " stroke-width="10"></path><path d="M752,223 L746,223 " stroke-width="10"></path><path d="M746,223 L732,220 " stroke-width="10"></path><path d="M732,220 L709,211 " stroke-width="10"></path><path d="M709,211 L701,208 " stroke-width="10"></path><path d="M701,208 L677,196 " stroke-width="10"></path><path d="M677,196 L669,192 " stroke-width="10"></path><path d="M669,192 L645,176 " stroke-width="10"></path><path d="M645,176 L640,171 " stroke-width="10"></path><path d="M640,171 L629,162 " stroke-width="10"></path><path d="M629,162 L626,152 " stroke-width="10"></path><path d="M626,152 L625,149 " stroke-width="10"></path><path d="M625,149 L625,141 " stroke-width="10"></path><path d="M625,141 L625,139 " stroke-width="10"></path><path d="M625,139 L627,131 " stroke-width="10"></path><path d="M627,131 L633,127 " stroke-width="10"></path><path d="M633,127 L636,127 " stroke-width="10"></path><path d="M636,127 L645,127 " stroke-width="10"></path><path d="M645,127 L649,127 " stroke-width="10"></path><path d="M649,127 L658,127 " stroke-width="10"></path><path d="M658,127 L673,130 " stroke-width="10"></path><path d="M673,130 L678,134 " stroke-width="10"></path><path d="M678,134 L692,142 " stroke-width="10"></path><path d="M692,142 L698,144 " stroke-width="10"></path><path d="M698,144 L716,156 " stroke-width="10"></path><path d="M716,156 L723,162 " stroke-width="10"></path><path d="M723,162 L735,173 " stroke-width="10"></path><path d="M735,173 L752,190 " stroke-width="10"></path><path d="M752,190 L757,196 " stroke-width="10"></path><path d="M757,196 L770,212 " stroke-width="10"></path><path d="M770,212 L773,216 " stroke-width="10"></path><path d="M773,216 L776,224 " stroke-width="10"></path><path d="M776,224 L776,231 " stroke-width="10"></path><path d="M776,231 L776,233 " stroke-width="10"></path><path d="M776,233 L775,234 " stroke-width="10"></path><path d="M775,234 L769,234 " stroke-width="10"></path><path d="M769,234 L760,229 " stroke-width="10"></path><path d="M760,229 L756,225 " stroke-width="10"></path><path d="M756,225 L742,212 " stroke-width="10"></path><path d="M742,212 L736,208 " stroke-width="10"></path><path d="M736,208 L729,202 " stroke-width="10"></path><path d="M729,202 L713,187 " stroke-width="10"></path><path d="M713,187 L708,182 " stroke-width="10"></path><path d="M708,182 L697,167 " stroke-width="10"></path><path d="M697,167 L696,162 " stroke-width="10"></path><path d="M696,162 L695,140 " stroke-width="10"></path><path d="M695,140 L696,134 " stroke-width="10"></path><path d="M696,134 L699,128 " stroke-width="10"></path><path d="M699,128 L711,113 " stroke-width="10"></path><path d="M711,113 L717,108 " stroke-width="10"></path><path d="M717,108 L730,102 " stroke-width="10"></path><path d="M730,102 L751,97 " stroke-width="10"></path><path d="M751,97 L758,95 " stroke-width="10"></path><path d="M758,95 L780,94 " stroke-width="10"></path><path d="M780,94 L786,94 " stroke-width="10"></path><path d="M786,94 L799,95 " stroke-width="10"></path><path d="M799,95 L817,104 " stroke-width="10"></path><path d="M817,104 L822,106 " stroke-width="10"></path><path d="M822,106 L832,114 " stroke-width="10"></path><path d="M832,114 L840,122 " stroke-width="10"></path><path d="M840,122 L849,136 " stroke-width="10"></path><path d="M849,136 L850,141 " stroke-width="10"></path><path d="M850,141 L856,155 " stroke-width="10"></path><path d="M856,155 L857,160 " stroke-width="10"></path><path d="M857,160 L858,171 " stroke-width="10"></path><path d="M858,171 L858,184 " stroke-width="10"></path><path d="M858,184 L858,186 " stroke-width="10"></path><path d="M858,186 L848,193 " stroke-width="10"></path><path d="M848,193 L845,193 " stroke-width="10"></path><path d="M845,193 L835,194 " stroke-width="10"></path><path d="M835,194 L823,194 " stroke-width="10"></path><path d="M823,194 L816,194 " stroke-width="10"></path><path d="M816,194 L791,188 " stroke-width="10"></path><path d="M791,188 L782,184 " stroke-width="10"></path><path d="M782,184 L751,169 " stroke-width="10"></path><path d="M751,169 L740,163 " stroke-width="10"></path><path d="M740,163 L719,151 " stroke-width="10"></path><path d="M719,151 L694,134 " stroke-width="10"></path><path d="M694,134 L688,129 " stroke-width="10"></path><path d="M688,129 L672,115 " stroke-width="10"></path><path d="M672,115 L669,111 " stroke-width="10"></path><path d="M669,111 L668,104 " stroke-width="10"></path><path d="M668,104 L667,94 " stroke-width="10"></path><path d="M667,94 L667,90 " stroke-width="10"></path><path d="M667,90 L668,85 " stroke-width="10"></path><path d="M668,85 L669,83 " stroke-width="10"></path><path d="M669,83 L675,82 " stroke-width="10"></path><path d="M675,82 L685,80 " stroke-width="10"></path><path d="M685,80 L690,80 " stroke-width="10"></path><path d="M690,80 L704,80 " stroke-width="10"></path><path d="M704,80 L710,80 " stroke-width="10"></path><path d="M710,80 L720,81 " stroke-width="10"></path><path d="M720,81 L738,84 " stroke-width="10"></path><path d="M738,84 L745,86 " stroke-width="10"></path><path d="M745,86 L767,93 " stroke-width="10"></path><path d="M767,93 L776,95 " stroke-width="10"></path><path d="M776,95 L793,101 " stroke-width="10"></path><path d="M793,101 L815,109 " stroke-width="10"></path><path d="M815,109 L822,112 " stroke-width="10"></path><path d="M822,112 L842,120 " stroke-width="10"></path><path d="M842,120 L847,123 " stroke-width="10"></path><path d="M847,123 L858,128 " stroke-width="10"></path><path d="M858,128 L869,133 " stroke-width="10"></path><path d="M869,133 L873,135 " stroke-width="10"></path><path d="M873,135 L878,139 " stroke-width="10"></path><path d="M878,139 L880,141 " stroke-width="10"></path><path d="M880,141 L883,143 " stroke-width="10"></path><path d="M883,143 L890,145 " stroke-width="10"></path><path d="M890,145 L891,147 " stroke-width="10"></path><path d="M891,147 L897,150 " stroke-width="10"></path><path d="M897,150 L900,150 " stroke-width="10"></path><path d="M900,150 L905,151 " stroke-width="10"></path><path d="M905,151 L911,151 " stroke-width="10"></path><path d="M911,151 L913,151 " stroke-width="10"></path><path d="M913,151 L922,151 " stroke-width="10"></path><path d="M922,151 L924,151 " stroke-width="10"></path><path d="M924,151 L929,149 " stroke-width="10"></path><path d="M929,149 L937,142 " stroke-width="10"></path><path d="M937,142 L940,140 " stroke-width="10"></path><path d="M940,140 L946,134 " stroke-width="10"></path><path d="M946,134 L949,131 " stroke-width="10"></path><path d="M949,131 L952,128 " stroke-width="10"></path><path d="M952,128 L954,126 " stroke-width="10"></path><path d="M954,126 L954,125 " stroke-width="10"></path><path d="M954,125 L954,118 " stroke-width="10"></path><path d="M954,118 L954,117 " stroke-width="10"></path><path d="M954,117 L954,114 " stroke-width="10"></path><path d="M954,114 L954,109 " stroke-width="10"></path><path d="M954,109 L954,107 " stroke-width="10"></path><path d="M954,107 L954,99 " stroke-width="10"></path><path d="M954,99 L953,98 " stroke-width="10"></path><path d="M953,98 L952,93 " stroke-width="10"></path><path d="M952,93 L950,89 " stroke-width="10"></path><path d="M950,89 L948,87 " stroke-width="10"></path><path d="M948,87 L947,84 " stroke-width="10"></path><path d="M947,84 L946,83 " stroke-width="10"></path><path d="M946,83 L945,82 " stroke-width="10"></path><path d="M945,82 L942,80 " stroke-width="10"></path><path d="M942,80 L939,80 " stroke-width="10"></path><path d="M939,80 L935,80 " stroke-width="10"></path><path d="M935,80 L933,80 " stroke-width="10"></path><path d="M933,80 L930,80 " stroke-width="10"></path><path d="M930,80 L926,80 " stroke-width="10"></path><path d="M926,80 L924,80 " stroke-width="10"></path><path d="M924,80 L918,80 " stroke-width="10"></path><path d="M918,80 L916,82 " stroke-width="10"></path><path d="M916,82 L914,87 " stroke-width="10"></path><path d="M914,87 L910,95 " stroke-width="10"></path><path d="M910,95 L909,98 " stroke-width="10"></path><path d="M909,98 L909,108 " stroke-width="10"></path><path d="M909,108 L909,114 " stroke-width="10"></path><path d="M909,114 L909,124 " stroke-width="10"></path><path d="M909,124 L909,141 " stroke-width="10"></path><path d="M909,141 L909,145 " stroke-width="10"></path><path d="M909,145 L910,158 " stroke-width="10"></path><path d="M910,158 L911,164 " stroke-width="10"></path><path d="M911,164 L913,174 " stroke-width="10"></path><path d="M913,174 L918,189 " stroke-width="10"></path><path d="M918,189 L920,193 " stroke-width="10"></path><path d="M920,193 L928,211 " stroke-width="10"></path><path d="M928,211 L930,217 " stroke-width="10"></path><path d="M930,217 L931,222 " stroke-width="10"></path><path d="M931,222 L931,225 " stroke-width="10"></path><path d="M931,225 L931,226 " stroke-width="10"></path><path d="M931,226 L931,227 " stroke-width="10"></path><path d="M931,227 L931,228 " stroke-width="10"></path><path d="M931,228 L928,228 " stroke-width="10"></path><path d="M928,228 L927,228 " stroke-width="10"></path><path d="M927,228 L916,228 " stroke-width="10"></path><path d="M916,228 L912,228 " stroke-width="10"></path><path d="M912,228 L902,224 " stroke-width="10"></path><path d="M902,224 L889,220 " stroke-width="10"></path><path d="M889,220 L883,218 " stroke-width="10"></path><path d="M883,218 L862,213 " stroke-width="10"></path><path d="M862,213 L855,211 " stroke-width="10"></path><path d="M855,211 L841,207 " stroke-width="10"></path><path d="M841,207 L818,202 " stroke-width="10"></path><path d="M818,202 L812,199 " stroke-width="10"></path><path d="M812,199 L792,193 " stroke-width="10"></path><path d="M792,193 L786,190 " stroke-width="10"></path><path d="M786,190 L776,185 " stroke-width="10"></path><path d="M776,185 L762,179 " stroke-width="10"></path><path d="M762,179 L759,177 " stroke-width="10"></path><path d="M759,177 L758,172 " stroke-width="10"></path><path d="M758,172 L758,168 " stroke-width="10"></path><path d="M758,168 L758,162 " stroke-width="10"></path><path d="M758,162 L758,148 " stroke-width="10"></path><path d="M758,148 L759,143 " stroke-width="10"></path><path d="M759,143 L765,128 " stroke-width="10"></path><path d="M765,128 L767,124 " stroke-width="10"></path><path d="M767,124 L774,115 " stroke-width="10"></path><path d="M774,115 L784,103 " stroke-width="10"></path><path d="M784,103 L788,101 " stroke-width="10"></path><path d="M788,101 L800,91 " stroke-width="10"></path><path d="M800,91 L806,89 " stroke-width="10"></path><path d="M806,89 L815,88 " stroke-width="10"></path><path d="M815,88 L834,88 " stroke-width="10"></path><path d="M834,88 L851,88 " stroke-width="10"></path><path d="M851,88 L857,88 " stroke-width="10"></path><path d="M857,88 L869,91 " stroke-width="10"></path><path d="M869,91 L885,98 " stroke-width="10"></path><path d="M885,98 L890,101 " stroke-width="10"></path><path d="M890,101 L905,111 " stroke-width="10"></path><path d="M905,111 L910,115 " stroke-width="10"></path><path d="M910,115 L920,122 " stroke-width="10"></path><path d="M920,122 L933,134 " stroke-width="10"></path><path d="M933,134 L937,138 " stroke-width="10"></path><path d="M937,138 L947,148 " stroke-width="10"></path><path d="M947,148 L950,152 " stroke-width="10"></path><path d="M950,152 L954,156 " stroke-width="10"></path><path d="M954,156 L958,166 " stroke-width="10"></path><path d="M958,166 L959,169 " stroke-width="10"></path><path d="M959,169 L959,171 " stroke-width="10"></path><path d="M959,171 L959,173 " stroke-width="10"></path><path d="M959,173 L959,177 " stroke-width="10"></path><path d="M959,177 L959,180 " stroke-width="10"></path><path d="M959,180 L958,181 " stroke-width="10"></path><path d="M958,181 L952,181 " stroke-width="10"></path><path d="M952,181 L951,181 " stroke-width="10"></path><path d="M951,181 L946,181 " stroke-width="10"></path><path d="M946,181 L936,181 " stroke-width="10"></path><path d="M936,181 L933,181 " stroke-width="10"></path><path d="M933,181 L924,181 " stroke-width="10"></path><path d="M924,181 L919,180 " stroke-width="10"></path><path d="M919,180 L911,179 " stroke-width="10"></path><path d="M911,179 L900,173 " stroke-width="10"></path><path d="M900,173 L896,172 " stroke-width="10"></path><path d="M896,172 L881,166 " stroke-width="10"></path><path d="M881,166 L878,163 " stroke-width="10"></path><path d="M878,163 L865,155 " stroke-width="10"></path><path d="M865,155 L862,153 " stroke-width="10"></path><path d="M862,153 L854,146 " stroke-width="10"></path><path d="M854,146 L842,137 " stroke-width="10"></path><path d="M842,137 L834,131 " stroke-width="10"></path><path d="M834,131 L827,125 " stroke-width="10"></path><path d="M827,125 L823,122 " stroke-width="10"></path><path d="M823,122 L812,118 " stroke-width="10"></path><path d="M812,118 L799,110 " stroke-width="10"></path><path d="M799,110 L796,108 " stroke-width="10"></path><path d="M796,108 L787,101 " stroke-width="10"></path><path d="M787,101 L783,100 " stroke-width="10"></path><path d="M783,100 L780,98 " stroke-width="10"></path><path d="M780,98 L776,94 " stroke-width="10"></path><path d="M776,94 L777,94 " stroke-width="10"></path><path d="M777,94 L780,94 " stroke-width="10"></path></g></svg>