<svg id="drawingSvg" xmlns="http://www.w3.org/2000/svg" version="1.1" xmlns:xlink="http://www.w3.org/1999/xlink" xmlns:svgjs="http://svgjs.com/svgjs" width="100%" height="700"><g><path d="M291 255 "></path><path d="M291,255 L311,250 " stroke-width="0.1"></path><path d="M311,250 L341,242 " stroke-width="0.3"></path><path d="M341,242 L360,237 " stroke-width="0.4"></path><path d="M360,237 L377,236 " stroke-width="0.6000000000000001"></path><path d="M377,236 L398,238 " stroke-width="0.7000000000000001"></path><path d="M398,238 L421,244 " stroke-width="0.8999999999999999"></path><path d="M421,244 L432,249 " stroke-width="0.9999999999999999"></path><path d="M432,249 L435,256 " stroke-width="1.1999999999999997"></path><path d="M435,256 L432,270 " stroke-width="1.2999999999999998"></path><path d="M432,270 L418,286 " stroke-width="1.5"></path><path d="M418,286 L390,300 " stroke-width="1.6"></path><path d="M390,300 L349,304 " stroke-width="1.8000000000000003"></path><path d="M349,304 L312,299 " stroke-width="1.9000000000000004"></path><path d="M312,299 L276,283 " stroke-width="2.1000000000000005"></path><path d="M276,283 L255,264 " stroke-width="2.2000000000000006"></path><path d="M255,264 L245,243 " stroke-width="2.400000000000001"></path><path d="M245,243 L247,223 " stroke-width="2.5000000000000004"></path><path d="M247,223 L257,210 " stroke-width="2.7000000000000006"></path><path d="M257,210 L273,204 " stroke-width="2.8000000000000007"></path><path d="M273,204 L296,203 " stroke-width="3.000000000000001"></path><path d="M296,203 L329,205 " stroke-width="3.100000000000001"></path><path d="M329,205 L367,214 " stroke-width="3.300000000000001"></path><path d="M367,214 L409,227 " stroke-width="3.4000000000000012"></path><path d="M409,227 L447,245 " stroke-width="3.6000000000000014"></path><path d="M447,245 L467,260 " stroke-width="3.7000000000000015"></path><path d="M467,260 L474,273 " stroke-width="3.9000000000000017"></path><path d="M474,273 L471,282 " stroke-width="4.000000000000002"></path><path d="M471,282 L466,287 " stroke-width="4.200000000000002"></path><path d="M466,287 L462,289 " stroke-width="4.3000000000000025"></path><path d="M462,289 L464,289 " stroke-width="4.500000000000003"></path><path d="M464,289 L469,286 " stroke-width="4.600000000000002"></path><path d="M469,286 L479,281 " stroke-width="4.8000000000000025"></path><path d="M479,281 L497,275 " stroke-width="4.900000000000003"></path><path d="M497,275 L522,274 " stroke-width="5.100000000000002"></path><path d="M522,274 L550,276 " stroke-width="5.200000000000003"></path><path d="M550,276 L578,283 " stroke-width="5.400000000000002"></path><path d="M578,283 L595,290 " stroke-width="5.500000000000003"></path><path d="M595,290 L606,295 " stroke-width="5.700000000000003"></path><path d="M606,295 L615,300 " stroke-width="5.8000000000000025"></path><path d="M615,300 L624,305 " stroke-width="6.0000000000000036"></path><path d="M624,305 L641,310 " stroke-width="6.100000000000003"></path><path d="M641,310 L668,315 " stroke-width="6.300000000000003"></path><path d="M668,315 L702,316 " stroke-width="6.400000000000004"></path><path d="M702,316 L744,313 " stroke-width="6.600000000000003"></path><path d="M744,313 L801,294 " stroke-width="6.700000000000004"></path><path d="M801,294 L802,292 " stroke-width="6.800000000000004"></path><path d="M802,292 L803,292 " stroke-width="7.0000000000000036"></path><path d="M803,292 L804,292 " stroke-width="7.100000000000004"></path><path d="M804,292 L805,293 " stroke-width="7.300000000000004"></path><path d="M805,293 L811,300 " stroke-width="7.400000000000004"></path><path d="M811,300 L819,314 " stroke-width="7.600000000000005"></path><path d="M819,314 L831,336 " stroke-width="7.700000000000005"></path><path d="M831,336 L842,356 " stroke-width="7.900000000000005"></path><path d="M842,356 L855,374 " stroke-width="8.000000000000005"></path><path d="M855,374 L869,387 " stroke-width="8.200000000000005"></path><path d="M869,387 L883,391 " stroke-width="8.300000000000004"></path><path d="M883,391 L898,392 " stroke-width="8.500000000000005"></path><path d="M898,392 L915,388 " stroke-width="8.600000000000005"></path><path d="M915,388 L930,379 " stroke-width="8.800000000000006"></path><path d="M930,379 L944,369 " stroke-width="8.900000000000006"></path><path d="M944,369 L954,359 " stroke-width="9.100000000000005"></path><path d="M954,359 L960,353 " stroke-width="9.200000000000006"></path><path d="M960,353 L962,350 " stroke-width="9.400000000000006"></path><path d="M962,350 L962,350 " stroke-width="9.500000000000007"></path></g><g><path d="M616 63 "></path><path d="M616,63 L615,63 " stroke-width="0.7000000000000001"></path><path d="M615,63 L614,63 " stroke-width="0.7000000000000001"></path><path d="M614,63 L609,64 " stroke-width="0.8999999999999999"></path><path d="M609,64 L597,65 " stroke-width="0.9999999999999999"></path><path d="M597,65 L586,70 " stroke-width="1.1999999999999997"></path><path d="M586,70 L575,77 " stroke-width="1.2999999999999998"></path><path d="M575,77 L566,85 " stroke-width="1.5"></path><path d="M566,85 L558,93 " stroke-width="1.6"></path><path d="M558,93 L550,100 " stroke-width="1.8000000000000003"></path><path d="M550,100 L545,108 " stroke-width="1.9000000000000004"></path><path d="M545,108 L541,115 " stroke-width="2.0000000000000004"></path><path d="M541,115 L539,123 " stroke-width="2.2000000000000006"></path><path d="M539,123 L536,133 " stroke-width="2.3000000000000007"></path><path d="M536,133 L536,141 " stroke-width="2.5000000000000004"></path><path d="M536,141 L536,149 " stroke-width="2.6000000000000005"></path><path d="M536,149 L537,156 " stroke-width="2.8000000000000007"></path><path d="M537,156 L539,162 " stroke-width="2.900000000000001"></path><path d="M539,162 L543,170 " stroke-width="3.100000000000001"></path><path d="M543,170 L548,179 " stroke-width="3.200000000000001"></path><path d="M548,179 L553,184 " stroke-width="3.4000000000000012"></path><path d="M553,184 L559,188 " stroke-width="3.5000000000000013"></path><path d="M559,188 L567,191 " stroke-width="3.7000000000000015"></path><path d="M567,191 L574,193 " stroke-width="3.8000000000000016"></path><path d="M574,193 L579,193 " stroke-width="4.000000000000002"></path><path d="M579,193 L583,193 " stroke-width="4.100000000000002"></path><path d="M583,193 L586,190 " stroke-width="4.3000000000000025"></path><path d="M586,190 L590,184 " stroke-width="4.400000000000002"></path><path d="M590,184 L592,175 " stroke-width="4.600000000000002"></path><path d="M592,175 L593,166 " stroke-width="4.700000000000003"></path><path d="M593,166 L590,159 " stroke-width="4.900000000000003"></path><path d="M590,159 L587,153 " stroke-width="5.000000000000002"></path><path d="M587,153 L584,149 " stroke-width="5.200000000000003"></path><path d="M584,149 L581,147 " stroke-width="5.3000000000000025"></path><path d="M581,147 L578,146 " stroke-width="5.500000000000003"></path><path d="M578,146 L576,145 " stroke-width="5.600000000000003"></path><path d="M576,145 L573,144 " stroke-width="5.8000000000000025"></path><path d="M573,144 L570,142 " stroke-width="5.900000000000003"></path><path d="M570,142 L567,142 " stroke-width="6.100000000000003"></path><path d="M567,142 L566,141 " stroke-width="6.200000000000003"></path><path d="M566,141 L565,141 " stroke-width="6.400000000000004"></path><path d="M565,141 L563,141 " stroke-width="6.5000000000000036"></path><path d="M563,141 L560,140 " stroke-width="6.700000000000004"></path><path d="M560,140 L557,140 " stroke-width="6.800000000000004"></path><path d="M557,140 L555,140 " stroke-width="6.900000000000004"></path><path d="M555,140 L552,140 " stroke-width="7.100000000000004"></path><path d="M552,140 L549,143 " stroke-width="7.200000000000005"></path><path d="M549,143 L546,148 " stroke-width="7.400000000000004"></path><path d="M546,148 L543,152 " stroke-width="7.500000000000004"></path><path d="M543,152 L541,155 " stroke-width="7.700000000000005"></path><path d="M541,155 L540,157 " stroke-width="7.800000000000004"></path><path d="M540,157 L539,158 " stroke-width="8.000000000000005"></path><path d="M539,158 L539,159 " stroke-width="8.100000000000005"></path><path d="M539,159 L538,160 " stroke-width="8.300000000000004"></path><path d="M538,160 L538,161 " stroke-width="8.400000000000006"></path><path d="M538,161 L538,162 " stroke-width="8.600000000000005"></path><path d="M538,162 L537,164 " stroke-width="8.700000000000006"></path><path d="M537,164 L537,166 " stroke-width="8.900000000000006"></path><path d="M537,166 L537,168 " stroke-width="9.100000000000005"></path></g><g><path d="M584 258 "></path></g><g><path d="M718 388 "></path><path d="M718,388 L717,388 " stroke-width="0.4"></path></g></svg>